<?xml version="1.0" encoding="UTF-8" standalone="no"?>
<!-- Created with Inkscape (http://www.inkscape.org/) -->

<svg
   xmlns:dc="http://purl.org/dc/elements/1.1/"
   xmlns:cc="http://creativecommons.org/ns#"
   xmlns:rdf="http://www.w3.org/1999/02/22-rdf-syntax-ns#"
   xmlns:svg="http://www.w3.org/2000/svg"
   xmlns="http://www.w3.org/2000/svg"
   xmlns:sodipodi="http://sodipodi.sourceforge.net/DTD/sodipodi-0.dtd"
   xmlns:inkscape="http://www.inkscape.org/namespaces/inkscape"
   width="200"
   height="200"
   viewBox="0 0 52.916666 52.916666"
   version="1.1"
   id="svg6613"
   inkscape:version="0.92.2 5c3e80d, 2017-08-06"
   sodipodi:docname="avengers.svg">
  <defs
     id="defs6607">
    <linearGradient
       x1="0"
       y1="0"
       x2="1"
       y2="0"
       gradientUnits="userSpaceOnUse"
       gradientTransform="matrix(-11.250824,-15.485443,-15.485443,11.250824,923.8938,417.98428)"
       spreadMethod="pad"
       id="linearGradient5269">
      <stop
         style="stop-opacity:1;stop-color:#fde140"
         offset="0"
         id="stop5259" />
      <stop
         style="stop-opacity:1;stop-color:#f58017"
         offset="0.570557"
         id="stop5261" />
      <stop
         style="stop-opacity:1;stop-color:#ee2223"
         offset="0.877304"
         id="stop5263" />
      <stop
         style="stop-opacity:1;stop-color:#ee2223"
         offset="0.88638358"
         id="stop5265" />
      <stop
         style="stop-opacity:1;stop-color:#ee2223"
         offset="1"
         id="stop5267" />
    </linearGradient>
  </defs>
  <sodipodi:namedview
     id="base"
     pagecolor="#ffffff"
     bordercolor="#666666"
     borderopacity="1.0"
     inkscape:pageopacity="0.0"
     inkscape:pageshadow="2"
     inkscape:zoom="1.979899"
     inkscape:cx="137.13888"
     inkscape:cy="193.1392"
     inkscape:document-units="mm"
     inkscape:current-layer="layer1"
     showgrid="false"
     units="px"
     inkscape:window-width="1680"
     inkscape:window-height="939"
     inkscape:window-x="0"
     inkscape:window-y="1"
     inkscape:window-maximized="1" />
  <metadata
     id="metadata6610">
    <rdf:RDF>
      <cc:Work
         rdf:about="">
        <dc:format>image/svg+xml</dc:format>
        <dc:type
           rdf:resource="http://purl.org/dc/dcmitype/StillImage" />
        <dc:title />
      </cc:Work>
    </rdf:RDF>
  </metadata>
  <g
     inkscape:label="Layer 1"
     inkscape:groupmode="layer"
     id="layer1"
     transform="translate(0,-244.08334)">
    <g
       id="g6320"
       transform="matrix(1.5441631,0,0,-1.5441631,-1374.1918,916.48299)">
      <g
         id="g6308">
        <g
           id="g5239"
           transform="translate(910.696,426.15359)">
          <path
             d="M 0,0 V 1.418 H -3.268 C -3.313,1.31 -3.421,1.032 -3.525,0.778 c -0.038,0 -0.075,0.002 -0.112,0.002 -4.89,0 -8.855,-3.965 -8.855,-8.857 0,-2.283 0.863,-4.362 2.281,-5.933 -0.044,-0.088 -0.075,-0.152 -0.073,-0.155 -0.487,-0.942 -0.925,-1.931 -1.345,-2.937 h 3.508 c 0.122,0.255 0.319,0.758 0.496,1.114 1.198,-0.604 2.554,-0.946 3.988,-0.946 4.892,0 8.859,3.965 8.859,8.857 C 5.222,-4.483 3.077,-1.388 0,0 m -3.35,-9.596 h -1.345 c 0.374,1.012 0.888,1.886 1.263,2.896 0.188,-0.806 0.031,-1.955 0.082,-2.896 m -0.805,9.022 c -0.143,-0.321 -0.326,-0.67 -0.375,-0.782 -1.597,-3.538 -3.432,-7.653 -5.098,-11.23 -0.943,1.256 -1.501,2.818 -1.501,4.509 0,3.97 3.075,7.219 6.974,7.503 M -3.607,-15.6 c -1.228,0 -2.388,0.295 -3.412,0.818 v 10e-4 c 0,0.004 0,0.004 -0.002,0.004 0.284,0.874 0.69,1.622 1.062,2.407 h 2.609 v -1.592 c 0.98,-0.163 2.239,-0.044 3.346,-0.08 0,3.978 0.008,8.487 0.018,12.56 2.326,-1.28 3.901,-3.752 3.901,-6.595 0,-4.155 -3.367,-7.523 -7.522,-7.523"
             style="fill:#231f20;fill-opacity:1;fill-rule:nonzero;stroke:none"
             id="path5241"
             inkscape:connector-curvature="0" />
        </g>
        <g
           id="g5243"
           transform="translate(910.696,426.15359)">
          <path
             d="M 0,0 V 1.418 H -3.268 C -3.313,1.31 -3.421,1.032 -3.525,0.778 c -0.038,0 -0.075,0.002 -0.112,0.002 -4.89,0 -8.855,-3.965 -8.855,-8.857 0,-2.283 0.863,-4.362 2.281,-5.933 -0.044,-0.088 -0.075,-0.152 -0.073,-0.155 -0.487,-0.942 -0.925,-1.931 -1.345,-2.937 h 3.508 c 0.122,0.255 0.319,0.758 0.496,1.114 1.198,-0.604 2.554,-0.946 3.988,-0.946 4.892,0 8.859,3.965 8.859,8.857 C 5.222,-4.483 3.077,-1.388 0,0 Z m -3.35,-9.596 h -1.345 c 0.374,1.012 0.888,1.886 1.263,2.896 0.188,-0.806 0.031,-1.955 0.082,-2.896 z m -0.805,9.022 c -0.143,-0.321 -0.326,-0.67 -0.375,-0.782 -1.597,-3.538 -3.432,-7.653 -5.098,-11.23 -0.943,1.256 -1.501,2.818 -1.501,4.509 0,3.97 3.075,7.219 6.974,7.503 z M -3.607,-15.6 c -1.228,0 -2.388,0.295 -3.412,0.818 v 10e-4 c 0,0.004 0,0.004 -0.002,0.004 0.284,0.874 0.69,1.622 1.062,2.407 h 2.609 v -1.592 c 0.98,-0.163 2.239,-0.044 3.346,-0.08 0,3.978 0.008,8.487 0.018,12.56 2.326,-1.28 3.901,-3.752 3.901,-6.595 0,-4.155 -3.367,-7.523 -7.522,-7.523 z"
             style="fill:none;stroke:#231f20;stroke-width:0.90799999;stroke-linecap:butt;stroke-linejoin:miter;stroke-miterlimit:10;stroke-dasharray:none;stroke-opacity:1"
             id="path5245"
             inkscape:connector-curvature="0" />
        </g>
        <g
           id="g5247">
          <g
             id="g5249">
            <g
               id="g5255">
              <g
                 id="g5257">
                <path
                   d="m 907.428,427.571 c -0.044,-0.108 -0.153,-0.386 -0.258,-0.639 v 0 c -0.037,0 -0.074,10e-4 -0.111,10e-4 v 0 c -4.89,0 -8.855,-3.964 -8.855,-8.857 v 0 c 0,-2.282 0.863,-4.361 2.281,-5.932 v 0 c -0.045,-0.089 -0.075,-0.153 -0.073,-0.156 v 0 c -0.488,-0.941 -0.925,-1.93 -1.345,-2.937 v 0 h 3.508 c 0.122,0.255 0.318,0.759 0.496,1.115 v 0 c 1.198,-0.605 2.554,-0.947 3.988,-0.947 v 0 c 4.892,0 8.858,3.966 8.858,8.857 v 0 c 0,3.595 -2.144,6.69 -5.221,8.078 v 0 1.417 z m -7.861,-9.495 c 0,3.971 3.074,7.22 6.974,7.503 v 0 c -0.143,-0.321 -0.326,-0.67 -0.375,-0.782 v 0 c -1.598,-3.538 -3.432,-7.653 -5.098,-11.23 v 0 c -0.943,1.257 -1.501,2.818 -1.501,4.509 m 11.143,6.596 c 2.326,-1.28 3.902,-3.753 3.902,-6.596 v 0 c 0,-4.154 -3.368,-7.522 -7.523,-7.522 v 0 c -1.228,0 -2.387,0.294 -3.412,0.817 v 0 0.002 c 0,0.003 0,0.003 -10e-4,0.003 v 0 c 0.283,0.874 0.689,1.622 1.061,2.407 v 0 h 2.609 v -1.591 c 0.632,-0.105 1.38,-0.094 2.13,-0.081 v 0 c 0.411,0.006 0.824,0.013 1.217,0.001 v 0 c 0,3.978 0.006,8.487 0.017,12.56 m -3.445,-5.218 c 0.187,-0.806 0.029,-1.956 0.081,-2.896 v 0 h -1.345 c 0.374,1.011 0.888,1.885 1.264,2.896"
                   style="fill:url(#linearGradient5269);stroke:none"
                   id="path5271"
                   inkscape:connector-curvature="0" />
              </g>
            </g>
          </g>
        </g>
      </g>
    </g>
  </g>
</svg>
