<?xml version="1.0" encoding="UTF-8" standalone="no"?>
<!-- Created with Inkscape (http://www.inkscape.org/) -->

<svg
   xmlns:dc="http://purl.org/dc/elements/1.1/"
   xmlns:cc="http://creativecommons.org/ns#"
   xmlns:rdf="http://www.w3.org/1999/02/22-rdf-syntax-ns#"
   xmlns:svg="http://www.w3.org/2000/svg"
   xmlns="http://www.w3.org/2000/svg"
   xmlns:sodipodi="http://sodipodi.sourceforge.net/DTD/sodipodi-0.dtd"
   xmlns:inkscape="http://www.inkscape.org/namespaces/inkscape"
   width="200"
   height="200"
   viewBox="0 0 52.916665 52.916668"
   version="1.1"
   id="svg2461"
   inkscape:version="0.92.2 5c3e80d, 2017-08-06"
   sodipodi:docname="cabal.svg">
  <defs
     id="defs2455">
    <radialGradient
       fx="0"
       fy="0"
       cx="0"
       cy="0"
       r="1"
       gradientUnits="userSpaceOnUse"
       gradientTransform="matrix(9.1844501,0,0,-9.1844501,48.73233,449.45261)"
       spreadMethod="pad"
       id="radialGradient393">
      <stop
         style="stop-opacity:1;stop-color:#66a2dd"
         offset="0"
         id="stop387" />
      <stop
         style="stop-opacity:1;stop-color:#28409d"
         offset="0.510503"
         id="stop389" />
      <stop
         style="stop-opacity:1;stop-color:#ec008c"
         offset="1"
         id="stop391" />
    </radialGradient>
    <radialGradient
       fx="0"
       fy="0"
       cx="0"
       cy="0"
       r="1"
       gradientUnits="userSpaceOnUse"
       gradientTransform="matrix(4.3376498,0,0,-4.3376498,48.786041,452.32516)"
       spreadMethod="pad"
       id="radialGradient419">
      <stop
         style="stop-opacity:1;stop-color:#8e6abc"
         offset="0"
         id="stop413" />
      <stop
         style="stop-opacity:1;stop-color:#66a2dd"
         offset="0.550462"
         id="stop415" />
      <stop
         style="stop-opacity:1;stop-color:#825bb3"
         offset="1"
         id="stop417" />
    </radialGradient>
    <clipPath
       clipPathUnits="userSpaceOnUse"
       id="clipPath429">
      <path
         d="M 0,0 H 531 V 801 H 0 Z"
         id="path427"
         inkscape:connector-curvature="0" />
    </clipPath>
    <linearGradient
       x1="0"
       y1="0"
       x2="1"
       y2="0"
       gradientUnits="userSpaceOnUse"
       gradientTransform="matrix(0,2.5330143,2.5330143,0,42.535126,449.72263)"
       spreadMethod="pad"
       id="linearGradient455">
      <stop
         style="stop-opacity:1;stop-color:#6c459e"
         offset="0"
         id="stop447" />
      <stop
         style="stop-opacity:1;stop-color:#ef2ea1"
         offset="0.618383"
         id="stop449" />
      <stop
         style="stop-opacity:1;stop-color:#ef2ea1"
         offset="0.6466229"
         id="stop451" />
      <stop
         style="stop-opacity:1;stop-color:#ef2ea1"
         offset="1"
         id="stop453" />
    </linearGradient>
    <clipPath
       clipPathUnits="userSpaceOnUse"
       id="clipPath465">
      <path
         d="M 0,0 H 531 V 801 H 0 Z"
         id="path463"
         inkscape:connector-curvature="0" />
    </clipPath>
    <clipPath
       clipPathUnits="userSpaceOnUse"
       id="clipPath677">
      <path
         d="M 0,0 H 531 V 801 H 0 Z"
         id="path675"
         inkscape:connector-curvature="0" />
    </clipPath>
    <clipPath
       clipPathUnits="userSpaceOnUse"
       id="clipPath709">
      <path
         d="M 0,0 H 531 V 801 H 0 Z"
         id="path707"
         inkscape:connector-curvature="0" />
    </clipPath>
    <clipPath
       clipPathUnits="userSpaceOnUse"
       id="clipPath733">
      <path
         d="M 0,0 H 531 V 801 H 0 Z"
         id="path731"
         inkscape:connector-curvature="0" />
    </clipPath>
  </defs>
  <sodipodi:namedview
     id="base"
     pagecolor="#ffffff"
     bordercolor="#666666"
     borderopacity="1.0"
     inkscape:pageopacity="0.0"
     inkscape:pageshadow="2"
     inkscape:zoom="0.35"
     inkscape:cx="-1230"
     inkscape:cy="560"
     inkscape:document-units="mm"
     inkscape:current-layer="layer1"
     showgrid="false"
     units="px"
     inkscape:window-width="1680"
     inkscape:window-height="936"
     inkscape:window-x="0"
     inkscape:window-y="1"
     inkscape:window-maximized="1" />
  <metadata
     id="metadata2458">
    <rdf:RDF>
      <cc:Work
         rdf:about="">
        <dc:format>image/svg+xml</dc:format>
        <dc:type
           rdf:resource="http://purl.org/dc/dcmitype/StillImage" />
        <dc:title />
      </cc:Work>
    </rdf:RDF>
  </metadata>
  <g
     inkscape:label="Layer 1"
     inkscape:groupmode="layer"
     id="layer1"
     transform="translate(0,-244.08332)">
    <g
       transform="translate(-2.6267841e-6,-1.8707424e-5)"
       id="layer1-9"
       inkscape:label="Layer 1">
      <g
         transform="matrix(4.8708043,0,0,4.8708043,-288.94971,-990.56059)"
         id="g2453">
        <g
           id="g375"
           transform="matrix(0.35277777,0,0,-0.35277777,47.563148,417.44048)">
          <g
             id="g377">
            <g
               id="g383">
              <g
                 id="g385">
                <path
                   d="m 38.914,457.955 9.645,-16.704 h 0.347 l 9.453,16.372 v 0.332 z"
                   style="fill:url(#radialGradient393);stroke:none"
                   id="path395"
                   inkscape:connector-curvature="0" />
              </g>
            </g>
          </g>
        </g>
        <g
           id="g397"
           transform="matrix(0.35277777,0,0,-0.35277777,64.754818,261.99005)">
          <path
             d="M 0,0 -10.08,17.459 H 10.08 Z M -9.557,17.157 0,0.604 9.557,17.157 Z"
             style="fill:#231f20;fill-opacity:1;fill-rule:nonzero;stroke:none"
             id="path399"
             inkscape:connector-curvature="0" />
        </g>
        <g
           id="g401"
           transform="matrix(0.35277777,0,0,-0.35277777,47.563148,417.44048)">
          <g
             id="g403">
            <g
               id="g409">
              <g
                 id="g411">
                <path
                   d="m 44.449,452.325 c 0,-2.395 1.942,-4.337 4.338,-4.337 v 0 c 2.395,0 4.337,1.942 4.337,4.337 v 0 c 0,2.395 -1.942,4.337 -4.337,4.337 v 0 c -2.396,0 -4.338,-1.942 -4.338,-4.337"
                   style="fill:url(#radialGradient419);stroke:none"
                   id="path421"
                   inkscape:connector-curvature="0" />
              </g>
            </g>
          </g>
        </g>
        <g
           id="g423"
           transform="matrix(0.35277777,0,0,-0.35277777,47.563148,417.44048)">
          <g
             id="g425"
             clip-path="url(#clipPath429)">
            <g
               id="g431"
               transform="translate(48.787,447.8365)">
              <path
                 d="m 0,0 c -2.476,0 -4.489,2.014 -4.489,4.488 0,2.475 2.013,4.489 4.489,4.489 2.475,0 4.488,-2.014 4.488,-4.489 C 4.488,2.014 2.475,0 0,0 m 0,8.674 c -2.309,0 -4.187,-1.878 -4.187,-4.186 0,-2.308 1.878,-4.186 4.187,-4.186 2.308,0 4.186,1.878 4.186,4.186 0,2.308 -1.878,4.186 -4.186,4.186"
                 style="fill:#231f20;fill-opacity:1;fill-rule:nonzero;stroke:none"
                 id="path433"
                 inkscape:connector-curvature="0" />
            </g>
          </g>
        </g>
        <g
           id="g435"
           transform="matrix(0.35277777,0,0,-0.35277777,47.563148,417.44048)">
          <g
             id="g437">
            <g
               id="g443">
              <g
                 id="g445">
                <path
                   d="m 44.547,451.961 c 0.62,-1.102 2.349,-2.238 4.323,-2.238 v 0 c 1.959,-0.001 3.523,1.135 4.15,2.234 v 0 c -0.625,0.914 -2.191,1.862 -4.154,1.862 v 0 c -1.97,0 -3.695,-0.942 -4.319,-1.858 m 8.473,-0.004 c 0.009,-0.013 0.017,-0.026 0.025,-0.038 v 0 l 0.003,0.087 c -0.009,-0.016 -0.018,-0.033 -0.028,-0.049 m -8.485,-0.015 c 0.004,0.006 0.009,0.013 0.012,0.019 v 0 c -0.002,0.006 -0.006,0.012 -0.009,0.017 v 0 z"
                   style="fill:url(#linearGradient455);stroke:none"
                   id="path457"
                   inkscape:connector-curvature="0" />
              </g>
            </g>
          </g>
        </g>
        <g
           id="g459"
           transform="matrix(0.35277777,0,0,-0.35277777,47.563148,417.44048)">
          <g
             id="g461"
             clip-path="url(#clipPath465)">
            <g
               id="g467"
               transform="translate(48.87,449.6279)">
              <path
                 d="m 0,0 v 0 c -2.041,0 -3.798,1.187 -4.414,2.305 l 0.165,0.091 C -3.658,1.326 -1.969,0.189 0,0.189 c 1.977,0 3.508,1.159 4.095,2.235 L 4.261,2.333 C 3.648,1.209 2.054,0 0,0"
                 style="fill:#231f20;fill-opacity:1;fill-rule:nonzero;stroke:none"
                 id="path469"
                 inkscape:connector-curvature="0" />
            </g>
            <g
               id="g471"
               transform="translate(46.3046,456.9604)">
              <path
                 d="M 0,0 C 0,0.346 0.281,0.626 0.627,0.626 0.974,0.626 1.254,0.346 1.254,0 1.254,-0.346 0.974,-0.627 0.627,-0.627 0.281,-0.627 0,-0.346 0,0"
                 style="fill:#483498;fill-opacity:1;fill-rule:nonzero;stroke:none"
                 id="path473"
                 inkscape:connector-curvature="0" />
            </g>
            <g
               id="g475"
               transform="translate(46.9315,456.2378)">
              <path
                 d="m 0,0 c -0.398,0 -0.723,0.324 -0.723,0.723 0,0.398 0.325,0.722 0.723,0.722 0.398,0 0.723,-0.324 0.723,-0.722 C 0.723,0.324 0.398,0 0,0 m 0,1.253 c -0.293,0 -0.53,-0.237 -0.53,-0.53 0,-0.293 0.237,-0.531 0.53,-0.531 0.293,0 0.531,0.238 0.531,0.531 0,0.293 -0.238,0.53 -0.531,0.53"
                 style="fill:#231f20;fill-opacity:1;fill-rule:nonzero;stroke:none"
                 id="path477"
                 inkscape:connector-curvature="0" />
            </g>
            <g
               id="g479"
               transform="translate(47.6005,457.2529)">
              <path
                 d="M 0,0 C 0,0.346 0.28,0.626 0.627,0.626 0.973,0.626 1.253,0.346 1.253,0 1.253,-0.346 0.973,-0.626 0.627,-0.626 0.28,-0.626 0,-0.346 0,0"
                 style="fill:#483498;fill-opacity:1;fill-rule:nonzero;stroke:none"
                 id="path481"
                 inkscape:connector-curvature="0" />
            </g>
            <g
               id="g483"
               transform="translate(48.2274,456.5302)">
              <path
                 d="m 0,0 c -0.398,0 -0.723,0.324 -0.723,0.723 0,0.398 0.325,0.722 0.723,0.722 0.397,0 0.722,-0.324 0.722,-0.722 C 0.722,0.324 0.397,0 0,0 m 0,1.253 c -0.293,0 -0.531,-0.238 -0.531,-0.53 0,-0.293 0.238,-0.531 0.531,-0.531 0.292,0 0.53,0.238 0.53,0.531 0,0.292 -0.238,0.53 -0.53,0.53"
                 style="fill:#231f20;fill-opacity:1;fill-rule:nonzero;stroke:none"
                 id="path485"
                 inkscape:connector-curvature="0" />
            </g>
            <g
               id="g487"
               transform="translate(48.8954,457.2666)">
              <path
                 d="M 0,0 C 0,0.346 0.28,0.627 0.627,0.627 0.973,0.627 1.254,0.346 1.254,0 1.254,-0.346 0.973,-0.626 0.627,-0.626 0.28,-0.626 0,-0.346 0,0"
                 style="fill:#5f48a7;fill-opacity:1;fill-rule:nonzero;stroke:none"
                 id="path489"
                 inkscape:connector-curvature="0" />
            </g>
            <g
               id="g491"
               transform="translate(49.5224,456.5444)">
              <path
                 d="m 0,0 c -0.398,0 -0.723,0.324 -0.723,0.722 0,0.399 0.325,0.723 0.723,0.723 0.398,0 0.723,-0.324 0.723,-0.723 C 0.723,0.324 0.398,0 0,0 m 0,1.253 c -0.293,0 -0.531,-0.238 -0.531,-0.531 0,-0.292 0.238,-0.531 0.531,-0.531 0.293,0 0.53,0.239 0.53,0.531 0,0.293 -0.237,0.531 -0.53,0.531"
                 style="fill:#231f20;fill-opacity:1;fill-rule:nonzero;stroke:none"
                 id="path493"
                 inkscape:connector-curvature="0" />
            </g>
            <g
               id="g495"
               transform="translate(50.1493,456.9048)">
              <path
                 d="M 0,0 C 0,0.346 0.28,0.626 0.626,0.626 0.973,0.626 1.253,0.346 1.253,0 1.253,-0.346 0.973,-0.627 0.626,-0.627 0.28,-0.627 0,-0.346 0,0"
                 style="fill:#5f48a7;fill-opacity:1;fill-rule:nonzero;stroke:none"
                 id="path497"
                 inkscape:connector-curvature="0" />
            </g>
            <g
               id="g499"
               transform="translate(50.7753,456.1821)">
              <path
                 d="m 0,0 c -0.398,0 -0.723,0.324 -0.723,0.723 0,0.398 0.325,0.722 0.723,0.722 0.398,0 0.723,-0.324 0.723,-0.722 C 0.723,0.324 0.398,0 0,0 m 0,1.253 c -0.292,0 -0.53,-0.238 -0.53,-0.53 0,-0.293 0.238,-0.532 0.53,-0.532 0.293,0 0.531,0.239 0.531,0.532 0,0.292 -0.238,0.53 -0.531,0.53"
                 style="fill:#231f20;fill-opacity:1;fill-rule:nonzero;stroke:none"
                 id="path501"
                 inkscape:connector-curvature="0" />
            </g>
            <g
               id="g503"
               transform="translate(51.3329,456.1806)">
              <path
                 d="M 0,0 C 0,0.346 0.28,0.626 0.626,0.626 0.973,0.626 1.253,0.346 1.253,0 1.253,-0.346 0.973,-0.627 0.626,-0.627 0.28,-0.627 0,-0.346 0,0"
                 style="fill:#5f48a7;fill-opacity:1;fill-rule:nonzero;stroke:none"
                 id="path505"
                 inkscape:connector-curvature="0" />
            </g>
            <g
               id="g507"
               transform="translate(51.9589,455.4579)">
              <path
                 d="m 0,0 c -0.398,0 -0.723,0.324 -0.723,0.723 0,0.398 0.325,0.722 0.723,0.722 0.398,0 0.723,-0.324 0.723,-0.722 C 0.723,0.324 0.398,0 0,0 m 0,1.254 c -0.292,0 -0.53,-0.239 -0.53,-0.531 0,-0.293 0.238,-0.532 0.53,-0.532 0.293,0 0.531,0.239 0.531,0.532 0,0.292 -0.238,0.531 -0.531,0.531"
                 style="fill:#231f20;fill-opacity:1;fill-rule:nonzero;stroke:none"
                 id="path509"
                 inkscape:connector-curvature="0" />
            </g>
            <g
               id="g511"
               transform="translate(52.1962,455.1919)">
              <path
                 d="M 0,0 C 0,0.346 0.28,0.626 0.627,0.626 0.973,0.626 1.253,0.346 1.253,0 1.253,-0.346 0.973,-0.627 0.627,-0.627 0.28,-0.627 0,-0.346 0,0"
                 style="fill:#8d78c3;fill-opacity:1;fill-rule:nonzero;stroke:none"
                 id="path513"
                 inkscape:connector-curvature="0" />
            </g>
            <g
               id="g515"
               transform="translate(52.8232,454.4692)">
              <path
                 d="m 0,0 c -0.398,0 -0.723,0.324 -0.723,0.723 0,0.398 0.325,0.722 0.723,0.722 0.398,0 0.723,-0.324 0.723,-0.722 C 0.723,0.324 0.398,0 0,0 m 0,1.253 c -0.293,0 -0.531,-0.238 -0.531,-0.53 0,-0.293 0.238,-0.532 0.531,-0.532 0.292,0 0.53,0.239 0.53,0.532 0,0.292 -0.238,0.53 -0.53,0.53"
                 style="fill:#231f20;fill-opacity:1;fill-rule:nonzero;stroke:none"
                 id="path517"
                 inkscape:connector-curvature="0" />
            </g>
            <g
               id="g519"
               transform="translate(52.8085,453.9941)">
              <path
                 d="M 0,0 C 0,0.346 0.281,0.626 0.627,0.626 0.974,0.626 1.254,0.346 1.254,0 1.254,-0.346 0.974,-0.627 0.627,-0.627 0.281,-0.627 0,-0.346 0,0"
                 style="fill:#8d78c3;fill-opacity:1;fill-rule:nonzero;stroke:none"
                 id="path521"
                 inkscape:connector-curvature="0" />
            </g>
            <g
               id="g523"
               transform="translate(53.4354,453.2715)">
              <path
                 d="m 0,0 c -0.398,0 -0.723,0.324 -0.723,0.723 0,0.398 0.325,0.722 0.723,0.722 0.398,0 0.723,-0.324 0.723,-0.722 C 0.723,0.324 0.398,0 0,0 m 0,1.253 c -0.293,0 -0.53,-0.238 -0.53,-0.53 0,-0.293 0.237,-0.532 0.53,-0.532 0.293,0 0.531,0.239 0.531,0.532 0,0.292 -0.238,0.53 -0.531,0.53"
                 style="fill:#231f20;fill-opacity:1;fill-rule:nonzero;stroke:none"
                 id="path525"
                 inkscape:connector-curvature="0" />
            </g>
            <g
               id="g527"
               transform="translate(53.1288,452.7129)">
              <path
                 d="M 0,0 C 0,0.346 0.281,0.626 0.627,0.626 0.974,0.626 1.254,0.346 1.254,0 1.254,-0.346 0.974,-0.627 0.627,-0.627 0.281,-0.627 0,-0.346 0,0"
                 style="fill:#8b97d4;fill-opacity:1;fill-rule:nonzero;stroke:none"
                 id="path529"
                 inkscape:connector-curvature="0" />
            </g>
            <g
               id="g531"
               transform="translate(53.7558,451.9902)">
              <path
                 d="m 0,0 c -0.398,0 -0.723,0.324 -0.723,0.723 0,0.398 0.325,0.722 0.723,0.722 0.398,0 0.723,-0.324 0.723,-0.722 C 0.723,0.324 0.398,0 0,0 m 0,1.253 c -0.293,0 -0.531,-0.238 -0.531,-0.53 0,-0.293 0.238,-0.532 0.531,-0.532 0.293,0 0.531,0.239 0.531,0.532 0,0.292 -0.238,0.53 -0.531,0.53"
                 style="fill:#231f20;fill-opacity:1;fill-rule:nonzero;stroke:none"
                 id="path533"
                 inkscape:connector-curvature="0" />
            </g>
            <g
               id="g535"
               transform="translate(53.0878,451.3896)">
              <path
                 d="M 0,0 C 0,0.346 0.28,0.627 0.626,0.627 0.973,0.627 1.253,0.346 1.253,0 1.253,-0.346 0.973,-0.626 0.626,-0.626 0.28,-0.626 0,-0.346 0,0"
                 style="fill:#8b97d4;fill-opacity:1;fill-rule:nonzero;stroke:none"
                 id="path537"
                 inkscape:connector-curvature="0" />
            </g>
            <g
               id="g539"
               transform="translate(53.7138,450.6674)">
              <path
                 d="m 0,0 c -0.398,0 -0.723,0.324 -0.723,0.722 0,0.399 0.325,0.723 0.723,0.723 0.398,0 0.723,-0.324 0.723,-0.723 C 0.723,0.324 0.398,0 0,0 m 0,1.253 c -0.293,0 -0.53,-0.238 -0.53,-0.531 0,-0.292 0.237,-0.531 0.53,-0.531 0.293,0 0.531,0.239 0.531,0.531 0,0.293 -0.238,0.531 -0.531,0.531"
                 style="fill:#231f20;fill-opacity:1;fill-rule:nonzero;stroke:none"
                 id="path541"
                 inkscape:connector-curvature="0" />
            </g>
            <g
               id="g543"
               transform="translate(52.6835,450.164)">
              <path
                 d="M 0,0 C 0,0.346 0.28,0.627 0.627,0.627 0.973,0.627 1.254,0.346 1.254,0 1.254,-0.346 0.973,-0.626 0.627,-0.626 0.28,-0.626 0,-0.346 0,0"
                 style="fill:#8b97d4;fill-opacity:1;fill-rule:nonzero;stroke:none"
                 id="path545"
                 inkscape:connector-curvature="0" />
            </g>
            <g
               id="g547"
               transform="translate(53.3104,449.4419)">
              <path
                 d="m 0,0 c -0.398,0 -0.723,0.324 -0.723,0.722 0,0.399 0.325,0.723 0.723,0.723 0.398,0 0.723,-0.324 0.723,-0.723 C 0.723,0.324 0.398,0 0,0 m 0,1.253 c -0.293,0 -0.531,-0.238 -0.531,-0.531 0,-0.292 0.238,-0.531 0.531,-0.531 0.293,0 0.53,0.239 0.53,0.531 0,0.293 -0.237,0.531 -0.53,0.531"
                 style="fill:#231f20;fill-opacity:1;fill-rule:nonzero;stroke:none"
                 id="path549"
                 inkscape:connector-curvature="0" />
            </g>
            <g
               id="g551"
               transform="translate(51.9735,449.0497)">
              <path
                 d="M 0,0 C 0,0.346 0.28,0.627 0.627,0.627 0.973,0.627 1.253,0.346 1.253,0 1.253,-0.346 0.973,-0.626 0.627,-0.626 0.28,-0.626 0,-0.346 0,0"
                 style="fill:#8b97d4;fill-opacity:1;fill-rule:nonzero;stroke:none"
                 id="path553"
                 inkscape:connector-curvature="0" />
            </g>
            <g
               id="g555"
               transform="translate(52.6005,448.3276)">
              <path
                 d="m 0,0 c -0.398,0 -0.723,0.324 -0.723,0.722 0,0.399 0.325,0.723 0.723,0.723 0.397,0 0.722,-0.324 0.722,-0.723 C 0.722,0.324 0.397,0 0,0 m 0,1.253 c -0.293,0 -0.531,-0.238 -0.531,-0.531 0,-0.292 0.238,-0.531 0.531,-0.531 0.292,0 0.53,0.239 0.53,0.531 0,0.293 -0.238,0.531 -0.53,0.531"
                 style="fill:#231f20;fill-opacity:1;fill-rule:nonzero;stroke:none"
                 id="path557"
                 inkscape:connector-curvature="0" />
            </g>
            <g
               id="g559"
               transform="translate(50.9706,448.1451)">
              <path
                 d="M 0,0 C 0,0.346 0.28,0.626 0.627,0.626 0.973,0.626 1.253,0.346 1.253,0 1.253,-0.346 0.973,-0.627 0.627,-0.627 0.28,-0.627 0,-0.346 0,0"
                 style="fill:#8b97d4;fill-opacity:1;fill-rule:nonzero;stroke:none"
                 id="path561"
                 inkscape:connector-curvature="0" />
            </g>
            <g
               id="g563"
               transform="translate(51.5976,447.4223)">
              <path
                 d="m 0,0 c -0.398,0 -0.723,0.324 -0.723,0.723 0,0.398 0.325,0.722 0.723,0.722 0.398,0 0.723,-0.324 0.723,-0.722 C 0.723,0.324 0.398,0 0,0 m 0,1.253 c -0.293,0 -0.531,-0.238 -0.531,-0.53 0,-0.293 0.238,-0.532 0.531,-0.532 0.292,0 0.53,0.239 0.53,0.532 0,0.292 -0.238,0.53 -0.53,0.53"
                 style="fill:#231f20;fill-opacity:1;fill-rule:nonzero;stroke:none"
                 id="path565"
                 inkscape:connector-curvature="0" />
            </g>
            <g
               id="g567"
               transform="translate(49.745,447.5737)">
              <path
                 d="M 0,0 C 0,0.346 0.28,0.627 0.627,0.627 0.973,0.627 1.253,0.346 1.253,0 1.253,-0.346 0.973,-0.626 0.627,-0.626 0.28,-0.626 0,-0.346 0,0"
                 style="fill:#8b97d4;fill-opacity:1;fill-rule:nonzero;stroke:none"
                 id="path569"
                 inkscape:connector-curvature="0" />
            </g>
            <g
               id="g571"
               transform="translate(50.372,446.8515)">
              <path
                 d="m 0,0 c -0.398,0 -0.723,0.324 -0.723,0.722 0,0.399 0.325,0.723 0.723,0.723 0.398,0 0.722,-0.324 0.722,-0.723 C 0.722,0.324 0.398,0 0,0 m 0,1.253 c -0.293,0 -0.531,-0.238 -0.531,-0.531 0,-0.293 0.238,-0.531 0.531,-0.531 0.292,0 0.53,0.238 0.53,0.531 0,0.293 -0.238,0.531 -0.53,0.531"
                 style="fill:#231f20;fill-opacity:1;fill-rule:nonzero;stroke:none"
                 id="path573"
                 inkscape:connector-curvature="0" />
            </g>
            <g
               id="g575"
               transform="translate(48.4081,447.3091)">
              <path
                 d="M 0,0 C 0,0.346 0.28,0.627 0.626,0.627 0.973,0.627 1.253,0.346 1.253,0 1.253,-0.346 0.973,-0.626 0.626,-0.626 0.28,-0.626 0,-0.346 0,0"
                 style="fill:#8b97d4;fill-opacity:1;fill-rule:nonzero;stroke:none"
                 id="path577"
                 inkscape:connector-curvature="0" />
            </g>
            <g
               id="g579"
               transform="translate(49.0341,446.5868)">
              <path
                 d="m 0,0 c -0.398,0 -0.722,0.324 -0.722,0.722 0,0.399 0.324,0.723 0.722,0.723 0.398,0 0.723,-0.324 0.723,-0.723 C 0.723,0.324 0.398,0 0,0 m 0,1.253 c -0.292,0 -0.53,-0.238 -0.53,-0.531 0,-0.293 0.238,-0.53 0.53,-0.53 0.293,0 0.531,0.237 0.531,0.53 0,0.293 -0.238,0.531 -0.531,0.531"
                 style="fill:#231f20;fill-opacity:1;fill-rule:nonzero;stroke:none"
                 id="path581"
                 inkscape:connector-curvature="0" />
            </g>
            <g
               id="g583"
               transform="translate(47.0292,447.4482)">
              <path
                 d="M 0,0 C 0,0.346 0.28,0.627 0.627,0.627 0.973,0.627 1.253,0.346 1.253,0 1.253,-0.346 0.973,-0.626 0.627,-0.626 0.28,-0.626 0,-0.346 0,0"
                 style="fill:#8d78c3;fill-opacity:1;fill-rule:nonzero;stroke:none"
                 id="path585"
                 inkscape:connector-curvature="0" />
            </g>
            <g
               id="g587"
               transform="translate(47.6563,446.726)">
              <path
                 d="m 0,0 c -0.398,0 -0.723,0.324 -0.723,0.722 0,0.399 0.325,0.723 0.723,0.723 0.397,0 0.722,-0.324 0.722,-0.723 C 0.722,0.324 0.397,0 0,0 m 0,1.253 c -0.293,0 -0.531,-0.238 -0.531,-0.531 0,-0.292 0.238,-0.531 0.531,-0.531 0.292,0 0.53,0.239 0.53,0.531 0,0.293 -0.238,0.531 -0.53,0.531"
                 style="fill:#231f20;fill-opacity:1;fill-rule:nonzero;stroke:none"
                 id="path589"
                 inkscape:connector-curvature="0" />
            </g>
            <g
               id="g591"
               transform="translate(45.8174,447.9633)">
              <path
                 d="M 0,0 C 0,0.346 0.281,0.627 0.627,0.627 0.973,0.627 1.254,0.346 1.254,0 1.254,-0.346 0.973,-0.627 0.627,-0.627 0.281,-0.627 0,-0.346 0,0"
                 style="fill:#8d78c3;fill-opacity:1;fill-rule:nonzero;stroke:none"
                 id="path593"
                 inkscape:connector-curvature="0" />
            </g>
            <g
               id="g595"
               transform="translate(46.4442,447.2411)">
              <path
                 d="m 0,0 c -0.398,0 -0.723,0.324 -0.723,0.722 0,0.399 0.325,0.723 0.723,0.723 0.398,0 0.723,-0.324 0.723,-0.723 C 0.723,0.324 0.398,0 0,0 m 0,1.253 c -0.293,0 -0.531,-0.238 -0.531,-0.531 0,-0.292 0.238,-0.53 0.531,-0.53 0.293,0 0.53,0.238 0.53,0.53 0,0.293 -0.237,0.531 -0.53,0.531"
                 style="fill:#231f20;fill-opacity:1;fill-rule:nonzero;stroke:none"
                 id="path597"
                 inkscape:connector-curvature="0" />
            </g>
            <g
               id="g599"
               transform="translate(44.7587,448.6181)">
              <path
                 d="M 0,0 C 0,0.346 0.281,0.627 0.627,0.627 0.973,0.627 1.254,0.346 1.254,0 1.254,-0.346 0.973,-0.626 0.627,-0.626 0.281,-0.626 0,-0.346 0,0"
                 style="fill:#5f48a7;fill-opacity:1;fill-rule:nonzero;stroke:none"
                 id="path601"
                 inkscape:connector-curvature="0" />
            </g>
            <g
               id="g603"
               transform="translate(45.3857,447.896)">
              <path
                 d="m 0,0 c -0.398,0 -0.723,0.324 -0.723,0.722 0,0.399 0.325,0.723 0.723,0.723 0.398,0 0.723,-0.324 0.723,-0.723 C 0.723,0.324 0.398,0 0,0 m 0,1.253 c -0.293,0 -0.531,-0.238 -0.531,-0.531 0,-0.292 0.238,-0.531 0.531,-0.531 0.293,0 0.531,0.239 0.531,0.531 0,0.293 -0.238,0.531 -0.531,0.531"
                 style="fill:#231f20;fill-opacity:1;fill-rule:nonzero;stroke:none"
                 id="path605"
                 inkscape:connector-curvature="0" />
            </g>
            <g
               id="g607"
               transform="translate(43.9374,449.5791)">
              <path
                 d="M 0,0 C 0,0.346 0.28,0.627 0.626,0.627 0.973,0.627 1.253,0.346 1.253,0 1.253,-0.346 0.973,-0.626 0.626,-0.626 0.28,-0.626 0,-0.346 0,0"
                 style="fill:#5f48a7;fill-opacity:1;fill-rule:nonzero;stroke:none"
                 id="path609"
                 inkscape:connector-curvature="0" />
            </g>
            <g
               id="g611"
               transform="translate(44.5634,448.8569)">
              <path
                 d="m 0,0 c -0.398,0 -0.722,0.324 -0.722,0.722 0,0.399 0.324,0.723 0.722,0.723 0.398,0 0.723,-0.324 0.723,-0.723 C 0.723,0.324 0.398,0 0,0 m 0,1.253 c -0.292,0 -0.53,-0.238 -0.53,-0.531 0,-0.292 0.238,-0.531 0.53,-0.531 0.293,0 0.531,0.239 0.531,0.531 0,0.293 -0.238,0.531 -0.531,0.531"
                 style="fill:#231f20;fill-opacity:1;fill-rule:nonzero;stroke:none"
                 id="path613"
                 inkscape:connector-curvature="0" />
            </g>
            <g
               id="g615"
               transform="translate(43.3799,450.7212)">
              <path
                 d="M 0,0 C 0,0.346 0.281,0.626 0.627,0.626 0.974,0.626 1.254,0.346 1.254,0 1.254,-0.346 0.974,-0.627 0.627,-0.627 0.281,-0.627 0,-0.346 0,0"
                 style="fill:#5f48a7;fill-opacity:1;fill-rule:nonzero;stroke:none"
                 id="path617"
                 inkscape:connector-curvature="0" />
            </g>
            <g
               id="g619"
               transform="translate(44.0067,449.9985)">
              <path
                 d="m 0,0 c -0.398,0 -0.723,0.324 -0.723,0.723 0,0.398 0.325,0.722 0.723,0.722 0.398,0 0.723,-0.324 0.723,-0.722 C 0.723,0.324 0.398,0 0,0 m 0,1.253 c -0.293,0 -0.53,-0.237 -0.53,-0.53 0,-0.293 0.237,-0.531 0.53,-0.531 0.293,0 0.531,0.238 0.531,0.531 0,0.293 -0.238,0.53 -0.531,0.53"
                 style="fill:#231f20;fill-opacity:1;fill-rule:nonzero;stroke:none"
                 id="path621"
                 inkscape:connector-curvature="0" />
            </g>
            <g
               id="g623"
               transform="translate(43.1435,451.8633)">
              <path
                 d="M 0,0 C 0,0.346 0.28,0.626 0.627,0.626 0.973,0.626 1.253,0.346 1.253,0 1.253,-0.346 0.973,-0.627 0.627,-0.627 0.28,-0.627 0,-0.346 0,0"
                 style="fill:#5f48a7;fill-opacity:1;fill-rule:nonzero;stroke:none"
                 id="path625"
                 inkscape:connector-curvature="0" />
            </g>
            <g
               id="g627"
               transform="translate(43.7704,451.1407)">
              <path
                 d="m 0,0 c -0.398,0 -0.723,0.324 -0.723,0.723 0,0.398 0.325,0.722 0.723,0.722 0.398,0 0.722,-0.324 0.722,-0.722 C 0.722,0.324 0.398,0 0,0 m 0,1.253 c -0.293,0 -0.531,-0.238 -0.531,-0.53 0,-0.293 0.238,-0.532 0.531,-0.532 0.292,0 0.53,0.239 0.53,0.532 0,0.292 -0.238,0.53 -0.53,0.53"
                 style="fill:#231f20;fill-opacity:1;fill-rule:nonzero;stroke:none"
                 id="path629"
                 inkscape:connector-curvature="0" />
            </g>
            <g
               id="g631"
               transform="translate(43.1991,453.1445)">
              <path
                 d="M 0,0 C 0,0.346 0.28,0.626 0.627,0.626 0.973,0.626 1.254,0.346 1.254,0 1.254,-0.346 0.973,-0.627 0.627,-0.627 0.28,-0.627 0,-0.346 0,0"
                 style="fill:#5f48a7;fill-opacity:1;fill-rule:nonzero;stroke:none"
                 id="path633"
                 inkscape:connector-curvature="0" />
            </g>
            <g
               id="g635"
               transform="translate(43.8261,452.4218)">
              <path
                 d="m 0,0 c -0.398,0 -0.723,0.324 -0.723,0.723 0,0.398 0.325,0.722 0.723,0.722 0.398,0 0.723,-0.324 0.723,-0.722 C 0.723,0.324 0.398,0 0,0 m 0,1.253 c -0.293,0 -0.531,-0.238 -0.531,-0.53 0,-0.293 0.238,-0.532 0.531,-0.532 0.293,0 0.53,0.239 0.53,0.532 0,0.292 -0.237,0.53 -0.53,0.53"
                 style="fill:#231f20;fill-opacity:1;fill-rule:nonzero;stroke:none"
                 id="path637"
                 inkscape:connector-curvature="0" />
            </g>
            <g
               id="g639"
               transform="translate(43.5888,454.3559)">
              <path
                 d="M 0,0 C 0,0.346 0.281,0.627 0.627,0.627 0.973,0.627 1.254,0.346 1.254,0 1.254,-0.346 0.973,-0.626 0.627,-0.626 0.281,-0.626 0,-0.346 0,0"
                 style="fill:#483498;fill-opacity:1;fill-rule:nonzero;stroke:none"
                 id="path641"
                 inkscape:connector-curvature="0" />
            </g>
            <g
               id="g643"
               transform="translate(44.2157,453.6338)">
              <path
                 d="m 0,0 c -0.398,0 -0.723,0.324 -0.723,0.722 0,0.399 0.325,0.723 0.723,0.723 0.398,0 0.723,-0.324 0.723,-0.723 C 0.723,0.324 0.398,0 0,0 m 0,1.253 c -0.293,0 -0.53,-0.238 -0.53,-0.531 0,-0.292 0.237,-0.531 0.53,-0.531 0.293,0 0.531,0.239 0.531,0.531 0,0.293 -0.238,0.531 -0.531,0.531"
                 style="fill:#231f20;fill-opacity:1;fill-rule:nonzero;stroke:none"
                 id="path645"
                 inkscape:connector-curvature="0" />
            </g>
            <g
               id="g647"
               transform="translate(44.244,455.4565)">
              <path
                 d="M 0,0 C 0,0.346 0.28,0.626 0.626,0.626 0.973,0.626 1.253,0.346 1.253,0 1.253,-0.346 0.973,-0.627 0.626,-0.627 0.28,-0.627 0,-0.346 0,0"
                 style="fill:#483498;fill-opacity:1;fill-rule:nonzero;stroke:none"
                 id="path649"
                 inkscape:connector-curvature="0" />
            </g>
            <g
               id="g651"
               transform="translate(44.87,454.7339)">
              <path
                 d="m 0,0 c -0.398,0 -0.723,0.324 -0.723,0.723 0,0.398 0.325,0.722 0.723,0.722 0.398,0 0.723,-0.324 0.723,-0.722 C 0.723,0.324 0.398,0 0,0 m 0,1.253 c -0.292,0 -0.53,-0.238 -0.53,-0.53 0,-0.293 0.238,-0.532 0.53,-0.532 0.293,0 0.531,0.239 0.531,0.532 0,0.292 -0.238,0.53 -0.531,0.53"
                 style="fill:#231f20;fill-opacity:1;fill-rule:nonzero;stroke:none"
                 id="path653"
                 inkscape:connector-curvature="0" />
            </g>
            <g
               id="g655"
               transform="translate(45.1483,456.3061)">
              <path
                 d="M 0,0 C 0,0.346 0.281,0.627 0.627,0.627 0.974,0.627 1.254,0.346 1.254,0 1.254,-0.346 0.974,-0.627 0.627,-0.627 0.281,-0.627 0,-0.346 0,0"
                 style="fill:#483498;fill-opacity:1;fill-rule:nonzero;stroke:none"
                 id="path657"
                 inkscape:connector-curvature="0" />
            </g>
            <g
               id="g659"
               transform="translate(45.7753,455.5835)">
              <path
                 d="m 0,0 c -0.398,0 -0.723,0.324 -0.723,0.723 0,0.398 0.325,0.722 0.723,0.722 0.398,0 0.723,-0.324 0.723,-0.722 C 0.723,0.324 0.398,0 0,0 m 0,1.253 c -0.293,0 -0.53,-0.238 -0.53,-0.53 0,-0.293 0.237,-0.532 0.53,-0.532 0.293,0 0.531,0.239 0.531,0.532 0,0.292 -0.238,0.53 -0.531,0.53"
                 style="fill:#231f20;fill-opacity:1;fill-rule:nonzero;stroke:none"
                 id="path661"
                 inkscape:connector-curvature="0" />
            </g>
          </g>
        </g>
        <g
           id="g663"
           transform="matrix(0.35277777,0,0,-0.35277777,64.940878,258.8032)">
          <path
             d="M 0,0 0.265,-0.975 0.307,0.056 Z"
             style="fill:#231f20;fill-opacity:1;fill-rule:nonzero;stroke:none"
             id="path665"
             inkscape:connector-curvature="0" />
        </g>
        <g
           id="g667"
           transform="matrix(0.35277777,0,0,-0.35277777,65.127568,258.76859)">
          <path
             d="M 0,0 0.32,-0.836 0.307,0.055 Z"
             style="fill:#231f20;fill-opacity:1;fill-rule:nonzero;stroke:none"
             id="path669"
             inkscape:connector-curvature="0" />
        </g>
        <g
           id="g671"
           transform="matrix(0.35277777,0,0,-0.35277777,47.563148,417.44048)">
          <g
             id="g673"
             clip-path="url(#clipPath677)">
            <g
               id="g679"
               transform="translate(48.2987,449.7085)">
              <path
                 d="m 0,0 h 0.251 c 0,0 -0.126,-1.003 -0.14,-0.961 C 0.098,-0.919 0,0 0,0"
                 style="fill:#231f20;fill-opacity:1;fill-rule:nonzero;stroke:none"
                 id="path681"
                 inkscape:connector-curvature="0" />
            </g>
          </g>
        </g>
        <g
           id="g683"
           transform="matrix(0.35277777,0,0,-0.35277777,64.375728,259.04894)">
          <path
             d="M 0,0 0.391,0.767 0,0.823 Z"
             style="fill:#231f20;fill-opacity:1;fill-rule:nonzero;stroke:none"
             id="path685"
             inkscape:connector-curvature="0" />
        </g>
        <g
           id="g687"
           transform="matrix(0.35277777,0,0,-0.35277777,65.358388,258.71969)">
          <path
             d="M 0,0 0.558,-0.668 0.363,0.139 Z"
             style="fill:#231f20;fill-opacity:1;fill-rule:nonzero;stroke:none"
             id="path689"
             inkscape:connector-curvature="0" />
        </g>
        <g
           id="g691"
           transform="matrix(0.35277777,0,0,-0.35277777,64.076008,258.94067)">
          <path
             d="M 0,0 0.376,0.668 0.085,0.752 Z"
             style="fill:#231f20;fill-opacity:1;fill-rule:nonzero;stroke:none"
             id="path693"
             inkscape:connector-curvature="0" />
        </g>
        <g
           id="g695"
           transform="matrix(0.35277777,0,0,-0.35277777,63.860108,258.84733)">
          <path
             d="M 0,0 0.515,0.571 0.181,0.766 Z"
             style="fill:#231f20;fill-opacity:1;fill-rule:nonzero;stroke:none"
             id="path697"
             inkscape:connector-curvature="0" />
        </g>
        <g
           id="g699"
           transform="matrix(0.35277777,0,0,-0.35277777,65.579688,258.62127)">
          <path
             d="M 0,0 0.571,-0.516 0.334,0.181 Z"
             style="fill:#231f20;fill-opacity:1;fill-rule:nonzero;stroke:none"
             id="path701"
             inkscape:connector-curvature="0" />
        </g>
        <g
           id="g703"
           transform="matrix(0.35277777,0,0,-0.35277777,47.563148,417.44048)">
          <g
             id="g705"
             clip-path="url(#clipPath709)">
            <g
               id="g711"
               transform="translate(48.7304,449.6949)">
              <path
                 d="M 0,0 C 0.069,-0.014 0.39,0.014 0.39,0.014 L 0.278,-0.892 Z"
                 style="fill:#231f20;fill-opacity:1;fill-rule:nonzero;stroke:none"
                 id="path713"
                 inkscape:connector-curvature="0" />
            </g>
          </g>
        </g>
        <g
           id="g715"
           transform="matrix(0.35277777,0,0,-0.35277777,65.810508,258.48887)">
          <path
             d="M 0,0 0.557,-0.403 0.251,0.167 Z"
             style="fill:#231f20;fill-opacity:1;fill-rule:nonzero;stroke:none"
             id="path717"
             inkscape:connector-curvature="0" />
        </g>
        <g
           id="g719"
           transform="matrix(0.35277777,0,0,-0.35277777,65.958778,258.37013)">
          <path
             d="M 0,0 0.621,-0.091 0.262,0.263 Z"
             style="fill:#231f20;fill-opacity:1;fill-rule:nonzero;stroke:none"
             id="path721"
             inkscape:connector-curvature="0" />
        </g>
        <g
           id="g723"
           transform="matrix(0.35277777,0,0,-0.35277777,63.697858,258.70985)">
          <path
             d="M 0,0 0.473,0.391 0.153,0.613 Z"
             style="fill:#231f20;fill-opacity:1;fill-rule:nonzero;stroke:none"
             id="path725"
             inkscape:connector-curvature="0" />
        </g>
        <g
           id="g727"
           transform="matrix(0.35277777,0,0,-0.35277777,47.563148,417.44048)">
          <g
             id="g729"
             clip-path="url(#clipPath733)">
            <g
               id="g735"
               transform="translate(45.3769,450.9991)">
              <path
                 d="m 0,0 c 0.016,-0.046 0.333,-0.257 0.333,-0.257 l -0.469,-0.47 z"
                 style="fill:#231f20;fill-opacity:1;fill-rule:nonzero;stroke:none"
                 id="path737"
                 inkscape:connector-curvature="0" />
            </g>
          </g>
        </g>
      </g>
    </g>
  </g>
</svg>
