<?xml version="1.0" encoding="UTF-8" standalone="no"?>
<svg
   xmlns:dc="http://purl.org/dc/elements/1.1/"
   xmlns:cc="http://creativecommons.org/ns#"
   xmlns:rdf="http://www.w3.org/1999/02/22-rdf-syntax-ns#"
   xmlns:svg="http://www.w3.org/2000/svg"
   xmlns="http://www.w3.org/2000/svg"
   xmlns:sodipodi="http://sodipodi.sourceforge.net/DTD/sodipodi-0.dtd"
   xmlns:inkscape="http://www.inkscape.org/namespaces/inkscape"
   id="svg8"
   version="1.1"
   viewBox="0 0 52.916665 52.916668"
   height="200"
   width="200"
   sodipodi:docname="heroes-of-asgard.svg"
   inkscape:version="0.92.4 (5da689c313, 2019-01-14)">
  <sodipodi:namedview
     pagecolor="#ffffff"
     bordercolor="#666666"
     borderopacity="1"
     objecttolerance="10"
     gridtolerance="10"
     guidetolerance="10"
     inkscape:pageopacity="0"
     inkscape:pageshadow="2"
     inkscape:window-width="1215"
     inkscape:window-height="749"
     id="namedview7"
     showgrid="false"
     inkscape:zoom="2.36"
     inkscape:cx="76.94565"
     inkscape:cy="80.013971"
     inkscape:window-x="402"
     inkscape:window-y="128"
     inkscape:window-maximized="0"
     inkscape:current-layer="svg8" />
  <defs
     id="defs2">
    <clipPath
       clipPathUnits="userSpaceOnUse"
       id="clipPath54">
      <path
         d="M 0,0 H 504 V 720 H 0 Z"
         id="path52"
         inkscape:connector-curvature="0" />
    </clipPath>
  </defs>
  <metadata
     id="metadata5">
    <rdf:RDF>
      <cc:Work
         rdf:about="">
        <dc:format>image/svg+xml</dc:format>
        <dc:type
           rdf:resource="http://purl.org/dc/dcmitype/StillImage" />
        <dc:title />
      </cc:Work>
    </rdf:RDF>
  </metadata>
  <g
     transform="matrix(1.4605715,0,0,-1.4605715,-34.428365,842.76912)"
     id="g48">
    <g
       id="g50"
       clip-path="url(#clipPath54)">
      <g
         id="g56"
         transform="translate(36.4053,566.9543)">
        <path
           d="m 0,0 c 4.45,2.95 10.448,1.732 13.398,-2.718 2.948,-4.451 1.731,-10.448 -2.719,-13.397 -4.45,-2.949 -10.448,-1.731 -13.397,2.719 C -5.667,-8.947 -4.45,-2.948 0,0"
           style="fill:#4b78c5;fill-opacity:1;fill-rule:nonzero;stroke:none"
           id="path58"
           inkscape:connector-curvature="0" />
      </g>
      <g
         id="g60"
         transform="translate(51.9219,558.9117)">
        <path
           d="m 0,0 c -0.003,2.734 -1.072,5.303 -3.007,7.233 -1.936,1.931 -4.507,2.992 -7.241,2.988 -2.734,-0.003 -5.303,-1.071 -7.233,-3.007 -1.931,-1.936 -2.992,-4.506 -2.989,-7.241 0.005,-2.734 1.072,-5.302 3.008,-7.233 1.935,-1.93 4.507,-2.991 7.24,-2.988 2.735,0.003 5.303,1.072 7.234,3.007 C -1.057,-5.305 0.003,-2.734 0,0 m -10.224,-8.845 c -0.667,-0.002 -1.323,0.072 -1.96,0.214 l -0.997,1.079 -1.486,-0.072 -0.011,-0.027 c -0.647,0.378 -1.249,0.841 -1.794,1.384 -1.67,1.666 -2.592,3.883 -2.595,6.243 -0.003,2.358 0.912,4.577 2.579,6.249 1.665,1.67 3.882,2.592 6.242,2.594 2.359,0.003 4.578,-0.912 6.249,-2.579 1.67,-1.666 2.592,-3.882 2.596,-6.242 0.002,-2.359 -0.913,-4.578 -2.58,-6.248 -1.666,-1.672 -3.883,-2.593 -6.243,-2.595 m 5.863,12.054 -1.659,-4.055 -1.127,0.462 -0.221,0.514 -4.586,1.877 -0.519,-0.212 -1.128,0.461 1.659,4.055 z m -5.115,3.43 0.265,0.647 3.587,-1.468 -0.265,-0.647 z m -3.32,0.861 -2.247,-5.492 -0.701,1.452 1.43,3.494 z M -2.203,1.999 -3.634,-1.495 -5.152,-2.04 -2.904,3.452 Z m -10.241,5.511 -2.355,-5.756 1.114,-0.457 1.019,-0.416 0.522,0.266 0.287,-0.117 -0.169,-0.411 3.735,-1.529 0.168,0.411 0.287,-0.116 0.185,-0.557 1.02,-0.417 1.114,-0.455 2.355,5.755 z m 5.554,-8.496 -0.524,0.213 -0.237,0.602 -4.265,1.745 -0.59,-0.262 -0.573,0.234 -1.12,0.459 2.006,4.905 8.432,-3.45 -2.008,-4.906 z m -3.598,0.095 -1.45,-0.011 0.401,0.981 2.496,-1.022 -0.401,-0.979 z m -0.49,-1.276 -1.456,10e-4 0.364,0.888 1.485,0.072 1.01,-1.094 -0.363,-0.887 z m -0.511,-1.248 -1.456,10e-4 0.364,0.888 1.486,0.072 1.009,-1.094 -0.363,-0.887 z m -0.524,-1.281 h -1.457 l 0.363,0.887 1.487,0.073 1.01,-1.094 -0.363,-0.887 z m -0.54,-1.32 -1.457,0.001 0.364,0.888 1.487,0.072 1.009,-1.094 -0.363,-0.887 z m 0.903,-1.354 -0.363,-0.887 -1.038,1.021 -1.457,10e-4 0.363,0.887 1.486,0.072 z"
           style="fill:#ffffff;fill-opacity:1;fill-rule:nonzero;stroke:none"
           id="path62"
           inkscape:connector-curvature="0" />
      </g>
    </g>
  </g>
</svg>
