<?xml version="1.0" encoding="UTF-8" standalone="no"?>
<!-- Created with Inkscape (http://www.inkscape.org/) -->

<svg
   xmlns:dc="http://purl.org/dc/elements/1.1/"
   xmlns:cc="http://creativecommons.org/ns#"
   xmlns:rdf="http://www.w3.org/1999/02/22-rdf-syntax-ns#"
   xmlns:svg="http://www.w3.org/2000/svg"
   xmlns="http://www.w3.org/2000/svg"
   xmlns:sodipodi="http://sodipodi.sourceforge.net/DTD/sodipodi-0.dtd"
   xmlns:inkscape="http://www.inkscape.org/namespaces/inkscape"
   width="200"
   height="200"
   viewBox="0 0 52.916666 52.916666"
   version="1.1"
   id="svg6613"
   inkscape:version="0.92.2 5c3e80d, 2017-08-06"
   sodipodi:docname="hydra.svg">
  <defs
     id="defs6607">
    <clipPath
       clipPathUnits="userSpaceOnUse"
       id="clipPath2478">
      <path
         d="M 0,0 H 576 V 576 H 0 Z"
         id="path2476"
         inkscape:connector-curvature="0" />
    </clipPath>
  </defs>
  <sodipodi:namedview
     id="base"
     pagecolor="#ffffff"
     bordercolor="#666666"
     borderopacity="1.0"
     inkscape:pageopacity="0.0"
     inkscape:pageshadow="2"
     inkscape:zoom="1.979899"
     inkscape:cx="-73.47792"
     inkscape:cy="71.920895"
     inkscape:document-units="mm"
     inkscape:current-layer="layer1"
     showgrid="false"
     units="px"
     inkscape:window-width="1680"
     inkscape:window-height="936"
     inkscape:window-x="0"
     inkscape:window-y="1"
     inkscape:window-maximized="1" />
  <metadata
     id="metadata6610">
    <rdf:RDF>
      <cc:Work
         rdf:about="">
        <dc:format>image/svg+xml</dc:format>
        <dc:type
           rdf:resource="http://purl.org/dc/dcmitype/StillImage" />
        <dc:title />
      </cc:Work>
    </rdf:RDF>
  </metadata>
  <g
     inkscape:label="Layer 1"
     inkscape:groupmode="layer"
     id="layer1"
     transform="translate(0,-244.08334)">
    <g
       transform="matrix(1.4880952,0,0,-1.4880952,-436.23511,653.02678)"
       id="g2472">
      <g
         id="g2474"
         clip-path="url(#clipPath2478)">
        <g
           id="g2480"
           transform="translate(301.5318,257.0398)">
          <path
             d="m 0,0 c 0,5.172 4.193,9.364 9.365,9.364 5.171,0 9.364,-4.192 9.364,-9.364 0,-5.172 -4.193,-9.364 -9.364,-9.364 C 4.193,-9.364 0,-5.172 0,0"
             style="fill:#e3182c;fill-opacity:1;fill-rule:nonzero;stroke:none"
             id="path2482"
             inkscape:connector-curvature="0" />
        </g>
        <g
           id="g2484"
           transform="translate(310.93,267.11)">
          <path
             d="m 0,0 c -5.558,0 -10.08,-4.522 -10.08,-10.08 0,-5.558 4.522,-10.08 10.08,-10.08 5.558,0 10.08,4.522 10.08,10.08 C 10.08,-4.522 5.558,0 0,0 m 0,-19.095 c -4.971,0 -9.015,4.044 -9.015,9.015 0,4.971 4.044,9.016 9.015,9.016 4.971,0 9.016,-4.045 9.016,-9.016 0,-4.971 -4.045,-9.015 -9.016,-9.015 m -1.089,11.279 c 0,0 -0.128,-0.053 -0.243,-0.025 l -0.497,0.24 c 0,0 -0.023,0.051 -0.023,0.078 0,0.028 0.018,0.374 0.02,0.38 0,0 0.027,0.119 0.124,0.192 0.153,0.115 0.294,0.135 0.441,0.1 0,0 0.287,-0.063 0.882,-0.462 0,0 0.066,-0.048 0.01,-0.099 0,0 -0.154,-0.208 -0.714,-0.404 m 1.332,-0.867 c 0.055,0.02 0.122,0.081 0.122,0.081 0.09,0.063 0.066,0.166 0.066,0.166 L 0.304,-8.118 C 0.179,-7.818 0,-7.591 0,-7.591 c 0,0 -0.179,-0.227 -0.304,-0.527 l -0.127,-0.318 c 0,0 -0.024,-0.103 0.066,-0.166 0,0 0.067,-0.061 0.122,-0.081 0,0 0.047,-0.01 0.068,0.017 l 0.123,0.123 c 0,0 0.015,0.016 0.052,0.016 0.038,0 0.052,-0.016 0.052,-0.016 l 0.123,-0.123 c 0.021,-0.027 0.068,-0.017 0.068,-0.017 m 0.846,0.867 c 0,0 0.128,-0.053 0.243,-0.025 l 0.497,0.24 c 0,0 0.023,0.051 0.023,0.078 0,0.028 -0.018,0.374 -0.02,0.38 0,0 -0.027,0.119 -0.124,0.192 -0.153,0.115 -0.294,0.135 -0.441,0.1 0,0 -0.287,-0.063 -0.882,-0.462 0,0 -0.066,-0.048 -0.01,-0.099 0,0 0.154,-0.208 0.714,-0.404 m 7.072,-2.264 c 0,-2.179 -0.849,-4.227 -2.391,-5.768 -1.541,-1.54 -3.59,-2.389 -5.77,-2.389 -2.18,0 -4.229,0.849 -5.77,2.389 -1.542,1.541 -2.39,3.589 -2.39,5.768 0,2.179 0.848,4.227 2.39,5.768 1.541,1.54 3.59,2.389 5.77,2.389 2.18,0 4.229,-0.849 5.77,-2.389 1.542,-1.541 2.391,-3.589 2.391,-5.768 M 2.883,-8.375 C 2.813,-8.586 2.698,-8.789 2.565,-8.943 L 1.705,-8.972 1.349,-9.639 C 1.617,-9.722 1.903,-9.74 2.182,-9.707 l 0.919,0.451 c 0.32,0.161 0.545,0.386 0.605,0.724 l 0.361,1.317 c 0.187,0.593 0.776,0.946 1.33,0.914 l 0.26,-0.012 0.008,-0.075 C 5.74,-6.443 5.817,-6.494 5.902,-6.532 l 0.099,0.074 C 6.082,-6.519 6.164,-6.579 6.244,-6.64 L 6.182,-6.734 c 0.034,-0.094 0.083,-0.174 0.146,-0.236 0.048,0.012 0.099,0.02 0.158,0.015 0.043,-0.093 0.07,-0.194 0.087,-0.301 L 6.432,-7.285 C 6.423,-7.368 6.421,-7.45 6.427,-7.531 6.478,-7.564 6.53,-7.595 6.589,-7.62 6.576,-7.713 6.553,-7.804 6.521,-7.893 6.465,-7.892 6.416,-7.882 6.37,-7.867 6.311,-7.917 6.264,-7.974 6.225,-8.035 6.241,-8.094 6.282,-8.161 6.323,-8.202 6.259,-8.275 6.187,-8.344 6.108,-8.407 L 5.979,-8.299 5.775,-8.379 C 5.776,-8.439 5.774,-8.503 5.779,-8.559 5.662,-8.581 5.587,-8.57 5.492,-8.574 L 5.477,-8.498 5.25,-8.438 5.156,-8.536 C 5.062,-8.51 4.981,-8.468 4.897,-8.428 L 4.913,-8.312 4.73,-8.186 H 4.672 l -0.125,0.131 0.005,-0.179 0.105,-0.148 0.737,-0.53 c 0.284,-0.06 0.567,-0.122 0.857,-0.166 0.258,0.176 0.555,0.311 0.847,0.431 0.04,0.372 0.038,0.816 -0.002,1.15 -0.087,0.366 -0.203,0.711 -0.34,1.04 -0.034,0.084 -0.088,0.16 -0.158,0.191 L 5.367,-5.702 H 4.73 L 4.704,-5.775 C 4.584,-5.792 4.46,-5.833 4.37,-5.875 L 4.276,-5.807 C 4.154,-5.847 4.045,-5.9 3.962,-5.974 L 3.949,-6.12 C 3.853,-6.19 3.77,-6.266 3.703,-6.352 L 3.548,-6.314 C 3.465,-6.41 3.397,-6.523 3.36,-6.623 L 3.43,-6.719 C 3.369,-6.81 3.332,-6.905 3.312,-7.003 L 3.095,-7.028 C 3.05,-7.135 3.006,-7.258 2.996,-7.36 L 3.135,-7.505 C 3.085,-7.622 3.062,-7.749 3.047,-7.851 L 2.824,-7.884 C 2.775,-7.992 2.744,-8.099 2.73,-8.206 Z m -9.981,-0.272 c 0.292,-0.12 0.589,-0.255 0.847,-0.431 0.29,0.044 0.573,0.106 0.857,0.166 l 0.737,0.53 0.105,0.148 0.005,0.179 -0.125,-0.131 H -4.73 l -0.183,-0.126 0.016,-0.116 c -0.084,-0.04 -0.165,-0.082 -0.259,-0.108 l -0.094,0.098 -0.227,-0.06 -0.015,-0.076 c -0.095,0.004 -0.17,-0.007 -0.288,0.015 0.006,0.056 0.004,0.12 0.005,0.18 l -0.204,0.08 -0.13,-0.108 c -0.078,0.063 -0.149,0.132 -0.213,0.205 0.04,0.041 0.081,0.108 0.097,0.167 -0.039,0.061 -0.086,0.118 -0.144,0.168 -0.047,-0.015 -0.096,-0.025 -0.152,-0.026 -0.032,0.089 -0.055,0.18 -0.068,0.273 0.059,0.025 0.111,0.056 0.162,0.089 0.006,0.081 0.004,0.163 -0.005,0.246 l -0.141,0.029 c 0.017,0.107 0.044,0.208 0.087,0.301 0.059,0.005 0.11,-0.003 0.158,-0.015 0.064,0.062 0.112,0.142 0.146,0.236 l -0.062,0.094 c 0.081,0.061 0.162,0.121 0.243,0.182 l 0.099,-0.074 c 0.085,0.038 0.162,0.089 0.237,0.144 l 0.008,0.075 0.26,0.012 c 0.554,0.032 1.143,-0.321 1.33,-0.914 l 0.361,-1.317 c 0.061,-0.338 0.285,-0.563 0.605,-0.724 l 0.919,-0.451 c 0.279,-0.033 0.565,-0.015 0.833,0.068 l -0.356,0.667 -0.86,0.029 c -0.133,0.154 -0.248,0.357 -0.318,0.568 l 0.153,0.169 c -0.014,0.107 -0.045,0.214 -0.094,0.322 l -0.223,0.033 c -0.015,0.102 -0.038,0.229 -0.088,0.346 l 0.139,0.145 c -0.01,0.102 -0.054,0.225 -0.099,0.332 l -0.217,0.025 c -0.02,0.098 -0.057,0.193 -0.118,0.284 l 0.07,0.096 c -0.037,0.1 -0.105,0.213 -0.188,0.309 l -0.155,-0.038 c -0.067,0.086 -0.15,0.162 -0.246,0.232 l -0.013,0.146 c -0.083,0.074 -0.192,0.127 -0.313,0.167 L -4.37,-5.875 c -0.09,0.042 -0.214,0.083 -0.334,0.1 l -0.026,0.073 h -0.637 l -1.23,-0.564 c -0.071,-0.031 -0.125,-0.107 -0.159,-0.191 -0.137,-0.329 -0.253,-0.674 -0.339,-1.04 -0.041,-0.334 -0.043,-0.778 -0.003,-1.15 m 2.767,-5.796 c 0.184,0.298 0.228,0.424 0.541,1.198 0.375,0.821 0.381,0.938 0.395,1.044 0.008,0.064 0.004,0.122 -0.026,0.203 -0.057,0.159 -0.124,0.299 -0.183,0.408 -0.107,0.254 -0.182,0.251 -0.191,0.254 -0.005,0.002 0.063,-0.071 0.063,-0.146 0,-0.075 -0.043,-0.098 -0.085,-0.119 -0.009,-0.075 0.024,-0.346 0.024,-0.346 l 0.144,-0.008 c 0.004,-0.08 0.002,-0.273 -0.013,-0.389 -0.021,0 -0.175,-0.015 -0.175,-0.015 l -0.073,-0.309 0.058,-0.079 c -0.062,-0.191 -0.123,-0.263 -0.194,-0.304 l -0.155,0.088 c -0.102,-0.059 -0.183,-0.13 -0.252,-0.209 0,0 0.056,-0.08 0.051,-0.19 -0.03,-0.029 -0.187,-0.116 -0.366,-0.118 -0.035,0.109 -0.085,0.157 -0.105,0.186 -0.108,-0.008 -0.219,-0.013 -0.326,-0.036 -0.021,-0.069 -0.033,-0.18 -0.034,-0.192 -0.15,0.003 -0.301,0.045 -0.371,0.068 l -0.019,0.261 -0.282,0.105 c 0,0 -0.084,-0.083 -0.137,-0.104 -0.125,0.042 -0.291,0.314 -0.291,0.314 l 0.13,0.142 -0.178,0.301 c 0,0 -0.096,-0.016 -0.138,-0.011 -0.042,0.005 -0.079,0.432 -0.079,0.432 l 0.114,0.027 v 0.383 l -0.058,0.036 0.02,0.098 c 0.461,0.81 0.623,1.016 1.572,1.263 l 0.256,-0.005 c 0.853,-0.293 1.638,-0.62 2.416,-0.97 0.057,-0.011 0.143,-0.016 0.272,0.004 l 0.985,0.424 c 0.265,0.148 0.517,0.279 0.731,0.362 l -0.012,0.299 c -0.228,0.123 -0.684,0.31 -0.684,0.31 -0.47,-0.367 -0.901,-0.608 -0.961,-0.608 -0.06,0 -0.112,0.04 -0.112,0.04 l -0.008,0.213 c 0,0 -0.154,0.124 -0.294,0.175 -0.05,-0.047 -0.16,-0.14 -0.16,-0.14 l -0.309,0.163 0.003,0.183 c -0.075,0.065 -0.27,0.165 -0.295,0.155 -0.025,-0.01 -0.114,-0.123 -0.144,-0.108 -0.03,0.015 -0.255,0.1 -0.255,0.1 l -0.005,0.113 c -0.194,0.08 -0.324,0.065 -0.324,0.065 l -0.082,-0.115 c -1.029,0.362 -2.491,0.226 -2.871,-0.023 -0.417,-0.45 -0.525,-1.494 -0.325,-2.639 0.18,-1.027 0.762,-1.816 1.441,-2.486 0.431,0.008 1.02,0.16 1.356,0.252 m 4.181,3.752 -0.371,-0.134 c -0.083,-0.178 -0.434,-0.593 -0.572,-0.636 -0.02,-0.018 -0.09,-0.021 -0.117,-0.008 l -0.116,0.11 c -0.086,-0.035 -0.196,-0.074 -0.335,-0.122 l -0.006,-0.236 c -0.098,-0.057 -0.241,-0.098 -0.358,-0.133 -0.047,0.044 -0.087,0.082 -0.145,0.137 l -0.331,-0.122 -0.006,-0.212 c -0.088,-0.029 -0.3,-0.128 -0.3,-0.128 l -0.084,0.045 -0.133,-0.11 -0.011,-0.153 c 0,0 -0.6,-0.92 -1.03,-2.387 -0.045,-0.118 -0.022,-0.236 0.043,-0.354 0.543,-0.743 1.206,-1.396 2.07,-1.896 l 1.361,0.418 c 0.189,0.341 0.314,0.704 0.441,1.066 l -0.027,1.646 c -0.207,0.216 -0.392,0.421 -0.66,0.52 l -0.222,0.046 c 0.174,-0.084 0.144,-0.219 0.119,-0.269 0.087,-0.075 0.126,-0.153 0.168,-0.24 l 0.137,0.027 c 0.074,-0.106 0.175,-0.299 0.145,-0.291 0.003,-0.009 -0.084,-0.068 -0.136,-0.092 l 0.082,-0.317 0.074,-0.012 c 0.017,-0.115 0.013,-0.23 0.004,-0.346 l -0.192,-0.004 c -0.02,-0.004 -0.114,-0.267 -0.114,-0.267 0.055,-0.061 0.104,-0.122 0.118,-0.181 -0.07,-0.09 -0.223,-0.255 -0.247,-0.24 -0.016,0.004 -0.168,0.114 -0.168,0.114 l -0.24,-0.162 0.036,-0.211 c -0.112,-0.05 -0.226,-0.091 -0.345,-0.091 l -0.086,0.185 -0.333,-0.012 -0.066,-0.173 c -0.133,0.034 -0.25,0.085 -0.357,0.149 l 0.024,0.185 -0.27,0.173 -0.13,-0.074 c -0.074,0.091 -0.213,0.284 -0.219,0.287 -0.012,-0.004 0.102,0.102 0.102,0.102 -0.075,0.103 -0.143,0.213 -0.2,0.33 h -0.094 c -0.138,0.861 0.382,1.454 0.658,1.738 0.15,0.14 0.295,0.252 0.487,0.313 l 1.436,0.307 0.516,0.611 z m 0.228,1.331 v -0.464 l 0.333,0.102 v 0.444 l 0.116,0.016 v -0.415 l 0.286,0.126 0.039,0.385 0.098,0.01 -0.028,-0.342 c 0,0 0.269,0.128 0.275,0.132 l 0.039,0.036 0.147,0.389 -0.034,0.031 -0.117,0.016 c 0,0 -0.096,0.008 -0.061,0.076 0.051,0.095 0.247,0.155 0.386,0.171 0.139,0.016 0.574,0.02 0.574,0.02 0,0 0.232,0.284 0.35,0.926 0,0 -0.033,0.061 -0.194,0.145 -0.063,0.039 -0.082,0.106 -0.094,0.126 0,0 -0.019,0.136 -0.01,0.22 l 0.155,0.631 c 0,0 0.12,0.54 0.143,0.925 0.023,0.385 0.007,0.676 -0.045,0.917 0,0 -0.18,0.531 -0.744,0.948 C 1.128,-3.373 0.869,-3.386 0.591,-3.342 0.313,-3.299 0,-3.329 0,-3.329 c 0,0 -0.313,0.03 -0.591,-0.013 -0.278,-0.044 -0.537,-0.031 -1.101,-0.447 -0.564,-0.417 -0.744,-0.948 -0.744,-0.948 -0.052,-0.241 -0.068,-0.532 -0.045,-0.917 0.023,-0.385 0.143,-0.925 0.143,-0.925 l 0.155,-0.631 c 0.009,-0.084 -0.01,-0.22 -0.01,-0.22 -0.012,-0.02 -0.03,-0.087 -0.094,-0.126 -0.161,-0.084 -0.194,-0.145 -0.194,-0.145 0.118,-0.642 0.35,-0.926 0.35,-0.926 0,0 0.435,-0.004 0.574,-0.02 0.139,-0.016 0.335,-0.076 0.386,-0.171 0.035,-0.068 -0.061,-0.076 -0.061,-0.076 l -0.117,-0.016 -0.034,-0.031 0.147,-0.389 0.039,-0.036 c 0.006,-0.004 0.275,-0.132 0.275,-0.132 l -0.028,0.342 0.098,-0.01 0.039,-0.385 0.286,-0.126 v 0.415 l 0.116,-0.016 v -0.444 l 0.333,-0.102 V -9.36 H 0 Z m 3.987,-5.42 c -0.43,1.467 -1.03,2.387 -1.03,2.387 l -0.011,0.153 -0.133,0.11 -0.084,-0.045 c 0,0 -0.212,0.099 -0.3,0.128 l -0.006,0.212 -0.331,0.122 c -0.058,-0.055 -0.097,-0.093 -0.145,-0.137 -0.117,0.035 -0.26,0.076 -0.357,0.133 l -0.007,0.236 c -0.139,0.048 -0.249,0.087 -0.335,0.122 l -0.115,-0.11 c -0.028,-0.013 -0.098,-0.01 -0.118,0.008 -0.139,0.043 -0.489,0.458 -0.572,0.636 l -0.37,0.134 v -1.104 l 0.515,-0.611 1.436,-0.307 c 0.192,-0.061 0.337,-0.173 0.487,-0.313 0.276,-0.284 0.796,-0.877 0.658,-1.738 H 3.153 c -0.057,-0.117 -0.125,-0.227 -0.2,-0.33 0,0 0.114,-0.106 0.102,-0.102 -0.006,-0.003 -0.145,-0.196 -0.219,-0.287 l -0.13,0.074 -0.27,-0.173 0.024,-0.185 c -0.107,-0.064 -0.224,-0.115 -0.357,-0.149 l -0.066,0.173 -0.333,0.012 -0.086,-0.185 c -0.119,0 -0.233,0.041 -0.345,0.091 l 0.036,0.211 -0.24,0.162 c 0,0 -0.152,-0.11 -0.168,-0.114 -0.024,-0.015 -0.177,0.15 -0.247,0.24 0.014,0.059 0.063,0.12 0.118,0.181 0,0 -0.094,0.263 -0.114,0.267 l -0.192,0.004 c -0.008,0.116 -0.013,0.231 0.004,0.346 l 0.075,0.012 0.081,0.317 c -0.052,0.024 -0.139,0.083 -0.136,0.092 -0.03,-0.008 0.072,0.185 0.144,0.291 l 0.138,-0.027 c 0.042,0.087 0.082,0.165 0.168,0.24 -0.025,0.05 -0.055,0.185 0.119,0.269 L 0.837,-13.38 c -0.268,-0.099 -0.453,-0.304 -0.66,-0.52 l -0.026,-1.646 c 0.126,-0.362 0.251,-0.725 0.441,-1.066 l 1.36,-0.418 c 0.864,0.5 1.527,1.153 2.07,1.896 0.065,0.118 0.088,0.236 0.043,0.354 m 3.063,2.571 c 0.2,1.145 0.092,2.189 -0.325,2.639 -0.38,0.249 -1.842,0.385 -2.871,0.023 L 3.85,-9.432 c 0,0 -0.13,0.015 -0.324,-0.065 L 3.521,-9.61 c 0,0 -0.225,-0.085 -0.255,-0.1 -0.03,-0.015 -0.119,0.098 -0.144,0.108 -0.025,0.01 -0.22,-0.09 -0.295,-0.155 L 2.83,-9.94 2.521,-10.103 c 0,0 -0.11,0.093 -0.16,0.14 -0.14,-0.051 -0.294,-0.175 -0.294,-0.175 L 2.06,-10.351 c 0,0 -0.053,-0.04 -0.113,-0.04 -0.06,0 -0.491,0.241 -0.961,0.608 0,0 -0.456,-0.187 -0.683,-0.31 L 0.29,-10.392 c 0.214,-0.083 0.466,-0.214 0.731,-0.362 l 0.985,-0.424 c 0.129,-0.02 0.215,-0.015 0.273,-0.004 0.777,0.35 1.562,0.677 2.416,0.97 l 0.255,0.005 c 0.949,-0.247 1.111,-0.453 1.572,-1.263 l 0.02,-0.098 -0.057,-0.036 v -0.383 l 0.113,-0.027 c 0,0 -0.037,-0.427 -0.079,-0.432 -0.042,-0.005 -0.138,0.011 -0.138,0.011 l -0.178,-0.301 0.13,-0.142 c 0,0 -0.166,-0.272 -0.291,-0.314 -0.053,0.021 -0.137,0.104 -0.137,0.104 l -0.282,-0.105 -0.019,-0.261 c -0.07,-0.023 -0.221,-0.065 -0.371,-0.068 -10e-4,0.012 -0.013,0.123 -0.034,0.192 -0.107,0.023 -0.218,0.028 -0.326,0.036 -0.02,-0.029 -0.07,-0.077 -0.105,-0.186 -0.179,0.002 -0.336,0.089 -0.366,0.118 -0.005,0.11 0.051,0.19 0.051,0.19 -0.069,0.079 -0.15,0.15 -0.252,0.209 l -0.155,-0.088 c -0.071,0.041 -0.132,0.113 -0.194,0.304 l 0.058,0.079 -0.073,0.309 c 0,0 -0.154,0.015 -0.175,0.015 -0.015,0.116 -0.017,0.309 -0.013,0.389 l 0.144,0.008 c 0,0 0.033,0.271 0.024,0.346 -0.042,0.021 -0.085,0.044 -0.085,0.119 0,0.075 0.068,0.148 0.063,0.146 -0.009,-0.003 -0.084,0 -0.191,-0.254 -0.059,-0.109 -0.126,-0.249 -0.183,-0.408 -0.03,-0.081 -0.034,-0.139 -0.026,-0.203 0.014,-0.106 0.02,-0.223 0.395,-1.044 0.314,-0.774 0.357,-0.9 0.541,-1.198 0.336,-0.092 0.925,-0.244 1.356,-0.252 0.679,0.67 1.261,1.459 1.441,2.486"
             style="fill:#231f20;fill-opacity:1;fill-rule:nonzero;stroke:none"
             id="path2486"
             inkscape:connector-curvature="0" />
        </g>
        <g
           id="g2488"
           transform="translate(310.93,246.957)">
          <path
             d="m 0,0 c -5.554,0 -10.073,4.519 -10.073,10.073 0,5.554 4.519,10.073 10.073,10.073 5.554,0 10.073,-4.519 10.073,-10.073 C 10.073,4.519 5.554,0 0,0 m 0,19.096 c -4.975,0 -9.022,-4.048 -9.022,-9.023 0,-4.975 4.047,-9.023 9.022,-9.023 4.975,0 9.023,4.048 9.023,9.023 0,4.975 -4.048,9.023 -9.023,9.023 M 0,1.923 c -2.178,0 -4.225,0.848 -5.765,2.387 -1.54,1.539 -2.388,3.586 -2.388,5.763 0,2.177 0.848,4.224 2.388,5.763 1.54,1.539 3.587,2.387 5.765,2.387 2.178,0 4.225,-0.848 5.765,-2.387 C 7.305,14.297 8.154,12.25 8.154,10.073 8.154,7.896 7.305,5.849 5.765,4.31 4.225,2.771 2.178,1.923 0,1.923 M 0.835,6.779 C 0.581,6.687 0.401,6.498 0.21,6.298 L 0.17,6.255 0.143,4.607 0.149,4.59 C 0.271,4.239 0.398,3.875 0.585,3.538 L 0.587,3.535 1.953,3.116 1.955,3.117 C 2.753,3.578 3.431,4.199 4.028,5.015 4.1,5.145 4.114,5.263 4.072,5.376 3.654,6.798 3.07,7.719 3.042,7.762 L 3.03,7.917 2.892,8.032 2.807,7.986 C 2.781,7.998 2.598,8.083 2.514,8.111 L 2.508,8.323 2.169,8.448 2.166,8.445 C 2.108,8.391 2.069,8.354 2.023,8.31 L 2.006,8.316 C 1.893,8.35 1.765,8.388 1.675,8.44 L 1.668,8.677 1.663,8.679 C 1.525,8.726 1.415,8.765 1.329,8.8 L 1.324,8.802 1.206,8.689 C 1.198,8.686 1.181,8.683 1.162,8.683 1.133,8.683 1.107,8.689 1.098,8.697 0.955,8.743 0.608,9.16 0.527,9.331 L 0.526,9.334 0.143,9.472 V 8.355 L 0.663,7.741 2.1,7.433 C 2.289,7.373 2.43,7.265 2.584,7.122 2.733,6.968 2.923,6.755 3.067,6.471 3.241,6.128 3.299,5.766 3.241,5.396 H 3.149 L 3.147,5.392 C 3.092,5.28 3.027,5.172 2.947,5.063 L 2.944,5.058 2.948,5.054 C 2.989,5.015 3.034,4.972 3.046,4.958 3.04,4.95 3.024,4.93 2.983,4.874 2.937,4.813 2.876,4.73 2.834,4.679 L 2.706,4.752 2.429,4.575 2.452,4.39 C 2.344,4.325 2.231,4.277 2.108,4.245 L 2.042,4.417 1.7,4.429 1.613,4.244 C 1.494,4.245 1.379,4.289 1.281,4.332 L 1.317,4.542 1.069,4.71 1.065,4.707 C 1.007,4.665 0.91,4.597 0.899,4.594 v 0 C 0.87,4.594 0.741,4.727 0.662,4.828 0.676,4.882 0.718,4.937 0.777,5.003 L 0.78,5.006 0.778,5.01 C 0.735,5.132 0.679,5.278 0.66,5.282 L 0.473,5.286 C 0.465,5.392 0.46,5.506 0.476,5.619 L 0.55,5.63 0.634,5.958 0.629,5.96 C 0.579,5.983 0.507,6.033 0.497,6.045 L 0.501,6.056 0.492,6.053 C 0.494,6.082 0.568,6.227 0.638,6.329 L 0.776,6.302 0.778,6.307 C 0.819,6.391 0.858,6.47 0.945,6.544 L 0.949,6.548 0.946,6.553 C 0.93,6.585 0.919,6.637 0.937,6.688 0.954,6.739 0.996,6.781 1.062,6.812 L 1.057,6.826 Z M -3.042,7.762 C -3.07,7.719 -3.654,6.798 -4.072,5.375 -4.114,5.263 -4.1,5.145 -4.028,5.016 -3.431,4.199 -2.753,3.578 -1.955,3.117 l 0.002,-10e-4 1.366,0.419 0.002,0.003 c 0.187,0.336 0.313,0.699 0.436,1.051 l 0.005,0.015 -0.026,1.651 -0.04,0.043 c -0.191,0.2 -0.372,0.389 -0.624,0.481 L -1.057,6.826 -1.062,6.812 C -0.996,6.781 -0.954,6.739 -0.937,6.688 -0.919,6.637 -0.93,6.585 -0.946,6.553 L -0.949,6.548 -0.945,6.544 C -0.858,6.47 -0.819,6.391 -0.778,6.307 l 0.002,-0.005 0.138,0.027 c 0.07,-0.102 0.145,-0.247 0.147,-0.276 l -0.01,0.003 0.004,-0.01 C -0.507,6.033 -0.579,5.983 -0.629,5.96 L -0.634,5.958 -0.55,5.63 -0.477,5.619 C -0.46,5.505 -0.465,5.392 -0.473,5.286 L -0.658,5.282 C -0.679,5.278 -0.735,5.132 -0.778,5.01 L -0.78,5.006 -0.777,5.003 C -0.718,4.937 -0.676,4.882 -0.662,4.828 -0.741,4.727 -0.871,4.593 -0.897,4.593 -0.91,4.597 -1.007,4.665 -1.065,4.707 L -1.069,4.71 -1.317,4.542 -1.281,4.332 C -1.379,4.289 -1.494,4.245 -1.613,4.244 L -1.7,4.429 -2.042,4.417 -2.108,4.245 C -2.231,4.277 -2.344,4.325 -2.452,4.39 L -2.429,4.575 -2.706,4.752 -2.834,4.679 C -2.876,4.73 -2.936,4.812 -2.981,4.872 -3.024,4.929 -3.04,4.95 -3.046,4.958 c 0.012,0.014 0.057,0.057 0.098,0.096 l 0.004,0.004 -0.003,0.005 c -0.08,0.11 -0.145,0.218 -0.2,0.329 l -0.002,0.004 h -0.092 c -0.142,0.904 0.459,1.522 0.657,1.726 0.154,0.143 0.295,0.251 0.484,0.311 l 1.437,0.308 0.52,0.614 V 9.472 L -0.526,9.334 -0.527,9.331 C -0.607,9.16 -0.955,8.743 -1.095,8.698 -1.107,8.689 -1.133,8.683 -1.162,8.683 c -0.019,0 -0.036,0.003 -0.045,0.007 L -1.324,8.802 -1.329,8.8 C -1.415,8.765 -1.525,8.726 -1.663,8.679 L -1.668,8.677 -1.674,8.44 C -1.765,8.388 -1.893,8.35 -2.006,8.316 L -2.023,8.31 -2.169,8.448 -2.508,8.323 -2.514,8.111 C -2.597,8.083 -2.781,7.998 -2.807,7.986 L -2.891,8.032 -3.03,7.917 Z M 3.793,8.824 C 3.714,8.808 3.644,8.675 3.598,8.566 3.527,8.436 3.463,8.294 3.414,8.157 3.387,8.084 3.379,8.024 3.388,7.951 L 3.389,7.942 C 3.403,7.835 3.419,7.702 3.784,6.905 L 3.874,6.683 C 4.105,6.11 4.16,5.974 4.325,5.706 L 4.326,5.704 4.329,5.703 C 4.574,5.636 5.227,5.459 5.686,5.451 L 5.689,5.45 5.691,5.453 c 0.831,0.82 1.29,1.611 1.444,2.489 0.208,1.19 0.083,2.204 -0.327,2.645 -0.225,0.149 -0.789,0.247 -1.404,0.247 -0.384,0 -0.95,-0.038 -1.469,-0.22 L 3.854,10.728 H 3.851 c 0,0 -0.01,10e-4 -0.029,10e-4 -0.051,0 -0.158,-0.008 -0.299,-0.067 L 3.519,10.661 3.514,10.548 C 3.482,10.536 3.291,10.464 3.263,10.449 c -10e-4,0 -0.002,0 -0.003,0 -0.018,0 -0.057,0.038 -0.086,0.066 -0.024,0.024 -0.04,0.038 -0.05,0.042 -0.002,10e-4 -0.004,10e-4 -0.007,10e-4 -0.043,0 -0.225,-0.097 -0.294,-0.157 L 2.82,10.399 2.823,10.217 2.522,10.058 C 2.502,10.075 2.41,10.153 2.366,10.195 L 2.363,10.198 2.359,10.197 C 2.219,10.146 2.064,10.022 2.062,10.02 L 2.06,10.018 2.053,9.806 C 2.041,9.798 1.997,9.769 1.947,9.769 1.892,9.769 1.474,9.998 0.99,10.376 L 0.987,10.378 0.983,10.377 C 0.979,10.375 0.524,10.188 0.299,10.066 L 0.296,10.064 0.283,9.756 0.288,9.754 C 0.474,9.682 0.699,9.57 1.017,9.393 L 2.003,8.969 c 0.06,-0.01 0.115,-0.015 0.164,-0.015 0.04,0 0.079,0.004 0.113,0.01 0.897,0.404 1.664,0.712 2.417,0.97 L 4.95,9.939 C 5.908,9.689 6.065,9.472 6.516,8.679 L 6.534,8.589 6.478,8.553 V 8.16 L 6.59,8.133 C 6.573,7.936 6.541,7.721 6.518,7.714 6.513,7.713 6.506,7.713 6.498,7.713 6.453,7.713 6.383,7.724 6.382,7.725 H 6.377 L 6.195,7.416 6.324,7.274 C 6.302,7.239 6.154,7.009 6.042,6.968 5.991,6.99 5.911,7.069 5.91,7.07 L 5.907,7.073 5.616,6.965 5.598,6.704 C 5.547,6.688 5.394,6.642 5.239,6.638 5.236,6.667 5.225,6.763 5.206,6.825 L 5.205,6.829 5.2,6.83 C 5.109,6.849 5.015,6.856 4.923,6.862 L 4.869,6.866 4.867,6.863 C 4.863,6.857 4.859,6.851 4.853,6.844 4.83,6.815 4.792,6.766 4.763,6.68 4.598,6.683 4.445,6.762 4.409,6.794 4.405,6.898 4.458,6.976 4.459,6.977 L 4.462,6.982 4.458,6.986 C 4.382,7.073 4.299,7.141 4.204,7.196 L 4.201,7.198 4.046,7.11 C 3.988,7.144 3.925,7.206 3.86,7.405 L 3.918,7.483 3.843,7.8 3.838,7.801 C 3.832,7.801 3.703,7.814 3.668,7.816 3.654,7.932 3.652,8.113 3.656,8.191 L 3.8,8.199 V 8.205 C 3.802,8.216 3.833,8.478 3.824,8.553 L 3.823,8.557 3.82,8.558 c -0.04,0.02 -0.081,0.041 -0.081,0.113 0,0.058 0.043,0.116 0.057,0.135 0.006,0.008 0.008,0.01 0.006,0.014 L 3.8,8.824 H 3.794 Z m -9.196,2.01 c -0.616,0 -1.18,-0.098 -1.404,-0.246 -0.411,-0.442 -0.536,-1.456 -0.328,-2.646 0.154,-0.878 0.613,-1.669 1.444,-2.489 l 0.002,-0.003 0.003,10e-4 c 0.411,0.007 0.972,0.147 1.357,0.252 l 0.003,10e-4 10e-4,0.002 c 0.165,0.268 0.22,0.404 0.452,0.977 l 0.09,0.222 c 0.364,0.798 0.38,0.931 0.394,1.037 l 10e-4,0.009 c 0.009,0.073 10e-4,0.133 -0.027,0.206 -0.048,0.137 -0.112,0.279 -0.183,0.409 -0.046,0.109 -0.116,0.242 -0.193,0.258 H -3.795 -3.8 L -3.802,8.82 c -0.002,-0.004 0,-0.006 0.006,-0.015 0.014,-0.019 0.057,-0.077 0.057,-0.134 0,-0.072 -0.041,-0.093 -0.081,-0.113 L -3.823,8.557 -3.824,8.553 C -3.833,8.478 -3.802,8.216 -3.8,8.205 V 8.199 L -3.656,8.191 C -3.652,8.106 -3.655,7.925 -3.668,7.816 -3.703,7.814 -3.832,7.801 -3.838,7.801 L -3.843,7.8 -3.918,7.483 -3.86,7.405 C -3.925,7.205 -3.988,7.144 -4.046,7.11 L -4.201,7.198 -4.204,7.196 C -4.298,7.142 -4.382,7.073 -4.458,6.986 L -4.462,6.982 -4.459,6.977 C -4.458,6.976 -4.405,6.898 -4.409,6.794 -4.445,6.762 -4.598,6.683 -4.763,6.68 -4.792,6.767 -4.83,6.815 -4.854,6.845 -4.859,6.852 -4.863,6.857 -4.867,6.863 L -4.869,6.866 -4.923,6.862 C -5.015,6.856 -5.109,6.849 -5.2,6.83 L -5.204,6.829 -5.206,6.825 C -5.225,6.763 -5.236,6.667 -5.239,6.638 -5.394,6.642 -5.547,6.688 -5.598,6.704 L -5.616,6.965 -5.906,7.073 -5.91,7.07 c 0,-0.001 -0.081,-0.08 -0.132,-0.102 -0.112,0.041 -0.26,0.271 -0.282,0.306 l 0.129,0.142 -0.182,0.309 h -0.005 c 0,-10e-4 -0.071,-0.012 -0.116,-0.012 -0.008,0 -0.015,0 -0.02,0.001 -0.023,0.007 -0.055,0.222 -0.072,0.419 l 0.113,0.027 v 0.393 l -0.057,0.036 0.019,0.092 c 0.45,0.791 0.608,1.008 1.566,1.258 l 0.254,-0.005 c 0.751,-0.258 1.518,-0.566 2.414,-0.969 0.035,-0.007 0.074,-0.011 0.114,-0.011 0.049,0 0.104,0.005 0.162,0.014 l 0.987,0.425 c 0.32,0.178 0.545,0.289 0.73,0.361 l 0.005,0.002 -0.013,0.308 -0.003,0.002 c -0.225,0.122 -0.68,0.309 -0.684,0.311 l -0.004,10e-4 -0.003,-0.002 c -0.476,-0.371 -0.904,-0.607 -0.957,-0.607 -0.049,0 -0.094,0.029 -0.105,0.037 l -0.008,0.212 -0.003,0.002 c -10e-4,0.002 -0.156,0.126 -0.296,0.177 l -0.004,0.001 -0.003,-0.003 c -0.044,-0.042 -0.136,-0.12 -0.156,-0.137 l -0.301,0.159 0.003,0.182 -0.003,0.002 c -0.069,0.06 -0.251,0.157 -0.294,0.157 -0.003,0 -0.005,0 -0.007,-10e-4 -0.01,-0.004 -0.026,-0.018 -0.05,-0.042 -0.029,-0.028 -0.068,-0.066 -0.086,-0.066 -0.001,0 -0.002,0 -0.003,0 -0.028,0.015 -0.219,0.087 -0.251,0.099 l -0.005,0.113 -0.004,0.001 c -0.141,0.059 -0.248,0.067 -0.299,0.067 -0.019,0 -0.029,-10e-4 -0.029,-10e-4 h -0.003 l -0.081,-0.114 c -0.405,0.142 -0.927,0.22 -1.468,0.22 m 5.474,-0.515 0.347,0.107 v 0.443 l 0.102,0.014 v -0.418 l 0.299,0.132 0.039,0.384 0.084,0.008 -0.028,-0.346 0.011,0.006 C 0.97,10.67 1.194,10.777 1.2,10.781 l 0.042,0.038 0.149,0.394 -0.039,0.037 -0.119,0.016 c -0.001,0 -0.046,0.004 -0.059,0.027 -0.006,0.011 -0.005,0.024 0.003,0.039 0.052,0.097 0.256,0.153 0.381,0.167 0.137,0.015 0.568,0.02 0.573,0.02 h 0.003 l 0.002,0.003 c 0.002,0.002 0.235,0.292 0.352,0.929 v 0.002 L 2.487,12.455 C 2.486,12.458 2.451,12.519 2.29,12.604 2.242,12.633 2.221,12.68 2.208,12.709 2.205,12.716 2.202,12.723 2.199,12.727 2.2,12.727 2.181,12.86 2.19,12.943 l 0.155,0.63 c 10e-4,0.005 0.12,0.544 0.143,0.925 0.023,0.381 0.008,0.673 -0.045,0.92 -0.002,0.006 -0.188,0.538 -0.747,0.951 -0.497,0.368 -0.754,0.401 -1.003,0.434 -0.034,0.005 -0.067,0.009 -0.101,0.014 -0.1,0.016 -0.215,0.024 -0.343,0.024 -0.142,0 -0.249,-0.01 -0.25,-0.01 0.001,0 -0.106,0.01 -0.248,0.01 -0.128,0 -0.243,-0.008 -0.343,-0.024 -0.034,-0.005 -0.067,-0.009 -0.101,-0.014 -0.249,-0.032 -0.506,-0.066 -1.003,-0.434 -0.559,-0.413 -0.745,-0.945 -0.747,-0.951 -0.053,-0.247 -0.067,-0.539 -0.045,-0.92 0.023,-0.381 0.142,-0.92 0.143,-0.925 L -2.19,12.942 C -2.181,12.86 -2.2,12.725 -2.2,12.724 -2.202,12.723 -2.204,12.717 -2.208,12.709 -2.22,12.681 -2.242,12.633 -2.291,12.603 -2.451,12.519 -2.486,12.458 -2.487,12.455 l -10e-4,-0.002 v -0.002 c 0.117,-0.637 0.35,-0.927 0.352,-0.929 l 0.002,-0.003 h 0.003 c 0.005,0 0.436,-0.005 0.573,-0.02 0.124,-0.014 0.329,-0.07 0.381,-0.167 0.008,-0.015 0.009,-0.028 0.003,-0.039 -0.011,-0.019 -0.046,-0.026 -0.058,-0.027 l -0.121,-0.016 -0.038,-0.037 0.149,-0.394 0.041,-0.037 c 0.007,-0.005 0.231,-0.112 0.276,-0.133 l 0.011,-0.006 -0.028,0.346 0.084,-0.008 0.039,-0.384 0.299,-0.132 v 0.418 l 0.102,-0.014 v -0.444 l 0.347,-0.106 v 0.467 h 0.142 z m -5.399,3.528 c 0.569,0 1.085,-0.375 1.254,-0.911 l 0.361,-1.317 c 0.056,-0.313 0.255,-0.551 0.609,-0.728 l 0.919,-0.451 c 0.091,-0.011 0.179,-0.016 0.266,-0.016 0.201,0 0.394,0.028 0.572,0.083 l 0.008,0.003 -0.362,0.678 -0.861,0.029 c -0.133,0.155 -0.244,0.353 -0.313,0.559 l 0.152,0.169 v 0.003 c -0.014,0.106 -0.045,0.215 -0.094,0.324 l -0.002,0.003 -0.222,0.033 c -0.014,0.097 -0.037,0.222 -0.086,0.339 l 0.138,0.144 v 0.003 c -0.009,0.086 -0.042,0.199 -0.1,0.334 l -0.002,0.003 -0.215,0.025 c -0.022,0.102 -0.06,0.193 -0.115,0.278 l 0.069,0.095 -0.001,0.003 c -0.038,0.102 -0.107,0.216 -0.189,0.312 L -3.545,13.847 -3.7,13.809 c -0.063,0.08 -0.142,0.154 -0.243,0.227 l -0.013,0.146 -0.002,0.002 c -0.074,0.068 -0.178,0.123 -0.315,0.169 l -0.004,10e-4 -0.093,-0.068 c -0.102,0.047 -0.224,0.083 -0.328,0.098 l -0.027,0.074 H -5.367 L -6.6,13.894 c -0.065,-0.029 -0.123,-0.098 -0.162,-0.195 -0.147,-0.353 -0.258,-0.693 -0.34,-1.041 -0.042,-0.341 -0.043,-0.782 -0.003,-1.153 v -0.004 l 0.004,-0.002 c 0.267,-0.109 0.576,-0.246 0.847,-0.43 l 0.002,-0.001 h 0.003 c 0.257,0.039 0.512,0.093 0.76,0.146 l 0.096,0.02 0.741,0.531 0.107,0.152 0.006,0.199 -0.137,-0.142 h -0.056 l -0.188,-0.13 0.015,-0.115 -0.033,-0.016 C -5.006,11.68 -5.076,11.646 -5.154,11.625 l -0.094,0.098 -0.235,-0.062 -0.015,-0.075 c -0.018,10e-4 -0.036,10e-4 -0.054,10e-4 h -0.051 c -0.046,0 -0.1,10e-4 -0.169,0.013 0.003,0.037 0.004,0.077 0.004,0.117 0,0.019 0,0.038 0,0.057 v 0.004 l -0.212,0.084 -0.129,-0.107 c -0.074,0.061 -0.143,0.126 -0.204,0.195 0.043,0.046 0.08,0.112 0.094,0.166 l 0.001,0.003 -0.001,0.003 c -0.04,0.063 -0.089,0.12 -0.146,0.169 l -0.003,0.003 -0.004,-0.001 c -0.048,-0.016 -0.095,-0.024 -0.144,-0.026 -0.031,0.088 -0.053,0.176 -0.065,0.261 0.049,0.022 0.098,0.049 0.158,0.088 l 0.003,0.002 v 0.003 c 0.006,0.08 0.004,0.164 -0.005,0.248 l -0.001,0.005 -0.139,0.028 c 0.019,0.112 0.046,0.207 0.084,0.289 0.011,10e-4 0.021,10e-4 0.031,10e-4 0.039,0 0.077,-0.005 0.12,-0.016 l 0.004,-10e-4 0.003,0.002 c 0.063,0.062 0.112,0.143 0.148,0.239 l 10e-4,0.003 -0.061,0.092 c 0.078,0.058 0.156,0.117 0.234,0.175 l 0.098,-0.073 0.004,0.001 c 0.09,0.041 0.171,0.096 0.238,0.145 l 0.003,0.002 0.007,0.072 0.255,0.012 c 0.023,10e-4 0.046,0.002 0.068,0.002 M 1.701,11.188 1.339,10.51 1.347,10.507 c 0.179,-0.055 0.371,-0.083 0.573,-0.083 0.086,0 0.174,0.005 0.262,0.015 l 0.922,0.452 c 0.354,0.177 0.553,0.416 0.609,0.728 l 0.361,1.317 c 0.169,0.536 0.685,0.911 1.254,0.911 0.023,0 0.046,-10e-4 0.068,-0.002 L 5.651,13.833 5.658,13.761 5.661,13.759 C 5.727,13.71 5.808,13.655 5.899,13.614 l 0.004,-0.001 0.098,0.073 C 6.079,13.628 6.157,13.569 6.235,13.511 L 6.174,13.419 6.175,13.416 C 6.211,13.32 6.26,13.24 6.323,13.177 l 0.003,-0.002 0.004,10e-4 c 0.044,0.011 0.082,0.016 0.12,0.016 0.01,0 0.021,0 0.032,-10e-4 0.037,-0.083 0.065,-0.177 0.083,-0.289 L 6.426,12.874 6.425,12.869 C 6.416,12.785 6.414,12.702 6.42,12.621 V 12.618 L 6.423,12.616 C 6.483,12.577 6.532,12.55 6.581,12.528 6.569,12.443 6.547,12.355 6.516,12.267 6.467,12.269 6.42,12.277 6.372,12.293 L 6.368,12.294 6.365,12.291 C 6.309,12.243 6.26,12.186 6.219,12.122 L 6.218,12.119 6.219,12.116 C 6.233,12.061 6.27,11.996 6.313,11.95 6.252,11.881 6.183,11.816 6.109,11.755 L 5.98,11.862 5.768,11.778 v -0.004 c 0,-0.018 0,-0.036 0,-0.053 0,-0.041 0.001,-0.083 0.004,-0.121 C 5.703,11.588 5.649,11.587 5.603,11.587 H 5.552 c -0.018,0 -0.036,0 -0.054,-10e-4 L 5.483,11.661 5.248,11.723 5.154,11.625 C 5.076,11.646 5.006,11.68 4.939,11.713 l -0.034,0.016 0.015,0.115 -0.188,0.13 H 4.675 L 4.539,12.116 4.545,11.917 4.651,11.766 5.39,11.235 5.488,11.214 C 5.736,11.161 5.992,11.107 6.25,11.068 h 0.002 l 0.003,0.001 c 0.271,0.185 0.58,0.321 0.846,0.43 l 0.004,0.002 v 0.004 c 0.04,0.369 0.039,0.811 -0.002,1.152 C 7.02,13.006 6.909,13.347 6.762,13.699 6.723,13.796 6.665,13.865 6.6,13.894 L 5.37,14.458 H 4.725 L 4.699,14.384 C 4.594,14.369 4.472,14.333 4.37,14.286 L 4.277,14.354 4.273,14.353 C 4.136,14.307 4.033,14.252 3.958,14.184 L 3.956,14.182 3.943,14.036 C 3.842,13.963 3.763,13.889 3.7,13.809 L 3.545,13.847 3.542,13.844 C 3.459,13.747 3.391,13.634 3.353,13.532 L 3.352,13.529 3.421,13.434 C 3.366,13.349 3.328,13.258 3.306,13.156 L 3.091,13.131 3.089,13.128 C 3.03,12.99 2.998,12.881 2.989,12.794 V 12.791 L 3.127,12.647 C 3.078,12.53 3.055,12.405 3.041,12.308 L 2.819,12.275 2.818,12.272 C 2.768,12.163 2.737,12.054 2.723,11.948 V 11.945 L 2.875,11.776 C 2.806,11.57 2.695,11.372 2.562,11.217 Z m -1.478,0.287 c -0.014,0 -0.032,0.003 -0.043,0.016 L 0.057,11.615 C 0.056,11.616 0.04,11.633 0,11.633 c -0.04,0 -0.056,-0.017 -0.057,-0.018 L -0.18,11.492 c -0.011,-0.014 -0.029,-0.017 -0.043,-0.017 -0.01,0 -0.018,0.002 -0.018,0.002 -0.052,0.019 -0.119,0.078 -0.119,0.079 -0.086,0.06 -0.064,0.158 -0.064,0.159 l 0.127,0.317 C -0.186,12.298 -0.031,12.509 0,12.55 0.031,12.509 0.186,12.298 0.297,12.032 L 0.424,11.714 C 0.425,11.711 0.446,11.616 0.361,11.556 0.36,11.555 0.293,11.496 0.24,11.477 v 0 c 0,0 -0.008,-0.002 -0.017,-0.002 m 1.035,0.836 c -0.087,0 -0.166,0.032 -0.167,0.032 -0.551,0.193 -0.709,0.4 -0.71,0.402 -0.016,0.014 -0.022,0.028 -0.022,0.042 0.002,0.027 0.03,0.047 0.03,0.048 0.587,0.392 0.877,0.459 0.879,0.46 0.044,0.01 0.085,0.015 0.125,0.015 0.107,0 0.209,-0.037 0.311,-0.113 C 1.797,13.126 1.825,13.009 1.825,13.008 1.827,13 1.845,12.66 1.845,12.63 1.845,12.608 1.828,12.567 1.824,12.557 L 1.329,12.319 C 1.308,12.314 1.284,12.311 1.258,12.311 m -2.516,0 c -0.026,0 -0.05,0.003 -0.072,0.008 l -0.494,0.238 c -0.004,0.011 -0.021,0.051 -0.021,0.073 0,0.03 0.018,0.37 0.02,0.378 0,0.001 0.028,0.118 0.121,0.189 0.102,0.076 0.204,0.113 0.311,0.113 0.04,0 0.081,-0.005 0.125,-0.015 0.002,-10e-4 0.292,-0.068 0.879,-0.461 0,0 0.028,-0.02 0.03,-0.047 0,-0.014 -0.006,-0.028 -0.021,-0.041 -0.002,-0.003 -0.16,-0.21 -0.711,-0.403 -0.001,0 -0.08,-0.032 -0.167,-0.032"
             style="fill:#6f878e;fill-opacity:1;fill-rule:nonzero;stroke:none"
             id="path2490"
             inkscape:connector-curvature="0" />
        </g>
        <g
           id="g2492"
           transform="translate(310.93,267.11)">
          <path
             d="m 0,0 c -5.558,0 -10.08,-4.522 -10.08,-10.08 0,-5.558 4.522,-10.08 10.08,-10.08 5.558,0 10.08,4.522 10.08,10.08 C 10.08,-4.522 5.558,0 0,0 m 0,-19.095 c -4.971,0 -9.015,4.044 -9.015,9.015 0,4.971 4.044,9.016 9.015,9.016 4.971,0 9.016,-4.045 9.016,-9.016 0,-4.971 -4.045,-9.015 -9.016,-9.015 m -1.089,11.279 c 0,0 -0.128,-0.053 -0.243,-0.025 l -0.497,0.24 c 0,0 -0.023,0.051 -0.023,0.078 0,0.028 0.018,0.374 0.02,0.38 0,0 0.027,0.119 0.124,0.192 0.153,0.115 0.294,0.135 0.441,0.1 0,0 0.287,-0.063 0.882,-0.462 0,0 0.066,-0.048 0.01,-0.099 0,0 -0.154,-0.208 -0.714,-0.404 m 1.332,-0.867 c 0.055,0.02 0.122,0.081 0.122,0.081 0.09,0.063 0.066,0.166 0.066,0.166 L 0.304,-8.118 C 0.179,-7.818 0,-7.591 0,-7.591 c 0,0 -0.179,-0.227 -0.304,-0.527 l -0.127,-0.318 c 0,0 -0.024,-0.103 0.066,-0.166 0,0 0.067,-0.061 0.122,-0.081 0,0 0.047,-0.01 0.068,0.017 l 0.123,0.123 c 0,0 0.015,0.016 0.052,0.016 0.038,0 0.052,-0.016 0.052,-0.016 l 0.123,-0.123 c 0.021,-0.027 0.068,-0.017 0.068,-0.017 m 0.846,0.867 c 0,0 0.128,-0.053 0.243,-0.025 l 0.497,0.24 c 0,0 0.023,0.051 0.023,0.078 0,0.028 -0.018,0.374 -0.02,0.38 0,0 -0.027,0.119 -0.124,0.192 -0.153,0.115 -0.294,0.135 -0.441,0.1 0,0 -0.287,-0.063 -0.882,-0.462 0,0 -0.066,-0.048 -0.01,-0.099 0,0 0.154,-0.208 0.714,-0.404 m 7.072,-2.264 c 0,-2.179 -0.849,-4.227 -2.391,-5.768 -1.541,-1.54 -3.59,-2.389 -5.77,-2.389 -2.18,0 -4.229,0.849 -5.77,2.389 -1.542,1.541 -2.39,3.589 -2.39,5.768 0,2.179 0.848,4.227 2.39,5.768 1.541,1.54 3.59,2.389 5.77,2.389 2.18,0 4.229,-0.849 5.77,-2.389 1.542,-1.541 2.391,-3.589 2.391,-5.768 M 2.883,-8.375 C 2.813,-8.586 2.698,-8.789 2.565,-8.943 L 1.705,-8.972 1.349,-9.639 C 1.617,-9.722 1.903,-9.74 2.182,-9.707 l 0.919,0.451 c 0.32,0.161 0.545,0.386 0.605,0.724 l 0.361,1.317 c 0.187,0.593 0.776,0.946 1.33,0.914 l 0.26,-0.012 0.008,-0.075 C 5.74,-6.443 5.817,-6.494 5.902,-6.532 l 0.099,0.074 C 6.082,-6.519 6.164,-6.579 6.244,-6.64 L 6.182,-6.734 c 0.034,-0.094 0.083,-0.174 0.146,-0.236 0.048,0.012 0.099,0.02 0.158,0.015 0.043,-0.093 0.07,-0.194 0.087,-0.301 L 6.432,-7.285 C 6.423,-7.368 6.421,-7.45 6.427,-7.531 6.478,-7.564 6.53,-7.595 6.589,-7.62 6.576,-7.713 6.553,-7.804 6.521,-7.893 6.465,-7.892 6.416,-7.882 6.37,-7.867 6.311,-7.917 6.264,-7.974 6.225,-8.035 6.241,-8.094 6.282,-8.161 6.323,-8.202 6.259,-8.275 6.187,-8.344 6.108,-8.407 L 5.979,-8.299 5.775,-8.379 C 5.776,-8.439 5.774,-8.503 5.779,-8.559 5.662,-8.581 5.587,-8.57 5.492,-8.574 L 5.477,-8.498 5.25,-8.438 5.156,-8.536 C 5.062,-8.51 4.981,-8.468 4.897,-8.428 L 4.913,-8.312 4.73,-8.186 H 4.672 l -0.125,0.131 0.005,-0.179 0.105,-0.148 0.737,-0.53 c 0.284,-0.06 0.567,-0.122 0.857,-0.166 0.258,0.176 0.555,0.311 0.847,0.431 0.04,0.372 0.038,0.816 -0.002,1.15 -0.087,0.366 -0.203,0.711 -0.34,1.04 -0.034,0.084 -0.088,0.16 -0.158,0.191 L 5.367,-5.702 H 4.73 L 4.704,-5.775 C 4.584,-5.792 4.46,-5.833 4.37,-5.875 L 4.276,-5.807 C 4.154,-5.847 4.045,-5.9 3.962,-5.974 L 3.949,-6.12 C 3.853,-6.19 3.77,-6.266 3.703,-6.352 L 3.548,-6.314 C 3.465,-6.41 3.397,-6.523 3.36,-6.623 L 3.43,-6.719 C 3.369,-6.81 3.332,-6.905 3.312,-7.003 L 3.095,-7.028 C 3.05,-7.135 3.006,-7.258 2.996,-7.36 L 3.135,-7.505 C 3.085,-7.622 3.062,-7.749 3.047,-7.851 L 2.824,-7.884 C 2.775,-7.992 2.744,-8.099 2.73,-8.206 Z m -9.981,-0.272 c 0.292,-0.12 0.589,-0.255 0.847,-0.431 0.29,0.044 0.573,0.106 0.857,0.166 l 0.737,0.53 0.105,0.148 0.005,0.179 -0.125,-0.131 H -4.73 l -0.183,-0.126 0.016,-0.116 c -0.084,-0.04 -0.165,-0.082 -0.259,-0.108 l -0.094,0.098 -0.227,-0.06 -0.015,-0.076 c -0.095,0.004 -0.17,-0.007 -0.288,0.015 0.006,0.056 0.004,0.12 0.005,0.18 l -0.204,0.08 -0.13,-0.108 c -0.078,0.063 -0.149,0.132 -0.213,0.205 0.04,0.041 0.081,0.108 0.097,0.167 -0.039,0.061 -0.086,0.118 -0.144,0.168 -0.047,-0.015 -0.096,-0.025 -0.152,-0.026 -0.032,0.089 -0.055,0.18 -0.068,0.273 0.059,0.025 0.111,0.056 0.162,0.089 0.006,0.081 0.004,0.163 -0.005,0.246 l -0.141,0.029 c 0.017,0.107 0.044,0.208 0.087,0.301 0.059,0.005 0.11,-0.003 0.158,-0.015 0.064,0.062 0.112,0.142 0.146,0.236 l -0.062,0.094 c 0.081,0.061 0.162,0.121 0.243,0.182 l 0.099,-0.074 c 0.085,0.038 0.162,0.089 0.237,0.144 l 0.008,0.075 0.26,0.012 c 0.554,0.032 1.143,-0.321 1.33,-0.914 l 0.361,-1.317 c 0.061,-0.338 0.285,-0.563 0.605,-0.724 l 0.919,-0.451 c 0.279,-0.033 0.565,-0.015 0.833,0.068 l -0.356,0.667 -0.86,0.029 c -0.133,0.154 -0.248,0.357 -0.318,0.568 l 0.153,0.169 c -0.014,0.107 -0.045,0.214 -0.094,0.322 l -0.223,0.033 c -0.015,0.102 -0.038,0.229 -0.088,0.346 l 0.139,0.145 c -0.01,0.102 -0.054,0.225 -0.099,0.332 l -0.217,0.025 c -0.02,0.098 -0.057,0.193 -0.118,0.284 l 0.07,0.096 c -0.037,0.1 -0.105,0.213 -0.188,0.309 l -0.155,-0.038 c -0.067,0.086 -0.15,0.162 -0.246,0.232 l -0.013,0.146 c -0.083,0.074 -0.192,0.127 -0.313,0.167 L -4.37,-5.875 c -0.09,0.042 -0.214,0.083 -0.334,0.1 l -0.026,0.073 h -0.637 l -1.23,-0.564 c -0.071,-0.031 -0.125,-0.107 -0.159,-0.191 -0.137,-0.329 -0.253,-0.674 -0.339,-1.04 -0.041,-0.334 -0.043,-0.778 -0.003,-1.15 m 2.767,-5.796 c 0.184,0.298 0.228,0.424 0.541,1.198 0.375,0.821 0.381,0.938 0.395,1.044 0.008,0.064 0.004,0.122 -0.026,0.203 -0.057,0.159 -0.124,0.299 -0.183,0.408 -0.107,0.254 -0.182,0.251 -0.191,0.254 -0.005,0.002 0.063,-0.071 0.063,-0.146 0,-0.075 -0.043,-0.098 -0.085,-0.119 -0.009,-0.075 0.024,-0.346 0.024,-0.346 l 0.144,-0.008 c 0.004,-0.08 0.002,-0.273 -0.013,-0.389 -0.021,0 -0.175,-0.015 -0.175,-0.015 l -0.073,-0.309 0.058,-0.079 c -0.062,-0.191 -0.123,-0.263 -0.194,-0.304 l -0.155,0.088 c -0.102,-0.059 -0.183,-0.13 -0.252,-0.209 0,0 0.056,-0.08 0.051,-0.19 -0.03,-0.029 -0.187,-0.116 -0.366,-0.118 -0.035,0.109 -0.085,0.157 -0.105,0.186 -0.108,-0.008 -0.219,-0.013 -0.326,-0.036 -0.021,-0.069 -0.033,-0.18 -0.034,-0.192 -0.15,0.003 -0.301,0.045 -0.371,0.068 l -0.019,0.261 -0.282,0.105 c 0,0 -0.084,-0.083 -0.137,-0.104 -0.125,0.042 -0.291,0.314 -0.291,0.314 l 0.13,0.142 -0.178,0.301 c 0,0 -0.096,-0.016 -0.138,-0.011 -0.042,0.005 -0.079,0.432 -0.079,0.432 l 0.114,0.027 v 0.383 l -0.058,0.036 0.02,0.098 c 0.461,0.81 0.623,1.016 1.572,1.263 l 0.256,-0.005 c 0.853,-0.293 1.638,-0.62 2.416,-0.97 0.057,-0.011 0.143,-0.016 0.272,0.004 l 0.985,0.424 c 0.265,0.148 0.517,0.279 0.731,0.362 l -0.012,0.299 c -0.228,0.123 -0.684,0.31 -0.684,0.31 -0.47,-0.367 -0.901,-0.608 -0.961,-0.608 -0.06,0 -0.112,0.04 -0.112,0.04 l -0.008,0.213 c 0,0 -0.154,0.124 -0.294,0.175 -0.05,-0.047 -0.16,-0.14 -0.16,-0.14 l -0.309,0.163 0.003,0.183 c -0.075,0.065 -0.27,0.165 -0.295,0.155 -0.025,-0.01 -0.114,-0.123 -0.144,-0.108 -0.03,0.015 -0.255,0.1 -0.255,0.1 l -0.005,0.113 c -0.194,0.08 -0.324,0.065 -0.324,0.065 l -0.082,-0.115 c -1.029,0.362 -2.491,0.226 -2.871,-0.023 -0.417,-0.45 -0.525,-1.494 -0.325,-2.639 0.18,-1.027 0.762,-1.816 1.441,-2.486 0.431,0.008 1.02,0.16 1.356,0.252 m 4.181,3.752 -0.371,-0.134 c -0.083,-0.178 -0.434,-0.593 -0.572,-0.636 -0.02,-0.018 -0.09,-0.021 -0.117,-0.008 l -0.116,0.11 c -0.086,-0.035 -0.196,-0.074 -0.335,-0.122 l -0.006,-0.236 c -0.098,-0.057 -0.241,-0.098 -0.358,-0.133 -0.047,0.044 -0.087,0.082 -0.145,0.137 l -0.331,-0.122 -0.006,-0.212 c -0.088,-0.029 -0.3,-0.128 -0.3,-0.128 l -0.084,0.045 -0.133,-0.11 -0.011,-0.153 c 0,0 -0.6,-0.92 -1.03,-2.387 -0.045,-0.118 -0.022,-0.236 0.043,-0.354 0.543,-0.743 1.206,-1.396 2.07,-1.896 l 1.361,0.418 c 0.189,0.341 0.314,0.704 0.441,1.066 l -0.027,1.646 c -0.207,0.216 -0.392,0.421 -0.66,0.52 l -0.222,0.046 c 0.174,-0.084 0.144,-0.219 0.119,-0.269 0.087,-0.075 0.126,-0.153 0.168,-0.24 l 0.137,0.027 c 0.074,-0.106 0.175,-0.299 0.145,-0.291 0.003,-0.009 -0.084,-0.068 -0.136,-0.092 l 0.082,-0.317 0.074,-0.012 c 0.017,-0.115 0.013,-0.23 0.004,-0.346 l -0.192,-0.004 c -0.02,-0.004 -0.114,-0.267 -0.114,-0.267 0.055,-0.061 0.104,-0.122 0.118,-0.181 -0.07,-0.09 -0.223,-0.255 -0.247,-0.24 -0.016,0.004 -0.168,0.114 -0.168,0.114 l -0.24,-0.162 0.036,-0.211 c -0.112,-0.05 -0.226,-0.091 -0.345,-0.091 l -0.086,0.185 -0.333,-0.012 -0.066,-0.173 c -0.133,0.034 -0.25,0.085 -0.357,0.149 l 0.024,0.185 -0.27,0.173 -0.13,-0.074 c -0.074,0.091 -0.213,0.284 -0.219,0.287 -0.012,-0.004 0.102,0.102 0.102,0.102 -0.075,0.103 -0.143,0.213 -0.2,0.33 h -0.094 c -0.138,0.861 0.382,1.454 0.658,1.738 0.15,0.14 0.295,0.252 0.487,0.313 l 1.436,0.307 0.516,0.611 z m 0.228,1.331 v -0.464 l 0.333,0.102 v 0.444 l 0.116,0.016 v -0.415 l 0.286,0.126 0.039,0.385 0.098,0.01 -0.028,-0.342 c 0,0 0.269,0.128 0.275,0.132 l 0.039,0.036 0.147,0.389 -0.034,0.031 -0.117,0.016 c 0,0 -0.096,0.008 -0.061,0.076 0.051,0.095 0.247,0.155 0.386,0.171 0.139,0.016 0.574,0.02 0.574,0.02 0,0 0.232,0.284 0.35,0.926 0,0 -0.033,0.061 -0.194,0.145 -0.063,0.039 -0.082,0.106 -0.094,0.126 0,0 -0.019,0.136 -0.01,0.22 l 0.155,0.631 c 0,0 0.12,0.54 0.143,0.925 0.023,0.385 0.007,0.676 -0.045,0.917 0,0 -0.18,0.531 -0.744,0.948 C 1.128,-3.373 0.869,-3.386 0.591,-3.342 0.313,-3.299 0,-3.329 0,-3.329 c 0,0 -0.313,0.03 -0.591,-0.013 -0.278,-0.044 -0.537,-0.031 -1.101,-0.447 -0.564,-0.417 -0.744,-0.948 -0.744,-0.948 -0.052,-0.241 -0.068,-0.532 -0.045,-0.917 0.023,-0.385 0.143,-0.925 0.143,-0.925 l 0.155,-0.631 c 0.009,-0.084 -0.01,-0.22 -0.01,-0.22 -0.012,-0.02 -0.03,-0.087 -0.094,-0.126 -0.161,-0.084 -0.194,-0.145 -0.194,-0.145 0.118,-0.642 0.35,-0.926 0.35,-0.926 0,0 0.435,-0.004 0.574,-0.02 0.139,-0.016 0.335,-0.076 0.386,-0.171 0.035,-0.068 -0.061,-0.076 -0.061,-0.076 l -0.117,-0.016 -0.034,-0.031 0.147,-0.389 0.039,-0.036 c 0.006,-0.004 0.275,-0.132 0.275,-0.132 l -0.028,0.342 0.098,-0.01 0.039,-0.385 0.286,-0.126 v 0.415 l 0.116,-0.016 v -0.444 l 0.333,-0.102 V -9.36 H 0 Z m 3.987,-5.42 c -0.43,1.467 -1.03,2.387 -1.03,2.387 l -0.011,0.153 -0.133,0.11 -0.084,-0.045 c 0,0 -0.212,0.099 -0.3,0.128 l -0.006,0.212 -0.331,0.122 c -0.058,-0.055 -0.097,-0.093 -0.145,-0.137 -0.117,0.035 -0.26,0.076 -0.357,0.133 l -0.007,0.236 c -0.139,0.048 -0.249,0.087 -0.335,0.122 l -0.115,-0.11 c -0.028,-0.013 -0.098,-0.01 -0.118,0.008 -0.139,0.043 -0.489,0.458 -0.572,0.636 l -0.37,0.134 v -1.104 l 0.515,-0.611 1.436,-0.307 c 0.192,-0.061 0.337,-0.173 0.487,-0.313 0.276,-0.284 0.796,-0.877 0.658,-1.738 H 3.153 c -0.057,-0.117 -0.125,-0.227 -0.2,-0.33 0,0 0.114,-0.106 0.102,-0.102 -0.006,-0.003 -0.145,-0.196 -0.219,-0.287 l -0.13,0.074 -0.27,-0.173 0.024,-0.185 c -0.107,-0.064 -0.224,-0.115 -0.357,-0.149 l -0.066,0.173 -0.333,0.012 -0.086,-0.185 c -0.119,0 -0.233,0.041 -0.345,0.091 l 0.036,0.211 -0.24,0.162 c 0,0 -0.152,-0.11 -0.168,-0.114 -0.024,-0.015 -0.177,0.15 -0.247,0.24 0.014,0.059 0.063,0.12 0.118,0.181 0,0 -0.094,0.263 -0.114,0.267 l -0.192,0.004 c -0.008,0.116 -0.013,0.231 0.004,0.346 l 0.075,0.012 0.081,0.317 c -0.052,0.024 -0.139,0.083 -0.136,0.092 -0.03,-0.008 0.072,0.185 0.144,0.291 l 0.138,-0.027 c 0.042,0.087 0.082,0.165 0.168,0.24 -0.025,0.05 -0.055,0.185 0.119,0.269 L 0.837,-13.38 c -0.268,-0.099 -0.453,-0.304 -0.66,-0.52 l -0.026,-1.646 c 0.126,-0.362 0.251,-0.725 0.441,-1.066 l 1.36,-0.418 c 0.864,0.5 1.527,1.153 2.07,1.896 0.065,0.118 0.088,0.236 0.043,0.354 m 3.063,2.571 c 0.2,1.145 0.092,2.189 -0.325,2.639 -0.38,0.249 -1.842,0.385 -2.871,0.023 L 3.85,-9.432 c 0,0 -0.13,0.015 -0.324,-0.065 L 3.521,-9.61 c 0,0 -0.225,-0.085 -0.255,-0.1 -0.03,-0.015 -0.119,0.098 -0.144,0.108 -0.025,0.01 -0.22,-0.09 -0.295,-0.155 L 2.83,-9.94 2.521,-10.103 c 0,0 -0.11,0.093 -0.16,0.14 -0.14,-0.051 -0.294,-0.175 -0.294,-0.175 L 2.06,-10.351 c 0,0 -0.053,-0.04 -0.113,-0.04 -0.06,0 -0.491,0.241 -0.961,0.608 0,0 -0.456,-0.187 -0.683,-0.31 L 0.29,-10.392 c 0.214,-0.083 0.466,-0.214 0.731,-0.362 l 0.985,-0.424 c 0.129,-0.02 0.215,-0.015 0.273,-0.004 0.777,0.35 1.562,0.677 2.416,0.97 l 0.255,0.005 c 0.949,-0.247 1.111,-0.453 1.572,-1.263 l 0.02,-0.098 -0.057,-0.036 v -0.383 l 0.113,-0.027 c 0,0 -0.037,-0.427 -0.079,-0.432 -0.042,-0.005 -0.138,0.011 -0.138,0.011 l -0.178,-0.301 0.13,-0.142 c 0,0 -0.166,-0.272 -0.291,-0.314 -0.053,0.021 -0.137,0.104 -0.137,0.104 l -0.282,-0.105 -0.019,-0.261 c -0.07,-0.023 -0.221,-0.065 -0.371,-0.068 -10e-4,0.012 -0.013,0.123 -0.034,0.192 -0.107,0.023 -0.218,0.028 -0.326,0.036 -0.02,-0.029 -0.07,-0.077 -0.105,-0.186 -0.179,0.002 -0.336,0.089 -0.366,0.118 -0.005,0.11 0.051,0.19 0.051,0.19 -0.069,0.079 -0.15,0.15 -0.252,0.209 l -0.155,-0.088 c -0.071,0.041 -0.132,0.113 -0.194,0.304 l 0.058,0.079 -0.073,0.309 c 0,0 -0.154,0.015 -0.175,0.015 -0.015,0.116 -0.017,0.309 -0.013,0.389 l 0.144,0.008 c 0,0 0.033,0.271 0.024,0.346 -0.042,0.021 -0.085,0.044 -0.085,0.119 0,0.075 0.068,0.148 0.063,0.146 -0.009,-0.003 -0.084,0 -0.191,-0.254 -0.059,-0.109 -0.126,-0.249 -0.183,-0.408 -0.03,-0.081 -0.034,-0.139 -0.026,-0.203 0.014,-0.106 0.02,-0.223 0.395,-1.044 0.314,-0.774 0.357,-0.9 0.541,-1.198 0.336,-0.092 0.925,-0.244 1.356,-0.252 0.679,0.67 1.261,1.459 1.441,2.486"
             style="fill:#231f20;fill-opacity:1;fill-rule:nonzero;stroke:none"
             id="path2494"
             inkscape:connector-curvature="0" />
        </g>
      </g>
    </g>
  </g>
</svg>
