<?xml version="1.0" encoding="UTF-8" standalone="no"?>
<!-- Created with Inkscape (http://www.inkscape.org/) -->

<svg
   xmlns:dc="http://purl.org/dc/elements/1.1/"
   xmlns:cc="http://creativecommons.org/ns#"
   xmlns:rdf="http://www.w3.org/1999/02/22-rdf-syntax-ns#"
   xmlns:svg="http://www.w3.org/2000/svg"
   xmlns="http://www.w3.org/2000/svg"
   xmlns:sodipodi="http://sodipodi.sourceforge.net/DTD/sodipodi-0.dtd"
   xmlns:inkscape="http://www.inkscape.org/namespaces/inkscape"
   width="200"
   height="200"
   viewBox="0 0 52.916666 52.916666"
   version="1.1"
   id="svg6613"
   inkscape:version="0.92.2 5c3e80d, 2017-08-06"
   sodipodi:docname="shield.svg">
  <defs
     id="defs6607" />
  <sodipodi:namedview
     id="base"
     pagecolor="#ffffff"
     bordercolor="#666666"
     borderopacity="1.0"
     inkscape:pageopacity="0.0"
     inkscape:pageshadow="2"
     inkscape:zoom="1.979899"
     inkscape:cx="58.094444"
     inkscape:cy="51.717845"
     inkscape:document-units="mm"
     inkscape:current-layer="layer1"
     showgrid="false"
     units="px"
     inkscape:window-width="1680"
     inkscape:window-height="936"
     inkscape:window-x="0"
     inkscape:window-y="1"
     inkscape:window-maximized="1" />
  <metadata
     id="metadata6610">
    <rdf:RDF>
      <cc:Work
         rdf:about="">
        <dc:format>image/svg+xml</dc:format>
        <dc:type
           rdf:resource="http://purl.org/dc/dcmitype/StillImage" />
        <dc:title />
      </cc:Work>
    </rdf:RDF>
  </metadata>
  <g
     inkscape:label="Layer 1"
     inkscape:groupmode="layer"
     id="layer1"
     transform="translate(0,-244.08334)">
    <g
       id="g6328"
       transform="matrix(1.4657026,0,0,-1.4657026,-1304.3762,699.01227)">
      <g
         transform="translate(917.7186,292.2766)"
         id="g5317">
        <path
           inkscape:connector-curvature="0"
           id="path5319"
           style="fill:#ffffff;fill-opacity:1;fill-rule:nonzero;stroke:none"
           d="m 0,0 c 0,-5.29 -4.288,-9.578 -9.578,-9.578 -5.29,0 -9.578,4.288 -9.578,9.578 0,5.29 4.288,9.578 9.578,9.578 C -4.288,9.578 0,5.29 0,0" />
      </g>
      <g
         transform="translate(898.27139,292.23199)"
         id="g5321">
        <path
           inkscape:connector-curvature="0"
           id="path5323"
           style="fill:#ffffff;fill-opacity:1;fill-rule:nonzero;stroke:none"
           d="m 0,0 c 0,5.394 4.373,9.765 9.765,9.765 5.394,0 9.768,-4.371 9.768,-9.765 0,-5.394 -4.374,-9.767 -9.768,-9.767 C 4.373,-9.767 0,-5.394 0,0" />
      </g>
      <g
         transform="translate(907.983,302.5652)"
         id="g5325">
        <path
           inkscape:connector-curvature="0"
           id="path5327"
           style="fill:#231f20;fill-opacity:1;fill-rule:nonzero;stroke:none"
           d="m 0,0 c -5.65,0 -10.233,-4.583 -10.233,-10.235 0,-5.65 4.583,-10.233 10.233,-10.233 5.652,0 10.235,4.583 10.235,10.233 C 10.235,-4.583 5.652,0 0,0 m 5.973,-8.372 c 0.777,0.212 1.712,0.234 2.538,0.065 0.087,-0.38 0.146,-0.77 0.182,-1.167 -0.859,0.427 -1.737,0.813 -2.67,1.052 v 0.03 c 0.003,0.002 0.009,0.003 0.015,0.003 -0.022,0.006 -0.045,0.011 -0.065,0.017 m 1.835,2.03 c -0.572,0.139 -1.212,0.247 -1.789,0.347 -0.015,0.002 -0.031,0.002 -0.046,0.002 -0.06,0.009 -0.149,0.068 -0.11,0.148 0.434,0.282 1.043,0.279 1.566,0.18 0.136,-0.219 0.262,-0.445 0.379,-0.677 m -3.08,1.848 v 0.002 c -0.006,0 -0.013,-0.002 -0.019,-0.002 l -0.108,0.071 c -0.02,0.068 -0.07,0.167 0,0.226 0.336,0.23 0.713,0.404 1.127,0.48 0.015,0.004 0.029,0.006 0.046,0.01 0.314,-0.277 0.609,-0.575 0.88,-0.895 -0.622,0.097 -1.314,0.041 -1.926,0.108 M 2.045,-5.993 C 2.173,-6.082 2.31,-6.16 2.488,-6.151 2.646,-6.21 2.765,-6.379 2.844,-6.526 2.958,-6.984 2.503,-7.275 2.188,-7.507 2.026,-7.489 1.943,-7.253 1.846,-7.149 1.783,-7.073 1.727,-6.986 1.677,-6.893 1.535,-6.633 1.434,-6.327 1.293,-6.064 1.119,-5.732 0.829,-5.461 0.425,-5.461 0.287,-5.47 0.143,-5.474 0,-5.485 c -0.416,-0.026 -0.82,-0.098 -1.026,-0.49 -0.091,-0.013 -0.182,-0.044 -0.265,-0.089 -0.164,-0.085 -0.305,-0.22 -0.396,-0.384 -0.05,-0.119 -0.079,-0.295 -0.02,-0.413 0.011,-0.012 0.02,-0.023 0.031,-0.032 0.103,-0.104 0.219,-0.182 0.344,-0.236 0.059,0.089 0.02,0.247 0.159,0.268 0.176,-0.012 0.503,0.196 0.551,-0.11 0.06,-0.277 -0.009,-0.473 -0.137,-0.69 -0.425,-0.336 -0.996,-0.069 -1.392,0.128 -0.011,0.009 -0.022,0.016 -0.035,0.026 -0.315,0.232 -0.77,0.523 -0.657,0.981 0.08,0.147 0.199,0.316 0.357,0.375 0.178,-0.009 0.315,0.069 0.443,0.158 0.317,0.414 0.02,0.928 -0.089,1.332 -0.249,0.586 -0.701,1.048 -1.206,1.431 -0.286,0.217 -0.586,0.406 -0.876,0.579 1.256,0.707 2.705,1.109 4.249,1.109 1.529,0 2.965,-0.395 4.214,-1.089 C 3.948,-2.809 3.635,-3.006 3.34,-3.23 2.835,-3.613 2.382,-4.075 2.134,-4.661 2.024,-5.065 1.727,-5.579 2.045,-5.993 M 1.781,-18.75 c -0.447,1.131 -0.79,2.316 -1.026,3.539 -0.007,0.043 -0.017,0.085 -0.024,0.128 0.69,-1.099 1.345,-2.254 1.829,-3.468 -0.256,-0.078 -0.515,-0.145 -0.779,-0.199 M 0.071,-5.965 C 0.046,-5.967 0.024,-5.969 0,-5.971 c -0.188,-0.02 -0.367,-0.078 -0.522,-0.137 0.01,0.15 0.307,0.222 0.522,0.167 0.026,-0.008 0.048,-0.015 0.071,-0.024 m -5.788,2.247 c 0.41,-0.076 0.783,-0.251 1.117,-0.479 0.071,-0.059 0.021,-0.158 0,-0.226 l -0.107,-0.071 c -0.006,0 -0.013,0.002 -0.019,0.002 -0.002,0 -0.002,-0.002 -0.002,-0.002 -0.584,-0.065 -1.245,-0.015 -1.846,-0.096 0.265,0.309 0.551,0.601 0.857,0.872 m -0.145,-2.127 c 0.039,-0.08 -0.05,-0.139 -0.109,-0.148 -0.015,0 -0.03,0 -0.046,-0.002 -0.551,-0.095 -1.16,-0.199 -1.711,-0.326 0.117,0.228 0.243,0.452 0.377,0.669 0.506,0.084 1.078,0.076 1.489,-0.193 m -0.157,-2.547 v -0.03 c -0.909,-0.234 -1.765,-0.603 -2.602,-1.017 0.038,0.39 0.097,0.774 0.182,1.147 0.807,0.152 1.713,0.126 2.468,-0.08 -0.022,-0.006 -0.043,-0.011 -0.065,-0.017 0.006,0 0.011,-0.001 0.017,-0.003 m -2.516,-3.294 c 0.742,0.409 1.518,0.731 2.337,0.954 0.327,0.033 0.713,0.221 1.038,0.137 0.004,0.002 0.006,0.002 0.009,0.002 0.147,-0.009 0.295,-0.02 0.375,-0.158 0.137,-0.306 -0.148,-0.445 -0.315,-0.621 -0.993,-0.677 -1.977,-1.403 -2.877,-2.26 -0.261,0.616 -0.452,1.267 -0.567,1.946 m 4.015,-2.08 c 0.445,0.225 0.915,0.394 1.412,0.488 0.145,0.01 0.397,0.101 0.477,-0.015 0.005,-0.009 0.011,-0.02 0.016,-0.035 -0.237,-0.206 -0.523,-0.306 -0.74,-0.571 -0.356,-0.227 -0.415,-0.898 -0.948,-0.633 -0.282,0.403 -0.425,-0.013 -0.655,-0.165 -0.056,-0.017 -0.119,-0.026 -0.169,-0.052 h -0.005 c -0.004,-0.002 -0.008,-0.006 -0.011,-0.009 -0.034,-0.021 -0.062,-0.05 -0.078,-0.099 v -0.016 c -0.034,-0.099 -0.019,-0.218 0,-0.297 v -0.002 c 0.05,0.03 0.079,0.107 0.118,0.158 0.236,-0.073 0.247,0.237 0.448,0.181 0.016,-0.005 0.035,-0.013 0.055,-0.024 -0.057,-0.187 -0.285,-0.068 -0.375,-0.247 -0.057,-0.068 0,-0.178 -0.087,-0.226 -0.015,-0.043 -0.039,-0.091 -0.05,-0.137 -0.013,-0.05 -0.007,-0.099 0.05,-0.13 0.058,0.158 0.265,0.098 0.295,0.276 0.175,0.067 0.349,0.325 0.522,0.177 0.003,-0.002 0.007,-0.006 0.011,-0.01 -0.069,-0.089 -0.206,-0.107 -0.266,-0.235 0.011,-0.049 0.004,-0.091 -0.011,-0.132 -0.031,-0.043 -0.057,-0.085 -0.08,-0.13 -0.046,-0.068 -0.087,-0.133 -0.057,-0.21 0.004,-0.007 0.006,-0.014 0.009,-0.022 0.071,0 0.119,0.048 0.178,0.089 0.238,0.069 0.386,0.334 0.553,0.444 0.03,-0.054 0.041,-0.1 0.037,-0.141 0.024,-0.06 0.023,-0.138 0.002,-0.195 -0.241,-0.124 -0.115,-0.373 -0.237,-0.522 -0.004,-0.003 -0.006,-0.007 -0.01,-0.011 0.11,-0.089 0.218,0.088 0.336,0.099 0.334,0.285 0.238,0.948 0.596,1.119 0.05,0.014 0.102,0.027 0.152,0.039 0.28,0.066 0.57,0.107 0.842,0.194 0.266,0.089 0.542,0.247 0.789,0.286 -0.041,-0.05 -0.083,-0.098 -0.124,-0.148 0.011,0.003 0.024,0.007 0.035,0.009 -0.922,-1.076 -1.701,-2.206 -2.351,-3.394 -1.186,0.592 -2.215,1.446 -3.015,2.487 0.683,0.76 1.466,1.371 2.336,1.762 m 1.969,-4.768 c 0.484,1.208 1.135,2.358 1.822,3.451 -0.008,-0.043 -0.017,-0.085 -0.024,-0.128 -0.236,-1.219 -0.577,-2.397 -1.021,-3.525 -0.263,0.055 -0.523,0.124 -0.777,0.202 m 6.408,0.493 c -0.653,1.197 -1.436,2.334 -2.365,3.42 0.011,-0.002 0.024,-0.006 0.035,-0.009 -0.041,0.05 -0.084,0.098 -0.125,0.148 0.247,-0.039 0.524,-0.197 0.789,-0.286 0.273,-0.087 0.563,-0.128 0.843,-0.194 0.05,-0.012 0.101,-0.025 0.152,-0.039 0.358,-0.171 0.261,-0.834 0.595,-1.119 0.119,-0.011 0.227,-0.188 0.336,-0.099 -0.003,0.004 -0.005,0.008 -0.009,0.011 0.106,0.088 -0.071,0.138 -0.05,0.236 0.056,0.206 -0.178,0.304 -0.188,0.481 -10e-4,0.041 0.01,0.087 0.04,0.141 0.168,-0.11 0.315,-0.375 0.552,-0.444 0.06,-0.041 0.108,-0.089 0.178,-0.089 0.004,0.008 0.006,0.015 0.01,0.022 0.029,0.077 -0.011,0.142 -0.058,0.21 -0.022,0.045 -0.048,0.087 -0.079,0.13 -0.016,0.041 -0.023,0.083 -0.012,0.132 -0.059,0.128 -0.196,0.146 -0.265,0.235 0.004,0.004 0.007,0.008 0.009,0.01 0.175,0.148 0.349,-0.11 0.523,-0.177 0.03,-0.178 0.238,-0.118 0.295,-0.276 0.058,0.031 0.064,0.08 0.051,0.13 -0.012,0.046 -0.036,0.094 -0.051,0.137 -0.087,0.048 -0.027,0.158 -0.087,0.226 -0.089,0.179 -0.317,0.06 -0.375,0.247 0.021,0.011 0.039,0.019 0.056,0.024 0.201,0.056 0.212,-0.254 0.447,-0.181 0.039,-0.051 0.069,-0.128 0.119,-0.158 v 0.002 c 0.02,0.079 0.034,0.198 0,0.297 v 0.016 c -0.017,0.049 -0.045,0.078 -0.078,0.099 -0.004,0.003 -0.007,0.007 -0.011,0.009 H 5.129 c -0.051,0.026 -0.112,0.035 -0.169,0.052 -0.231,0.152 -0.375,0.568 -0.655,0.165 -0.533,-0.265 -0.592,0.406 -0.948,0.633 -0.218,0.265 -0.503,0.365 -0.741,0.571 0.004,0.015 0.011,0.026 0.019,0.035 0.078,0.116 0.33,0.025 0.475,0.015 0.497,-0.094 0.967,-0.263 1.412,-0.488 0.887,-0.399 1.683,-1.022 2.373,-1.805 -0.807,-1.035 -1.846,-1.885 -3.038,-2.47 m 1.236,6.669 c -0.167,0.176 -0.453,0.315 -0.315,0.621 0.08,0.138 0.228,0.149 0.375,0.158 0.003,0 0.005,0 0.009,-0.002 0.324,0.084 0.71,-0.104 1.037,-0.137 0.844,-0.23 1.639,-0.564 2.399,-0.989 -0.117,-0.683 -0.313,-1.338 -0.581,-1.958 -0.913,0.878 -1.914,1.618 -2.924,2.307" />
      </g>
    </g>
  </g>
</svg>
