<?xml version="1.0" encoding="UTF-8" standalone="no"?>
<!-- Created with Inkscape (http://www.inkscape.org/) -->

<svg
   xmlns:dc="http://purl.org/dc/elements/1.1/"
   xmlns:cc="http://creativecommons.org/ns#"
   xmlns:rdf="http://www.w3.org/1999/02/22-rdf-syntax-ns#"
   xmlns:svg="http://www.w3.org/2000/svg"
   xmlns="http://www.w3.org/2000/svg"
   xmlns:sodipodi="http://sodipodi.sourceforge.net/DTD/sodipodi-0.dtd"
   xmlns:inkscape="http://www.inkscape.org/namespaces/inkscape"
   width="200"
   height="200"
   viewBox="0 0 52.916666 52.916666"
   version="1.1"
   id="svg6613"
   inkscape:version="0.92.2 5c3e80d, 2017-08-06"
   sodipodi:docname="spider-friends.svg">
  <defs
     id="defs6607" />
  <sodipodi:namedview
     id="base"
     pagecolor="#ffffff"
     bordercolor="#666666"
     borderopacity="1.0"
     inkscape:pageopacity="0.0"
     inkscape:pageshadow="2"
     inkscape:zoom="1.979899"
     inkscape:cx="58.094444"
     inkscape:cy="92.123946"
     inkscape:document-units="mm"
     inkscape:current-layer="layer1"
     showgrid="false"
     units="px"
     inkscape:window-width="1680"
     inkscape:window-height="936"
     inkscape:window-x="0"
     inkscape:window-y="1"
     inkscape:window-maximized="1" />
  <metadata
     id="metadata6610">
    <rdf:RDF>
      <cc:Work
         rdf:about="">
        <dc:format>image/svg+xml</dc:format>
        <dc:type
           rdf:resource="http://purl.org/dc/dcmitype/StillImage" />
        <dc:title />
      </cc:Work>
    </rdf:RDF>
  </metadata>
  <g
     inkscape:label="Layer 1"
     inkscape:groupmode="layer"
     id="layer1"
     transform="translate(0,-244.08334)">
    <g
       id="g6336"
       transform="matrix(1.4880952,0,0,-1.4880952,-1324.4791,534.19868)">
      <g
         transform="translate(917.4189,177.12469)"
         id="g5361">
        <path
           inkscape:connector-curvature="0"
           id="path5363"
           style="fill:#ed1834;fill-opacity:1;fill-rule:nonzero;stroke:none"
           d="m 0,0 c 0,-5.211 -4.224,-9.436 -9.435,-9.436 -5.211,0 -9.434,4.225 -9.434,9.436 0,5.21 4.223,9.435 9.434,9.435 C -4.224,9.435 0,5.21 0,0" />
      </g>
      <g
         transform="translate(907.83,187.25751)"
         id="g5365">
        <path
           inkscape:connector-curvature="0"
           id="path5367"
           style="fill:#254aa5;fill-opacity:1;fill-rule:nonzero;stroke:none"
           d="m 0,0 c -5.567,0 -10.08,-4.513 -10.08,-10.08 0,-5.566 4.513,-10.08 10.08,-10.08 5.567,0 10.08,4.514 10.08,10.08 C 10.08,-4.513 5.567,0 0,0 m 0.034,-18.641 c -4.728,0 -8.561,3.833 -8.561,8.561 0,4.728 3.833,8.562 8.561,8.562 4.728,0 8.561,-3.834 8.561,-8.562 0,-4.728 -3.833,-8.561 -8.561,-8.561" />
      </g>
      <g
         transform="translate(914.35851,176.6501)"
         id="g5369">
        <path
           inkscape:connector-curvature="0"
           id="path5371"
           style="fill:#231f20;fill-opacity:1;fill-rule:nonzero;stroke:none"
           d="m 0,0 c -0.833,0.747 -3.594,1.011 -4.516,1.085 1.145,-0.01 3.714,-0.021 4.484,0.669 0.389,1.722 -2.209,4.904 -4.906,5.944 -0.258,0.1 -0.261,-0.2 -0.096,-0.292 C -3.41,6.496 -0.92,3.509 -1.137,2.209 -2.677,1.615 -4.012,1.566 -5.012,1.533 -4.059,1.75 -2.677,2.174 -2.078,2.794 -1.884,3.833 -3.8,6.432 -5.522,6.853 -5.791,6.92 -5.792,6.681 -5.619,6.561 -5.463,6.454 -2.858,4.331 -3.15,2.935 -3.432,2.708 -4.858,1.941 -5.443,1.949 c 0.043,0.126 0.077,0.262 0.1,0.404 0.001,0 0.001,0 0.001,0.002 0.023,0.141 0.035,0.29 0.035,0.442 0,1.021 -0.547,1.848 -1.221,1.848 -0.674,0 -1.222,-0.827 -1.222,-1.848 0,-0.152 0.013,-0.301 0.035,-0.442 10e-4,-0.002 10e-4,-0.002 10e-4,-0.002 0.023,-0.142 0.058,-0.278 0.101,-0.404 -0.587,-0.008 -2.012,0.759 -2.293,0.986 -0.292,1.396 2.312,3.519 2.468,3.626 0.173,0.12 0.172,0.359 -0.097,0.292 -1.722,-0.421 -3.637,-3.02 -3.443,-4.059 0.598,-0.62 1.98,-1.044 2.933,-1.261 -1,0.033 -2.335,0.082 -3.875,0.676 -0.217,1.3 2.273,4.287 3.897,5.197 0.165,0.092 0.163,0.392 -0.097,0.292 -2.696,-1.04 -5.293,-4.222 -4.905,-5.944 0.77,-0.69 3.338,-0.679 4.484,-0.669 C -9.463,1.011 -12.224,0.747 -13.057,0 c -0.13,-1.559 0.572,-5.163 2.697,-5.846 0.302,-0.097 0.236,0.164 0.096,0.292 -1.234,1.137 -1.818,3.833 -1.526,5.23 0.514,0.357 2.603,0.815 3.37,0.897 -0.572,-0.262 -1.814,-0.421 -2.493,-1.125 -0.455,-1.007 0.974,-5.034 2.631,-5.553 0.264,-0.084 0.314,0.129 0.097,0.291 -0.779,0.586 -1.916,3.302 -1.689,4.97 0.282,0.156 1.349,0.947 1.862,1.062 -0.367,-0.678 -0.66,-1.521 -0.66,-2.394 0,-1.459 1.116,-3.669 2.144,-3.669 1.027,0 2.143,2.21 2.143,3.669 0,0.873 -0.293,1.716 -0.66,2.394 0.513,-0.115 1.58,-0.906 1.862,-1.062 0.228,-1.668 -0.91,-4.384 -1.689,-4.97 -0.217,-0.162 -0.167,-0.375 0.097,-0.291 1.657,0.519 3.086,4.546 2.631,5.553 -0.678,0.704 -1.921,0.863 -2.493,1.125 0.767,-0.082 2.857,-0.54 3.37,-0.897 0.292,-1.397 -0.292,-4.093 -1.526,-5.23 -0.14,-0.128 -0.206,-0.389 0.097,-0.292 C -0.571,-5.163 0.13,-1.559 0,0" />
      </g>
    </g>
  </g>
</svg>
