<?xml version="1.0" encoding="UTF-8" standalone="no"?>
<svg
   xmlns:dc="http://purl.org/dc/elements/1.1/"
   xmlns:cc="http://creativecommons.org/ns#"
   xmlns:rdf="http://www.w3.org/1999/02/22-rdf-syntax-ns#"
   xmlns:svg="http://www.w3.org/2000/svg"
   xmlns="http://www.w3.org/2000/svg"
   xmlns:sodipodi="http://sodipodi.sourceforge.net/DTD/sodipodi-0.dtd"
   xmlns:inkscape="http://www.inkscape.org/namespaces/inkscape"
   width="24"
   height="24"
   viewBox="231.58499 47.596265 24 23.999999"
   preserveAspectRatio="xMidYMid"
   version="1.1"
   id="svg27"
   sodipodi:docname="annihilation.svg"
   inkscape:version="0.92.4 (5da689c313, 2019-01-14)">
  <metadata
     id="metadata31">
    <rdf:RDF>
      <cc:Work
         rdf:about="">
        <dc:format>image/svg+xml</dc:format>
        <dc:type
           rdf:resource="http://purl.org/dc/dcmitype/StillImage" />
        <dc:title />
      </cc:Work>
    </rdf:RDF>
  </metadata>
  <sodipodi:namedview
     pagecolor="#ffffff"
     bordercolor="#666666"
     borderopacity="1"
     objecttolerance="10"
     gridtolerance="10"
     guidetolerance="10"
     inkscape:pageopacity="0"
     inkscape:pageshadow="2"
     inkscape:window-width="1842"
     inkscape:window-height="1057"
     id="namedview29"
     showgrid="false"
     inkscape:zoom="8.6119644"
     inkscape:cx="9.3492465"
     inkscape:cy="18.919977"
     inkscape:window-x="70"
     inkscape:window-y="-8"
     inkscape:window-maximized="1"
     inkscape:current-layer="svg27" />
  <defs
     id="defs17">
    <filter
       id="editing-extrusion"
       x="-1"
       y="-1"
       width="3"
       height="3">
      <feFlood
         result="color1"
         flood-color="#000000"
         id="feFlood2" />
      <feConvolveMatrix
         order="3,3"
         divisor="1"
         kernelMatrix="1 0 0 0 1 0 0 0 1"
         in="SourceAlpha"
         result="extrude"
         id="feConvolveMatrix4" />
      <feComposite
         in="color1"
         in2="extrude"
         result="comp-extrude"
         operator="in"
         id="feComposite6" />
      <feOffset
         dx="1.5"
         dy="1.5"
         in="comp-extrude"
         result="offset-extrude"
         id="feOffset8" />
      <feMerge
         id="feMerge14">
        <feMergeNode
           in="offset-extrude"
           id="feMergeNode10" />
        <feMergeNode
           in="SourceGraphic"
           id="feMergeNode12" />
      </feMerge>
    </filter>
  </defs>
  <g
     id="g23"
     style="filter:url(#editing-extrusion)"
     transform="matrix(0.75202106,0,0,0.75202106,55.509223,3.2322858)">
    <g
       transform="translate(244.77375,83.865001)"
       id="g21">
      <path
         d="m 8.83,-0.48 v 0 q -0.6,0.1 -1.32,0.22 v 0 0 q -0.72,0.12 -1.29,0.21 v 0 0 q 0.09,-0.79 0.19,-1.56 v 0 0 q 0.07,-0.67 0.13,-1.34 v 0 0 Q 6.6,-3.62 6.65,-4.1 v 0 H 4.56 L 3.6,-0.65 v 0 q -0.53,0.07 -1.25,0.16 v 0 0 q -0.72,0.08 -1.34,0.15 v 0 0 q -0.77,0.1 -1.51,0.2 v 0 0 q 0.96,-3.2 1.89,-6.29 v 0 0 q 0.39,-1.3 0.81,-2.71 v 0 0 q 0.42,-1.42 0.84,-2.82 v 0 0 q 0.42,-1.41 0.8,-2.7 v 0 0 q 0.38,-1.3 0.67,-2.38 v 0 0 q 1.63,-0.12 3.33,-0.29 v 0 0 q 1.69,-0.17 3.3,-0.45 v 0 0 q -0.08,0.76 -0.16,1.9 v 0 0 q -0.08,1.14 -0.16,2.49 v 0 0 q -0.07,1.34 -0.14,2.81 v 0 0 q -0.07,1.46 -0.14,2.88 v 0 0 q -0.12,3.31 -0.27,7.03 v 0 0 Q 9.55,-0.55 8.83,-0.48 Z M 6.62,-12.53 5.14,-6.5 v 0 q 0.09,0 0.34,-0.02 v 0 0 q 0.26,-0.01 0.53,-0.02 v 0 0 q 0.28,-0.01 0.52,-0.02 v 0 0 Q 6.77,-6.58 6.86,-6.6 v 0 0 q 0,-0.14 0.04,-0.49 v 0 0 q 0.04,-0.35 0.07,-0.79 v 0 0 q 0.04,-0.45 0.09,-0.98 v 0 0 Q 7.1,-9.38 7.15,-9.89 v 0 0 q 0.1,-1.22 0.24,-2.64 v 0 l 0.15,-2.09 -0.36,0.03 z"
         id="path19"
         inkscape:connector-curvature="0"
         style="fill:#fcba03" />
    </g>
  </g>
  <style
     id="style25">text {
  font-size: 64px;
  font-family: Arial Black;
  dominant-baseline: central;
  text-anchor: middle;
}</style>
</svg>
