<?xml version="1.0" encoding="UTF-8" standalone="no"?>
<svg
   width="24"
   height="24"
   viewBox="224.61504 47.6 24.000001 24"
   preserveAspectRatio="xMidYMid"
   version="1.1"
   id="svg27"
   sodipodi:docname="blackpanther.svg"
   inkscape:version="1.1.1 (3bf5ae0d25, 2021-09-20)"
   xmlns:inkscape="http://www.inkscape.org/namespaces/inkscape"
   xmlns:sodipodi="http://sodipodi.sourceforge.net/DTD/sodipodi-0.dtd"
   xmlns="http://www.w3.org/2000/svg"
   xmlns:svg="http://www.w3.org/2000/svg">
  <sodipodi:namedview
     id="namedview29"
     pagecolor="#ffffff"
     bordercolor="#666666"
     borderopacity="1.0"
     inkscape:pageshadow="2"
     inkscape:pageopacity="0.0"
     inkscape:pagecheckerboard="0"
     showgrid="false"
     inkscape:zoom="15.912409"
     inkscape:cx="25.38899"
     inkscape:cy="17.376376"
     inkscape:window-width="1827"
     inkscape:window-height="1057"
     inkscape:window-x="2645"
     inkscape:window-y="-8"
     inkscape:window-maximized="1"
     inkscape:current-layer="svg27" />
  <defs
     id="defs17">
    <filter
       id="editing-extrusion"
       x="0"
       y="0"
       width="1.0697026"
       height="1.0839866">
      <feFlood
         result="color1"
         flood-color="#000000"
         id="feFlood2" />
      <feConvolveMatrix
         order="3,3"
         divisor="1"
         kernelMatrix="1 0 0 0 1 0 0 0 1"
         in="SourceAlpha"
         result="extrude"
         id="feConvolveMatrix4" />
      <feComposite
         in="color1"
         in2="extrude"
         result="comp-extrude"
         operator="in"
         id="feComposite6" />
      <feOffset
         dx="1.5"
         dy="1.5"
         in="comp-extrude"
         result="offset-extrude"
         id="feOffset8" />
      <feMerge
         id="feMerge14">
        <feMergeNode
           in="offset-extrude"
           id="feMergeNode10" />
        <feMergeNode
           in="SourceGraphic"
           id="feMergeNode12" />
      </feMerge>
    </filter>
  </defs>
  <g
     filter="url(#editing-extrusion)"
     id="g23"
     transform="matrix(0.72741093,0,0,0.72741093,53.674893,4.4258797)">
    <g
       transform="translate(240.00491,83.930001)"
       id="g21">
      <path
         d="m 10.85,-6.02 v 0 q 0,0.98 -0.41,1.82 v 0 0 q -0.41,0.84 -1.1,1.52 v 0 0 q -0.7,0.69 -1.62,1.2 v 0 0 q -0.93,0.52 -1.95,0.87 v 0 0 q -1.02,0.35 -2.09,0.53 v 0 0 Q 2.62,0.1 1.63,0.1 v 0 0 q -0.89,0 -1.65,-0.15 v 0 0 q 1.15,-4.2 1.83,-8.46 v 0 0 q 0.69,-4.26 1.31,-8.58 v 0 0 q 1.25,-0.26 2.59,-0.47 v 0 0 q 1.35,-0.2 2.79,-0.2 v 0 0 q 0.6,0 1.27,0.14 v 0 0 q 0.67,0.15 1.22,0.53 v 0 0 q 0.55,0.39 0.93,1.01 v 0 0 q 0.37,0.62 0.37,1.58 v 0 0 q 0,0.92 -0.3,1.71 v 0 0 q -0.3,0.79 -0.77,1.44 v 0 0 q -0.47,0.65 -1.07,1.11 v 0 0 q -0.6,0.47 -1.22,0.71 v 0 0 q 0.31,0.17 0.65,0.48 v 0 0 q 0.33,0.31 0.62,0.73 v 0 0 q 0.29,0.42 0.47,1 v 0 0 q 0.18,0.58 0.18,1.3 z m -5.5,-2.5 v 0 Q 5.26,-7.94 5.17,-7.5 v 0 0 q -0.08,0.44 -0.15,0.85 v 0 0 Q 4.94,-6.24 4.86,-5.8 v 0 0 q -0.08,0.45 -0.18,1.05 v 0 0 Q 5.14,-4.8 5.71,-4.92 v 0 0 q 0.58,-0.12 1.11,-0.37 v 0 0 Q 7.34,-5.54 7.7,-5.96 v 0 0 q 0.36,-0.42 0.36,-1.02 v 0 0 q 0,-0.44 -0.22,-0.72 v 0 0 Q 7.61,-7.99 7.26,-8.18 v 0 0 Q 6.91,-8.38 6.5,-8.46 v 0 0 Q 6.1,-8.54 5.74,-8.54 v 0 0 q -0.12,0 -0.21,0 v 0 0 q -0.08,0 -0.18,0.02 z m 1.08,-5.81 v 0 q -0.05,0.27 -0.11,0.63 v 0 0 q -0.06,0.36 -0.13,0.75 v 0 0 q -0.07,0.4 -0.15,0.78 v 0 0 q -0.09,0.39 -0.14,0.67 v 0 0 q 0.53,-0.09 1.06,-0.26 v 0 0 q 0.53,-0.17 0.95,-0.37 v 0 0 q 0.42,-0.21 0.67,-0.45 v 0 0 q 0.25,-0.24 0.25,-0.52 v 0 0 q 0,-0.36 -0.21,-0.59 v 0 0 Q 8.4,-13.92 8.05,-14.06 v 0 0 Q 7.7,-14.21 7.33,-14.27 v 0 0 q -0.37,-0.06 -0.66,-0.06 v 0 z m 7.92,13.54 -4.15,0.81 v 0 q 0.72,-3.24 1.37,-6.33 v 0 0 q 0.26,-1.3 0.55,-2.74 v 0 0 q 0.29,-1.44 0.55,-2.83 v 0 0 q 0.27,-1.39 0.51,-2.69 v 0 0 q 0.24,-1.29 0.4,-2.37 v 0 0 q 0.7,-0.22 1.37,-0.38 v 0 0 q 0.67,-0.15 1.38,-0.27 v 0 0 q 0.71,-0.12 1.33,-0.12 v 0 0 q 1.08,0 1.82,0.36 v 0 0 q 0.73,0.36 1.18,0.97 v 0 0 q 0.46,0.61 0.65,1.43 v 0 0 q 0.19,0.81 0.19,1.75 v 0 0 q 0,1.34 -0.49,2.59 v 0 0 q -0.49,1.25 -1.32,2.22 v 0 0 q -0.83,0.97 -1.89,1.55 v 0 0 q -1.07,0.58 -2.22,0.58 v 0 h -0.27 v 0 q -0.19,0.81 -0.36,1.77 v 0 0 q -0.17,0.96 -0.29,1.78 v 0 0 q -0.16,0.96 -0.31,1.92 z m 2.55,-14.02 v 0 q -0.27,1.59 -0.53,3 v 0 0 q -0.27,1.42 -0.58,3.03 v 0 0 q 0.39,-0.1 0.81,-0.45 v 0 0 q 0.42,-0.35 0.78,-0.91 v 0 0 q 0.36,-0.56 0.57,-1.31 v 0 0 q 0.22,-0.74 0.22,-1.56 v 0 0 q 0,-0.89 -0.4,-1.34 v 0 0 q -0.39,-0.46 -0.87,-0.46 z"
         fill="#fcba03"
         id="path19" />
    </g>
  </g>
  <style
     id="style25">text {
  font-size: 64px;
  font-family: Arial Black;
  dominant-baseline: central;
  text-anchor: middle;
}</style>
</svg>
