<?xml version="1.0" encoding="UTF-8" standalone="no"?>
<svg
   width="24"
   height="24"
   viewBox="220.41504 47.6 24 24"
   preserveAspectRatio="xMidYMid"
   version="1.1"
   id="svg27"
   sodipodi:docname="blackwidow.svg"
   inkscape:version="1.1.1 (3bf5ae0d25, 2021-09-20)"
   xmlns:inkscape="http://www.inkscape.org/namespaces/inkscape"
   xmlns:sodipodi="http://sodipodi.sourceforge.net/DTD/sodipodi-0.dtd"
   xmlns="http://www.w3.org/2000/svg"
   xmlns:svg="http://www.w3.org/2000/svg">
  <sodipodi:namedview
     id="namedview29"
     pagecolor="#ffffff"
     bordercolor="#666666"
     borderopacity="1.0"
     inkscape:pageshadow="2"
     inkscape:pageopacity="0.0"
     inkscape:pagecheckerboard="0"
     showgrid="false"
     inkscape:zoom="15.912409"
     inkscape:cx="29.599541"
     inkscape:cy="17.376376"
     inkscape:window-width="1827"
     inkscape:window-height="1057"
     inkscape:window-x="85"
     inkscape:window-y="-8"
     inkscape:window-maximized="1"
     inkscape:current-layer="svg27" />
  <defs
     id="defs17">
    <filter
       id="editing-extrusion"
       x="0"
       y="0"
       width="1.0542103"
       height="1.0839866">
      <feFlood
         result="color1"
         flood-color="#000000"
         id="feFlood2" />
      <feConvolveMatrix
         order="3,3"
         divisor="1"
         kernelMatrix="1 0 0 0 1 0 0 0 1"
         in="SourceAlpha"
         result="extrude"
         id="feConvolveMatrix4" />
      <feComposite
         in="color1"
         in2="extrude"
         result="comp-extrude"
         operator="in"
         id="feComposite6" />
      <feOffset
         dx="1.5"
         dy="1.5"
         in="comp-extrude"
         result="offset-extrude"
         id="feOffset8" />
      <feMerge
         id="feMerge14">
        <feMergeNode
           in="offset-extrude"
           id="feMergeNode10" />
        <feMergeNode
           in="SourceGraphic"
           id="feMergeNode12" />
      </feMerge>
    </filter>
  </defs>
  <g
     filter="url(#editing-extrusion)"
     id="g23"
     transform="matrix(0.72742763,0,0,0.72742763,49.164818,4.424613)">
    <g
       transform="translate(237.3504,83.930001)"
       id="g21">
      <path
         d="m 10.85,-6.02 v 0 q 0,0.98 -0.41,1.82 v 0 0 q -0.41,0.84 -1.1,1.52 v 0 0 q -0.7,0.69 -1.62,1.2 v 0 0 q -0.93,0.52 -1.95,0.87 v 0 0 q -1.02,0.35 -2.09,0.53 v 0 0 Q 2.62,0.1 1.63,0.1 v 0 0 q -0.89,0 -1.65,-0.15 v 0 0 q 1.15,-4.2 1.83,-8.46 v 0 0 q 0.69,-4.26 1.31,-8.58 v 0 0 q 1.25,-0.26 2.59,-0.47 v 0 0 q 1.35,-0.2 2.79,-0.2 v 0 0 q 0.6,0 1.27,0.14 v 0 0 q 0.67,0.15 1.22,0.53 v 0 0 q 0.55,0.39 0.93,1.01 v 0 0 q 0.37,0.62 0.37,1.58 v 0 0 q 0,0.92 -0.3,1.71 v 0 0 q -0.3,0.79 -0.77,1.44 v 0 0 q -0.47,0.65 -1.07,1.11 v 0 0 q -0.6,0.47 -1.22,0.71 v 0 0 q 0.31,0.17 0.65,0.48 v 0 0 q 0.33,0.31 0.62,0.73 v 0 0 q 0.29,0.42 0.47,1 v 0 0 q 0.18,0.58 0.18,1.3 z m -5.5,-2.5 v 0 Q 5.26,-7.94 5.17,-7.5 v 0 0 q -0.08,0.44 -0.15,0.85 v 0 0 Q 4.94,-6.24 4.86,-5.8 v 0 0 q -0.08,0.45 -0.18,1.05 v 0 0 Q 5.14,-4.8 5.71,-4.92 v 0 0 q 0.58,-0.12 1.11,-0.37 v 0 0 Q 7.34,-5.54 7.7,-5.96 v 0 0 q 0.36,-0.42 0.36,-1.02 v 0 0 q 0,-0.44 -0.22,-0.72 v 0 0 Q 7.61,-7.99 7.26,-8.18 v 0 0 Q 6.91,-8.38 6.5,-8.46 v 0 0 Q 6.1,-8.54 5.74,-8.54 v 0 0 q -0.12,0 -0.21,0 v 0 0 q -0.08,0 -0.18,0.02 z m 1.08,-5.81 v 0 q -0.05,0.27 -0.11,0.63 v 0 0 q -0.06,0.36 -0.13,0.75 v 0 0 q -0.07,0.4 -0.15,0.78 v 0 0 q -0.09,0.39 -0.14,0.67 v 0 0 q 0.53,-0.09 1.06,-0.26 v 0 0 q 0.53,-0.17 0.95,-0.37 v 0 0 q 0.42,-0.21 0.67,-0.45 v 0 0 q 0.25,-0.24 0.25,-0.52 v 0 0 q 0,-0.36 -0.21,-0.59 v 0 0 Q 8.4,-13.92 8.05,-14.06 v 0 0 Q 7.7,-14.21 7.33,-14.27 v 0 0 q -0.37,-0.06 -0.66,-0.06 v 0 z m 9.82,13.54 -4.99,0.89 1.82,-17.04 v 0 q 1.13,-0.05 2.12,-0.23 v 0 0 q 1,-0.18 1.98,-0.25 v 0 0 q 0,0.02 -0.07,0.49 v 0 0 q -0.07,0.47 -0.19,1.22 v 0 0 q -0.12,0.76 -0.26,1.71 v 0 0 q -0.15,0.94 -0.42,2.6 v 0 0 q -0.28,1.66 -0.74,4.58 v 0 h 0.36 v 0 q 0.63,-2.2 1.04,-3.61 v 0 0 q 0.4,-1.4 0.66,-2.28 v 0 0 q 0.25,-0.87 0.48,-1.69 v 0 0 q 0.22,-0.82 0.43,-1.51 v 0 0 q 0.2,-0.7 0.32,-1.18 v 0 h 0.22 v 0 q 0.43,0 0.87,-0.05 v 0 0 q 0.45,-0.04 0.84,-0.1 v 0 0 q 0.4,-0.06 0.83,-0.16 v 0 0 q -0.05,0.22 -0.11,0.89 v 0 0 q -0.06,0.67 -0.15,1.62 v 0 0 q -0.1,0.95 -0.19,2.09 v 0 0 q -0.1,1.14 -0.2,2.23 v 0 0 q -0.09,1.09 -0.18,2.07 v 0 0 q -0.08,0.99 -0.15,1.68 v 0 H 21 l 2.28,-10.32 v 0 q 0.82,-0.12 1.61,-0.21 v 0 0 q 0.69,-0.1 1.44,-0.19 v 0 0 q 0.74,-0.1 1.32,-0.22 v 0 0 q -0.36,1.01 -0.72,2.24 v 0 0 q -0.36,1.24 -0.75,2.61 v 0 0 q -0.38,1.37 -0.73,2.76 v 0 0 q -0.35,1.39 -0.68,2.69 v 0 0 Q 24,-4.39 23.28,-1.15 v 0 l -5.42,0.91 1.05,-9.26 h -0.29 z"
         fill="#fcba03"
         id="path19" />
    </g>
  </g>
  <style
     id="style25">text {
  font-size: 64px;
  font-family: Arial Black;
  dominant-baseline: central;
  text-anchor: middle;
}</style>
</svg>
