<?xml version="1.0" encoding="UTF-8" standalone="no"?>
<svg
   xmlns:dc="http://purl.org/dc/elements/1.1/"
   xmlns:cc="http://creativecommons.org/ns#"
   xmlns:rdf="http://www.w3.org/1999/02/22-rdf-syntax-ns#"
   xmlns:svg="http://www.w3.org/2000/svg"
   xmlns="http://www.w3.org/2000/svg"
   xmlns:sodipodi="http://sodipodi.sourceforge.net/DTD/sodipodi-0.dtd"
   xmlns:inkscape="http://www.inkscape.org/namespaces/inkscape"
   width="24"
   height="24"
   viewBox="218.21873 47.596265 24 23.999999"
   preserveAspectRatio="xMidYMid"
   version="1.1"
   id="svg27"
   sodipodi:docname="champions.svg"
   inkscape:version="0.92.4 (5da689c313, 2019-01-14)">
  <metadata
     id="metadata31">
    <rdf:RDF>
      <cc:Work
         rdf:about="">
        <dc:format>image/svg+xml</dc:format>
        <dc:type
           rdf:resource="http://purl.org/dc/dcmitype/StillImage" />
        <dc:title></dc:title>
      </cc:Work>
    </rdf:RDF>
  </metadata>
  <sodipodi:namedview
     pagecolor="#ffffff"
     bordercolor="#666666"
     borderopacity="1"
     objecttolerance="10"
     gridtolerance="10"
     guidetolerance="10"
     inkscape:pageopacity="0"
     inkscape:pageshadow="2"
     inkscape:window-width="1842"
     inkscape:window-height="1057"
     id="namedview29"
     showgrid="false"
     inkscape:zoom="8.6119644"
     inkscape:cx="16.989406"
     inkscape:cy="16.154838"
     inkscape:window-x="70"
     inkscape:window-y="-8"
     inkscape:window-maximized="1"
     inkscape:current-layer="svg27" />
  <defs
     id="defs17">
    <filter
       id="editing-extrusion"
       x="-1"
       y="-1"
       width="3"
       height="3">
      <feFlood
         result="color1"
         flood-color="#000000"
         id="feFlood2" />
      <feConvolveMatrix
         order="3,3"
         divisor="1"
         kernelMatrix="1 0 0 0 1 0 0 0 1"
         in="SourceAlpha"
         result="extrude"
         id="feConvolveMatrix4" />
      <feComposite
         in="color1"
         in2="extrude"
         result="comp-extrude"
         operator="in"
         id="feComposite6" />
      <feOffset
         dx="1.5"
         dy="1.5"
         in="comp-extrude"
         result="offset-extrude"
         id="feOffset8" />
      <feMerge
         id="feMerge14">
        <feMergeNode
           in="offset-extrude"
           id="feMergeNode10" />
        <feMergeNode
           in="SourceGraphic"
           id="feMergeNode12" />
      </feMerge>
    </filter>
  </defs>
  <g
     id="g23"
     style="filter:url(#editing-extrusion)"
     transform="matrix(0.67333989,0,0,0.74864308,60.88387,3.4106018)">
    <g
       transform="translate(234.8275,83.905)"
       id="g21">
      <path
         d="m 10.25,-5.16 v 0 q -0.58,1.32 -1.29,2.29 v 0 0 q -0.7,0.97 -1.48,1.63 v 0 0 Q 6.7,-0.58 5.9,-0.26 v 0 0 Q 5.11,0.05 4.37,0.05 v 0 0 q -0.75,0 -1.36,-0.34 v 0 0 Q 2.4,-0.62 1.94,-1.3 v 0 0 Q 1.49,-1.97 1.21,-2.95 v 0 0 Q 0.94,-3.94 0.94,-5.26 v 0 0 q 0,-2.25 0.62,-4.45 v 0 0 q 0.62,-2.19 1.75,-3.95 v 0 0 q 1.13,-1.75 2.68,-2.82 v 0 0 q 1.55,-1.06 3.42,-1.06 v 0 0 q 0.57,0 1.1,0.24 v 0 0 q 0.53,0.24 0.91,0.67 v 0 0 q 0.39,0.43 0.62,1.05 v 0 0 q 0.22,0.63 0.22,1.4 v 0 0 q 0,0.14 0,0.3 v 0 0 q 0,0.15 -0.02,0.32 v 0 l -3.14,0.84 v 0 q -0.29,-0.6 -0.68,-0.6 v 0 0 q -0.38,0 -0.8,0.44 v 0 0 q -0.42,0.45 -0.83,1.16 v 0 0 q -0.41,0.7 -0.79,1.58 v 0 0 q -0.38,0.88 -0.67,1.76 v 0 0 q -0.29,0.89 -0.47,1.7 v 0 0 q -0.18,0.8 -0.18,1.3 v 0 0 q 0,0.77 0.2,1.08 v 0 0 q 0.21,0.32 0.54,0.32 v 0 0 q 0.27,0 0.6,-0.21 v 0 0 q 0.34,-0.2 0.63,-0.53 v 0 0 q 0.29,-0.32 0.53,-0.73 v 0 0 q 0.24,-0.41 0.33,-0.81 v 0 z m 3.6,4.44 -3.7,0.77 v 0 q 0.63,-3.31 1.23,-6.51 v 0 0 q 0.21,-1.34 0.48,-2.79 v 0 0 q 0.26,-1.45 0.5,-2.87 v 0 0 q 0.24,-1.42 0.46,-2.75 v 0 0 q 0.21,-1.33 0.38,-2.43 v 0 l 3.89,-0.27 v 0 q -0.41,1.68 -0.81,3.51 v 0 0 q -0.39,1.82 -0.73,3.55 v 0 l 2.38,-0.27 v 0 q 0.33,-1.7 0.6,-3.3 v 0 0 q 0.26,-1.59 0.69,-3.3 v 0 0 q 0.56,-0.09 1.23,-0.15 v 0 0 q 0.67,-0.06 1.25,-0.11 v 0 0 q 0.57,-0.05 0.97,-0.08 v 0 0 q 0.39,-0.04 0.39,-0.04 v 0 0 q -0.33,1.08 -0.63,2.36 v 0 0 q -0.3,1.29 -0.59,2.67 v 0 0 q -0.29,1.38 -0.55,2.79 v 0 0 q -0.27,1.42 -0.48,2.69 v 0 0 q -0.53,3.05 -0.99,6.24 v 0 l -3.74,0.43 v 0 q 0.31,-1.44 0.55,-2.8 v 0 0 q 0.24,-1.16 0.49,-2.4 v 0 0 q 0.26,-1.25 0.4,-2.14 v 0 l -2.33,0.22 v 0 q -0.17,0.91 -0.39,2.11 v 0 0 q -0.23,1.2 -0.42,2.28 v 0 0 q -0.27,1.29 -0.53,2.59 z m 10.77,-0.07 -4.15,0.81 v 0 q 0.72,-3.24 1.37,-6.33 v 0 0 q 0.26,-1.3 0.55,-2.74 v 0 0 q 0.29,-1.44 0.55,-2.83 v 0 0 q 0.27,-1.39 0.51,-2.69 v 0 0 q 0.24,-1.29 0.41,-2.37 v 0 0 q 0.69,-0.22 1.36,-0.38 v 0 0 q 0.68,-0.15 1.38,-0.27 v 0 0 q 0.71,-0.12 1.34,-0.12 v 0 0 q 1.08,0 1.81,0.36 v 0 0 q 0.73,0.36 1.19,0.97 v 0 0 q 0.45,0.61 0.64,1.43 v 0 0 q 0.2,0.81 0.2,1.75 v 0 0 q 0,1.34 -0.5,2.59 v 0 0 q -0.49,1.25 -1.32,2.22 v 0 0 q -0.82,0.97 -1.89,1.55 v 0 0 Q 27,-6.26 25.85,-6.26 v 0 h -0.27 v 0 q -0.19,0.81 -0.36,1.77 v 0 0 q -0.16,0.96 -0.28,1.78 v 0 0 q -0.17,0.96 -0.32,1.92 z m 2.55,-14.02 v 0 q -0.27,1.59 -0.53,3 v 0 0 q -0.26,1.42 -0.58,3.03 v 0 0 q 0.39,-0.1 0.81,-0.45 v 0 0 q 0.42,-0.35 0.78,-0.91 v 0 0 q 0.36,-0.56 0.57,-1.31 v 0 0 q 0.22,-0.74 0.22,-1.56 v 0 0 q 0,-0.89 -0.4,-1.34 v 0 0 q -0.39,-0.46 -0.87,-0.46 z"
         id="path19"
         inkscape:connector-curvature="0"
         style="fill:#fcba03" />
    </g>
  </g>
  <style
     id="style25">text {
  font-size: 64px;
  font-family: Arial Black;
  dominant-baseline: central;
  text-anchor: middle;
}</style>
</svg>
