<?xml version="1.0" encoding="UTF-8" standalone="no"?>
<svg
   xmlns:dc="http://purl.org/dc/elements/1.1/"
   xmlns:cc="http://creativecommons.org/ns#"
   xmlns:rdf="http://www.w3.org/1999/02/22-rdf-syntax-ns#"
   xmlns:svg="http://www.w3.org/2000/svg"
   xmlns="http://www.w3.org/2000/svg"
   xmlns:sodipodi="http://sodipodi.sourceforge.net/DTD/sodipodi-0.dtd"
   xmlns:inkscape="http://www.inkscape.org/namespaces/inkscape"
   width="24"
   height="24"
   viewBox="216.34874 47.596265 24.000001 23.999999"
   preserveAspectRatio="xMidYMid"
   version="1.1"
   id="svg27"
   sodipodi:docname="heroesofasgard.svg"
   inkscape:version="0.92.4 (5da689c313, 2019-01-14)">
  <metadata
     id="metadata31">
    <rdf:RDF>
      <cc:Work
         rdf:about="">
        <dc:format>image/svg+xml</dc:format>
        <dc:type
           rdf:resource="http://purl.org/dc/dcmitype/StillImage" />
        <dc:title></dc:title>
      </cc:Work>
    </rdf:RDF>
  </metadata>
  <sodipodi:namedview
     pagecolor="#ffffff"
     bordercolor="#666666"
     borderopacity="1"
     objecttolerance="10"
     gridtolerance="10"
     guidetolerance="10"
     inkscape:pageopacity="0"
     inkscape:pageshadow="2"
     inkscape:window-width="1842"
     inkscape:window-height="1057"
     id="namedview29"
     showgrid="false"
     inkscape:zoom="4.2197533"
     inkscape:cx="4.3841426"
     inkscape:cy="27.403736"
     inkscape:window-x="70"
     inkscape:window-y="-8"
     inkscape:window-maximized="1"
     inkscape:current-layer="svg27" />
  <defs
     id="defs17">
    <filter
       id="editing-extrusion"
       x="-1"
       y="-1"
       width="3"
       height="3">
      <feFlood
         result="color1"
         flood-color="#000000"
         id="feFlood2" />
      <feConvolveMatrix
         order="3,3"
         divisor="1"
         kernelMatrix="1 0 0 0 1 0 0 0 1"
         in="SourceAlpha"
         result="extrude"
         id="feConvolveMatrix4" />
      <feComposite
         in="color1"
         in2="extrude"
         result="comp-extrude"
         operator="in"
         id="feComposite6" />
      <feOffset
         dx="1.5"
         dy="1.5"
         in="comp-extrude"
         result="offset-extrude"
         id="feOffset8" />
      <feMerge
         id="feMerge14">
        <feMergeNode
           in="offset-extrude"
           id="feMergeNode10" />
        <feMergeNode
           in="SourceGraphic"
           id="feMergeNode12" />
      </feMerge>
    </filter>
  </defs>
  <g
     id="g23"
     style="filter:url(#editing-extrusion)"
     transform="matrix(0.63923651,0,0,0.73868883,67.880079,4.1207331)">
    <g
       transform="translate(233.22375,84.025001)"
       id="g21">
      <path
         d="m 3.89,-0.72 -3.7,0.77 v 0 q 0.67,-3.36 1.3,-6.55 v 0 0 q 0.24,-1.37 0.5,-2.85 v 0 0 q 0.27,-1.47 0.49,-2.91 v 0 0 q 0.23,-1.44 0.44,-2.8 v 0 0 q 0.2,-1.36 0.32,-2.46 v 0 0 q 0.55,0.02 1.02,0.06 v 0 0 q 0.47,0.04 0.92,0.06 v 0 0 q 0.46,0.02 0.93,0.04 v 0 0 q 0.47,0.01 1.02,0.01 v 0 0 q -0.41,1.7 -0.81,3.41 v 0 0 q -0.39,1.7 -0.73,3.43 v 0 l 2.38,-0.27 v 0 q 0.33,-1.7 0.6,-3.3 v 0 0 q 0.26,-1.59 0.69,-3.3 v 0 0 q 0.56,-0.09 1.23,-0.15 v 0 0 q 0.67,-0.06 1.25,-0.11 v 0 0 q 0.57,-0.05 0.97,-0.08 v 0 0 q 0.39,-0.04 0.39,-0.04 v 0 0 q -0.33,1.08 -0.63,2.36 v 0 0 q -0.3,1.29 -0.59,2.67 v 0 0 q -0.29,1.38 -0.55,2.79 v 0 0 q -0.27,1.42 -0.48,2.69 v 0 0 q -0.53,3.05 -0.99,6.24 v 0 l -3.74,0.43 v 0 q 0.31,-1.44 0.55,-2.8 v 0 0 q 0.24,-1.16 0.49,-2.4 v 0 0 q 0.26,-1.25 0.4,-2.14 v 0 L 5.23,-7.7 v 0 q -0.17,0.91 -0.39,2.11 v 0 0 q -0.23,1.2 -0.42,2.28 v 0 0 q -0.27,1.29 -0.53,2.59 z m 20.13,-12.26 v 0 q 0,1.96 -0.42,3.7 v 0 0 q -0.42,1.74 -1.11,3.2 v 0 0 q -0.7,1.45 -1.62,2.59 v 0 0 q -0.93,1.14 -1.93,1.94 v 0 0 q -1.01,0.81 -2.04,1.23 v 0 0 Q 15.86,0.1 14.93,0.1 v 0 0 q -0.79,0 -1.44,-0.3 v 0 0 q -0.65,-0.3 -1.13,-0.89 v 0 0 Q 11.88,-1.68 11.6,-2.6 v 0 0 q -0.27,-0.93 -0.27,-2.22 v 0 0 q 0,-1.35 0.33,-2.84 v 0 0 q 0.34,-1.48 0.92,-2.95 v 0 0 q 0.57,-1.46 1.41,-2.78 v 0 0 q 0.84,-1.32 1.85,-2.34 v 0 0 q 1.01,-1.02 2.16,-1.62 v 0 0 q 1.15,-0.6 2.4,-0.6 v 0 0 q 1.08,0 1.79,0.44 v 0 0 q 0.71,0.45 1.1,1.15 v 0 0 q 0.4,0.71 0.57,1.6 v 0 0 q 0.16,0.89 0.16,1.78 z m -9.12,7.53 v 0 q 0,0.27 0.1,0.55 v 0 0 q 0.1,0.29 0.26,0.51 v 0 0 q 0.17,0.21 0.42,0.37 v 0 0 q 0.26,0.16 0.54,0.16 v 0 0 q 1.08,0 1.92,-0.75 v 0 0 q 0.84,-0.74 1.4,-1.82 v 0 0 q 0.55,-1.08 0.85,-2.31 v 0 0 q 0.3,-1.22 0.3,-2.23 v 0 0 q 0,-0.29 -0.04,-0.62 v 0 0 q -0.03,-0.34 -0.14,-0.63 v 0 0 q -0.11,-0.28 -0.34,-0.49 v 0 0 q -0.23,-0.2 -0.61,-0.2 v 0 0 q -0.77,0 -1.42,0.38 v 0 0 q -0.64,0.39 -1.16,1.02 v 0 0 q -0.52,0.64 -0.9,1.44 v 0 0 q -0.38,0.81 -0.66,1.63 v 0 0 q -0.28,0.83 -0.4,1.62 v 0 0 q -0.12,0.8 -0.12,1.37 z m 16.35,4.97 v 0 q -0.6,0.1 -1.32,0.22 v 0 0 q -0.72,0.12 -1.3,0.21 v 0 0 q 0.1,-0.79 0.19,-1.56 v 0 0 q 0.08,-0.67 0.14,-1.34 v 0 0 q 0.06,-0.67 0.1,-1.15 v 0 h -2.08 l -0.96,3.45 v 0 q -0.53,0.07 -1.25,0.16 v 0 0 q -0.72,0.08 -1.35,0.15 v 0 0 q -0.76,0.1 -1.51,0.2 v 0 0 q 0.96,-3.2 1.9,-6.29 v 0 0 q 0.38,-1.3 0.8,-2.71 v 0 0 q 0.42,-1.42 0.84,-2.82 v 0 0 q 0.42,-1.41 0.81,-2.7 v 0 0 q 0.38,-1.3 0.67,-2.38 v 0 0 q 1.63,-0.12 3.32,-0.29 v 0 0 q 1.69,-0.17 3.3,-0.45 v 0 0 q -0.07,0.76 -0.15,1.9 v 0 0 q -0.09,1.14 -0.16,2.49 v 0 0 q -0.07,1.34 -0.14,2.81 v 0 0 q -0.08,1.46 -0.15,2.88 v 0 0 q -0.12,3.31 -0.26,7.03 v 0 0 q -0.72,0.12 -1.44,0.19 z m -2.21,-12.05 -1.49,6.03 v 0 q 0.1,0 0.35,-0.02 v 0 0 q 0.25,-0.01 0.53,-0.02 v 0 0 q 0.27,-0.01 0.51,-0.02 v 0 0 q 0.24,-0.02 0.34,-0.04 v 0 0 q 0,-0.14 0.04,-0.49 v 0 0 q 0.03,-0.35 0.07,-0.79 v 0 0 q 0.03,-0.45 0.08,-0.98 v 0 0 q 0.05,-0.52 0.1,-1.03 v 0 0 q 0.09,-1.22 0.24,-2.64 v 0 l 0.14,-2.09 -0.36,0.03 z"
         id="path19"
         inkscape:connector-curvature="0"
         style="fill:#fcba03" />
    </g>
  </g>
  <style
     id="style25">text {
  font-size: 64px;
  font-family: Arial Black;
  dominant-baseline: central;
  text-anchor: middle;
}</style>
</svg>
