<?xml version="1.0" encoding="UTF-8" standalone="no"?>
<svg
   xmlns:dc="http://purl.org/dc/elements/1.1/"
   xmlns:cc="http://creativecommons.org/ns#"
   xmlns:rdf="http://www.w3.org/1999/02/22-rdf-syntax-ns#"
   xmlns:svg="http://www.w3.org/2000/svg"
   xmlns="http://www.w3.org/2000/svg"
   xmlns:sodipodi="http://sodipodi.sourceforge.net/DTD/sodipodi-0.dtd"
   xmlns:inkscape="http://www.inkscape.org/namespaces/inkscape"
   width="24"
   height="24"
   viewBox="221.18313 47.596265 24 23.999999"
   preserveAspectRatio="xMidYMid"
   version="1.1"
   id="svg27"
   sodipodi:docname="intothecosmos.svg"
   inkscape:version="0.92.4 (5da689c313, 2019-01-14)">
  <metadata
     id="metadata31">
    <rdf:RDF>
      <cc:Work
         rdf:about="">
        <dc:format>image/svg+xml</dc:format>
        <dc:type
           rdf:resource="http://purl.org/dc/dcmitype/StillImage" />
        <dc:title></dc:title>
      </cc:Work>
    </rdf:RDF>
  </metadata>
  <sodipodi:namedview
     pagecolor="#ffffff"
     bordercolor="#666666"
     borderopacity="1"
     objecttolerance="10"
     gridtolerance="10"
     guidetolerance="10"
     inkscape:pageopacity="0"
     inkscape:pageshadow="2"
     inkscape:window-width="1842"
     inkscape:window-height="1057"
     id="namedview29"
     showgrid="false"
     inkscape:zoom="4.3059822"
     inkscape:cx="0.13584084"
     inkscape:cy="27.403736"
     inkscape:window-x="70"
     inkscape:window-y="-8"
     inkscape:window-maximized="1"
     inkscape:current-layer="svg27" />
  <defs
     id="defs17">
    <filter
       id="editing-extrusion"
       x="-1"
       y="-1"
       width="3"
       height="3">
      <feFlood
         result="color1"
         flood-color="#000000"
         id="feFlood2" />
      <feConvolveMatrix
         order="3,3"
         divisor="1"
         kernelMatrix="1 0 0 0 1 0 0 0 1"
         in="SourceAlpha"
         result="extrude"
         id="feConvolveMatrix4" />
      <feComposite
         in="color1"
         in2="extrude"
         result="comp-extrude"
         operator="in"
         id="feComposite6" />
      <feOffset
         dx="1.5"
         dy="1.5"
         in="comp-extrude"
         result="offset-extrude"
         id="feOffset8" />
      <feMerge
         id="feMerge14">
        <feMergeNode
           in="offset-extrude"
           id="feMergeNode10" />
        <feMergeNode
           in="SourceGraphic"
           id="feMergeNode12" />
      </feMerge>
    </filter>
  </defs>
  <g
     id="g23"
     style="filter:url(#editing-extrusion)"
     transform="matrix(0.75800644,0,0,0.75800644,42.464028,2.7078817)">
    <g
       transform="translate(238.25094,83.795)"
       id="g21">
      <path
         d="m 4.08,-0.48 v 0 q -0.22,0 -0.85,0.06 v 0 0 q -0.64,0.06 -1.31,0.14 v 0 0 q -0.67,0.09 -1.21,0.16 v 0 0 q -0.54,0.07 -0.59,0.1 v 0 0 q 0.24,-1.04 0.49,-2.3 v 0 0 q 0.25,-1.26 0.52,-2.64 v 0 0 q 0.26,-1.38 0.5,-2.79 v 0 0 q 0.24,-1.42 0.46,-2.74 v 0 0 q 0.5,-3.07 1.01,-6.31 v 0 l 3.74,-0.6 v 0 q -0.55,3.22 -1.08,6.31 v 0 0 q -0.22,1.32 -0.44,2.74 v 0 0 q -0.23,1.41 -0.46,2.81 v 0 0 q -0.23,1.39 -0.42,2.7 v 0 0 q -0.19,1.3 -0.36,2.36 z m 7.25,-0.17 -4.32,0.67 v 0 q 0.55,-2.64 1.05,-5.2 v 0 0 Q 8.28,-6.26 8.5,-7.44 v 0 0 q 0.21,-1.18 0.42,-2.32 v 0 0 q 0.2,-1.14 0.36,-2.2 v 0 0 q 0.15,-1.07 0.27,-1.96 v 0 0 Q 9,-13.99 8.44,-13.97 v 0 0 q -0.57,0.03 -1.12,-0.14 v 0 0 Q 7.34,-14.5 7.34,-15 v 0 0 q 0,-0.5 0.03,-1.01 v 0 0 q 0.02,-0.55 0.05,-1.17 v 0 0 q 0.62,0.04 1.24,0.07 v 0 0 q 0.63,0.02 1.25,0.02 v 0 0 q 1.23,0 2.37,-0.06 v 0 0 q 1.14,-0.06 2.11,-0.14 v 0 0 q 0.97,-0.09 1.91,-0.21 v 0 l -0.27,1.3 v 0 q -0.12,0.55 -0.23,1.13 v 0 0 q -0.1,0.57 -0.2,0.98 v 0 0 q -0.53,0.15 -1.07,0.21 v 0 0 q -0.54,0.06 -1.07,0.15 v 0 0 q -0.16,0.82 -0.36,1.81 v 0 0 q -0.19,1 -0.37,2.07 v 0 0 q -0.18,1.07 -0.35,2.17 v 0 0 q -0.16,1.1 -0.33,2.11 v 0 0 q -0.39,2.38 -0.72,4.92 z m 12.45,-4.51 v 0 q -0.57,1.32 -1.28,2.29 v 0 0 q -0.71,0.97 -1.49,1.63 v 0 0 q -0.78,0.66 -1.57,0.98 v 0 0 Q 18.65,0.05 17.9,0.05 v 0 0 q -0.74,0 -1.35,-0.34 v 0 0 Q 15.94,-0.62 15.48,-1.3 v 0 0 q -0.46,-0.67 -0.73,-1.65 v 0 0 q -0.28,-0.99 -0.28,-2.31 v 0 0 q 0,-2.25 0.63,-4.45 v 0 0 q 0.62,-2.19 1.75,-3.95 v 0 0 q 1.13,-1.75 2.67,-2.82 v 0 0 q 1.55,-1.06 3.42,-1.06 v 0 0 q 0.58,0 1.11,0.24 v 0 0 q 0.53,0.24 0.91,0.67 v 0 0 q 0.38,0.43 0.61,1.05 v 0 0 q 0.23,0.63 0.23,1.4 v 0 0 q 0,0.14 0,0.3 v 0 0 q 0,0.15 -0.02,0.32 v 0 l -3.15,0.84 v 0 q -0.29,-0.6 -0.67,-0.6 v 0 0 q -0.38,0 -0.8,0.44 v 0 0 q -0.42,0.45 -0.83,1.16 v 0 0 q -0.41,0.7 -0.79,1.58 v 0 0 q -0.39,0.88 -0.68,1.76 v 0 0 q -0.28,0.89 -0.46,1.7 v 0 0 q -0.18,0.8 -0.18,1.3 v 0 0 q 0,0.77 0.2,1.08 v 0 0 q 0.2,0.32 0.54,0.32 v 0 0 q 0.26,0 0.6,-0.21 v 0 0 q 0.34,-0.2 0.62,-0.53 v 0 0 q 0.29,-0.32 0.53,-0.73 v 0 0 q 0.24,-0.41 0.34,-0.81 v 0 z"
         id="path19"
         inkscape:connector-curvature="0"
         style="fill:#fcba03" />
    </g>
  </g>
  <style
     id="style25">text {
  font-size: 64px;
  font-family: Arial Black;
  dominant-baseline: central;
  text-anchor: middle;
}</style>
</svg>
