<?xml version="1.0" encoding="UTF-8" standalone="no"?>
<svg
   xmlns:dc="http://purl.org/dc/elements/1.1/"
   xmlns:cc="http://creativecommons.org/ns#"
   xmlns:rdf="http://www.w3.org/1999/02/22-rdf-syntax-ns#"
   xmlns:svg="http://www.w3.org/2000/svg"
   xmlns="http://www.w3.org/2000/svg"
   xmlns:sodipodi="http://sodipodi.sourceforge.net/DTD/sodipodi-0.dtd"
   xmlns:inkscape="http://www.inkscape.org/namespaces/inkscape"
   width="24"
   height="24"
   viewBox="219.685 47.596265 24 23.999999"
   preserveAspectRatio="xMidYMid"
   version="1.1"
   id="svg27"
   sodipodi:docname="marvelstudios.svg"
   inkscape:version="0.92.4 (5da689c313, 2019-01-14)">
  <metadata
     id="metadata31">
    <rdf:RDF>
      <cc:Work
         rdf:about="">
        <dc:format>image/svg+xml</dc:format>
        <dc:type
           rdf:resource="http://purl.org/dc/dcmitype/StillImage" />
        <dc:title></dc:title>
      </cc:Work>
    </rdf:RDF>
  </metadata>
  <sodipodi:namedview
     pagecolor="#ffffff"
     bordercolor="#666666"
     borderopacity="1"
     objecttolerance="10"
     gridtolerance="10"
     guidetolerance="10"
     inkscape:pageopacity="0"
     inkscape:pageshadow="2"
     inkscape:window-width="1842"
     inkscape:window-height="1057"
     id="namedview29"
     showgrid="false"
     inkscape:zoom="8.6119644"
     inkscape:cx="19.959773"
     inkscape:cy="18.463516"
     inkscape:window-x="70"
     inkscape:window-y="-8"
     inkscape:window-maximized="1"
     inkscape:current-layer="svg27" />
  <defs
     id="defs17">
    <filter
       id="editing-extrusion"
       x="-1"
       y="-1"
       width="3"
       height="3">
      <feFlood
         result="color1"
         flood-color="#000000"
         id="feFlood2" />
      <feConvolveMatrix
         order="3,3"
         divisor="1"
         kernelMatrix="1 0 0 0 1 0 0 0 1"
         in="SourceAlpha"
         result="extrude"
         id="feConvolveMatrix4" />
      <feComposite
         in="color1"
         in2="extrude"
         result="comp-extrude"
         operator="in"
         id="feComposite6" />
      <feOffset
         dx="1.5"
         dy="1.5"
         in="comp-extrude"
         result="offset-extrude"
         id="feOffset8" />
      <feMerge
         id="feMerge14">
        <feMergeNode
           in="offset-extrude"
           id="feMergeNode10" />
        <feMergeNode
           in="SourceGraphic"
           id="feMergeNode12" />
      </feMerge>
    </filter>
  </defs>
  <g
     id="g23"
     style="filter:url(#editing-extrusion)"
     transform="matrix(0.70337684,0,0,0.73381031,54.933873,4.5238012)">
    <g
       transform="translate(237.30813,84.085)"
       id="g21">
      <path
         d="m 3.24,-0.41 -3.96,0.27 v 0 q 1.06,-3.2 2.02,-6.27 v 0 0 Q 1.7,-7.7 2.14,-9.12 v 0 0 Q 2.57,-10.54 3,-11.93 v 0 0 q 0.43,-1.39 0.8,-2.69 v 0 0 q 0.38,-1.29 0.66,-2.4 v 0 0 q 1.32,0 2.5,-0.14 v 0 0 q 1.18,-0.14 2.54,-0.26 v 0 0 q -0.07,0.52 -0.15,1.18 v 0 0 q -0.09,0.66 -0.19,1.38 v 0 0 q -0.11,0.72 -0.23,1.49 v 0 0 q -0.12,0.77 -0.29,1.97 v 0 0 q -0.17,1.2 -0.46,3 v 0 H 8.5 v 0 q 0.69,-1.82 1.15,-3.04 v 0 0 q 0.45,-1.21 0.74,-1.98 v 0 0 q 0.29,-0.76 0.59,-1.5 v 0 0 q 0.3,-0.73 0.58,-1.39 v 0 0 q 0.27,-0.66 0.51,-1.16 v 0 0 q 0.6,-0.05 1.13,-0.12 v 0 0 q 0.53,-0.07 1.06,-0.16 v 0 0 q 0.52,-0.08 1.06,-0.17 v 0 0 q 0.54,-0.08 1.19,-0.2 v 0 0 q -0.24,1.39 -0.45,2.86 v 0 0 q -0.22,1.46 -0.39,2.91 v 0 0 q -0.17,1.45 -0.32,2.87 v 0 0 q -0.16,1.42 -0.28,2.69 v 0 0 q -0.29,2.97 -0.5,5.81 v 0 l -4.18,0.74 v 0 q 0,-0.12 0.04,-0.65 v 0 0 q 0.03,-0.53 0.09,-1.29 v 0 0 q 0.06,-0.77 0.17,-1.71 v 0 0 q 0.11,-0.93 0.22,-1.87 v 0 0 q 0.11,-0.94 0.23,-1.81 v 0 0 q 0.12,-0.88 0.24,-1.5 v 0 h -0.22 v 0 q -0.34,1.01 -0.74,2.12 v 0 0 q -0.41,1.12 -0.83,2.27 v 0 0 q -0.42,1.15 -0.83,2.26 v 0 0 q -0.41,1.1 -0.72,2.11 v 0 0 Q 7.2,-0.29 6.6,-0.25 v 0 0 Q 6,-0.22 5.21,-0.17 v 0 l 0.77,-8.9 H 5.62 v 0 q -0.05,0.31 -0.24,1.04 v 0 0 q -0.2,0.73 -0.45,1.68 v 0 0 Q 4.68,-5.4 4.39,-4.38 v 0 0 q -0.29,1.02 -0.54,1.9 v 0 0 Q 3.6,-1.61 3.43,-1.04 v 0 0 q -0.17,0.56 -0.19,0.63 z m 22.25,-5.52 v 0 q 0,1.35 -0.52,2.44 v 0 0 q -0.51,1.09 -1.39,1.88 v 0 0 q -0.88,0.79 -2.06,1.23 v 0 0 q -1.19,0.43 -2.56,0.43 v 0 0 q -0.96,0 -1.92,-0.52 v 0 0 q -0.96,-0.51 -1.85,-1.64 v 0 l 1.78,-3.48 v 0 q 0.17,0.31 0.5,0.63 v 0 0 q 0.34,0.33 0.76,0.57 v 0 0 q 0.42,0.24 0.84,0.39 v 0 0 q 0.42,0.16 0.75,0.16 v 0 0 q 0.29,0 0.6,-0.1 v 0 0 Q 20.74,-4.03 21,-4.22 v 0 0 q 0.26,-0.2 0.42,-0.45 v 0 0 q 0.16,-0.25 0.16,-0.59 v 0 0 q 0,-0.57 -0.38,-1.06 v 0 0 q -0.37,-0.5 -0.92,-0.94 v 0 0 q -0.55,-0.44 -1.2,-0.9 v 0 0 q -0.65,-0.46 -1.19,-0.96 v 0 0 q -0.54,-0.5 -0.92,-1.13 v 0 0 q -0.39,-0.62 -0.39,-1.39 v 0 0 q 0,-1.25 0.75,-2.33 v 0 0 q 0.74,-1.08 1.86,-1.86 v 0 0 q 1.11,-0.78 2.43,-1.23 v 0 0 q 1.32,-0.46 2.5,-0.46 v 0 0 q 0.65,0 1.22,0.16 v 0 0 q 0.58,0.15 1,0.5 v 0 0 q 0.42,0.35 0.67,0.88 v 0 0 q 0.25,0.52 0.25,1.32 v 0 0 q 0,0.33 -0.06,0.67 v 0 0 q -0.06,0.33 -0.1,0.72 v 0 l -3.48,1.01 v 0 q 0.04,-0.2 0.08,-0.39 v 0 0 q 0.04,-0.19 0.04,-0.38 v 0 0 q 0,-0.72 -0.26,-1.05 v 0 0 q -0.25,-0.32 -0.66,-0.32 v 0 0 q -0.19,0 -0.46,0.14 v 0 0 q -0.28,0.15 -0.56,0.38 v 0 0 q -0.27,0.22 -0.46,0.54 v 0 0 q -0.2,0.31 -0.2,0.67 v 0 0 q 0,0.57 0.33,0.96 v 0 0 q 0.32,0.38 0.8,0.72 v 0 0 q 0.48,0.33 1.05,0.68 v 0 0 q 0.56,0.35 1.04,0.9 v 0 0 q 0.48,0.55 0.8,1.38 v 0 0 q 0.33,0.83 0.33,2.1 z"
         id="path19"
         inkscape:connector-curvature="0"
         style="fill:#fcba03" />
    </g>
  </g>
  <style
     id="style25">text {
  font-size: 64px;
  font-family: Arial Black;
  dominant-baseline: central;
  text-anchor: middle;
}</style>
</svg>
