<?xml version="1.0" encoding="UTF-8" standalone="no"?>
<svg
   xmlns:dc="http://purl.org/dc/elements/1.1/"
   xmlns:cc="http://creativecommons.org/ns#"
   xmlns:rdf="http://www.w3.org/1999/02/22-rdf-syntax-ns#"
   xmlns:svg="http://www.w3.org/2000/svg"
   xmlns="http://www.w3.org/2000/svg"
   xmlns:sodipodi="http://sodipodi.sourceforge.net/DTD/sodipodi-0.dtd"
   xmlns:inkscape="http://www.inkscape.org/namespaces/inkscape"
   width="24"
   height="24"
   viewBox="211.67373 47.596265 23.999999 23.999999"
   preserveAspectRatio="xMidYMid"
   version="1.1"
   id="svg27"
   sodipodi:docname="noir.svg"
   inkscape:version="0.92.4 (5da689c313, 2019-01-14)">
  <metadata
     id="metadata31">
    <rdf:RDF>
      <cc:Work
         rdf:about="">
        <dc:format>image/svg+xml</dc:format>
        <dc:type
           rdf:resource="http://purl.org/dc/dcmitype/StillImage" />
        <dc:title></dc:title>
      </cc:Work>
    </rdf:RDF>
  </metadata>
  <sodipodi:namedview
     pagecolor="#ffffff"
     bordercolor="#666666"
     borderopacity="1"
     objecttolerance="10"
     gridtolerance="10"
     guidetolerance="10"
     inkscape:pageopacity="0"
     inkscape:pageshadow="2"
     inkscape:window-width="1842"
     inkscape:window-height="1057"
     id="namedview29"
     showgrid="false"
     inkscape:zoom="10.479409"
     inkscape:cx="19.275573"
     inkscape:cy="17.317284"
     inkscape:window-x="70"
     inkscape:window-y="-8"
     inkscape:window-maximized="1"
     inkscape:current-layer="svg27" />
  <defs
     id="defs17">
    <filter
       id="editing-extrusion"
       x="-1"
       y="-1"
       width="3"
       height="3">
      <feFlood
         result="color1"
         flood-color="#000000"
         id="feFlood2" />
      <feConvolveMatrix
         order="3,3"
         divisor="1"
         kernelMatrix="1 0 0 0 1 0 0 0 1"
         in="SourceAlpha"
         result="extrude"
         id="feConvolveMatrix4" />
      <feComposite
         in="color1"
         in2="extrude"
         result="comp-extrude"
         operator="in"
         id="feComposite6" />
      <feOffset
         dx="1.5"
         dy="1.5"
         in="comp-extrude"
         result="offset-extrude"
         id="feOffset8" />
      <feMerge
         id="feMerge14">
        <feMergeNode
           in="offset-extrude"
           id="feMergeNode10" />
        <feMergeNode
           in="SourceGraphic"
           id="feMergeNode12" />
      </feMerge>
    </filter>
  </defs>
  <g
     id="g23"
     style="filter:url(#editing-extrusion)"
     transform="matrix(0.52461644,0,0,0.73583517,92.076975,4.320327)">
    <g
       transform="translate(230.86375,84.06)"
       id="g21">
      <path
         d="m 3.62,-0.7 -3.5,0.82 v 0 q 0.72,-3.46 1.37,-6.7 v 0 0 Q 1.73,-7.97 2,-9.46 v 0 0 q 0.28,-1.48 0.52,-2.94 v 0 0 q 0.24,-1.45 0.43,-2.78 v 0 0 q 0.19,-1.33 0.29,-2.41 v 0 0 q 0.31,0.02 0.53,0.02 v 0 0 q 0.21,0 0.5,0 v 0 0 q 0.34,0 0.82,-0.01 v 0 0 q 0.48,-0.01 0.96,-0.04 v 0 0 q 0.48,-0.02 1.03,-0.04 v 0 0 q 0.34,1.68 0.6,3.24 v 0 0 q 0.26,1.36 0.54,2.8 v 0 0 q 0.28,1.44 0.49,2.45 v 0 0 q 0.1,-0.48 0.22,-1.11 v 0 0 q 0.12,-0.64 0.26,-1.34 v 0 0 q 0.15,-0.69 0.28,-1.4 v 0 0 q 0.13,-0.71 0.27,-1.4 v 0 0 q 0.34,-1.56 0.7,-3.22 v 0 L 13.37,-18 v 0 q -0.82,3.67 -1.44,6.96 v 0 0 q -0.29,1.42 -0.57,2.87 v 0 0 q -0.27,1.45 -0.51,2.78 v 0 0 q -0.24,1.33 -0.41,2.47 v 0 0 q -0.17,1.14 -0.26,1.91 v 0 0 q -0.08,0 -0.57,0.11 v 0 0 q -0.49,0.11 -1.13,0.25 v 0 0 Q 7.85,-0.5 7.21,-0.36 v 0 0 Q 6.58,-0.22 6.26,-0.1 v 0 0 Q 6.12,-2.02 5.95,-3.74 v 0 0 Q 5.88,-4.49 5.8,-5.27 v 0 0 Q 5.71,-6.05 5.62,-6.77 v 0 0 q -0.1,-0.72 -0.2,-1.34 v 0 0 Q 5.33,-8.74 5.23,-9.19 v 0 0 q -0.07,0.45 -0.19,1.05 v 0 0 q -0.12,0.6 -0.24,1.28 v 0 0 q -0.12,0.67 -0.24,1.4 v 0 0 q -0.12,0.73 -0.26,1.4 v 0 0 Q 3.98,-2.45 3.62,-0.7 Z m 20.67,-12.28 v 0 q 0,1.96 -0.42,3.7 v 0 0 q -0.42,1.74 -1.12,3.2 v 0 0 q -0.69,1.45 -1.62,2.59 v 0 0 q -0.92,1.14 -1.93,1.94 v 0 0 q -1.01,0.81 -2.04,1.23 v 0 0 Q 16.13,0.1 15.19,0.1 v 0 0 q -0.79,0 -1.44,-0.3 v 0 0 Q 13.1,-0.5 12.62,-1.09 v 0 0 Q 12.14,-1.68 11.87,-2.6 v 0 0 q -0.28,-0.93 -0.28,-2.22 v 0 0 q 0,-1.35 0.34,-2.84 v 0 0 q 0.33,-1.48 0.91,-2.95 v 0 0 q 0.58,-1.46 1.42,-2.78 v 0 0 q 0.84,-1.32 1.84,-2.34 v 0 0 q 1.01,-1.02 2.16,-1.62 v 0 0 q 1.16,-0.6 2.4,-0.6 v 0 0 q 1.08,0 1.79,0.44 v 0 0 q 0.71,0.45 1.11,1.15 v 0 0 q 0.39,0.71 0.56,1.6 v 0 0 q 0.17,0.89 0.17,1.78 z m -9.12,7.53 v 0 q 0,0.27 0.09,0.55 v 0 0 q 0.1,0.29 0.27,0.51 v 0 0 q 0.17,0.21 0.42,0.37 v 0 0 q 0.25,0.16 0.54,0.16 v 0 0 q 1.08,0 1.92,-0.75 v 0 0 q 0.84,-0.74 1.39,-1.82 v 0 0 q 0.55,-1.08 0.85,-2.31 v 0 0 q 0.3,-1.22 0.3,-2.23 v 0 0 q 0,-0.29 -0.03,-0.62 v 0 0 q -0.04,-0.34 -0.15,-0.63 v 0 0 q -0.11,-0.28 -0.33,-0.49 v 0 0 q -0.23,-0.2 -0.62,-0.2 v 0 0 q -0.76,0 -1.41,0.38 v 0 0 q -0.65,0.39 -1.17,1.02 v 0 0 q -0.51,0.64 -0.9,1.44 v 0 0 q -0.38,0.81 -0.66,1.63 v 0 0 q -0.27,0.83 -0.39,1.62 v 0 0 q -0.12,0.8 -0.12,1.37 z m 11.59,4.97 v 0 q -0.22,0 -0.85,0.06 v 0 0 q -0.64,0.06 -1.31,0.14 v 0 0 q -0.67,0.09 -1.21,0.16 v 0 0 q -0.54,0.07 -0.59,0.1 v 0 0 q 0.24,-1.04 0.49,-2.3 v 0 0 q 0.25,-1.26 0.52,-2.64 v 0 0 q 0.26,-1.38 0.5,-2.79 v 0 0 q 0.24,-1.42 0.46,-2.74 v 0 0 q 0.5,-3.07 1.01,-6.31 v 0 l 3.74,-0.6 v 0 q -0.55,3.22 -1.08,6.31 v 0 0 Q 28.22,-9.77 28,-8.35 v 0 0 q -0.23,1.41 -0.46,2.81 v 0 0 q -0.23,1.39 -0.42,2.7 v 0 0 q -0.19,1.3 -0.36,2.36 z m 4.75,-0.5 -3.89,1 v 0 q 0.65,-3.19 1.25,-6.24 v 0 0 q 0.22,-1.29 0.48,-2.7 v 0 0 q 0.27,-1.4 0.49,-2.78 v 0 0 q 0.23,-1.38 0.44,-2.66 v 0 0 q 0.2,-1.29 0.32,-2.34 v 0 0 q 1.37,-0.44 2.95,-0.64 v 0 0 q 1.59,-0.2 3.15,-0.2 v 0 0 q 0.93,0 1.54,0.21 v 0 0 q 0.62,0.22 0.96,0.61 v 0 0 q 0.35,0.4 0.5,0.93 v 0 0 q 0.14,0.53 0.14,1.17 v 0 0 q 0,0.96 -0.34,1.89 v 0 0 q -0.33,0.92 -0.9,1.75 v 0 0 q -0.56,0.83 -1.29,1.51 v 0 0 q -0.73,0.69 -1.57,1.12 v 0 0 q 0.43,0.96 0.92,2.1 v 0 0 q 0.49,1.14 0.92,2.17 v 0 0 q 0.48,1.2 0.99,2.4 v 0 l -3.72,1.3 v 0 q -0.48,-1.54 -0.87,-2.88 v 0 0 Q 33.82,-3.82 33.65,-4.4 v 0 0 q -0.17,-0.59 -0.31,-1.12 v 0 0 Q 33.19,-6.05 33.1,-6.47 v 0 0 Q 33,-6.89 32.98,-7.15 v 0 l -0.32,0.09 v 0 q -0.14,0.77 -0.34,1.8 v 0 0 q -0.21,1.04 -0.38,2 v 0 0 q -0.21,1.12 -0.43,2.28 z m 2.52,-13.23 -0.77,3.82 v 0 q 0.46,-0.05 1.12,-0.39 v 0 0 q 0.66,-0.33 1.26,-0.8 v 0 0 q 0.6,-0.47 1.03,-0.97 v 0 0 q 0.43,-0.51 0.43,-0.89 v 0 0 q 0,-0.26 -0.16,-0.42 v 0 0 q -0.17,-0.16 -0.47,-0.24 v 0 0 q -0.3,-0.08 -0.66,-0.11 v 0 0 q -0.36,-0.02 -0.75,-0.02 v 0 0 q -0.26,0 -0.54,0.01 v 0 0 q -0.27,0.01 -0.49,0.01 z"
         id="path19"
         inkscape:connector-curvature="0"
         style="fill:#fcba03" />
    </g>
  </g>
  <style
     id="style25">text {
  font-size: 64px;
  font-family: Arial Black;
  dominant-baseline: central;
  text-anchor: middle;
}</style>
</svg>
