<?xml version="1.0" encoding="UTF-8" standalone="no"?>
<svg
   xmlns:dc="http://purl.org/dc/elements/1.1/"
   xmlns:cc="http://creativecommons.org/ns#"
   xmlns:rdf="http://www.w3.org/1999/02/22-rdf-syntax-ns#"
   xmlns:svg="http://www.w3.org/2000/svg"
   xmlns="http://www.w3.org/2000/svg"
   xmlns:sodipodi="http://sodipodi.sourceforge.net/DTD/sodipodi-0.dtd"
   xmlns:inkscape="http://www.inkscape.org/namespaces/inkscape"
   width="24"
   height="24"
   viewBox="223.74375 47.596265 24 23.999999"
   preserveAspectRatio="xMidYMid"
   version="1.1"
   id="svg27"
   sodipodi:docname="revelations.svg"
   inkscape:version="0.92.4 (5da689c313, 2019-01-14)">
  <metadata
     id="metadata31">
    <rdf:RDF>
      <cc:Work
         rdf:about="">
        <dc:format>image/svg+xml</dc:format>
        <dc:type
           rdf:resource="http://purl.org/dc/dcmitype/StillImage" />
        <dc:title></dc:title>
      </cc:Work>
    </rdf:RDF>
  </metadata>
  <sodipodi:namedview
     pagecolor="#ffffff"
     bordercolor="#666666"
     borderopacity="1"
     objecttolerance="10"
     gridtolerance="10"
     guidetolerance="10"
     inkscape:pageopacity="0"
     inkscape:pageshadow="2"
     inkscape:window-width="1842"
     inkscape:window-height="1057"
     id="namedview29"
     showgrid="false"
     inkscape:zoom="8.6119644"
     inkscape:cx="39.526154"
     inkscape:cy="30.199295"
     inkscape:window-x="70"
     inkscape:window-y="-8"
     inkscape:window-maximized="1"
     inkscape:current-layer="svg27" />
  <defs
     id="defs17">
    <filter
       id="editing-extrusion"
       x="-1"
       y="-1"
       width="3"
       height="3">
      <feFlood
         result="color1"
         flood-color="#000000"
         id="feFlood2" />
      <feConvolveMatrix
         order="3,3"
         divisor="1"
         kernelMatrix="1 0 0 0 1 0 0 0 1"
         in="SourceAlpha"
         result="extrude"
         id="feConvolveMatrix4" />
      <feComposite
         in="color1"
         in2="extrude"
         result="comp-extrude"
         operator="in"
         id="feComposite6" />
      <feOffset
         dx="1.5"
         dy="1.5"
         in="comp-extrude"
         result="offset-extrude"
         id="feOffset8" />
      <feMerge
         id="feMerge14">
        <feMergeNode
           in="offset-extrude"
           id="feMergeNode10" />
        <feMergeNode
           in="SourceGraphic"
           id="feMergeNode12" />
      </feMerge>
    </filter>
  </defs>
  <g
     id="g23"
     style="filter:url(#editing-extrusion)"
     transform="matrix(0.74738416,0,0,0.74738416,47.710039,3.3780285)">
    <g
       transform="translate(239.8225,83.92)"
       id="g21">
      <path
         d="m 3.98,-0.98 -3.88,1 v 0 q 0.64,-3.19 1.24,-6.24 v 0 0 q 0.22,-1.29 0.48,-2.7 v 0 0 q 0.27,-1.4 0.5,-2.78 v 0 0 q 0.22,-1.38 0.43,-2.66 v 0 0 q 0.2,-1.29 0.32,-2.34 v 0 0 q 1.37,-0.44 2.95,-0.64 v 0 0 q 1.59,-0.2 3.15,-0.2 v 0 0 q 0.93,0 1.55,0.21 v 0 0 q 0.61,0.22 0.96,0.61 v 0 0 q 0.34,0.4 0.49,0.93 v 0 0 q 0.14,0.53 0.14,1.17 v 0 0 q 0,0.96 -0.33,1.89 v 0 0 q -0.34,0.92 -0.9,1.75 v 0 0 q -0.57,0.83 -1.3,1.51 v 0 0 q -0.73,0.69 -1.57,1.12 v 0 0 q 0.43,0.96 0.92,2.1 v 0 0 q 0.49,1.14 0.93,2.17 v 0 0 q 0.48,1.2 0.98,2.4 v 0 l -3.72,1.3 v 0 Q 6.84,-1.92 6.46,-3.26 v 0 0 Q 6.29,-3.82 6.12,-4.4 v 0 0 Q 5.95,-4.99 5.81,-5.52 v 0 0 Q 5.66,-6.05 5.57,-6.47 v 0 0 Q 5.47,-6.89 5.45,-7.15 v 0 l -0.31,0.09 v 0 q -0.15,0.77 -0.35,1.8 v 0 0 q -0.21,1.04 -0.37,2 v 0 0 Q 4.2,-2.14 3.98,-0.98 Z m 2.52,-13.23 -0.76,3.82 v 0 q 0.45,-0.05 1.11,-0.39 v 0 0 q 0.66,-0.33 1.26,-0.8 v 0 0 q 0.6,-0.47 1.03,-0.97 v 0 0 q 0.44,-0.51 0.44,-0.89 v 0 0 q 0,-0.26 -0.17,-0.42 v 0 0 Q 9.24,-14.02 8.94,-14.1 v 0 0 q -0.3,-0.08 -0.66,-0.11 v 0 0 q -0.36,-0.02 -0.74,-0.02 v 0 0 q -0.27,0 -0.54,0.01 v 0 0 q -0.28,0.01 -0.5,0.01 z m 11.79,13.49 -6.22,0.94 v 0 q 0.31,-3.36 0.58,-6.6 v 0 0 q 0.12,-1.35 0.23,-2.84 v 0 0 q 0.1,-1.48 0.19,-2.94 v 0 0 q 0.08,-1.45 0.13,-2.8 v 0 0 q 0.05,-1.36 0.07,-2.49 v 0 0 q 0.58,0 1.24,-0.02 v 0 0 q 0.66,-0.03 1.2,-0.05 v 0 0 q 0.54,-0.02 0.92,-0.06 v 0 0 q 0.39,-0.04 0.39,-0.04 v 0 0 q -0.27,2.79 -0.46,4.58 v 0 0 q -0.19,1.78 -0.3,2.9 v 0 0 q -0.11,1.12 -0.19,2.15 v 0 0 q -0.09,1.03 -0.18,1.92 v 0 0 q -0.1,0.89 -0.17,1.51 v 0 h 0.43 l 2.69,-12.77 v 0 q 0.65,-0.02 1.32,-0.07 v 0 0 q 0.6,-0.05 1.26,-0.07 v 0 0 q 0.66,-0.03 1.21,-0.1 v 0 0 q -0.33,1.06 -0.68,2.33 v 0 0 q -0.35,1.27 -0.72,2.64 v 0 0 q -0.37,1.37 -0.72,2.78 v 0 0 q -0.35,1.42 -0.69,2.74 v 0 0 q -0.76,3.1 -1.53,6.36 z"
         id="path19"
         inkscape:connector-curvature="0"
         style="fill:#fcba03" />
    </g>
  </g>
  <style
     id="style25">text {
  font-size: 64px;
  font-family: Arial Black;
  dominant-baseline: central;
  text-anchor: middle;
}</style>
</svg>
