<?xml version="1.0" encoding="UTF-8" standalone="no"?>
<svg
   xmlns:dc="http://purl.org/dc/elements/1.1/"
   xmlns:cc="http://creativecommons.org/ns#"
   xmlns:rdf="http://www.w3.org/1999/02/22-rdf-syntax-ns#"
   xmlns:svg="http://www.w3.org/2000/svg"
   xmlns="http://www.w3.org/2000/svg"
   xmlns:sodipodi="http://sodipodi.sourceforge.net/DTD/sodipodi-0.dtd"
   xmlns:inkscape="http://www.inkscape.org/namespaces/inkscape"
   width="24"
   height="24"
   viewBox="213.26748 47.596265 23.999999 23.999999"
   preserveAspectRatio="xMidYMid"
   version="1.1"
   id="svg27"
   sodipodi:docname="spiderhomecoming.svg"
   inkscape:version="0.92.4 (5da689c313, 2019-01-14)">
  <metadata
     id="metadata31">
    <rdf:RDF>
      <cc:Work
         rdf:about="">
        <dc:format>image/svg+xml</dc:format>
        <dc:type
           rdf:resource="http://purl.org/dc/dcmitype/StillImage" />
        <dc:title></dc:title>
      </cc:Work>
    </rdf:RDF>
  </metadata>
  <sodipodi:namedview
     pagecolor="#ffffff"
     bordercolor="#666666"
     borderopacity="1"
     objecttolerance="10"
     gridtolerance="10"
     guidetolerance="10"
     inkscape:pageopacity="0"
     inkscape:pageshadow="2"
     inkscape:window-width="1842"
     inkscape:window-height="1057"
     id="namedview29"
     showgrid="false"
     inkscape:zoom="10.934089"
     inkscape:cx="15.253987"
     inkscape:cy="8.7416146"
     inkscape:window-x="70"
     inkscape:window-y="-8"
     inkscape:window-maximized="1"
     inkscape:current-layer="svg27" />
  <defs
     id="defs17">
    <filter
       id="editing-extrusion"
       x="-1"
       y="-1"
       width="3"
       height="3">
      <feFlood
         result="color1"
         flood-color="#000000"
         id="feFlood2" />
      <feConvolveMatrix
         order="3,3"
         divisor="1"
         kernelMatrix="1 0 0 0 1 0 0 0 1"
         in="SourceAlpha"
         result="extrude"
         id="feConvolveMatrix4" />
      <feComposite
         in="color1"
         in2="extrude"
         result="comp-extrude"
         operator="in"
         id="feComposite6" />
      <feOffset
         dx="1.5"
         dy="1.5"
         in="comp-extrude"
         result="offset-extrude"
         id="feOffset8" />
      <feMerge
         id="feMerge14">
        <feMergeNode
           in="offset-extrude"
           id="feMergeNode10" />
        <feMergeNode
           in="SourceGraphic"
           id="feMergeNode12" />
      </feMerge>
    </filter>
  </defs>
  <g
     id="g23"
     style="filter:url(#editing-extrusion)"
     transform="matrix(0.54257161,0,0,0.73381031,88.366347,4.5238012)">
    <g
       transform="translate(232.45563,84.085)"
       id="g21">
      <path
         d="m 10.63,-5.93 v 0 q 0,1.35 -0.51,2.44 v 0 0 Q 9.6,-2.4 8.72,-1.61 v 0 0 q -0.87,0.79 -2.06,1.23 v 0 0 Q 5.47,0.05 4.1,0.05 v 0 0 q -0.96,0 -1.92,-0.52 v 0 0 Q 1.22,-0.98 0.34,-2.11 v 0 l 1.77,-3.48 v 0 q 0.17,0.31 0.51,0.63 v 0 0 q 0.33,0.33 0.75,0.57 v 0 0 Q 3.79,-4.15 4.21,-4 v 0 0 q 0.42,0.16 0.76,0.16 v 0 0 q 0.29,0 0.6,-0.1 v 0 0 q 0.31,-0.09 0.57,-0.28 v 0 0 q 0.27,-0.2 0.42,-0.45 v 0 0 q 0.16,-0.25 0.16,-0.59 v 0 0 q 0,-0.57 -0.37,-1.06 v 0 0 Q 5.98,-6.82 5.42,-7.26 v 0 0 Q 4.87,-7.7 4.22,-8.16 v 0 0 Q 3.58,-8.62 3.04,-9.12 v 0 0 Q 2.5,-9.62 2.11,-10.25 v 0 0 q -0.38,-0.62 -0.38,-1.39 v 0 0 q 0,-1.25 0.74,-2.33 v 0 0 q 0.75,-1.08 1.86,-1.86 v 0 0 q 1.12,-0.78 2.44,-1.23 v 0 0 q 1.32,-0.46 2.49,-0.46 v 0 0 q 0.65,0 1.23,0.16 v 0 0 q 0.57,0.15 0.99,0.5 v 0 0 q 0.42,0.35 0.68,0.88 v 0 0 q 0.25,0.52 0.25,1.32 v 0 0 q 0,0.33 -0.06,0.67 v 0 0 q -0.06,0.33 -0.11,0.72 v 0 l -3.48,1.01 v 0 q 0.05,-0.2 0.08,-0.39 v 0 0 q 0.04,-0.19 0.04,-0.38 v 0 0 q 0,-0.72 -0.25,-1.05 v 0 0 Q 8.38,-14.4 7.97,-14.4 v 0 0 q -0.19,0 -0.47,0.14 v 0 0 q -0.28,0.15 -0.55,0.38 v 0 0 q -0.28,0.22 -0.47,0.54 v 0 0 q -0.19,0.31 -0.19,0.67 v 0 0 q 0,0.57 0.32,0.96 v 0 0 q 0.33,0.38 0.81,0.72 v 0 0 q 0.48,0.33 1.04,0.68 v 0 0 q 0.56,0.35 1.04,0.9 v 0 0 q 0.48,0.55 0.81,1.38 v 0 0 q 0.32,0.83 0.32,2.1 z m 2.93,5.52 -3.96,0.27 v 0 q 1.06,-3.2 2.02,-6.27 v 0 0 q 0.4,-1.29 0.84,-2.71 v 0 0 q 0.43,-1.42 0.86,-2.81 v 0 0 q 0.43,-1.39 0.8,-2.69 v 0 0 q 0.38,-1.29 0.66,-2.4 v 0 0 q 1.32,0 2.5,-0.14 v 0 0 q 1.18,-0.14 2.54,-0.26 v 0 0 q -0.07,0.52 -0.15,1.18 v 0 0 q -0.09,0.66 -0.19,1.38 v 0 0 q -0.11,0.72 -0.23,1.49 v 0 0 q -0.12,0.77 -0.29,1.97 v 0 0 q -0.17,1.2 -0.46,3 v 0 h 0.32 v 0 q 0.69,-1.82 1.15,-3.04 v 0 0 q 0.45,-1.21 0.74,-1.98 v 0 0 q 0.29,-0.76 0.59,-1.5 v 0 0 q 0.3,-0.73 0.58,-1.39 v 0 0 q 0.27,-0.66 0.51,-1.16 v 0 0 q 0.6,-0.05 1.13,-0.12 v 0 0 q 0.53,-0.07 1.06,-0.16 v 0 0 q 0.52,-0.08 1.06,-0.17 v 0 0 q 0.54,-0.08 1.19,-0.2 v 0 0 q -0.24,1.39 -0.45,2.86 v 0 0 q -0.22,1.46 -0.39,2.91 v 0 0 q -0.17,1.45 -0.32,2.87 v 0 0 q -0.16,1.42 -0.28,2.69 v 0 0 q -0.29,2.97 -0.5,5.81 v 0 l -4.18,0.74 v 0 q 0,-0.12 0.04,-0.65 v 0 0 q 0.03,-0.53 0.09,-1.29 v 0 0 q 0.06,-0.77 0.17,-1.71 v 0 0 q 0.11,-0.93 0.22,-1.87 v 0 0 q 0.11,-0.94 0.23,-1.81 v 0 0 q 0.12,-0.88 0.24,-1.5 v 0 h -0.22 v 0 q -0.34,1.01 -0.74,2.12 v 0 0 q -0.41,1.12 -0.83,2.27 v 0 0 q -0.42,1.15 -0.83,2.26 v 0 0 q -0.41,1.1 -0.72,2.11 v 0 0 q -0.84,0.02 -1.44,0.06 v 0 0 q -0.6,0.03 -1.39,0.08 v 0 l 0.77,-8.9 h -0.36 v 0 q -0.05,0.31 -0.24,1.04 v 0 0 q -0.2,0.73 -0.45,1.68 v 0 0 Q 15,-5.4 14.71,-4.38 v 0 0 q -0.29,1.02 -0.54,1.9 v 0 0 q -0.25,0.87 -0.42,1.44 v 0 0 q -0.17,0.56 -0.19,0.63 z m 15.5,-0.31 -3.69,0.77 v 0 q 0.67,-3.36 1.29,-6.55 v 0 0 q 0.24,-1.37 0.51,-2.85 v 0 0 q 0.26,-1.47 0.49,-2.91 v 0 0 q 0.23,-1.44 0.43,-2.8 v 0 0 q 0.21,-1.36 0.33,-2.46 v 0 0 q 0.55,0.02 1.02,0.06 v 0 0 q 0.46,0.04 0.92,0.06 v 0 0 q 0.46,0.02 0.92,0.04 v 0 0 q 0.47,0.01 1.02,0.01 v 0 0 q -0.4,1.7 -0.8,3.41 v 0 0 q -0.4,1.7 -0.73,3.43 v 0 l 2.37,-0.27 v 0 q 0.34,-1.7 0.6,-3.3 v 0 0 q 0.27,-1.59 0.7,-3.3 v 0 0 q 0.55,-0.09 1.22,-0.15 v 0 0 q 0.68,-0.06 1.25,-0.11 v 0 0 q 0.58,-0.05 0.97,-0.08 v 0 0 q 0.4,-0.04 0.4,-0.04 v 0 0 q -0.34,1.08 -0.64,2.36 v 0 0 q -0.3,1.29 -0.58,2.67 v 0 0 q -0.29,1.38 -0.56,2.79 v 0 0 q -0.26,1.42 -0.48,2.69 v 0 0 q -0.52,3.05 -0.98,6.24 v 0 l -3.74,0.43 v 0 q 0.31,-1.44 0.55,-2.8 v 0 0 q 0.24,-1.16 0.49,-2.4 v 0 0 q 0.25,-1.25 0.4,-2.14 v 0 l -2.33,0.22 v 0 q -0.17,0.91 -0.4,2.11 v 0 0 q -0.23,1.2 -0.42,2.28 v 0 0 q -0.26,1.29 -0.53,2.59 z"
         id="path19"
         inkscape:connector-curvature="0"
         style="fill:#fcba03" />
    </g>
  </g>
  <style
     id="style25">text {
  font-size: 64px;
  font-family: Arial Black;
  dominant-baseline: central;
  text-anchor: middle;
}</style>
</svg>
