<?xml version="1.0" encoding="UTF-8" standalone="no"?>
<svg
   xmlns:dc="http://purl.org/dc/elements/1.1/"
   xmlns:cc="http://creativecommons.org/ns#"
   xmlns:rdf="http://www.w3.org/1999/02/22-rdf-syntax-ns#"
   xmlns:svg="http://www.w3.org/2000/svg"
   xmlns="http://www.w3.org/2000/svg"
   xmlns:sodipodi="http://sodipodi.sourceforge.net/DTD/sodipodi-0.dtd"
   xmlns:inkscape="http://www.inkscape.org/namespaces/inkscape"
   width="24"
   height="24"
   viewBox="214.16001 47.596265 24.000001 23.999999"
   preserveAspectRatio="xMidYMid"
   version="1.1"
   id="svg27"
   sodipodi:docname="sw2.svg"
   inkscape:version="0.92.4 (5da689c313, 2019-01-14)">
  <metadata
     id="metadata31">
    <rdf:RDF>
      <cc:Work
         rdf:about="">
        <dc:format>image/svg+xml</dc:format>
        <dc:type
           rdf:resource="http://purl.org/dc/dcmitype/StillImage" />
        <dc:title></dc:title>
      </cc:Work>
    </rdf:RDF>
  </metadata>
  <sodipodi:namedview
     pagecolor="#ffffff"
     bordercolor="#666666"
     borderopacity="1"
     objecttolerance="10"
     gridtolerance="10"
     guidetolerance="10"
     inkscape:pageopacity="0"
     inkscape:pageshadow="2"
     inkscape:window-width="1842"
     inkscape:window-height="1057"
     id="namedview29"
     showgrid="false"
     inkscape:zoom="7.9241096"
     inkscape:cx="25.725369"
     inkscape:cy="17.361849"
     inkscape:window-x="70"
     inkscape:window-y="-8"
     inkscape:window-maximized="1"
     inkscape:current-layer="svg27" />
  <defs
     id="defs17">
    <filter
       id="editing-extrusion"
       x="-1"
       y="-1"
       width="3"
       height="3">
      <feFlood
         result="color1"
         flood-color="#000000"
         id="feFlood2" />
      <feConvolveMatrix
         order="3,3"
         divisor="1"
         kernelMatrix="1 0 0 0 1 0 0 0 1"
         in="SourceAlpha"
         result="extrude"
         id="feConvolveMatrix4" />
      <feComposite
         in="color1"
         in2="extrude"
         result="comp-extrude"
         operator="in"
         id="feComposite6" />
      <feOffset
         dx="1.5"
         dy="1.5"
         in="comp-extrude"
         result="offset-extrude"
         id="feOffset8" />
      <feMerge
         id="feMerge14">
        <feMergeNode
           in="offset-extrude"
           id="feMergeNode10" />
        <feMergeNode
           in="SourceGraphic"
           id="feMergeNode12" />
      </feMerge>
    </filter>
  </defs>
  <g
     id="g23"
     style="filter:url(#editing-extrusion)"
     transform="matrix(0.58649011,0,0,0.74654722,78.541542,3.5305688)">
    <g
       transform="translate(232.01563,83.93)"
       id="g21">
      <path
         d="m 10.63,-5.93 v 0 q 0,1.35 -0.51,2.44 v 0 0 Q 9.6,-2.4 8.72,-1.61 v 0 0 q -0.87,0.79 -2.06,1.23 v 0 0 Q 5.47,0.05 4.1,0.05 v 0 0 q -0.96,0 -1.92,-0.52 v 0 0 Q 1.22,-0.98 0.34,-2.11 v 0 l 1.77,-3.48 v 0 q 0.17,0.31 0.51,0.63 v 0 0 q 0.33,0.33 0.75,0.57 v 0 0 Q 3.79,-4.15 4.21,-4 v 0 0 q 0.42,0.16 0.76,0.16 v 0 0 q 0.29,0 0.6,-0.1 v 0 0 q 0.31,-0.09 0.57,-0.28 v 0 0 q 0.27,-0.2 0.42,-0.45 v 0 0 q 0.16,-0.25 0.16,-0.59 v 0 0 q 0,-0.57 -0.37,-1.06 v 0 0 Q 5.98,-6.82 5.42,-7.26 v 0 0 Q 4.87,-7.7 4.22,-8.16 v 0 0 Q 3.58,-8.62 3.04,-9.12 v 0 0 Q 2.5,-9.62 2.11,-10.25 v 0 0 q -0.38,-0.62 -0.38,-1.39 v 0 0 q 0,-1.25 0.74,-2.33 v 0 0 q 0.75,-1.08 1.86,-1.86 v 0 0 q 1.12,-0.78 2.44,-1.23 v 0 0 q 1.32,-0.46 2.49,-0.46 v 0 0 q 0.65,0 1.23,0.16 v 0 0 q 0.57,0.15 0.99,0.5 v 0 0 q 0.42,0.35 0.68,0.88 v 0 0 q 0.25,0.52 0.25,1.32 v 0 0 q 0,0.33 -0.06,0.67 v 0 0 q -0.06,0.33 -0.11,0.72 v 0 l -3.48,1.01 v 0 q 0.05,-0.2 0.08,-0.39 v 0 0 q 0.04,-0.19 0.04,-0.38 v 0 0 q 0,-0.72 -0.25,-1.05 v 0 0 Q 8.38,-14.4 7.97,-14.4 v 0 0 q -0.19,0 -0.47,0.14 v 0 0 q -0.28,0.15 -0.55,0.38 v 0 0 q -0.28,0.22 -0.47,0.54 v 0 0 q -0.19,0.31 -0.19,0.67 v 0 0 q 0,0.57 0.32,0.96 v 0 0 q 0.33,0.38 0.81,0.72 v 0 0 q 0.48,0.33 1.04,0.68 v 0 0 q 0.56,0.35 1.04,0.9 v 0 0 q 0.48,0.55 0.81,1.38 v 0 0 q 0.32,0.83 0.32,2.1 z m 5.67,5.14 -5,0.89 1.83,-17.04 v 0 q 1.13,-0.05 2.12,-0.23 v 0 0 q 1,-0.18 1.98,-0.25 v 0 0 q 0,0.02 -0.07,0.49 v 0 0 q -0.07,0.47 -0.19,1.22 v 0 0 q -0.12,0.76 -0.27,1.71 v 0 0 q -0.14,0.94 -0.42,2.6 v 0 0 q -0.27,1.66 -0.73,4.58 v 0 h 0.36 v 0 q 0.63,-2.2 1.03,-3.61 v 0 0 q 0.41,-1.4 0.66,-2.28 v 0 0 q 0.26,-0.87 0.48,-1.69 v 0 0 q 0.23,-0.82 0.44,-1.51 v 0 0 q 0.2,-0.7 0.32,-1.18 v 0 h 0.22 v 0 q 0.43,0 0.87,-0.05 v 0 0 q 0.45,-0.04 0.84,-0.1 v 0 0 q 0.4,-0.06 0.83,-0.16 v 0 0 q -0.05,0.22 -0.11,0.89 v 0 0 q -0.06,0.67 -0.15,1.62 v 0 0 q -0.1,0.95 -0.2,2.09 v 0 0 q -0.09,1.14 -0.19,2.23 v 0 0 q -0.09,1.09 -0.18,2.07 v 0 0 q -0.08,0.99 -0.15,1.68 v 0 h 0.43 l 2.28,-10.32 v 0 q 0.81,-0.12 1.61,-0.21 v 0 0 q 0.69,-0.1 1.44,-0.19 v 0 0 q 0.74,-0.1 1.32,-0.22 v 0 0 q -0.36,1.01 -0.72,2.24 v 0 0 q -0.36,1.24 -0.75,2.61 v 0 0 q -0.38,1.37 -0.73,2.76 v 0 0 q -0.35,1.39 -0.68,2.69 v 0 0 q -0.77,3.07 -1.49,6.31 v 0 l -5.43,0.91 1.06,-9.26 h -0.29 z m 12.52,0.29 v 0 q -1.94,0.14 -4.05,0.28 v 0 l 0.41,-3.02 v 0 q 0.07,-0.74 0.73,-1.55 v 0 0 q 0.66,-0.8 1.57,-1.63 v 0 0 q 0.91,-0.83 1.96,-1.61 v 0 0 q 1.04,-0.78 1.93,-1.5 v 0 0 q 0.89,-0.72 1.47,-1.33 v 0 0 q 0.59,-0.61 0.59,-1.07 v 0 0 q 0,-0.72 -0.27,-1.11 v 0 0 q -0.28,-0.4 -0.69,-0.4 v 0 0 q -0.41,0 -0.71,0.18 v 0 0 q -0.3,0.18 -0.45,0.47 v 0 0 q -0.16,0.29 -0.23,0.62 v 0 0 q -0.07,0.34 -0.07,0.67 v 0 0.24 0 q 0,0.08 0.02,0.1 v 0 0 q -0.65,0.05 -1.34,0.12 v 0 0 q -0.6,0.05 -1.33,0.13 v 0 0 q -0.74,0.09 -1.46,0.16 v 0 0 q -0.02,-0.19 -0.03,-0.4 v 0 0 q -0.01,-0.2 -0.01,-0.37 v 0 0 q 0,-1.42 0.55,-2.53 v 0 0 q 0.55,-1.12 1.43,-1.87 v 0 0 q 0.87,-0.76 1.99,-1.17 v 0 0 q 1.11,-0.41 2.22,-0.41 v 0 0 q 0.91,0 1.74,0.29 v 0 0 q 0.83,0.29 1.46,0.88 v 0 0 q 0.64,0.59 1.02,1.49 v 0 0 q 0.39,0.9 0.39,2.14 v 0 0 q 0,1.2 -0.63,2.34 v 0 0 q -0.62,1.14 -1.73,2.24 v 0 0 Q 34.2,-7.03 32.69,-6 v 0 0 q -1.51,1.03 -3.29,1.97 v 0 0 q 0.65,0 1.67,-0.05 v 0 0 q 1.02,-0.05 2.09,-0.13 v 0 0 q 1.06,-0.09 2.31,-0.18 v 0 l -0.38,3.48 v 0 q -0.58,0.05 -1.31,0.09 v 0 0 q -0.73,0.05 -1.56,0.1 v 0 0 q -0.83,0.05 -1.7,0.11 v 0 0 q -0.88,0.06 -1.7,0.11 z"
         id="path19"
         inkscape:connector-curvature="0"
         style="fill:#fcba03" />
    </g>
  </g>
  <style
     id="style25">text {
  font-size: 64px;
  font-family: Arial Black;
  dominant-baseline: central;
  text-anchor: middle;
}</style>
</svg>
