<?xml version="1.0" encoding="UTF-8" standalone="no"?>
<svg
   xmlns:dc="http://purl.org/dc/elements/1.1/"
   xmlns:cc="http://creativecommons.org/ns#"
   xmlns:rdf="http://www.w3.org/1999/02/22-rdf-syntax-ns#"
   xmlns:svg="http://www.w3.org/2000/svg"
   xmlns="http://www.w3.org/2000/svg"
   xmlns:sodipodi="http://sodipodi.sourceforge.net/DTD/sodipodi-0.dtd"
   xmlns:inkscape="http://www.inkscape.org/namespaces/inkscape"
   width="24"
   height="24"
   viewBox="224.21125 47.596265 23.999999 23.999999"
   preserveAspectRatio="xMidYMid"
   version="1.1"
   id="svg27"
   sodipodi:docname="venom.svg"
   inkscape:version="0.92.4 (5da689c313, 2019-01-14)">
  <metadata
     id="metadata31">
    <rdf:RDF>
      <cc:Work
         rdf:about="">
        <dc:format>image/svg+xml</dc:format>
        <dc:type
           rdf:resource="http://purl.org/dc/dcmitype/StillImage" />
        <dc:title></dc:title>
      </cc:Work>
    </rdf:RDF>
  </metadata>
  <sodipodi:namedview
     pagecolor="#ffffff"
     bordercolor="#666666"
     borderopacity="1"
     objecttolerance="10"
     gridtolerance="10"
     guidetolerance="10"
     inkscape:pageopacity="0"
     inkscape:pageshadow="2"
     inkscape:window-width="1842"
     inkscape:window-height="1057"
     id="namedview29"
     showgrid="false"
     inkscape:zoom="4.3059822"
     inkscape:cx="-2.892283"
     inkscape:cy="27.403736"
     inkscape:window-x="70"
     inkscape:window-y="-8"
     inkscape:window-maximized="1"
     inkscape:current-layer="svg27" />
  <defs
     id="defs17">
    <filter
       id="editing-extrusion"
       x="-1"
       y="-1"
       width="3"
       height="3">
      <feFlood
         result="color1"
         flood-color="#000000"
         id="feFlood2" />
      <feConvolveMatrix
         order="3,3"
         divisor="1"
         kernelMatrix="1 0 0 0 1 0 0 0 1"
         in="SourceAlpha"
         result="extrude"
         id="feConvolveMatrix4" />
      <feComposite
         in="color1"
         in2="extrude"
         result="comp-extrude"
         operator="in"
         id="feComposite6" />
      <feOffset
         dx="1.5"
         dy="1.5"
         in="comp-extrude"
         result="offset-extrude"
         id="feOffset8" />
      <feMerge
         id="feMerge14">
        <feMergeNode
           in="offset-extrude"
           id="feMergeNode10" />
        <feMergeNode
           in="SourceGraphic"
           id="feMergeNode12" />
      </feMerge>
    </filter>
  </defs>
  <g
     id="g23"
     style="filter:url(#editing-extrusion)"
     transform="matrix(0.73179656,0,0,0.73179656,52.072941,4.5505278)">
    <g
       transform="translate(239.67,84.11)"
       id="g21">
      <path
         d="M 7.63,-0.72 1.42,0.22 v 0 q 0.31,-3.36 0.57,-6.6 v 0 0 q 0.12,-1.35 0.23,-2.84 v 0 0 q 0.11,-1.48 0.19,-2.94 v 0 0 q 0.09,-1.45 0.13,-2.8 v 0 0 q 0.05,-1.36 0.08,-2.49 v 0 0 q 0.57,0 1.23,-0.02 v 0 0 q 0.66,-0.03 1.2,-0.05 v 0 0 q 0.54,-0.02 0.93,-0.06 v 0 0 q 0.38,-0.04 0.38,-0.04 v 0 0 q -0.26,2.79 -0.46,4.58 v 0 0 q -0.19,1.78 -0.3,2.9 v 0 0 q -0.1,1.12 -0.19,2.15 v 0 0 q -0.08,1.03 -0.18,1.92 v 0 0 q -0.09,0.89 -0.17,1.51 v 0 H 5.5 l 2.68,-12.77 v 0 q 0.65,-0.02 1.32,-0.07 v 0 0 q 0.6,-0.05 1.26,-0.07 v 0 0 q 0.66,-0.03 1.22,-0.1 v 0 0 q -0.34,1.06 -0.69,2.33 v 0 0 q -0.35,1.27 -0.72,2.64 v 0 0 q -0.37,1.37 -0.72,2.78 v 0 0 Q 9.5,-8.4 9.17,-7.08 v 0 0 q -0.77,3.1 -1.54,6.36 z m 5.11,0.02 -3.5,0.82 v 0 q 0.67,-3.38 1.3,-6.6 v 0 0 q 0.24,-1.34 0.51,-2.82 v 0 0 q 0.28,-1.48 0.52,-2.9 v 0 0 q 0.24,-1.43 0.44,-2.76 v 0 0 q 0.21,-1.34 0.33,-2.44 v 0 0 q 0.74,-0.05 1.44,-0.1 v 0 0 q 0.62,-0.04 1.27,-0.08 v 0 0 q 0.65,-0.04 1.15,-0.08 v 0 0 q 0.31,1.84 0.55,3.52 v 0 0 q 0.12,0.72 0.25,1.5 v 0 0 q 0.14,0.78 0.26,1.5 v 0 0 q 0.12,0.72 0.24,1.38 v 0 0 q 0.12,0.66 0.24,1.17 v 0 0 q 0.09,-0.51 0.21,-1.17 v 0 0 q 0.12,-0.66 0.27,-1.39 v 0 0 q 0.14,-0.73 0.3,-1.5 v 0 0 q 0.15,-0.77 0.3,-1.49 v 0 0 q 0.36,-1.68 0.74,-3.5 v 0 L 22.49,-18 v 0 q -0.82,3.6 -1.44,6.82 v 0 0 q -0.29,1.39 -0.57,2.8 v 0 0 q -0.27,1.42 -0.51,2.74 v 0 0 q -0.24,1.32 -0.41,2.44 v 0 0 q -0.17,1.11 -0.26,1.88 v 0 0 q -0.08,0 -0.57,0.11 v 0 0 q -0.49,0.11 -1.13,0.25 v 0 0 q -0.63,0.14 -1.27,0.3 v 0 0 q -0.63,0.16 -0.95,0.25 v 0 0 Q 15.22,-2.35 15.02,-4.1 v 0 0 q -0.07,-0.75 -0.16,-1.54 v 0 0 q -0.1,-0.79 -0.18,-1.51 v 0 0 q -0.09,-0.72 -0.17,-1.36 v 0 0 q -0.09,-0.63 -0.16,-1.07 v 0 0 q -0.07,0.44 -0.19,1.06 v 0 0 q -0.12,0.62 -0.24,1.33 v 0 0 q -0.12,0.71 -0.24,1.47 v 0 0 q -0.12,0.75 -0.26,1.47 v 0 0 q -0.32,1.71 -0.68,3.55 z"
         id="path19"
         inkscape:connector-curvature="0"
         style="fill:#fcba03" />
    </g>
  </g>
  <style
     id="style25">text {
  font-size: 64px;
  font-family: Arial Black;
  dominant-baseline: central;
  text-anchor: middle;
}</style>
</svg>
