<?xml version="1.0" encoding="UTF-8" standalone="no"?>
<svg
   width="24"
   height="24"
   viewBox="221.5517 47.719999 23.999999 24"
   preserveAspectRatio="xMidYMid"
   version="1.1"
   id="svg3"
   sodipodi:docname="WX.svg"
   inkscape:version="1.3 (0e150ed6c4, 2023-07-21)"
   xmlns:inkscape="http://www.inkscape.org/namespaces/inkscape"
   xmlns:sodipodi="http://sodipodi.sourceforge.net/DTD/sodipodi-0.dtd"
   xmlns="http://www.w3.org/2000/svg"
   xmlns:svg="http://www.w3.org/2000/svg">
  <sodipodi:namedview
     id="namedview3"
     pagecolor="#ffffff"
     bordercolor="#000000"
     borderopacity="0.25"
     inkscape:showpageshadow="2"
     inkscape:pageopacity="0.0"
     inkscape:pagecheckerboard="0"
     inkscape:deskcolor="#d1d1d1"
     inkscape:zoom="21.939149"
     inkscape:cx="28.442306"
     inkscape:cy="16.340652"
     inkscape:window-width="2442"
     inkscape:window-height="1411"
     inkscape:window-x="109"
     inkscape:window-y="-9"
     inkscape:window-maximized="1"
     inkscape:current-layer="svg3" />
  <defs
     id="defs2">
    <filter
       id="editing-extrusion"
       x="0"
       y="0"
       width="1.0578035"
       height="1.0833333">
      <feFlood
         result="color1"
         flood-color="#000000"
         id="feFlood1" />
      <feConvolveMatrix
         order="3,3"
         divisor="1"
         kernelMatrix="1 0 0 0 1 0 0 0 1"
         in="SourceAlpha"
         result="extrude"
         id="feConvolveMatrix1" />
      <feComposite
         in="color1"
         in2="extrude"
         result="comp-extrude"
         operator="in"
         id="feComposite1" />
      <feOffset
         dx="1.5"
         dy="1.5"
         in="comp-extrude"
         result="offset-extrude"
         id="feOffset1" />
      <feMerge
         id="feMerge2">
        <feMergeNode
           in="offset-extrude"
           id="feMergeNode1" />
        <feMergeNode
           in="SourceGraphic"
           id="feMergeNode2" />
      </feMerge>
    </filter>
  </defs>
  <g
     filter="url(#editing-extrusion)"
     id="g3"
     transform="matrix(0.74179493,0,0,0.74179493,46.49621,3.3509991)">
    <g
       transform="translate(237.46104,84.000005)"
       id="g2">
      <path
         d="m 5.98,-0.79 -5,0.89 1.83,-17.04 v 0 q 1.13,-0.05 2.12,-0.23 v 0 0 q 1,-0.18 1.98,-0.25 v 0 0 q 0,0.02 -0.07,0.49 v 0 0 q -0.07,0.47 -0.19,1.22 v 0 0 Q 6.53,-14.95 6.38,-14 v 0 0 q -0.14,0.94 -0.42,2.6 v 0 0 q -0.27,1.66 -0.73,4.58 v 0 h 0.36 v 0 q 0.63,-2.2 1.03,-3.61 v 0 0 q 0.41,-1.4 0.66,-2.28 v 0 0 q 0.26,-0.87 0.48,-1.69 v 0 0 q 0.23,-0.82 0.44,-1.51 v 0 0 q 0.2,-0.7 0.32,-1.18 v 0 h 0.22 v 0 q 0.43,0 0.87,-0.05 v 0 0 q 0.45,-0.04 0.84,-0.1 v 0 0 q 0.4,-0.06 0.83,-0.16 v 0 0 q -0.05,0.22 -0.11,0.89 v 0 0 q -0.06,0.67 -0.15,1.62 v 0 0 q -0.1,0.95 -0.2,2.09 v 0 0 q -0.09,1.14 -0.19,2.23 v 0 0 q -0.09,1.09 -0.18,2.07 v 0 0 q -0.08,0.99 -0.15,1.68 v 0 h 0.43 l 2.28,-10.32 v 0 q 0.81,-0.12 1.61,-0.21 v 0 0 q 0.69,-0.1 1.44,-0.19 v 0 0 q 0.74,-0.1 1.32,-0.22 v 0 0 q -0.36,1.01 -0.72,2.24 v 0 0 q -0.36,1.24 -0.75,2.61 v 0 0 q -0.38,1.37 -0.73,2.76 v 0 0 q -0.35,1.39 -0.68,2.69 v 0 0 q -0.77,3.07 -1.49,6.31 v 0 L 7.58,-0.24 8.64,-9.5 H 8.35 Z M 24.65,-1.1 v 0 q -0.05,0.02 -0.34,0.09 v 0 0 q -0.29,0.07 -0.72,0.19 v 0 0 q -0.43,0.12 -0.95,0.27 v 0 0 q -0.51,0.14 -1,0.29 v 0 0 q -0.5,0.14 -0.93,0.27 v 0 0 q -0.43,0.13 -0.67,0.23 v 0 0 q -0.07,-0.96 -0.12,-1.87 v 0 0 q -0.05,-0.79 -0.11,-1.59 v 0 0 q -0.06,-0.79 -0.08,-1.32 v 0 0 q -0.22,0.53 -0.57,1.32 v 0 0 q -0.34,0.8 -0.68,1.56 v 0 0 q -0.41,0.89 -0.84,1.8 v 0 l -4.08,-0.36 v 0 q 1.2,-2.13 2.4,-4.22 v 0 0 q 1.2,-2.09 2.21,-4.37 v 0 0 q -0.15,-1.08 -0.28,-1.92 v 0 0 q -0.13,-0.84 -0.3,-1.65 v 0 0 q -0.17,-0.82 -0.36,-1.65 v 0 0 q -0.19,-0.83 -0.38,-1.88 v 0 l 3.84,-1.59 v 0 q 0.12,1.13 0.27,2.5 v 0 0 q 0.16,1.37 0.28,2.52 v 0 0 q 0.55,-1.2 1.09,-2.4 v 0 0 q 0.54,-1.2 1.12,-2.38 v 0 l 3.48,0.94 v 0 q -0.63,1.06 -1.13,1.94 v 0 0 q -0.5,0.89 -0.96,1.78 v 0 0 q -0.46,0.89 -0.91,1.81 v 0 0 q -0.46,0.93 -0.99,2.05 v 0 0 q 0.15,1.06 0.34,2 v 0 0 q 0.19,0.93 0.42,1.84 v 0 0 q 0.23,0.92 0.46,1.84 v 0 0 q 0.22,0.92 0.49,1.96 z"
         fill="#fcba03"
         id="path2" />
    </g>
  </g>
  <style
     id="style3">text {&#10;  font-size: 64px;&#10;  font-family: Arial Black;&#10;  dominant-baseline: central;&#10;  text-anchor: middle;&#10;}</style>
</svg>
