<?xml version="1.0" encoding="UTF-8" standalone="no"?>
<svg
   xmlns:dc="http://purl.org/dc/elements/1.1/"
   xmlns:cc="http://creativecommons.org/ns#"
   xmlns:rdf="http://www.w3.org/1999/02/22-rdf-syntax-ns#"
   xmlns:svg="http://www.w3.org/2000/svg"
   xmlns="http://www.w3.org/2000/svg"
   xmlns:sodipodi="http://sodipodi.sourceforge.net/DTD/sodipodi-0.dtd"
   xmlns:inkscape="http://www.inkscape.org/namespaces/inkscape"
   width="24"
   height="24"
   viewBox="229.78938 47.596265 23.999999 23.999999"
   preserveAspectRatio="xMidYMid"
   version="1.1"
   id="svg27"
   sodipodi:docname="xmen.svg"
   inkscape:version="0.92.4 (5da689c313, 2019-01-14)">
  <metadata
     id="metadata31">
    <rdf:RDF>
      <cc:Work
         rdf:about="">
        <dc:format>image/svg+xml</dc:format>
        <dc:type
           rdf:resource="http://purl.org/dc/dcmitype/StillImage" />
        <dc:title></dc:title>
      </cc:Work>
    </rdf:RDF>
  </metadata>
  <sodipodi:namedview
     pagecolor="#ffffff"
     bordercolor="#666666"
     borderopacity="1"
     objecttolerance="10"
     gridtolerance="10"
     guidetolerance="10"
     inkscape:pageopacity="0"
     inkscape:pageshadow="2"
     inkscape:window-width="1842"
     inkscape:window-height="1057"
     id="namedview29"
     showgrid="false"
     inkscape:zoom="4.3059822"
     inkscape:cx="-8.470408"
     inkscape:cy="27.403736"
     inkscape:window-x="70"
     inkscape:window-y="-8"
     inkscape:window-maximized="1"
     inkscape:current-layer="svg27" />
  <defs
     id="defs17">
    <filter
       id="editing-extrusion"
       x="-1"
       y="-1"
       width="3"
       height="3">
      <feFlood
         result="color1"
         flood-color="#000000"
         id="feFlood2" />
      <feConvolveMatrix
         order="3,3"
         divisor="1"
         kernelMatrix="1 0 0 0 1 0 0 0 1"
         in="SourceAlpha"
         result="extrude"
         id="feConvolveMatrix4" />
      <feComposite
         in="color1"
         in2="extrude"
         result="comp-extrude"
         operator="in"
         id="feComposite6" />
      <feOffset
         dx="1.5"
         dy="1.5"
         in="comp-extrude"
         result="offset-extrude"
         id="feOffset8" />
      <feMerge
         id="feMerge14">
        <feMergeNode
           in="offset-extrude"
           id="feMergeNode10" />
        <feMergeNode
           in="SourceGraphic"
           id="feMergeNode12" />
      </feMerge>
    </filter>
  </defs>
  <g
     id="g23"
     style="filter:url(#editing-extrusion)"
     transform="matrix(0.75159714,0,0,0.75159714,53.285292,3.0460962)">
    <g
       transform="translate(244.98469,83.87)"
       id="g21">
      <path
         d="m 10.22,-1.1 v 0 q -0.04,0.02 -0.33,0.09 v 0 0 Q 9.6,-0.94 9.17,-0.82 v 0 0 Q 8.74,-0.7 8.22,-0.55 v 0 0 Q 7.7,-0.41 7.21,-0.26 v 0 0 Q 6.72,-0.12 6.29,0.01 v 0 0 Q 5.86,0.14 5.62,0.24 v 0 0 Q 5.54,-0.72 5.5,-1.63 v 0 0 Q 5.45,-2.42 5.39,-3.22 v 0 0 Q 5.33,-4.01 5.3,-4.54 v 0 0 q -0.21,0.53 -0.56,1.32 v 0 0 q -0.35,0.8 -0.68,1.56 v 0 0 q -0.41,0.89 -0.84,1.8 v 0 l -4.08,-0.36 v 0 q 1.2,-2.13 2.4,-4.22 v 0 0 q 1.2,-2.09 2.2,-4.37 v 0 0 Q 3.6,-9.89 3.47,-10.73 v 0 0 q -0.13,-0.84 -0.3,-1.65 v 0 0 Q 3,-13.2 2.81,-14.03 v 0 0 q -0.19,-0.83 -0.39,-1.88 v 0 l 3.84,-1.59 v 0 q 0.12,1.13 0.28,2.5 v 0 0 q 0.16,1.37 0.28,2.52 v 0 0 q 0.55,-1.2 1.09,-2.4 v 0 0 q 0.54,-1.2 1.11,-2.38 v 0 l 3.48,0.94 v 0 q -0.62,1.06 -1.12,1.94 v 0 0 q -0.51,0.89 -0.96,1.78 v 0 0 q -0.46,0.89 -0.92,1.81 v 0 0 q -0.45,0.93 -0.98,2.05 v 0 0 q 0.14,1.06 0.34,2 v 0 0 q 0.19,0.93 0.42,1.84 v 0 0 q 0.22,0.92 0.45,1.84 v 0 0 q 0.23,0.92 0.49,1.96 z"
         id="path19"
         inkscape:connector-curvature="0"
         style="fill:#fcba03" />
    </g>
  </g>
  <style
     id="style25">text {
  font-size: 64px;
  font-family: Arial Black;
  dominant-baseline: central;
  text-anchor: middle;
}</style>
</svg>
