<?xml version="1.0" encoding="UTF-8" standalone="no"?>
<svg
   xmlns:dc="http://purl.org/dc/elements/1.1/"
   xmlns:cc="http://creativecommons.org/ns#"
   xmlns:rdf="http://www.w3.org/1999/02/22-rdf-syntax-ns#"
   xmlns:svg="http://www.w3.org/2000/svg"
   xmlns="http://www.w3.org/2000/svg"
   xmlns:sodipodi="http://sodipodi.sourceforge.net/DTD/sodipodi-0.dtd"
   xmlns:inkscape="http://www.inkscape.org/namespaces/inkscape"
   width="24"
   height="24"
   viewBox="223.51 47.596265 24.000001 23.999999"
   preserveAspectRatio="xMidYMid"
   version="1.1"
   id="svg27"
   sodipodi:docname="3d.svg"
   inkscape:version="0.92.4 (5da689c313, 2019-01-14)">
  <metadata
     id="metadata31">
    <rdf:RDF>
      <cc:Work
         rdf:about="">
        <dc:format>image/svg+xml</dc:format>
        <dc:type
           rdf:resource="http://purl.org/dc/dcmitype/StillImage" />
        <dc:title></dc:title>
      </cc:Work>
    </rdf:RDF>
  </metadata>
  <sodipodi:namedview
     pagecolor="#ffffff"
     bordercolor="#666666"
     borderopacity="1"
     objecttolerance="10"
     gridtolerance="10"
     guidetolerance="10"
     inkscape:pageopacity="0"
     inkscape:pageshadow="2"
     inkscape:window-width="1842"
     inkscape:window-height="1057"
     id="namedview29"
     showgrid="false"
     inkscape:zoom="4.3059822"
     inkscape:cx="-2.1910272"
     inkscape:cy="27.403736"
     inkscape:window-x="70"
     inkscape:window-y="-8"
     inkscape:window-maximized="1"
     inkscape:current-layer="svg27" />
  <defs
     id="defs17">
    <filter
       id="editing-extrusion"
       x="-1"
       y="-1"
       width="3"
       height="3">
      <feFlood
         result="color1"
         flood-color="#000000"
         id="feFlood2" />
      <feConvolveMatrix
         order="3,3"
         divisor="1"
         kernelMatrix="1 0 0 0 1 0 0 0 1"
         in="SourceAlpha"
         result="extrude"
         id="feConvolveMatrix4" />
      <feComposite
         in="color1"
         in2="extrude"
         result="comp-extrude"
         operator="in"
         id="feComposite6" />
      <feOffset
         dx="1.5"
         dy="1.5"
         in="comp-extrude"
         result="offset-extrude"
         id="feOffset8" />
      <feMerge
         id="feMerge14">
        <feMergeNode
           in="offset-extrude"
           id="feMergeNode10" />
        <feMergeNode
           in="SourceGraphic"
           id="feMergeNode12" />
      </feMerge>
    </filter>
  </defs>
  <g
     id="g23"
     style="filter:url(#editing-extrusion)"
     transform="matrix(0.74280409,0,0,0.74280409,48.822437,3.6705451)">
    <g
       transform="translate(239.60313,83.975)"
       id="g21">
      <path
         d="m 11.52,-6.14 v 0 q 0,1.1 -0.6,2.25 v 0 0 q -0.6,1.15 -1.62,2.08 v 0 0 Q 8.28,-0.89 6.95,-0.3 v 0 0 Q 5.62,0.29 4.2,0.29 v 0 0 Q 3.38,0.29 2.66,0.1 v 0 0 Q 1.94,-0.1 1.4,-0.49 v 0 0 Q 0.86,-0.89 0.55,-1.5 v 0 0 Q 0.24,-2.11 0.24,-2.95 v 0 0 q 0,-0.55 0.22,-1.23 v 0 l 4.2,-0.24 v 0 q 0,0.48 0.24,0.7 v 0 0 q 0.24,0.22 0.6,0.22 v 0 0 q 0.31,0 0.67,-0.16 v 0 0 q 0.36,-0.16 0.68,-0.42 v 0 0 q 0.33,-0.26 0.53,-0.6 v 0 0 q 0.2,-0.34 0.2,-0.74 v 0 0 Q 7.58,-6 7.03,-6.48 v 0 0 Q 6.48,-6.96 5.21,-6.96 v 0 0 q -0.94,0 -1.85,0.13 v 0 0 Q 2.45,-6.7 1.82,-6.65 v 0 l 0.44,-3.55 v 0 q 0.72,-0.46 1.48,-0.97 v 0 0 q 0.77,-0.52 1.4,-1 v 0 0 q 0.74,-0.53 1.41,-1.08 v 0 l -3.86,0.07 0.29,-4.12 v 0 q 2.18,-0.1 4.05,-0.2 v 0 0 q 0.79,0 1.62,-0.03 v 0 0 q 0.83,-0.04 1.55,-0.07 v 0 0 q 0.72,-0.04 1.31,-0.05 v 0 0 q 0.59,-0.01 0.92,-0.01 v 0 l -0.57,5.11 -4.8,2.52 v 0 q 1.2,0.21 2.05,0.6 v 0 0 q 0.85,0.38 1.39,0.9 v 0 0 q 0.54,0.51 0.78,1.13 v 0 0 q 0.24,0.61 0.24,1.26 z m 11.69,-6.12 v 0 q 0,1.24 -0.36,2.65 v 0 0 q -0.36,1.4 -1.01,2.78 v 0 0 q -0.65,1.38 -1.6,2.64 v 0 0 q -0.94,1.26 -2.14,2.21 v 0 0 q -1.2,0.95 -2.63,1.52 v 0 0 q -1.43,0.58 -3.04,0.58 v 0 0 q -0.33,0 -0.67,-0.04 v 0 0 Q 11.42,0.05 11.09,0 v 0 0 q 0.65,-3.31 1.27,-6.46 v 0 0 q 0.24,-1.32 0.5,-2.74 v 0 0 q 0.27,-1.43 0.51,-2.82 v 0 0 q 0.24,-1.4 0.47,-2.67 v 0 0 q 0.22,-1.27 0.37,-2.3 v 0 0 q 1.03,-0.19 2.09,-0.36 v 0 0 q 1.05,-0.17 2.16,-0.17 v 0 0 q 1.29,0 2.19,0.41 v 0 0 q 0.9,0.41 1.47,1.13 v 0 0 q 0.56,0.72 0.82,1.68 v 0 0 q 0.27,0.96 0.27,2.04 z m -5.67,-1.88 v 0 q -0.26,1.42 -0.55,2.72 v 0 0 q -0.29,1.29 -0.57,2.61 v 0 0 q -0.29,1.32 -0.58,2.76 v 0 0 q -0.29,1.44 -0.55,3.15 v 0 0 q 0.57,-0.39 1.11,-1.05 v 0 0 q 0.54,-0.66 1.02,-1.52 v 0 0 Q 17.9,-6.34 18.3,-7.3 v 0 0 q 0.4,-0.96 0.68,-1.87 v 0 0 q 0.29,-0.91 0.45,-1.7 v 0 0 q 0.15,-0.79 0.15,-1.37 v 0 0 q 0,-0.89 -0.49,-1.39 v 0 0 q -0.49,-0.51 -1.55,-0.51 z"
         id="path19"
         inkscape:connector-curvature="0"
         style="fill:#fcba03" />
    </g>
  </g>
  <style
     id="style25">text {
  font-size: 64px;
  font-family: Arial Black;
  dominant-baseline: central;
  text-anchor: middle;
}</style>
</svg>
