<?xml version="1.0" encoding="UTF-8" standalone="no"?>
<svg
   xmlns:dc="http://purl.org/dc/elements/1.1/"
   xmlns:cc="http://creativecommons.org/ns#"
   xmlns:rdf="http://www.w3.org/1999/02/22-rdf-syntax-ns#"
   xmlns:svg="http://www.w3.org/2000/svg"
   xmlns="http://www.w3.org/2000/svg"
   xmlns:sodipodi="http://sodipodi.sourceforge.net/DTD/sodipodi-0.dtd"
   xmlns:inkscape="http://www.inkscape.org/namespaces/inkscape"
   width="24"
   height="24"
   viewBox="225.56063 47.596265 24 23.999999"
   preserveAspectRatio="xMidYMid"
   version="1.1"
   id="svg27"
   sodipodi:docname="captainamerica.svg"
   inkscape:version="0.92.4 (5da689c313, 2019-01-14)">
  <metadata
     id="metadata31">
    <rdf:RDF>
      <cc:Work
         rdf:about="">
        <dc:format>image/svg+xml</dc:format>
        <dc:type
           rdf:resource="http://purl.org/dc/dcmitype/StillImage" />
        <dc:title></dc:title>
      </cc:Work>
    </rdf:RDF>
  </metadata>
  <sodipodi:namedview
     pagecolor="#ffffff"
     bordercolor="#666666"
     borderopacity="1"
     objecttolerance="10"
     gridtolerance="10"
     guidetolerance="10"
     inkscape:pageopacity="0"
     inkscape:pageshadow="2"
     inkscape:window-width="1842"
     inkscape:window-height="1057"
     id="namedview29"
     showgrid="false"
     inkscape:zoom="4.3059822"
     inkscape:cx="-4.2416616"
     inkscape:cy="27.403736"
     inkscape:window-x="70"
     inkscape:window-y="-8"
     inkscape:window-maximized="1"
     inkscape:current-layer="svg27" />
  <defs
     id="defs17">
    <filter
       id="editing-extrusion"
       x="-1"
       y="-1"
       width="3"
       height="3">
      <feFlood
         result="color1"
         flood-color="#000000"
         id="feFlood2" />
      <feConvolveMatrix
         order="3,3"
         divisor="1"
         kernelMatrix="1 0 0 0 1 0 0 0 1"
         in="SourceAlpha"
         result="extrude"
         id="feConvolveMatrix4" />
      <feComposite
         in="color1"
         in2="extrude"
         result="comp-extrude"
         operator="in"
         id="feComposite6" />
      <feOffset
         dx="1.5"
         dy="1.5"
         in="comp-extrude"
         result="offset-extrude"
         id="feOffset8" />
      <feMerge
         id="feMerge14">
        <feMergeNode
           in="offset-extrude"
           id="feMergeNode10" />
        <feMergeNode
           in="SourceGraphic"
           id="feMergeNode12" />
      </feMerge>
    </filter>
  </defs>
  <g
     id="g23"
     style="filter:url(#editing-extrusion)"
     transform="matrix(0.74780333,0,0,0.74780333,50.206687,3.4736251)">
    <g
       transform="translate(239.53406,83.915)"
       id="g21">
      <path
         d="m 10.25,-5.16 v 0 q -0.58,1.32 -1.29,2.29 v 0 0 q -0.7,0.97 -1.48,1.63 v 0 0 Q 6.7,-0.58 5.9,-0.26 v 0 0 Q 5.11,0.05 4.37,0.05 v 0 0 q -0.75,0 -1.36,-0.34 v 0 0 Q 2.4,-0.62 1.94,-1.3 v 0 0 Q 1.49,-1.97 1.21,-2.95 v 0 0 Q 0.94,-3.94 0.94,-5.26 v 0 0 q 0,-2.25 0.62,-4.45 v 0 0 q 0.62,-2.19 1.75,-3.95 v 0 0 q 1.13,-1.75 2.68,-2.82 v 0 0 q 1.55,-1.06 3.42,-1.06 v 0 0 q 0.57,0 1.1,0.24 v 0 0 q 0.53,0.24 0.91,0.67 v 0 0 q 0.39,0.43 0.62,1.05 v 0 0 q 0.22,0.63 0.22,1.4 v 0 0 q 0,0.14 0,0.3 v 0 0 q 0,0.15 -0.02,0.32 v 0 l -3.14,0.84 v 0 q -0.29,-0.6 -0.68,-0.6 v 0 0 q -0.38,0 -0.8,0.44 v 0 0 q -0.42,0.45 -0.83,1.16 v 0 0 q -0.41,0.7 -0.79,1.58 v 0 0 q -0.38,0.88 -0.67,1.76 v 0 0 q -0.29,0.89 -0.47,1.7 v 0 0 q -0.18,0.8 -0.18,1.3 v 0 0 q 0,0.77 0.2,1.08 v 0 0 q 0.21,0.32 0.54,0.32 v 0 0 q 0.27,0 0.6,-0.21 v 0 0 q 0.34,-0.2 0.63,-0.53 v 0 0 q 0.29,-0.32 0.53,-0.73 v 0 0 q 0.24,-0.41 0.33,-0.81 v 0 z m 8.52,4.68 v 0 q -0.6,0.1 -1.32,0.22 v 0 0 q -0.72,0.12 -1.3,0.21 v 0 0 q 0.1,-0.79 0.19,-1.56 v 0 0 q 0.08,-0.67 0.14,-1.34 v 0 0 q 0.06,-0.67 0.1,-1.15 v 0 H 14.5 l -0.96,3.45 v 0 q -0.53,0.07 -1.25,0.16 v 0 0 q -0.72,0.08 -1.35,0.15 v 0 0 q -0.76,0.1 -1.51,0.2 v 0 0 q 0.96,-3.2 1.9,-6.29 v 0 0 q 0.38,-1.3 0.8,-2.71 v 0 0 q 0.42,-1.42 0.84,-2.82 v 0 0 q 0.42,-1.41 0.81,-2.7 v 0 0 q 0.38,-1.3 0.67,-2.38 v 0 0 q 1.63,-0.12 3.32,-0.29 v 0 0 q 1.69,-0.17 3.3,-0.45 v 0 0 q -0.07,0.76 -0.15,1.9 v 0 0 q -0.09,1.14 -0.16,2.49 v 0 0 q -0.07,1.34 -0.14,2.81 v 0 0 q -0.08,1.46 -0.15,2.88 v 0 0 q -0.12,3.31 -0.26,7.03 v 0 0 q -0.72,0.12 -1.44,0.19 z m -2.21,-12.05 -1.49,6.03 v 0 q 0.1,0 0.35,-0.02 v 0 0 q 0.25,-0.01 0.53,-0.02 v 0 0 q 0.27,-0.01 0.51,-0.02 v 0 0 Q 16.7,-6.58 16.8,-6.6 v 0 0 q 0,-0.14 0.04,-0.49 v 0 0 q 0.03,-0.35 0.07,-0.79 v 0 0 q 0.03,-0.45 0.08,-0.98 v 0 0 q 0.05,-0.52 0.1,-1.03 v 0 0 q 0.09,-1.22 0.24,-2.64 v 0 l 0.14,-2.09 -0.36,0.03 z"
         id="path19"
         inkscape:connector-curvature="0"
         style="fill:#fcba03" />
    </g>
  </g>
  <style
     id="style25">text {
  font-size: 64px;
  font-family: Arial Black;
  dominant-baseline: central;
  text-anchor: middle;
}</style>
</svg>
