<?xml version="1.0" encoding="UTF-8" standalone="no"?>
<svg
   xmlns:dc="http://purl.org/dc/elements/1.1/"
   xmlns:cc="http://creativecommons.org/ns#"
   xmlns:rdf="http://www.w3.org/1999/02/22-rdf-syntax-ns#"
   xmlns:svg="http://www.w3.org/2000/svg"
   xmlns="http://www.w3.org/2000/svg"
   xmlns:sodipodi="http://sodipodi.sourceforge.net/DTD/sodipodi-0.dtd"
   xmlns:inkscape="http://www.inkscape.org/namespaces/inkscape"
   width="24"
   height="24"
   viewBox="224.39187 47.596265 24 23.999999"
   preserveAspectRatio="xMidYMid"
   version="1.1"
   id="svg27"
   sodipodi:docname="deadpool.svg"
   inkscape:version="0.92.4 (5da689c313, 2019-01-14)">
  <metadata
     id="metadata31">
    <rdf:RDF>
      <cc:Work
         rdf:about="">
        <dc:format>image/svg+xml</dc:format>
        <dc:type
           rdf:resource="http://purl.org/dc/dcmitype/StillImage" />
        <dc:title></dc:title>
      </cc:Work>
    </rdf:RDF>
  </metadata>
  <sodipodi:namedview
     pagecolor="#ffffff"
     bordercolor="#666666"
     borderopacity="1"
     objecttolerance="10"
     gridtolerance="10"
     guidetolerance="10"
     inkscape:pageopacity="0"
     inkscape:pageshadow="2"
     inkscape:window-width="1842"
     inkscape:window-height="1057"
     id="namedview29"
     showgrid="false"
     inkscape:zoom="4.3059822"
     inkscape:cx="-3.0728994"
     inkscape:cy="27.403736"
     inkscape:window-x="70"
     inkscape:window-y="-8"
     inkscape:window-maximized="1"
     inkscape:current-layer="svg27" />
  <defs
     id="defs17">
    <filter
       id="editing-extrusion"
       x="-1"
       y="-1"
       width="3"
       height="3">
      <feFlood
         result="color1"
         flood-color="#000000"
         id="feFlood2" />
      <feConvolveMatrix
         order="3,3"
         divisor="1"
         kernelMatrix="1 0 0 0 1 0 0 0 1"
         in="SourceAlpha"
         result="extrude"
         id="feConvolveMatrix4" />
      <feComposite
         in="color1"
         in2="extrude"
         result="comp-extrude"
         operator="in"
         id="feComposite6" />
      <feOffset
         dx="1.5"
         dy="1.5"
         in="comp-extrude"
         result="offset-extrude"
         id="feOffset8" />
      <feMerge
         id="feMerge14">
        <feMergeNode
           in="offset-extrude"
           id="feMergeNode10" />
        <feMergeNode
           in="SourceGraphic"
           id="feMergeNode12" />
      </feMerge>
    </filter>
  </defs>
  <g
     id="g23"
     style="filter:url(#editing-extrusion)"
     transform="matrix(0.74780333,0,0,0.74780333,48.886025,3.4212789)">
    <g
       transform="translate(239.78219,83.915)"
       id="g21">
      <path
         d="m 12.22,-12.26 v 0 q 0,1.24 -0.36,2.65 v 0 0 q -0.36,1.4 -1.01,2.78 v 0 0 q -0.65,1.38 -1.6,2.64 v 0 0 Q 8.3,-2.93 7.1,-1.98 v 0 0 q -1.2,0.95 -2.62,1.52 v 0 0 Q 3.05,0.12 1.44,0.12 v 0 0 Q 1.1,0.12 0.77,0.08 v 0 0 Q 0.43,0.05 0.1,0 v 0 0 q 0.64,-3.31 1.27,-6.46 v 0 0 q 0.24,-1.32 0.5,-2.74 v 0 0 q 0.27,-1.43 0.51,-2.82 v 0 0 q 0.24,-1.4 0.46,-2.67 v 0 0 q 0.23,-1.27 0.38,-2.3 v 0 0 q 1.03,-0.19 2.08,-0.36 v 0 0 q 1.06,-0.17 2.16,-0.17 v 0 0 q 1.3,0 2.2,0.41 v 0 0 q 0.9,0.41 1.46,1.13 v 0 0 q 0.57,0.72 0.83,1.68 v 0 0 q 0.27,0.96 0.27,2.04 z m -5.67,-1.88 v 0 Q 6.29,-12.72 6,-11.42 v 0 0 q -0.29,1.29 -0.58,2.61 v 0 0 q -0.28,1.32 -0.57,2.76 v 0 0 Q 4.56,-4.61 4.3,-2.9 v 0 0 q 0.57,-0.39 1.11,-1.05 v 0 0 q 0.54,-0.66 1.02,-1.52 v 0 0 Q 6.91,-6.34 7.31,-7.3 v 0 0 Q 7.7,-8.26 7.99,-9.17 v 0 0 q 0.29,-0.91 0.45,-1.7 v 0 0 q 0.15,-0.79 0.15,-1.37 v 0 0 q 0,-0.89 -0.49,-1.39 v 0 0 q -0.49,-0.51 -1.55,-0.51 z m 8.11,13.35 -4.15,0.81 v 0 q 0.72,-3.24 1.37,-6.33 v 0 0 q 0.26,-1.3 0.55,-2.74 v 0 0 q 0.29,-1.44 0.55,-2.83 v 0 0 q 0.27,-1.39 0.51,-2.69 v 0 0 q 0.24,-1.29 0.41,-2.37 v 0 0 q 0.69,-0.22 1.36,-0.38 v 0 0 q 0.68,-0.15 1.38,-0.27 v 0 0 q 0.71,-0.12 1.34,-0.12 v 0 0 q 1.08,0 1.81,0.36 v 0 0 q 0.73,0.36 1.19,0.97 v 0 0 q 0.45,0.61 0.64,1.43 v 0 0 q 0.2,0.81 0.2,1.75 v 0 0 q 0,1.34 -0.5,2.59 v 0 0 Q 20.83,-9.36 20,-8.39 v 0 0 q -0.82,0.97 -1.89,1.55 v 0 0 q -1.07,0.58 -2.22,0.58 v 0 h -0.27 v 0 q -0.19,0.81 -0.36,1.77 v 0 0 q -0.16,0.96 -0.28,1.78 v 0 0 q -0.17,0.96 -0.32,1.92 z m 2.55,-14.02 v 0 q -0.27,1.59 -0.53,3 v 0 0 q -0.26,1.42 -0.58,3.03 v 0 0 q 0.39,-0.1 0.81,-0.45 v 0 0 q 0.42,-0.35 0.78,-0.91 v 0 0 q 0.36,-0.56 0.57,-1.31 v 0 0 q 0.22,-0.74 0.22,-1.56 v 0 0 q 0,-0.89 -0.4,-1.34 v 0 0 q -0.39,-0.46 -0.87,-0.46 z"
         id="path19"
         inkscape:connector-curvature="0"
         style="fill:#fcba03" />
    </g>
  </g>
  <style
     id="style25">text {
  font-size: 64px;
  font-family: Arial Black;
  dominant-baseline: central;
  text-anchor: middle;
}</style>
</svg>
