<?xml version="1.0" encoding="UTF-8" standalone="no"?>
<svg
   xmlns:dc="http://purl.org/dc/elements/1.1/"
   xmlns:cc="http://creativecommons.org/ns#"
   xmlns:rdf="http://www.w3.org/1999/02/22-rdf-syntax-ns#"
   xmlns:svg="http://www.w3.org/2000/svg"
   xmlns="http://www.w3.org/2000/svg"
   xmlns:sodipodi="http://sodipodi.sourceforge.net/DTD/sodipodi-0.dtd"
   xmlns:inkscape="http://www.inkscape.org/namespaces/inkscape"
   width="24"
   height="24"
   viewBox="220.79 47.596265 24 23.999999"
   preserveAspectRatio="xMidYMid"
   version="1.1"
   id="svg27"
   sodipodi:docname="dimensions.svg"
   inkscape:version="0.92.4 (5da689c313, 2019-01-14)">
  <metadata
     id="metadata31">
    <rdf:RDF>
      <cc:Work
         rdf:about="">
        <dc:format>image/svg+xml</dc:format>
        <dc:type
           rdf:resource="http://purl.org/dc/dcmitype/StillImage" />
        <dc:title></dc:title>
      </cc:Work>
    </rdf:RDF>
  </metadata>
  <sodipodi:namedview
     pagecolor="#ffffff"
     bordercolor="#666666"
     borderopacity="1"
     objecttolerance="10"
     gridtolerance="10"
     guidetolerance="10"
     inkscape:pageopacity="0"
     inkscape:pageshadow="2"
     inkscape:window-width="1842"
     inkscape:window-height="1057"
     id="namedview29"
     showgrid="false"
     inkscape:zoom="8.6119644"
     inkscape:cx="19.067698"
     inkscape:cy="26.592614"
     inkscape:window-x="70"
     inkscape:window-y="-8"
     inkscape:window-maximized="1"
     inkscape:current-layer="svg27" />
  <defs
     id="defs17">
    <filter
       id="editing-extrusion"
       x="-1"
       y="-1"
       width="3"
       height="3">
      <feFlood
         result="color1"
         flood-color="#000000"
         id="feFlood2" />
      <feConvolveMatrix
         order="3,3"
         divisor="1"
         kernelMatrix="1 0 0 0 1 0 0 0 1"
         in="SourceAlpha"
         result="extrude"
         id="feConvolveMatrix4" />
      <feComposite
         in="color1"
         in2="extrude"
         result="comp-extrude"
         operator="in"
         id="feComposite6" />
      <feOffset
         dx="1.5"
         dy="1.5"
         in="comp-extrude"
         result="offset-extrude"
         id="feOffset8" />
      <feMerge
         id="feMerge14">
        <feMergeNode
           in="offset-extrude"
           id="feMergeNode10" />
        <feMergeNode
           in="SourceGraphic"
           id="feMergeNode12" />
      </feMerge>
    </filter>
  </defs>
  <g
     id="g23"
     style="filter:url(#editing-extrusion)"
     transform="matrix(0.73099415,0,0,0.73099415,49.16481,4.6839837)">
    <g
       transform="translate(236.91562,84.120001)"
       id="g21">
      <path
         d="m 12.22,-12.26 v 0 q 0,1.24 -0.36,2.65 v 0 0 q -0.36,1.4 -1.01,2.78 v 0 0 q -0.65,1.38 -1.6,2.64 v 0 0 Q 8.3,-2.93 7.1,-1.98 v 0 0 q -1.2,0.95 -2.62,1.52 v 0 0 Q 3.05,0.12 1.44,0.12 v 0 0 Q 1.1,0.12 0.77,0.08 v 0 0 Q 0.43,0.05 0.1,0 v 0 0 q 0.64,-3.31 1.27,-6.46 v 0 0 q 0.24,-1.32 0.5,-2.74 v 0 0 q 0.27,-1.43 0.51,-2.82 v 0 0 q 0.24,-1.4 0.46,-2.67 v 0 0 q 0.23,-1.27 0.38,-2.3 v 0 0 q 1.03,-0.19 2.08,-0.36 v 0 0 q 1.06,-0.17 2.16,-0.17 v 0 0 q 1.3,0 2.2,0.41 v 0 0 q 0.9,0.41 1.46,1.13 v 0 0 q 0.57,0.72 0.83,1.68 v 0 0 q 0.27,0.96 0.27,2.04 z m -5.67,-1.88 v 0 Q 6.29,-12.72 6,-11.42 v 0 0 q -0.29,1.29 -0.58,2.61 v 0 0 q -0.28,1.32 -0.57,2.76 v 0 0 Q 4.56,-4.61 4.3,-2.9 v 0 0 q 0.57,-0.39 1.11,-1.05 v 0 0 q 0.54,-0.66 1.02,-1.52 v 0 0 Q 6.91,-6.34 7.31,-7.3 v 0 0 Q 7.7,-8.26 7.99,-9.17 v 0 0 q 0.29,-0.91 0.45,-1.7 v 0 0 q 0.15,-0.79 0.15,-1.37 v 0 0 q 0,-0.89 -0.49,-1.39 v 0 0 q -0.49,-0.51 -1.55,-0.51 z m 7.27,13.73 -3.96,0.27 v 0 q 1.06,-3.2 2.02,-6.27 v 0 0 q 0.41,-1.29 0.84,-2.71 v 0 0 q 0.43,-1.42 0.86,-2.81 v 0 0 q 0.44,-1.39 0.81,-2.69 v 0 0 q 0.37,-1.29 0.66,-2.4 v 0 0 q 1.32,0 2.49,-0.14 v 0 0 q 1.18,-0.14 2.55,-0.26 v 0 0 q -0.07,0.52 -0.16,1.18 v 0 0 q -0.08,0.66 -0.19,1.38 v 0 0 q -0.11,0.72 -0.23,1.49 v 0 0 q -0.12,0.77 -0.29,1.97 v 0 0 q -0.16,1.2 -0.45,3 v 0 h 0.31 v 0 q 0.7,-1.82 1.15,-3.04 v 0 0 q 0.46,-1.21 0.75,-1.98 v 0 0 q 0.28,-0.76 0.58,-1.5 v 0 0 q 0.3,-0.73 0.58,-1.39 v 0 0 q 0.28,-0.66 0.52,-1.16 v 0 0 q 0.6,-0.05 1.12,-0.12 v 0 0 q 0.53,-0.07 1.06,-0.16 v 0 0 q 0.53,-0.08 1.07,-0.17 v 0 0 q 0.54,-0.08 1.19,-0.2 v 0 0 q -0.24,1.39 -0.46,2.86 v 0 0 q -0.22,1.46 -0.38,2.91 v 0 0 q -0.17,1.45 -0.33,2.87 v 0 0 q -0.15,1.42 -0.27,2.69 v 0 0 q -0.29,2.97 -0.51,5.81 v 0 l -4.17,0.74 v 0 q 0,-0.12 0.03,-0.65 v 0 0 q 0.04,-0.53 0.1,-1.29 v 0 0 q 0.06,-0.77 0.17,-1.71 v 0 0 q 0.1,-0.93 0.21,-1.87 v 0 0 q 0.11,-0.94 0.23,-1.81 v 0 0 q 0.12,-0.88 0.24,-1.5 v 0 h -0.22 v 0 Q 21.41,-8.06 21,-6.95 v 0 0 q -0.41,1.12 -0.83,2.27 v 0 0 q -0.42,1.15 -0.83,2.26 v 0 0 q -0.4,1.1 -0.72,2.11 v 0 0 q -0.84,0.02 -1.44,0.06 v 0 0 q -0.6,0.03 -1.39,0.08 v 0 l 0.77,-8.9 H 16.2 v 0 q -0.05,0.31 -0.24,1.04 v 0 0 q -0.19,0.73 -0.44,1.68 v 0 0 q -0.26,0.95 -0.54,1.97 v 0 0 q -0.29,1.02 -0.54,1.9 v 0 0 q -0.26,0.87 -0.42,1.44 v 0 0 q -0.17,0.56 -0.2,0.63 z"
         id="path19"
         inkscape:connector-curvature="0"
         style="fill:#fcba03" />
    </g>
  </g>
  <style
     id="style25">text {
  font-size: 64px;
  font-family: Arial Black;
  dominant-baseline: central;
  text-anchor: middle;
}</style>
</svg>
