<?xml version="1.0" encoding="UTF-8" standalone="no"?>
<svg
   width="24"
   height="24"
   viewBox="223.20286 47.6 26.4 26.4"
   preserveAspectRatio="xMidYMid"
   version="1.1"
   id="svg27"
   sodipodi:docname="doctorstrange.svg"
   inkscape:version="1.1.1 (3bf5ae0d25, 2021-09-20)"
   xmlns:inkscape="http://www.inkscape.org/namespaces/inkscape"
   xmlns:sodipodi="http://sodipodi.sourceforge.net/DTD/sodipodi-0.dtd"
   xmlns="http://www.w3.org/2000/svg"
   xmlns:svg="http://www.w3.org/2000/svg">
  <sodipodi:namedview
     id="namedview29"
     pagecolor="#ffffff"
     bordercolor="#666666"
     borderopacity="1.0"
     inkscape:pageshadow="2"
     inkscape:pageopacity="0.0"
     inkscape:pagecheckerboard="false"
     showgrid="false"
     inkscape:zoom="15.930657"
     inkscape:cx="26.803665"
     inkscape:cy="27.4"
     inkscape:window-width="2467"
     inkscape:window-height="1417"
     inkscape:window-x="85"
     inkscape:window-y="-8"
     inkscape:window-maximized="1"
     inkscape:current-layer="svg27"
     borderlayer="false"
     scale-x="1.1" />
  <defs
     id="defs17">
    <filter
       id="editing-extrusion"
       x="0"
       y="0"
       width="1.0655308"
       height="1.085034">
      <feFlood
         result="color1"
         flood-color="#000000"
         id="feFlood2" />
      <feConvolveMatrix
         order="3,3"
         divisor="1"
         kernelMatrix="1 0 0 0 1 0 0 0 1"
         in="SourceAlpha"
         result="extrude"
         id="feConvolveMatrix4" />
      <feComposite
         in="color1"
         in2="extrude"
         result="comp-extrude"
         operator="in"
         id="feComposite6" />
      <feOffset
         dx="1.5"
         dy="1.5"
         in="comp-extrude"
         result="offset-extrude"
         id="feOffset8" />
      <feMerge
         id="feMerge14">
        <feMergeNode
           in="offset-extrude"
           id="feMergeNode10" />
        <feMergeNode
           in="SourceGraphic"
           id="feMergeNode12" />
      </feMerge>
    </filter>
  </defs>
  <g
     filter="url(#editing-extrusion)"
     id="g23"
     transform="matrix(0.75522466,0,0,0.75522466,46.266571,3.5011035)">
    <g
       transform="translate(239.46623,83.820002)"
       id="g21">
      <path
         d="m 12.22,-12.26 v 0 q 0,1.24 -0.36,2.65 v 0 0 q -0.36,1.4 -1.01,2.78 v 0 0 q -0.65,1.38 -1.6,2.64 v 0 0 Q 8.3,-2.93 7.1,-1.98 v 0 0 q -1.2,0.95 -2.62,1.52 v 0 0 Q 3.05,0.12 1.44,0.12 v 0 0 Q 1.1,0.12 0.77,0.08 v 0 0 Q 0.43,0.05 0.1,0 v 0 0 q 0.64,-3.31 1.27,-6.46 v 0 0 q 0.24,-1.32 0.5,-2.74 v 0 0 q 0.27,-1.43 0.51,-2.82 v 0 0 q 0.24,-1.4 0.46,-2.67 v 0 0 q 0.23,-1.27 0.38,-2.3 v 0 0 q 1.03,-0.19 2.08,-0.36 v 0 0 q 1.06,-0.17 2.16,-0.17 v 0 0 q 1.3,0 2.2,0.41 v 0 0 q 0.9,0.41 1.46,1.13 v 0 0 q 0.57,0.72 0.83,1.68 v 0 0 q 0.27,0.96 0.27,2.04 z m -5.67,-1.88 v 0 Q 6.29,-12.72 6,-11.42 v 0 0 q -0.29,1.29 -0.58,2.61 v 0 0 q -0.28,1.32 -0.57,2.76 v 0 0 Q 4.56,-4.61 4.3,-2.9 v 0 0 q 0.57,-0.39 1.11,-1.05 v 0 0 q 0.54,-0.66 1.02,-1.52 v 0 0 Q 6.91,-6.34 7.31,-7.3 v 0 0 Q 7.7,-8.26 7.99,-9.17 v 0 0 q 0.29,-0.91 0.45,-1.7 v 0 0 q 0.15,-0.79 0.15,-1.37 v 0 0 q 0,-0.89 -0.49,-1.39 v 0 0 q -0.49,-0.51 -1.55,-0.51 z m 14.67,8.21 v 0 q 0,1.35 -0.52,2.44 v 0 0 q -0.52,1.09 -1.39,1.88 v 0 0 q -0.88,0.79 -2.07,1.23 v 0 0 q -1.18,0.43 -2.55,0.43 v 0 0 q -0.96,0 -1.92,-0.52 v 0 0 q -0.96,-0.51 -1.85,-1.64 v 0 l 1.78,-3.48 v 0 q 0.16,0.31 0.5,0.63 v 0 0 q 0.34,0.33 0.76,0.57 v 0 0 q 0.42,0.24 0.84,0.39 v 0 0 q 0.42,0.16 0.75,0.16 v 0 0 q 0.29,0 0.6,-0.1 v 0 0 q 0.31,-0.09 0.58,-0.28 v 0 0 q 0.26,-0.2 0.42,-0.45 v 0 0 q 0.15,-0.25 0.15,-0.59 v 0 0 q 0,-0.57 -0.37,-1.06 v 0 0 q -0.37,-0.5 -0.92,-0.94 v 0 0 q -0.55,-0.44 -1.2,-0.9 v 0 0 q -0.65,-0.46 -1.19,-0.96 v 0 0 q -0.54,-0.5 -0.92,-1.13 v 0 0 q -0.39,-0.62 -0.39,-1.39 v 0 0 q 0,-1.25 0.75,-2.33 v 0 0 q 0.74,-1.08 1.86,-1.86 v 0 0 q 1.11,-0.78 2.43,-1.23 v 0 0 q 1.32,-0.46 2.5,-0.46 v 0 0 q 0.65,0 1.22,0.16 v 0 0 q 0.58,0.15 1,0.5 v 0 0 q 0.42,0.35 0.67,0.88 v 0 0 q 0.25,0.52 0.25,1.32 v 0 0 q 0,0.33 -0.06,0.67 v 0 0 q -0.06,0.33 -0.11,0.72 v 0 l -3.48,1.01 v 0 q 0.05,-0.2 0.09,-0.39 v 0 0 q 0.03,-0.19 0.03,-0.38 v 0 0 q 0,-0.72 -0.25,-1.05 v 0 0 q -0.25,-0.32 -0.66,-0.32 v 0 0 q -0.19,0 -0.47,0.14 v 0 0 q -0.27,0.15 -0.55,0.38 v 0 0 q -0.27,0.22 -0.47,0.54 v 0 0 q -0.19,0.31 -0.19,0.67 v 0 0 q 0,0.57 0.33,0.96 v 0 0 q 0.32,0.38 0.8,0.72 v 0 0 q 0.48,0.33 1.04,0.68 v 0 0 q 0.57,0.35 1.05,0.9 v 0 0 q 0.48,0.55 0.8,1.38 v 0 0 q 0.33,0.83 0.33,2.1 z"
         fill="#fcba03"
         id="path19" />
    </g>
  </g>
  <style
     id="style25">text {
  font-size: 64px;
  font-family: Arial Black;
  dominant-baseline: central;
  text-anchor: middle;
}</style>
</svg>
