<?xml version="1.0" encoding="UTF-8" standalone="no"?>
<svg
   xmlns:dc="http://purl.org/dc/elements/1.1/"
   xmlns:cc="http://creativecommons.org/ns#"
   xmlns:rdf="http://www.w3.org/1999/02/22-rdf-syntax-ns#"
   xmlns:svg="http://www.w3.org/2000/svg"
   xmlns="http://www.w3.org/2000/svg"
   xmlns:sodipodi="http://sodipodi.sourceforge.net/DTD/sodipodi-0.dtd"
   xmlns:inkscape="http://www.inkscape.org/namespaces/inkscape"
   width="24"
   height="24"
   viewBox="225.24188 47.596265 24 23.999999"
   preserveAspectRatio="xMidYMid"
   version="1.1"
   id="svg27"
   sodipodi:docname="fearitself.svg"
   inkscape:version="0.92.4 (5da689c313, 2019-01-14)">
  <metadata
     id="metadata31">
    <rdf:RDF>
      <cc:Work
         rdf:about="">
        <dc:format>image/svg+xml</dc:format>
        <dc:type
           rdf:resource="http://purl.org/dc/dcmitype/StillImage" />
        <dc:title></dc:title>
      </cc:Work>
    </rdf:RDF>
  </metadata>
  <sodipodi:namedview
     pagecolor="#ffffff"
     bordercolor="#666666"
     borderopacity="1"
     objecttolerance="10"
     gridtolerance="10"
     guidetolerance="10"
     inkscape:pageopacity="0"
     inkscape:pageshadow="2"
     inkscape:window-width="1842"
     inkscape:window-height="1057"
     id="namedview29"
     showgrid="false"
     inkscape:zoom="4.3059822"
     inkscape:cx="-3.9229112"
     inkscape:cy="27.403736"
     inkscape:window-x="70"
     inkscape:window-y="-8"
     inkscape:window-maximized="1"
     inkscape:current-layer="svg27" />
  <defs
     id="defs17">
    <filter
       id="editing-extrusion"
       x="-1"
       y="-1"
       width="3"
       height="3">
      <feFlood
         result="color1"
         flood-color="#000000"
         id="feFlood2" />
      <feConvolveMatrix
         order="3,3"
         divisor="1"
         kernelMatrix="1 0 0 0 1 0 0 0 1"
         in="SourceAlpha"
         result="extrude"
         id="feConvolveMatrix4" />
      <feComposite
         in="color1"
         in2="extrude"
         result="comp-extrude"
         operator="in"
         id="feComposite6" />
      <feOffset
         dx="1.5"
         dy="1.5"
         in="comp-extrude"
         result="offset-extrude"
         id="feOffset8" />
      <feMerge
         id="feMerge14">
        <feMergeNode
           in="offset-extrude"
           id="feMergeNode10" />
        <feMergeNode
           in="SourceGraphic"
           id="feMergeNode12" />
      </feMerge>
    </filter>
  </defs>
  <g
     id="g23"
     style="filter:url(#editing-extrusion)"
     transform="matrix(0.75414781,0,0,0.75414781,47.850621,3.0200963)">
    <g
       transform="translate(241.12281,83.84)"
       id="g21">
      <path
         d="m 2.95,-0.58 v 0 q -0.67,0.12 -1.46,0.29 v 0 0 Q 0.7,-0.12 0.1,0.02 v 0 0 q 0.28,-1.03 0.56,-2.31 v 0 0 q 0.28,-1.29 0.55,-2.7 v 0 0 q 0.28,-1.42 0.53,-2.87 v 0 0 q 0.25,-1.45 0.49,-2.8 v 0 0 q 0.51,-3.19 1.01,-6.6 v 0 l 8.04,-0.4 -0.7,2.95 H 6.82 l -0.75,4.27 v 0 q 0.75,-0.02 1.42,-0.02 v 0 0 q 0.55,0 1.13,0 v 0 0 q 0.57,0 0.88,-0.03 v 0 0 q -0.07,0.67 -0.18,1.32 v 0 0 q -0.1,0.65 -0.2,1.3 v 0 0 q -0.31,0 -0.89,-0.01 v 0 0 Q 7.66,-7.9 7.04,-7.92 v 0 0 Q 6.43,-7.94 5.66,-7.97 v 0 l -1.1,7.08 v 0 q -0.82,0.15 -1.61,0.31 z m 13.71,0.1 v 0 q -0.22,0 -0.84,0.06 v 0 0 q -0.63,0.06 -1.3,0.14 v 0 0 q -0.67,0.09 -1.21,0.16 v 0 0 q -0.54,0.07 -0.59,0.1 v 0 0 q 0.29,-1.04 0.58,-2.3 v 0 0 q 0.28,-1.26 0.58,-2.64 v 0 0 q 0.3,-1.38 0.58,-2.79 v 0 0 q 0.28,-1.42 0.54,-2.74 v 0 0 q 0.6,-3.07 1.18,-6.31 v 0 l 3.74,-0.6 v 0 q -0.62,3.22 -1.25,6.31 v 0 0 q -0.26,1.32 -0.54,2.74 v 0 0 q -0.27,1.41 -0.53,2.81 v 0 0 q -0.25,1.39 -0.5,2.7 v 0 0 q -0.25,1.3 -0.44,2.36 z"
         id="path19"
         inkscape:connector-curvature="0"
         style="fill:#fcba03" />
    </g>
  </g>
  <style
     id="style25">text {
  font-size: 64px;
  font-family: Arial Black;
  dominant-baseline: central;
  text-anchor: middle;
}</style>
</svg>
