<?xml version="1.0" encoding="UTF-8" standalone="no"?>
<svg
   xmlns:dc="http://purl.org/dc/elements/1.1/"
   xmlns:cc="http://creativecommons.org/ns#"
   xmlns:rdf="http://www.w3.org/1999/02/22-rdf-syntax-ns#"
   xmlns:svg="http://www.w3.org/2000/svg"
   xmlns="http://www.w3.org/2000/svg"
   xmlns:sodipodi="http://sodipodi.sourceforge.net/DTD/sodipodi-0.dtd"
   xmlns:inkscape="http://www.inkscape.org/namespaces/inkscape"
   width="24"
   height="24"
   viewBox="222.24562 47.596265 23.999999 23.999999"
   preserveAspectRatio="xMidYMid"
   version="1.1"
   id="svg27"
   sodipodi:docname="gotg.svg"
   inkscape:version="0.92.4 (5da689c313, 2019-01-14)">
  <metadata
     id="metadata31">
    <rdf:RDF>
      <cc:Work
         rdf:about="">
        <dc:format>image/svg+xml</dc:format>
        <dc:type
           rdf:resource="http://purl.org/dc/dcmitype/StillImage" />
        <dc:title></dc:title>
      </cc:Work>
    </rdf:RDF>
  </metadata>
  <sodipodi:namedview
     pagecolor="#ffffff"
     bordercolor="#666666"
     borderopacity="1"
     objecttolerance="10"
     gridtolerance="10"
     guidetolerance="10"
     inkscape:pageopacity="0"
     inkscape:pageshadow="2"
     inkscape:window-width="1842"
     inkscape:window-height="1057"
     id="namedview29"
     showgrid="false"
     inkscape:zoom="4.3059822"
     inkscape:cx="-0.92664581"
     inkscape:cy="27.403736"
     inkscape:window-x="70"
     inkscape:window-y="-8"
     inkscape:window-maximized="1"
     inkscape:current-layer="svg27" />
  <defs
     id="defs17">
    <filter
       id="editing-extrusion"
       x="-1"
       y="-1"
       width="3"
       height="3">
      <feFlood
         result="color1"
         flood-color="#000000"
         id="feFlood2" />
      <feConvolveMatrix
         order="3,3"
         divisor="1"
         kernelMatrix="1 0 0 0 1 0 0 0 1"
         in="SourceAlpha"
         result="extrude"
         id="feConvolveMatrix4" />
      <feComposite
         in="color1"
         in2="extrude"
         result="comp-extrude"
         operator="in"
         id="feComposite6" />
      <feOffset
         dx="1.5"
         dy="1.5"
         in="comp-extrude"
         result="offset-extrude"
         id="feOffset8" />
      <feMerge
         id="feMerge14">
        <feMergeNode
           in="offset-extrude"
           id="feMergeNode10" />
        <feMergeNode
           in="SourceGraphic"
           id="feMergeNode12" />
      </feMerge>
    </filter>
  </defs>
  <g
     id="g23"
     style="filter:url(#editing-extrusion)"
     transform="matrix(0.71955388,0,0,0.71955388,53.587004,5.2123827)">
    <g
       transform="translate(237.76031,84.265)"
       id="g21">
      <path
         d="m 13.06,-9.14 v 0 q -0.17,2.44 -0.96,4.26 v 0 0 q -0.8,1.81 -1.91,3.03 v 0 0 q -1.12,1.23 -2.4,1.83 v 0 0 Q 6.5,0.58 5.35,0.58 v 0 0 q -0.89,0 -1.69,-0.39 v 0 0 Q 2.86,-0.19 2.27,-0.97 v 0 0 Q 1.68,-1.75 1.34,-2.93 v 0 0 Q 1.01,-4.1 1.01,-5.69 v 0 0 q 0,-3.09 0.89,-5.4 v 0 0 q 0.88,-2.3 2.24,-3.84 v 0 0 q 1.36,-1.53 2.9,-2.28 v 0 0 q 1.55,-0.74 2.9,-0.74 v 0 0 q 0.96,0 1.66,0.33 v 0 0 q 0.71,0.34 1.17,0.9 v 0 0 q 0.45,0.57 0.66,1.32 v 0 0 q 0.2,0.76 0.2,1.6 v 0 l -3.29,0.62 v 0 q -0.21,-0.96 -0.57,-1.36 v 0 0 q -0.36,-0.41 -0.82,-0.41 v 0 0 q -0.6,0 -1.32,0.85 v 0 0 q -0.72,0.85 -1.34,2.2 v 0 0 q -0.63,1.34 -1.06,2.95 v 0 0 Q 4.8,-7.34 4.75,-5.78 v 0 0 q 0,1.48 0.45,2.12 v 0 0 q 0.44,0.64 1.14,0.64 v 0 0 q 0.48,0 0.99,-0.24 v 0 0 Q 7.85,-3.5 8.26,-3.95 v 0 0 q 0.4,-0.44 0.68,-1.03 v 0 0 q 0.28,-0.59 0.3,-1.28 v 0 l -2.57,0.38 0.46,-2.38 v 0 Q 8.26,-8.4 9.34,-8.54 v 0 0 q 0.91,-0.12 1.93,-0.29 v 0 0 Q 12.29,-9 13.06,-9.14 Z m 11.97,0 v 0 q -0.17,2.44 -0.96,4.26 v 0 0 q -0.79,1.81 -1.91,3.03 v 0 0 q -1.11,1.23 -2.4,1.83 v 0 0 q -1.28,0.6 -2.43,0.6 v 0 0 q -0.89,0 -1.69,-0.39 v 0 0 q -0.81,-0.38 -1.4,-1.16 v 0 0 q -0.58,-0.78 -0.92,-1.96 v 0 0 Q 12.98,-4.1 12.98,-5.69 v 0 0 q 0,-3.09 0.89,-5.4 v 0 0 q 0.89,-2.3 2.25,-3.84 v 0 0 q 1.35,-1.53 2.9,-2.28 v 0 0 q 1.55,-0.74 2.89,-0.74 v 0 0 q 0.96,0 1.67,0.33 v 0 0 q 0.71,0.34 1.16,0.9 v 0 0 q 0.46,0.57 0.66,1.32 v 0 0 q 0.21,0.76 0.21,1.6 v 0 l -3.29,0.62 v 0 q -0.22,-0.96 -0.58,-1.36 v 0 0 q -0.36,-0.41 -0.81,-0.41 v 0 0 q -0.6,0 -1.32,0.85 v 0 0 q -0.72,0.85 -1.35,2.2 v 0 0 q -0.62,1.34 -1.05,2.95 v 0 0 q -0.43,1.61 -0.48,3.17 v 0 0 q 0,1.48 0.44,2.12 v 0 0 q 0.45,0.64 1.14,0.64 v 0 0 q 0.48,0 1,-0.24 v 0 0 q 0.51,-0.24 0.92,-0.69 v 0 0 q 0.41,-0.44 0.69,-1.03 v 0 0 q 0.27,-0.59 0.3,-1.28 v 0 l -2.57,0.38 0.45,-2.38 v 0 q 1.13,-0.14 2.21,-0.28 v 0 0 q 0.91,-0.12 1.93,-0.29 v 0 0 Q 24.26,-9 25.03,-9.14 Z"
         id="path19"
         inkscape:connector-curvature="0"
         style="fill:#fcba03" />
    </g>
  </g>
  <style
     id="style25">text {
  font-size: 64px;
  font-family: Arial Black;
  dominant-baseline: central;
  text-anchor: middle;
}</style>
</svg>
