<?xml version="1.0" encoding="UTF-8" standalone="no"?>
<svg
   width="24"
   height="24"
   viewBox="219.77952 47.6 24 24"
   preserveAspectRatio="xMidYMid"
   version="1.1"
   id="svg27"
   sodipodi:docname="MC.svg"
   inkscape:version="1.1.1 (3bf5ae0d25, 2021-09-20)"
   xmlns:inkscape="http://www.inkscape.org/namespaces/inkscape"
   xmlns:sodipodi="http://sodipodi.sourceforge.net/DTD/sodipodi-0.dtd"
   xmlns="http://www.w3.org/2000/svg"
   xmlns:svg="http://www.w3.org/2000/svg">
  <sodipodi:namedview
     id="namedview29"
     pagecolor="#ffffff"
     bordercolor="#666666"
     borderopacity="1.0"
     inkscape:pageshadow="2"
     inkscape:pageopacity="0.0"
     inkscape:pagecheckerboard="0"
     showgrid="false"
     inkscape:zoom="15.930657"
     inkscape:cx="20.777548"
     inkscape:cy="27.023367"
     inkscape:window-width="2467"
     inkscape:window-height="1417"
     inkscape:window-x="85"
     inkscape:window-y="-8"
     inkscape:window-maximized="1"
     inkscape:current-layer="svg27" />
  <defs
     id="defs17">
    <filter
       id="editing-extrusion"
       x="0"
       y="0"
       width="1.0538793"
       height="1.0825537">
      <feFlood
         result="color1"
         flood-color="#000000"
         id="feFlood2" />
      <feConvolveMatrix
         order="3,3"
         divisor="1"
         kernelMatrix="1 0 0 0 1 0 0 0 1"
         in="SourceAlpha"
         result="extrude"
         id="feConvolveMatrix4" />
      <feComposite
         in="color1"
         in2="extrude"
         result="comp-extrude"
         operator="in"
         id="feComposite6" />
      <feOffset
         dx="1.5"
         dy="1.5"
         in="comp-extrude"
         result="offset-extrude"
         id="feOffset8" />
      <feMerge
         id="feMerge14">
        <feMergeNode
           in="offset-extrude"
           id="feMergeNode10" />
        <feMergeNode
           in="SourceGraphic"
           id="feMergeNode12" />
      </feMerge>
    </filter>
  </defs>
  <g
     filter="url(#editing-extrusion)"
     id="g23"
     transform="matrix(0.73487539,0,0,0.73487539,46.947969,3.8964441)">
    <g
       transform="translate(237.56414,84.085001)"
       id="g21">
      <path
         d="m 3.24,-0.41 -3.96,0.27 v 0 q 1.06,-3.2 2.02,-6.27 v 0 0 Q 1.7,-7.7 2.14,-9.12 v 0 0 Q 2.57,-10.54 3,-11.93 v 0 0 q 0.43,-1.39 0.8,-2.69 v 0 0 q 0.38,-1.29 0.66,-2.4 v 0 0 q 1.32,0 2.5,-0.14 v 0 0 q 1.18,-0.14 2.54,-0.26 v 0 0 q -0.07,0.52 -0.15,1.18 v 0 0 q -0.09,0.66 -0.19,1.38 v 0 0 q -0.11,0.72 -0.23,1.49 v 0 0 q -0.12,0.77 -0.29,1.97 v 0 0 q -0.17,1.2 -0.46,3 v 0 H 8.5 v 0 q 0.69,-1.82 1.15,-3.04 v 0 0 q 0.45,-1.21 0.74,-1.98 v 0 0 q 0.29,-0.76 0.59,-1.5 v 0 0 q 0.3,-0.73 0.58,-1.39 v 0 0 q 0.27,-0.66 0.51,-1.16 v 0 0 q 0.6,-0.05 1.13,-0.12 v 0 0 q 0.53,-0.07 1.06,-0.16 v 0 0 q 0.52,-0.08 1.06,-0.17 v 0 0 q 0.54,-0.08 1.19,-0.2 v 0 0 q -0.24,1.39 -0.45,2.86 v 0 0 q -0.22,1.46 -0.39,2.91 v 0 0 q -0.17,1.45 -0.32,2.87 v 0 0 q -0.16,1.42 -0.28,2.69 v 0 0 q -0.29,2.97 -0.5,5.81 v 0 l -4.18,0.74 v 0 q 0,-0.12 0.04,-0.65 v 0 0 q 0.03,-0.53 0.09,-1.29 v 0 0 q 0.06,-0.77 0.17,-1.71 v 0 0 q 0.11,-0.93 0.22,-1.87 v 0 0 q 0.11,-0.94 0.23,-1.81 v 0 0 q 0.12,-0.88 0.24,-1.5 v 0 h -0.22 v 0 q -0.34,1.01 -0.74,2.12 v 0 0 q -0.41,1.12 -0.83,2.27 v 0 0 q -0.42,1.15 -0.83,2.26 v 0 0 q -0.41,1.1 -0.72,2.11 v 0 0 Q 7.2,-0.29 6.6,-0.25 v 0 0 Q 6,-0.22 5.21,-0.17 v 0 l 0.77,-8.9 H 5.62 v 0 q -0.05,0.31 -0.24,1.04 v 0 0 q -0.2,0.73 -0.45,1.68 v 0 0 Q 4.68,-5.4 4.39,-4.38 v 0 0 q -0.29,1.02 -0.54,1.9 v 0 0 Q 3.6,-1.61 3.43,-1.04 v 0 0 Q 3.26,-0.48 3.24,-0.41 Z M 25.1,-5.16 v 0 q -0.57,1.32 -1.28,2.29 v 0 0 q -0.71,0.97 -1.49,1.63 v 0 0 q -0.78,0.66 -1.57,0.98 v 0 0 q -0.79,0.31 -1.54,0.31 v 0 0 q -0.74,0 -1.35,-0.34 v 0 0 Q 17.26,-0.62 16.8,-1.3 v 0 0 q -0.46,-0.67 -0.73,-1.65 v 0 0 q -0.28,-0.99 -0.28,-2.31 v 0 0 q 0,-2.25 0.63,-4.45 v 0 0 q 0.62,-2.19 1.75,-3.95 v 0 0 q 1.13,-1.75 2.67,-2.82 v 0 0 q 1.55,-1.06 3.42,-1.06 v 0 0 q 0.58,0 1.11,0.24 v 0 0 q 0.53,0.24 0.91,0.67 v 0 0 q 0.38,0.43 0.61,1.05 v 0 0 q 0.23,0.63 0.23,1.4 v 0 0 q 0,0.14 0,0.3 v 0 0 q 0,0.15 -0.02,0.32 v 0 l -3.15,0.84 v 0 q -0.29,-0.6 -0.67,-0.6 v 0 0 q -0.38,0 -0.8,0.44 v 0 0 q -0.42,0.45 -0.83,1.16 v 0 0 q -0.41,0.7 -0.79,1.58 v 0 0 q -0.39,0.88 -0.68,1.76 v 0 0 q -0.28,0.89 -0.46,1.7 v 0 0 q -0.18,0.8 -0.18,1.3 v 0 0 q 0,0.77 0.2,1.08 v 0 0 q 0.2,0.32 0.54,0.32 v 0 0 q 0.26,0 0.6,-0.21 v 0 0 q 0.34,-0.2 0.62,-0.53 v 0 0 q 0.29,-0.32 0.53,-0.73 v 0 0 q 0.24,-0.41 0.34,-0.81 v 0 z"
         fill="#fcba03"
         id="path19" />
    </g>
  </g>
  <style
     id="style25">text {
  font-size: 64px;
  font-family: Arial Black;
  dominant-baseline: central;
  text-anchor: middle;
}</style>
</svg>
