<?xml version="1.0" encoding="UTF-8" standalone="no"?>
<svg
   xmlns:dc="http://purl.org/dc/elements/1.1/"
   xmlns:cc="http://creativecommons.org/ns#"
   xmlns:rdf="http://www.w3.org/1999/02/22-rdf-syntax-ns#"
   xmlns:svg="http://www.w3.org/2000/svg"
   xmlns="http://www.w3.org/2000/svg"
   xmlns:sodipodi="http://sodipodi.sourceforge.net/DTD/sodipodi-0.dtd"
   xmlns:inkscape="http://www.inkscape.org/namespaces/inkscape"
   width="24"
   height="24"
   viewBox="220.62001 47.596265 23.999999 23.999999"
   preserveAspectRatio="xMidYMid"
   version="1.1"
   id="svg27"
   sodipodi:docname="newmutants.svg"
   inkscape:version="0.92.4 (5da689c313, 2019-01-14)">
  <metadata
     id="metadata31">
    <rdf:RDF>
      <cc:Work
         rdf:about="">
        <dc:format>image/svg+xml</dc:format>
        <dc:type
           rdf:resource="http://purl.org/dc/dcmitype/StillImage" />
        <dc:title></dc:title>
      </cc:Work>
    </rdf:RDF>
  </metadata>
  <sodipodi:namedview
     pagecolor="#ffffff"
     bordercolor="#666666"
     borderopacity="1"
     objecttolerance="10"
     gridtolerance="10"
     guidetolerance="10"
     inkscape:pageopacity="0"
     inkscape:pageshadow="2"
     inkscape:window-width="1842"
     inkscape:window-height="1057"
     id="namedview29"
     showgrid="false"
     inkscape:zoom="4.3059822"
     inkscape:cx="0.69896454"
     inkscape:cy="27.403736"
     inkscape:window-x="70"
     inkscape:window-y="-8"
     inkscape:window-maximized="1"
     inkscape:current-layer="svg27" />
  <defs
     id="defs17">
    <filter
       id="editing-extrusion"
       x="-1"
       y="-1"
       width="3"
       height="3">
      <feFlood
         result="color1"
         flood-color="#000000"
         id="feFlood2" />
      <feConvolveMatrix
         order="3,3"
         divisor="1"
         kernelMatrix="1 0 0 0 1 0 0 0 1"
         in="SourceAlpha"
         result="extrude"
         id="feConvolveMatrix4" />
      <feComposite
         in="color1"
         in2="extrude"
         result="comp-extrude"
         operator="in"
         id="feComposite6" />
      <feOffset
         dx="1.5"
         dy="1.5"
         in="comp-extrude"
         result="offset-extrude"
         id="feOffset8" />
      <feMerge
         id="feMerge14">
        <feMergeNode
           in="offset-extrude"
           id="feMergeNode10" />
        <feMergeNode
           in="SourceGraphic"
           id="feMergeNode12" />
      </feMerge>
    </filter>
  </defs>
  <g
     id="g23"
     style="filter:url(#editing-extrusion)"
     transform="matrix(0.73099415,0,0,0.73099415,48.994971,4.6839837)">
    <g
       transform="translate(236.77563,84.120001)"
       id="g21">
      <path
         d="m 3.62,-0.7 -3.5,0.82 v 0 q 0.72,-3.46 1.37,-6.7 v 0 0 Q 1.73,-7.97 2,-9.46 v 0 0 q 0.28,-1.48 0.52,-2.94 v 0 0 q 0.24,-1.45 0.43,-2.78 v 0 0 q 0.19,-1.33 0.29,-2.41 v 0 0 q 0.31,0.02 0.53,0.02 v 0 0 q 0.21,0 0.5,0 v 0 0 q 0.34,0 0.82,-0.01 v 0 0 q 0.48,-0.01 0.96,-0.04 v 0 0 q 0.48,-0.02 1.03,-0.04 v 0 0 q 0.34,1.68 0.6,3.24 v 0 0 q 0.26,1.36 0.54,2.8 v 0 0 q 0.28,1.44 0.49,2.45 v 0 0 q 0.1,-0.48 0.22,-1.11 v 0 0 q 0.12,-0.64 0.26,-1.34 v 0 0 q 0.15,-0.69 0.28,-1.4 v 0 0 q 0.13,-0.71 0.27,-1.4 v 0 0 q 0.34,-1.56 0.7,-3.22 v 0 L 13.37,-18 v 0 q -0.82,3.67 -1.44,6.96 v 0 0 q -0.29,1.42 -0.57,2.87 v 0 0 q -0.27,1.45 -0.51,2.78 v 0 0 q -0.24,1.33 -0.41,2.47 v 0 0 q -0.17,1.14 -0.26,1.91 v 0 0 q -0.08,0 -0.57,0.11 v 0 0 q -0.49,0.11 -1.13,0.25 v 0 0 Q 7.85,-0.5 7.21,-0.36 v 0 0 Q 6.58,-0.22 6.26,-0.1 v 0 0 Q 6.12,-2.02 5.95,-3.74 v 0 0 Q 5.88,-4.49 5.8,-5.27 v 0 0 Q 5.71,-6.05 5.62,-6.77 v 0 0 q -0.1,-0.72 -0.2,-1.34 v 0 0 Q 5.33,-8.74 5.23,-9.19 v 0 0 q -0.07,0.45 -0.19,1.05 v 0 0 q -0.12,0.6 -0.24,1.28 v 0 0 q -0.12,0.67 -0.24,1.4 v 0 0 q -0.12,0.73 -0.26,1.4 v 0 0 Q 3.98,-2.45 3.62,-0.7 Z m 10.47,0.29 -3.96,0.27 v 0 q 1.05,-3.2 2.01,-6.27 v 0 0 q 0.41,-1.29 0.84,-2.71 v 0 0 q 0.44,-1.42 0.87,-2.81 v 0 0 q 0.43,-1.39 0.8,-2.69 v 0 0 q 0.37,-1.29 0.66,-2.4 v 0 0 q 1.32,0 2.5,-0.14 v 0 0 q 1.17,-0.14 2.54,-0.26 v 0 0 q -0.07,0.52 -0.15,1.18 v 0 0 q -0.09,0.66 -0.2,1.38 v 0 0 q -0.1,0.72 -0.22,1.49 v 0 0 q -0.12,0.77 -0.29,1.97 v 0 0 q -0.17,1.2 -0.46,3 v 0 h 0.31 v 0 q 0.7,-1.82 1.16,-3.04 v 0 0 q 0.45,-1.21 0.74,-1.98 v 0 0 q 0.29,-0.76 0.59,-1.5 v 0 0 q 0.3,-0.73 0.57,-1.39 v 0 0 q 0.28,-0.66 0.52,-1.16 v 0 0 q 0.6,-0.05 1.13,-0.12 v 0 0 q 0.53,-0.07 1.05,-0.16 v 0 0 q 0.53,-0.08 1.07,-0.17 v 0 0 q 0.54,-0.08 1.19,-0.2 v 0 0 q -0.24,1.39 -0.46,2.86 v 0 0 q -0.21,1.46 -0.38,2.91 v 0 0 q -0.17,1.45 -0.32,2.87 v 0 0 q -0.16,1.42 -0.28,2.69 v 0 0 q -0.29,2.97 -0.5,5.81 v 0 l -4.18,0.74 v 0 q 0,-0.12 0.04,-0.65 v 0 0 q 0.03,-0.53 0.09,-1.29 v 0 0 q 0.06,-0.77 0.17,-1.71 v 0 0 q 0.11,-0.93 0.22,-1.87 v 0 0 q 0.1,-0.94 0.22,-1.81 v 0 0 q 0.12,-0.88 0.24,-1.5 v 0 h -0.21 v 0 q -0.34,1.01 -0.75,2.12 v 0 0 q -0.4,1.12 -0.82,2.27 v 0 0 q -0.42,1.15 -0.83,2.26 v 0 0 q -0.41,1.1 -0.72,2.11 v 0 0 q -0.84,0.02 -1.44,0.06 v 0 0 q -0.6,0.03 -1.39,0.08 v 0 l 0.76,-8.9 h -0.36 v 0 q -0.04,0.31 -0.24,1.04 v 0 0 q -0.19,0.73 -0.44,1.68 v 0 0 q -0.25,0.95 -0.54,1.97 v 0 0 q -0.29,1.02 -0.54,1.9 v 0 0 q -0.25,0.87 -0.42,1.44 v 0 0 q -0.17,0.56 -0.19,0.63 z"
         id="path19"
         inkscape:connector-curvature="0"
         style="fill:#fcba03" />
    </g>
  </g>
  <style
     id="style25">text {
  font-size: 64px;
  font-family: Arial Black;
  dominant-baseline: central;
  text-anchor: middle;
}</style>
</svg>
