<?xml version="1.0" encoding="UTF-8" standalone="no"?>
<svg
   xmlns:dc="http://purl.org/dc/elements/1.1/"
   xmlns:cc="http://creativecommons.org/ns#"
   xmlns:rdf="http://www.w3.org/1999/02/22-rdf-syntax-ns#"
   xmlns:svg="http://www.w3.org/2000/svg"
   xmlns="http://www.w3.org/2000/svg"
   xmlns:sodipodi="http://sodipodi.sourceforge.net/DTD/sodipodi-0.dtd"
   xmlns:inkscape="http://www.inkscape.org/namespaces/inkscape"
   width="24"
   height="24"
   viewBox="230.99 47.596265 23.999999 23.999999"
   preserveAspectRatio="xMidYMid"
   version="1.1"
   id="svg27"
   sodipodi:docname="promo.svg"
   inkscape:version="0.92.4 (5da689c313, 2019-01-14)">
  <metadata
     id="metadata31">
    <rdf:RDF>
      <cc:Work
         rdf:about="">
        <dc:format>image/svg+xml</dc:format>
        <dc:type
           rdf:resource="http://purl.org/dc/dcmitype/StillImage" />
        <dc:title></dc:title>
      </cc:Work>
    </rdf:RDF>
  </metadata>
  <sodipodi:namedview
     pagecolor="#ffffff"
     bordercolor="#666666"
     borderopacity="1"
     objecttolerance="10"
     gridtolerance="10"
     guidetolerance="10"
     inkscape:pageopacity="0"
     inkscape:pageshadow="2"
     inkscape:window-width="1842"
     inkscape:window-height="1057"
     id="namedview29"
     showgrid="false"
     inkscape:zoom="4.3059822"
     inkscape:cx="-9.6710306"
     inkscape:cy="27.403736"
     inkscape:window-x="70"
     inkscape:window-y="-8"
     inkscape:window-maximized="1"
     inkscape:current-layer="svg27" />
  <defs
     id="defs17">
    <filter
       id="editing-extrusion"
       x="-1"
       y="-1"
       width="3"
       height="3">
      <feFlood
         result="color1"
         flood-color="#000000"
         id="feFlood2" />
      <feConvolveMatrix
         order="3,3"
         divisor="1"
         kernelMatrix="1 0 0 0 1 0 0 0 1"
         in="SourceAlpha"
         result="extrude"
         id="feConvolveMatrix4" />
      <feComposite
         in="color1"
         in2="extrude"
         result="comp-extrude"
         operator="in"
         id="feComposite6" />
      <feOffset
         dx="1.5"
         dy="1.5"
         in="comp-extrude"
         result="offset-extrude"
         id="feOffset8" />
      <feMerge
         id="feMerge14">
        <feMergeNode
           in="offset-extrude"
           id="feMergeNode10" />
        <feMergeNode
           in="SourceGraphic"
           id="feMergeNode12" />
      </feMerge>
    </filter>
  </defs>
  <g
     id="g23"
     style="filter:url(#editing-extrusion)"
     transform="matrix(0.62774639,0,0,0.62774639,85.229485,11.429284)">
    <g
       transform="translate(244.9075,85.62)"
       id="g21">
      <path
         d="m 6.41,1.46 -3,0.27 v 0 Q 3.48,1.37 3.55,0.96 v 0 0 Q 3.62,0.62 3.72,0.24 v 0 0 q 0.1,-0.38 0.22,-0.72 v 0 0 Q 3.07,-0.55 2.2,-1.06 v 0 0 Q 1.32,-1.56 0.5,-2.59 v 0 L 2.23,-6.1 v 0 q 0.17,0.34 0.45,0.69 v 0 0 q 0.27,0.35 0.6,0.65 v 0 0 q 0.32,0.3 0.68,0.49 v 0 0 q 0.36,0.19 0.67,0.19 v 0 0 q 0.63,0 1.13,-0.4 v 0 0 q 0.5,-0.39 0.5,-1.38 v 0 0 q 0,-0.43 -0.31,-0.86 v 0 0 Q 5.64,-7.15 5.2,-7.6 v 0 0 Q 4.75,-8.04 4.21,-8.53 v 0 0 Q 3.67,-9.02 3.23,-9.56 v 0 0 Q 2.78,-10.1 2.48,-10.7 v 0 0 q -0.3,-0.6 -0.3,-1.28 v 0 0 q 0,-0.72 0.33,-1.4 v 0 0 q 0.32,-0.68 0.89,-1.26 v 0 0 q 0.56,-0.58 1.29,-1.03 v 0 0 q 0.73,-0.46 1.5,-0.79 v 0 0 q 0.19,-0.89 0.35,-1.47 v 0 0 q 0.16,-0.57 0.35,-1.2 v 0 l 3.29,-0.38 -0.96,2.42 v 0 q 0.64,0.03 1.21,0.21 v 0 0 q 0.56,0.18 0.98,0.52 v 0 0 q 0.42,0.35 0.66,0.9 v 0 0 q 0.24,0.56 0.24,1.32 v 0 0 q 0,0.34 -0.05,0.65 v 0 0 q -0.04,0.31 -0.09,0.67 v 0 l -3.46,0.77 v 0 q 0.05,-0.29 0.07,-0.37 v 0 0 q 0.03,-0.08 0.03,-0.16 v 0 0 q 0,-0.74 -0.28,-1.05 v 0 0 q -0.27,-0.31 -0.66,-0.31 v 0 0 q -0.24,0 -0.49,0.1 v 0 0 q -0.25,0.11 -0.48,0.28 v 0 0 q -0.23,0.17 -0.36,0.43 v 0 0 q -0.13,0.27 -0.13,0.55 v 0 0 q 0,0.39 0.32,0.74 v 0 0 q 0.33,0.34 0.81,0.7 v 0 0 q 0.48,0.36 1.04,0.8 v 0 0 q 0.56,0.43 1.04,1 v 0 0 q 0.48,0.58 0.81,1.35 v 0 0 q 0.32,0.77 0.32,1.8 v 0 0 q 0,0.98 -0.31,1.83 v 0 0 q -0.31,0.86 -0.88,1.55 v 0 0 q -0.56,0.7 -1.3,1.2 v 0 0 Q 7.51,-1.1 6.62,-0.82 v 0 0 Q 6.53,-0.14 6.47,0.53 v 0 0 Q 6.41,1.2 6.41,1.46 Z"
         id="path19"
         inkscape:connector-curvature="0"
         style="fill:#fcba03" />
    </g>
  </g>
  <style
     id="style25">text {
  font-size: 64px;
  font-family: Arial Black;
  dominant-baseline: central;
  text-anchor: middle;
}</style>
</svg>
