<?xml version="1.0" encoding="UTF-8" standalone="no"?>
<svg
   xmlns:dc="http://purl.org/dc/elements/1.1/"
   xmlns:cc="http://creativecommons.org/ns#"
   xmlns:rdf="http://www.w3.org/1999/02/22-rdf-syntax-ns#"
   xmlns:svg="http://www.w3.org/2000/svg"
   xmlns="http://www.w3.org/2000/svg"
   xmlns:sodipodi="http://sodipodi.sourceforge.net/DTD/sodipodi-0.dtd"
   xmlns:inkscape="http://www.inkscape.org/namespaces/inkscape"
   width="24"
   height="24"
   viewBox="218.29314 47.596265 24.000001 23.999999"
   preserveAspectRatio="xMidYMid"
   version="1.1"
   id="svg27"
   sodipodi:docname="pttr.svg"
   inkscape:version="0.92.4 (5da689c313, 2019-01-14)">
  <metadata
     id="metadata31">
    <rdf:RDF>
      <cc:Work
         rdf:about="">
        <dc:format>image/svg+xml</dc:format>
        <dc:type
           rdf:resource="http://purl.org/dc/dcmitype/StillImage" />
        <dc:title></dc:title>
      </cc:Work>
    </rdf:RDF>
  </metadata>
  <sodipodi:namedview
     pagecolor="#ffffff"
     bordercolor="#666666"
     borderopacity="1"
     objecttolerance="10"
     gridtolerance="10"
     guidetolerance="10"
     inkscape:pageopacity="0"
     inkscape:pageshadow="2"
     inkscape:window-width="1842"
     inkscape:window-height="1057"
     id="namedview29"
     showgrid="false"
     inkscape:zoom="12.179157"
     inkscape:cx="17.719308"
     inkscape:cy="10.193292"
     inkscape:window-x="70"
     inkscape:window-y="-8"
     inkscape:window-maximized="1"
     inkscape:current-layer="svg27" />
  <defs
     id="defs17">
    <filter
       id="editing-extrusion"
       x="-1"
       y="-1"
       width="3"
       height="3">
      <feFlood
         result="color1"
         flood-color="#000000"
         id="feFlood2" />
      <feConvolveMatrix
         order="3,3"
         divisor="1"
         kernelMatrix="1 0 0 0 1 0 0 0 1"
         in="SourceAlpha"
         result="extrude"
         id="feConvolveMatrix4" />
      <feComposite
         in="color1"
         in2="extrude"
         result="comp-extrude"
         operator="in"
         id="feComposite6" />
      <feOffset
         dx="1.5"
         dy="1.5"
         in="comp-extrude"
         result="offset-extrude"
         id="feOffset8" />
      <feMerge
         id="feMerge14">
        <feMergeNode
           in="offset-extrude"
           id="feMergeNode10" />
        <feMergeNode
           in="SourceGraphic"
           id="feMergeNode12" />
      </feMerge>
    </filter>
  </defs>
  <g
     id="g23"
     style="filter:url(#editing-extrusion)"
     transform="matrix(0.6685619,0,0,0.75202106,61.991113,3.1796451)">
    <g
       transform="translate(235.83656,83.865)"
       id="g21">
      <path
         d="m 4.08,-0.79 -4.15,0.81 v 0 Q 0.65,-3.22 1.3,-6.31 v 0 0 q 0.26,-1.3 0.55,-2.74 v 0 0 q 0.29,-1.44 0.55,-2.83 v 0 0 q 0.26,-1.39 0.5,-2.69 v 0 0 q 0.24,-1.29 0.41,-2.37 v 0 0 q 0.7,-0.22 1.37,-0.38 v 0 0 q 0.67,-0.15 1.38,-0.27 v 0 0 q 0.71,-0.12 1.33,-0.12 v 0 0 q 1.08,0 1.81,0.36 v 0 0 q 0.74,0.36 1.19,0.97 v 0 0 q 0.46,0.61 0.65,1.43 v 0 0 q 0.19,0.81 0.19,1.75 v 0 0 q 0,1.34 -0.49,2.59 v 0 0 q -0.49,1.25 -1.32,2.22 v 0 0 q -0.83,0.97 -1.9,1.55 v 0 0 Q 6.46,-6.26 5.3,-6.26 v 0 H 5.04 v 0 q -0.19,0.81 -0.36,1.77 v 0 0 q -0.17,0.96 -0.29,1.78 v 0 0 q -0.17,0.96 -0.31,1.92 z m 2.54,-14.02 v 0 q -0.26,1.59 -0.52,3 v 0 0 q -0.27,1.42 -0.58,3.03 v 0 0 q 0.38,-0.1 0.8,-0.45 v 0 0 q 0.42,-0.35 0.78,-0.91 v 0 0 q 0.36,-0.56 0.58,-1.31 v 0 0 q 0.22,-0.74 0.22,-1.56 v 0 0 q 0,-0.89 -0.4,-1.34 v 0 0 q -0.4,-0.46 -0.88,-0.46 z m 8.96,14.16 -4.32,0.67 v 0 q 0.55,-2.64 1.05,-5.2 v 0 0 q 0.22,-1.08 0.43,-2.26 v 0 0 q 0.22,-1.18 0.42,-2.32 v 0 0 q 0.21,-1.14 0.36,-2.2 v 0 0 q 0.16,-1.07 0.28,-1.96 v 0 0 q -0.55,-0.07 -1.12,-0.05 v 0 0 q -0.56,0.03 -1.11,-0.14 v 0 0 q 0.02,-0.39 0.02,-0.89 v 0 0 q 0,-0.5 0.03,-1.01 v 0 0 q 0.02,-0.55 0.04,-1.17 v 0 0 q 0.63,0.04 1.25,0.07 v 0 0 q 0.63,0.02 1.25,0.02 v 0 0 q 1.22,0 2.36,-0.06 v 0 0 q 1.14,-0.06 2.12,-0.14 v 0 0 q 0.97,-0.09 1.9,-0.21 v 0 l -0.26,1.3 v 0 q -0.12,0.55 -0.23,1.13 v 0 0 q -0.11,0.57 -0.2,0.98 v 0 0 q -0.53,0.15 -1.07,0.21 v 0 0 q -0.54,0.06 -1.07,0.15 v 0 0 q -0.17,0.82 -0.36,1.81 v 0 0 q -0.19,1 -0.37,2.07 v 0 0 q -0.18,1.07 -0.35,2.17 v 0 0 q -0.17,1.1 -0.33,2.11 v 0 0 q -0.39,2.38 -0.72,4.92 z m 6.19,-0.33 -3.89,1 v 0 q 0.65,-3.19 1.25,-6.24 v 0 0 q 0.21,-1.29 0.48,-2.7 v 0 0 q 0.26,-1.4 0.49,-2.78 v 0 0 q 0.23,-1.38 0.43,-2.66 v 0 0 q 0.21,-1.29 0.33,-2.34 v 0 0 q 1.36,-0.44 2.95,-0.64 v 0 0 q 1.58,-0.2 3.14,-0.2 v 0 0 q 0.94,0 1.55,0.21 v 0 0 q 0.61,0.22 0.96,0.61 v 0 0 q 0.35,0.4 0.49,0.93 v 0 0 q 0.15,0.53 0.15,1.17 v 0 0 q 0,0.96 -0.34,1.89 v 0 0 q -0.34,0.92 -0.9,1.75 v 0 0 q -0.56,0.83 -1.3,1.51 v 0 0 q -0.73,0.69 -1.57,1.12 v 0 0 q 0.43,0.96 0.93,2.1 v 0 0 q 0.49,1.14 0.92,2.17 v 0 0 q 0.48,1.2 0.98,2.4 v 0 l -3.72,1.3 v 0 q -0.48,-1.54 -0.86,-2.88 v 0 0 Q 24.07,-3.82 23.9,-4.4 v 0 0 q -0.16,-0.59 -0.31,-1.12 v 0 0 q -0.14,-0.53 -0.24,-0.95 v 0 0 q -0.09,-0.42 -0.12,-0.68 v 0 l -0.31,0.09 v 0 q -0.14,0.77 -0.35,1.8 v 0 0 q -0.2,1.04 -0.37,2 v 0 0 q -0.22,1.12 -0.43,2.28 z m 2.52,-13.23 -0.77,3.82 v 0 q 0.46,-0.05 1.12,-0.39 v 0 0 q 0.66,-0.33 1.26,-0.8 v 0 0 q 0.6,-0.47 1.03,-0.97 v 0 0 q 0.43,-0.51 0.43,-0.89 v 0 0 q 0,-0.26 -0.17,-0.42 v 0 0 q -0.17,-0.16 -0.47,-0.24 v 0 0 q -0.3,-0.08 -0.66,-0.11 v 0 0 q -0.36,-0.02 -0.74,-0.02 v 0 0 q -0.26,0 -0.54,0.01 v 0 0 q -0.28,0.01 -0.49,0.01 z"
         id="path19"
         inkscape:connector-curvature="0"
         style="fill:#fcba03" />
    </g>
  </g>
  <style
     id="style25">text {
  font-size: 64px;
  font-family: Arial Black;
  dominant-baseline: central;
  text-anchor: middle;
}</style>
</svg>
