<?xml version="1.0" encoding="UTF-8" standalone="no"?>
<svg
   xmlns:dc="http://purl.org/dc/elements/1.1/"
   xmlns:cc="http://creativecommons.org/ns#"
   xmlns:rdf="http://www.w3.org/1999/02/22-rdf-syntax-ns#"
   xmlns:svg="http://www.w3.org/2000/svg"
   xmlns="http://www.w3.org/2000/svg"
   xmlns:sodipodi="http://sodipodi.sourceforge.net/DTD/sodipodi-0.dtd"
   xmlns:inkscape="http://www.inkscape.org/namespaces/inkscape"
   width="24"
   height="24"
   viewBox="213.90498 47.596265 23.999999 23.999999"
   preserveAspectRatio="xMidYMid"
   version="1.1"
   id="svg27"
   sodipodi:docname="RoK.svg"
   inkscape:version="0.92.4 (5da689c313, 2019-01-14)">
  <metadata
     id="metadata31">
    <rdf:RDF>
      <cc:Work
         rdf:about="">
        <dc:format>image/svg+xml</dc:format>
        <dc:type
           rdf:resource="http://purl.org/dc/dcmitype/StillImage" />
        <dc:title></dc:title>
      </cc:Work>
    </rdf:RDF>
  </metadata>
  <sodipodi:namedview
     pagecolor="#ffffff"
     bordercolor="#666666"
     borderopacity="1"
     objecttolerance="10"
     gridtolerance="10"
     guidetolerance="10"
     inkscape:pageopacity="0"
     inkscape:pageshadow="2"
     inkscape:window-width="1842"
     inkscape:window-height="1057"
     id="namedview29"
     showgrid="false"
     inkscape:zoom="3.9340607"
     inkscape:cx="4.7025202"
     inkscape:cy="27.403736"
     inkscape:window-x="70"
     inkscape:window-y="-8"
     inkscape:window-maximized="1"
     inkscape:current-layer="svg27" />
  <defs
     id="defs17">
    <filter
       id="editing-extrusion"
       x="-1"
       y="-1"
       width="3"
       height="3">
      <feFlood
         result="color1"
         flood-color="#000000"
         id="feFlood2" />
      <feConvolveMatrix
         order="3,3"
         divisor="1"
         kernelMatrix="1 0 0 0 1 0 0 0 1"
         in="SourceAlpha"
         result="extrude"
         id="feConvolveMatrix4" />
      <feComposite
         in="color1"
         in2="extrude"
         result="comp-extrude"
         operator="in"
         id="feComposite6" />
      <feOffset
         dx="1.5"
         dy="1.5"
         in="comp-extrude"
         result="offset-extrude"
         id="feOffset8" />
      <feMerge
         id="feMerge14">
        <feMergeNode
           in="offset-extrude"
           id="feMergeNode10" />
        <feMergeNode
           in="SourceGraphic"
           id="feMergeNode12" />
      </feMerge>
    </filter>
  </defs>
  <g
     id="g23"
     style="filter:url(#editing-extrusion)"
     transform="matrix(0.57777981,0,0,0.73868883,80.529779,4.1207331)">
    <g
       transform="translate(232.98562,84.025001)"
       id="g21">
      <path
         d="m 3.98,-0.98 -3.88,1 v 0 q 0.64,-3.19 1.24,-6.24 v 0 0 q 0.22,-1.29 0.48,-2.7 v 0 0 q 0.27,-1.4 0.5,-2.78 v 0 0 q 0.22,-1.38 0.43,-2.66 v 0 0 q 0.2,-1.29 0.32,-2.34 v 0 0 q 1.37,-0.44 2.95,-0.64 v 0 0 q 1.59,-0.2 3.15,-0.2 v 0 0 q 0.93,0 1.55,0.21 v 0 0 q 0.61,0.22 0.96,0.61 v 0 0 q 0.34,0.4 0.49,0.93 v 0 0 q 0.14,0.53 0.14,1.17 v 0 0 q 0,0.96 -0.33,1.89 v 0 0 q -0.34,0.92 -0.9,1.75 v 0 0 q -0.57,0.83 -1.3,1.51 v 0 0 q -0.73,0.69 -1.57,1.12 v 0 0 q 0.43,0.96 0.92,2.1 v 0 0 q 0.49,1.14 0.93,2.17 v 0 0 q 0.48,1.2 0.98,2.4 v 0 l -3.72,1.3 v 0 Q 6.84,-2.04 6.46,-3.5 v 0 0 Q 6.29,-4.1 6.12,-4.74 v 0 0 Q 5.95,-5.38 5.81,-5.94 v 0 0 q -0.15,-0.56 -0.24,-1 v 0 0 Q 5.47,-7.37 5.45,-7.61 v 0 l -0.31,0.1 v 0 q -0.15,0.77 -0.35,1.87 v 0 0 q -0.21,1.1 -0.37,2.14 v 0 0 Q 4.2,-2.28 3.98,-0.98 Z m 2.52,-13.23 -0.76,3.82 v 0 q 0.45,-0.05 1.11,-0.39 v 0 0 q 0.66,-0.33 1.26,-0.8 v 0 0 q 0.6,-0.47 1.03,-0.97 v 0 0 q 0.44,-0.51 0.44,-0.89 v 0 0 q 0,-0.26 -0.17,-0.42 v 0 0 Q 9.24,-14.02 8.94,-14.1 v 0 0 q -0.3,-0.08 -0.66,-0.11 v 0 0 q -0.36,-0.02 -0.74,-0.02 v 0 0 q -0.27,0 -0.54,0.01 v 0 0 q -0.28,0.01 -0.5,0.01 z m 17.6,1.23 v 0 q 0,1.96 -0.42,3.7 v 0 0 q -0.42,1.74 -1.12,3.2 v 0 0 q -0.7,1.45 -1.62,2.59 v 0 0 q -0.92,1.14 -1.93,1.94 v 0 0 Q 18,-0.74 16.97,-0.32 v 0 0 Q 15.94,0.1 15,0.1 v 0 0 q -0.79,0 -1.44,-0.3 v 0 0 q -0.65,-0.3 -1.13,-0.89 v 0 0 Q 11.95,-1.68 11.68,-2.6 v 0 0 Q 11.4,-3.53 11.4,-4.82 v 0 0 q 0,-1.35 0.34,-2.84 v 0 0 q 0.33,-1.48 0.91,-2.95 v 0 0 q 0.57,-1.46 1.41,-2.78 v 0 0 q 0.84,-1.32 1.85,-2.34 v 0 0 q 1.01,-1.02 2.16,-1.62 v 0 0 q 1.15,-0.6 2.4,-0.6 v 0 0 q 1.08,0 1.79,0.44 v 0 0 q 0.71,0.45 1.1,1.15 v 0 0 q 0.4,0.71 0.57,1.6 v 0 0 q 0.17,0.89 0.17,1.78 z m -9.12,7.53 v 0 q 0,0.27 0.09,0.55 v 0 0 q 0.1,0.29 0.27,0.51 v 0 0 q 0.16,0.21 0.42,0.37 v 0 0 q 0.25,0.16 0.54,0.16 v 0 0 q 1.08,0 1.92,-0.75 v 0 0 q 0.84,-0.74 1.39,-1.82 v 0 0 q 0.55,-1.08 0.85,-2.31 v 0 0 q 0.3,-1.22 0.3,-2.23 v 0 0 q 0,-0.29 -0.04,-0.62 v 0 0 q -0.03,-0.34 -0.14,-0.63 v 0 0 q -0.11,-0.28 -0.34,-0.49 v 0 0 q -0.22,-0.2 -0.61,-0.2 v 0 0 q -0.77,0 -1.41,0.38 v 0 0 q -0.65,0.39 -1.17,1.02 v 0 0 q -0.51,0.64 -0.9,1.44 v 0 0 q -0.38,0.81 -0.66,1.63 v 0 0 q -0.27,0.83 -0.39,1.62 v 0 0 q -0.12,0.8 -0.12,1.37 z m 11.56,4.9 -3.88,0.57 v 0 Q 23.38,-3.34 24,-6.5 v 0 0 q 0.24,-1.37 0.5,-2.84 v 0 0 q 0.27,-1.46 0.5,-2.9 v 0 0 q 0.22,-1.44 0.4,-2.8 v 0 0 q 0.18,-1.35 0.28,-2.46 v 0 0 q 0.55,0.05 1.25,0.09 v 0 0 q 0.69,0.03 1.29,0.08 v 0 0 q 0.72,0.05 1.44,0.05 v 0 0 q -0.02,0.1 -0.07,0.36 v 0 0 q -0.05,0.26 -0.12,0.64 v 0 0 q -0.07,0.37 -0.15,0.82 v 0 0 q -0.09,0.46 -0.18,0.92 v 0 0 q -0.2,1.05 -0.44,2.37 v 0 l 0.15,-0.02 v 0 q 0.24,-0.39 0.68,-1.07 v 0 0 q 0.45,-0.68 0.93,-1.45 v 0 0 q 0.48,-0.77 0.93,-1.48 v 0 0 q 0.46,-0.71 0.77,-1.21 v 0 0 q 1.2,-0.1 2.4,-0.22 v 0 0 q 1.2,-0.12 2.4,-0.31 v 0 0 q -1.13,1.51 -2.18,2.98 v 0 0 q -0.46,0.62 -0.93,1.29 v 0 0 q -0.47,0.68 -0.92,1.32 v 0 0 q -0.46,0.65 -0.85,1.25 v 0 0 q -0.4,0.6 -0.71,1.11 v 0 0 q 0.53,2.42 1.25,4.68 v 0 0 q 0.72,2.25 1.46,4.6 v 0 0 q -0.55,-0.02 -1.13,-0.03 v 0 0 q -0.57,-0.01 -1.13,-0.01 v 0 0 q -0.69,0 -1.34,0.01 v 0 0 q -0.65,0.01 -1.34,0.03 v 0 0 q -0.22,-1.56 -0.47,-3.27 v 0 0 Q 28.42,-5.69 28.2,-7.25 v 0 l -0.43,0.51 v 0 q -0.17,0.72 -0.37,1.77 v 0 0 q -0.21,1.06 -0.4,2.04 v 0 0 q -0.22,1.15 -0.46,2.38 z"
         id="path19"
         inkscape:connector-curvature="0"
         style="fill:#fcba03" />
    </g>
  </g>
  <style
     id="style25">text {
  font-size: 64px;
  font-family: Arial Black;
  dominant-baseline: central;
  text-anchor: middle;
}</style>
</svg>
