<?xml version="1.0" encoding="UTF-8" standalone="no"?>
<svg
   xmlns:dc="http://purl.org/dc/elements/1.1/"
   xmlns:cc="http://creativecommons.org/ns#"
   xmlns:rdf="http://www.w3.org/1999/02/22-rdf-syntax-ns#"
   xmlns:svg="http://www.w3.org/2000/svg"
   xmlns="http://www.w3.org/2000/svg"
   xmlns:sodipodi="http://sodipodi.sourceforge.net/DTD/sodipodi-0.dtd"
   xmlns:inkscape="http://www.inkscape.org/namespaces/inkscape"
   width="24"
   height="24"
   viewBox="210.78127 47.596265 23.999999 23.999999"
   preserveAspectRatio="xMidYMid"
   version="1.1"
   id="svg27"
   sodipodi:docname="wwhulk.svg"
   inkscape:version="0.92.4 (5da689c313, 2019-01-14)">
  <metadata
     id="metadata31">
    <rdf:RDF>
      <cc:Work
         rdf:about="">
        <dc:format>image/svg+xml</dc:format>
        <dc:type
           rdf:resource="http://purl.org/dc/dcmitype/StillImage" />
        <dc:title></dc:title>
      </cc:Work>
    </rdf:RDF>
  </metadata>
  <sodipodi:namedview
     pagecolor="#ffffff"
     bordercolor="#666666"
     borderopacity="1"
     objecttolerance="10"
     gridtolerance="10"
     guidetolerance="10"
     inkscape:pageopacity="0"
     inkscape:pageshadow="2"
     inkscape:window-width="1842"
     inkscape:window-height="1057"
     id="namedview29"
     showgrid="false"
     inkscape:zoom="10.240941"
     inkscape:cx="42.940899"
     inkscape:cy="4.1474684"
     inkscape:window-x="70"
     inkscape:window-y="-8"
     inkscape:window-maximized="1"
     inkscape:current-layer="svg27" />
  <defs
     id="defs17">
    <filter
       id="editing-extrusion"
       x="-1"
       y="-1"
       width="3"
       height="3">
      <feFlood
         result="color1"
         flood-color="#000000"
         id="feFlood2" />
      <feConvolveMatrix
         order="3,3"
         divisor="1"
         kernelMatrix="1 0 0 0 1 0 0 0 1"
         in="SourceAlpha"
         result="extrude"
         id="feConvolveMatrix4" />
      <feComposite
         in="color1"
         in2="extrude"
         result="comp-extrude"
         operator="in"
         id="feComposite6" />
      <feOffset
         dx="1.5"
         dy="1.5"
         in="comp-extrude"
         result="offset-extrude"
         id="feOffset8" />
      <feMerge
         id="feMerge14">
        <feMergeNode
           in="offset-extrude"
           id="feMergeNode10" />
        <feMergeNode
           in="SourceGraphic"
           id="feMergeNode12" />
      </feMerge>
    </filter>
  </defs>
  <g
     id="g23"
     style="filter:url(#editing-extrusion)"
     transform="matrix(0.50386292,0,0,0.74654722,95.92591,3.5305688)">
    <g
       transform="translate(230.30062,83.93)"
       id="g21">
      <path
         d="m 5.98,-0.79 -5,0.89 1.83,-17.04 v 0 q 1.13,-0.05 2.12,-0.23 v 0 0 q 1,-0.18 1.98,-0.25 v 0 0 q 0,0.02 -0.07,0.49 v 0 0 q -0.07,0.47 -0.19,1.22 v 0 0 Q 6.53,-14.95 6.38,-14 v 0 0 q -0.14,0.94 -0.42,2.6 v 0 0 q -0.27,1.66 -0.73,4.58 v 0 h 0.36 v 0 q 0.63,-2.2 1.03,-3.61 v 0 0 q 0.41,-1.4 0.66,-2.28 v 0 0 q 0.26,-0.87 0.48,-1.69 v 0 0 q 0.23,-0.82 0.44,-1.51 v 0 0 q 0.2,-0.7 0.32,-1.18 v 0 h 0.22 v 0 q 0.43,0 0.87,-0.05 v 0 0 q 0.45,-0.04 0.84,-0.1 v 0 0 q 0.4,-0.06 0.83,-0.16 v 0 0 q -0.05,0.22 -0.11,0.89 v 0 0 q -0.06,0.67 -0.15,1.62 v 0 0 q -0.1,0.95 -0.2,2.09 v 0 0 q -0.09,1.14 -0.19,2.23 v 0 0 q -0.09,1.09 -0.18,2.07 v 0 0 q -0.08,0.99 -0.15,1.68 v 0 h 0.43 l 2.28,-10.32 v 0 q 0.81,-0.12 1.61,-0.21 v 0 0 q 0.69,-0.1 1.44,-0.19 v 0 0 q 0.74,-0.1 1.32,-0.22 v 0 0 q -0.36,1.01 -0.72,2.24 v 0 0 q -0.36,1.24 -0.75,2.61 v 0 0 q -0.38,1.37 -0.73,2.76 v 0 0 q -0.35,1.39 -0.68,2.69 v 0 0 q -0.77,3.07 -1.49,6.31 v 0 L 7.58,-0.24 8.64,-9.5 H 8.35 Z m 14.42,0 -4.99,0.89 1.82,-17.04 v 0 q 1.13,-0.05 2.13,-0.23 v 0 0 q 0.99,-0.18 1.98,-0.25 v 0 0 q 0,0.02 -0.08,0.49 v 0 0 q -0.07,0.47 -0.19,1.22 v 0 0 q -0.12,0.76 -0.26,1.71 v 0 0 q -0.15,0.94 -0.42,2.6 v 0 0 q -0.28,1.66 -0.73,4.58 v 0 h 0.36 v 0 q 0.62,-2.2 1.03,-3.61 v 0 0 q 0.41,-1.4 0.66,-2.28 v 0 0 q 0.25,-0.87 0.48,-1.69 v 0 0 q 0.23,-0.82 0.43,-1.51 v 0 0 q 0.2,-0.7 0.32,-1.18 v 0 h 0.22 v 0 q 0.43,0 0.88,-0.05 v 0 0 q 0.44,-0.04 0.84,-0.1 v 0 0 q 0.39,-0.06 0.82,-0.16 v 0 0 q -0.04,0.22 -0.1,0.89 v 0 0 q -0.06,0.67 -0.16,1.62 v 0 0 q -0.1,0.95 -0.19,2.09 v 0 0 q -0.1,1.14 -0.19,2.23 v 0 0 q -0.1,1.09 -0.18,2.07 v 0 0 q -0.09,0.99 -0.16,1.68 v 0 h 0.43 l 2.28,-10.32 v 0 q 0.82,-0.12 1.61,-0.21 v 0 0 q 0.7,-0.1 1.44,-0.19 v 0 0 q 0.74,-0.1 1.32,-0.22 v 0 0 q -0.36,1.01 -0.72,2.24 v 0 0 q -0.36,1.24 -0.74,2.61 v 0 0 q -0.39,1.37 -0.74,2.76 v 0 0 q -0.34,1.39 -0.68,2.69 v 0 0 q -0.77,3.07 -1.49,6.31 v 0 l -5.42,0.91 1.05,-9.26 h -0.28 z m 12.34,0.07 -3.7,0.77 v 0 q 0.67,-3.36 1.3,-6.55 v 0 0 q 0.24,-1.37 0.5,-2.85 v 0 0 q 0.26,-1.47 0.49,-2.91 v 0 0 q 0.23,-1.44 0.43,-2.8 v 0 0 q 0.21,-1.36 0.33,-2.46 v 0 0 q 0.55,0.02 1.02,0.06 v 0 0 q 0.47,0.04 0.92,0.06 v 0 0 q 0.46,0.02 0.93,0.04 v 0 0 q 0.46,0.01 1.02,0.01 v 0 0 q -0.41,1.7 -0.81,3.41 v 0 0 q -0.39,1.7 -0.73,3.43 v 0 l 2.38,-0.27 v 0 q 0.33,-1.7 0.6,-3.3 v 0 0 q 0.26,-1.59 0.69,-3.3 v 0 0 q 0.55,-0.09 1.23,-0.15 v 0 0 q 0.67,-0.06 1.24,-0.11 v 0 0 q 0.58,-0.05 0.98,-0.08 v 0 0 q 0.39,-0.04 0.39,-0.04 v 0 0 q -0.33,1.08 -0.63,2.36 v 0 0 q -0.3,1.29 -0.59,2.67 v 0 0 q -0.29,1.38 -0.55,2.79 v 0 0 q -0.27,1.42 -0.48,2.69 v 0 0 q -0.53,3.05 -0.99,6.24 v 0 l -3.74,0.43 v 0 q 0.31,-1.44 0.55,-2.8 v 0 0 q 0.24,-1.16 0.49,-2.4 v 0 0 q 0.25,-1.25 0.4,-2.14 v 0 l -2.33,0.22 v 0 q -0.17,0.91 -0.4,2.11 v 0 0 q -0.22,1.2 -0.42,2.28 v 0 0 Q 33,-2.02 32.74,-0.72 Z"
         id="path19"
         inkscape:connector-curvature="0"
         style="fill:#fcba03" />
    </g>
  </g>
  <style
     id="style25">text {
  font-size: 64px;
  font-family: Arial Black;
  dominant-baseline: central;
  text-anchor: middle;
}</style>
</svg>
