<?xml version="1.0" encoding="UTF-8" standalone="no"?>
<svg
   xmlns:dc="http://purl.org/dc/elements/1.1/"
   xmlns:cc="http://creativecommons.org/ns#"
   xmlns:rdf="http://www.w3.org/1999/02/22-rdf-syntax-ns#"
   xmlns:svg="http://www.w3.org/2000/svg"
   xmlns="http://www.w3.org/2000/svg"
   xmlns:sodipodi="http://sodipodi.sourceforge.net/DTD/sodipodi-0.dtd"
   xmlns:inkscape="http://www.inkscape.org/namespaces/inkscape"
   viewBox="0 0 200 200"
   xml:space="preserve"
   version="1.1"
   id="svg4"
   sodipodi:docname="u.svg"
   width="200"
   height="200"
   inkscape:version="0.92.2 5c3e80d, 2017-08-06"><metadata
     id="metadata10"><rdf:RDF><cc:Work
         rdf:about=""><dc:format>image/svg+xml</dc:format><dc:type
           rdf:resource="http://purl.org/dc/dcmitype/StillImage" /><dc:title></dc:title></cc:Work></rdf:RDF></metadata><defs
     id="defs8" /><sodipodi:namedview
     pagecolor="#ffffff"
     bordercolor="#666666"
     borderopacity="1"
     objecttolerance="10"
     gridtolerance="10"
     guidetolerance="10"
     inkscape:pageopacity="0"
     inkscape:pageshadow="2"
     inkscape:window-width="1425"
     inkscape:window-height="794"
     id="namedview6"
     showgrid="false"
     inkscape:zoom="0.50395799"
     inkscape:cx="270.85591"
     inkscape:cy="234.1465"
     inkscape:window-x="67"
     inkscape:window-y="68"
     inkscape:window-maximized="0"
     inkscape:current-layer="svg4" /><path
     style="fill:#d00;stroke-width:0.24212633"
     d="m 99.999998,43.307086 c -31.294344,0 -56.692913,25.398567 -56.692913,56.692914 0,31.29434 25.398569,56.69291 56.692913,56.69291 31.294342,0 56.692912,-25.39857 56.692912,-56.69291 0,-31.294346 -25.39833,-56.692913 -56.692912,-56.692914 z M 59.332217,100 c 0,-22.525987 18.292887,-40.818867 40.667781,-40.818867 8.466192,0 16.478882,2.57017 22.979482,7.10544 L 66.437898,122.97972 C 61.902388,116.47887 59.332217,108.46619 59.332217,100 Z m 40.667781,40.66778 c -8.466189,0 -16.478876,-2.57017 -22.979484,-7.10544 L 133.56234,77.020513 c 4.53551,6.50085 7.10544,14.5133 7.10544,22.979487 0,22.52598 -18.1418,40.66778 -40.667782,40.66778 z"
     id="path2"
     inkscape:connector-curvature="0" /></svg>