<?xml version="1.0" standalone="no"?>
<!DOCTYPE svg PUBLIC "-//W3C//DTD SVG 20010904//EN"
 "http://www.w3.org/TR/2001/REC-SVG-20010904/DTD/svg10.dtd">
<svg version="1.0" xmlns="http://www.w3.org/2000/svg"
 width="700.000000pt" height="700.000000pt" viewBox="0 0 700.000000 700.000000"
 preserveAspectRatio="xMidYMid meet">
<metadata>
Created by potrace 1.11, written by Peter Selinger 2001-2013
</metadata>
<g transform="translate(0.000000,700.000000) scale(0.100000,-0.100000)"
fill="#000000" stroke="none">
<path d="M3399 6619 c-17 -30 -23 -41 -79 -131 -25 -40 -49 -80 -55 -90 -5 -9
-54 -87 -108 -175 -54 -87 -132 -212 -173 -278 -40 -66 -78 -127 -84 -135 -5
-8 -44 -71 -86 -140 -42 -69 -87 -141 -99 -160 -13 -19 -62 -98 -109 -175 -47
-77 -90 -145 -96 -152 -5 -7 -10 -15 -10 -18 0 -3 -16 -30 -36 -60 -20 -29
-33 -59 -29 -65 3 -6 2 -9 -3 -8 -6 2 -47 -55 -91 -127 -44 -71 -85 -137 -91
-145 -6 -8 -13 -22 -17 -30 -4 -8 -11 -19 -15 -25 -5 -5 -62 -98 -128 -205
-141 -229 -122 -198 -207 -335 -37 -60 -72 -118 -78 -127 -5 -9 -60 -97 -121
-195 -61 -98 -114 -183 -118 -190 -4 -7 190 -331 465 -775 260 -420 496 -801
525 -848 229 -373 797 -1286 802 -1292 4 -4 114 167 246 380 131 213 249 403
261 422 13 19 83 132 156 250 145 235 245 398 439 710 70 113 216 349 324 525
109 176 208 336 221 355 12 19 66 106 119 192 l96 157 -85 138 c-46 76 -89
145 -95 153 -18 26 -174 280 -201 327 -14 25 -31 48 -38 53 -7 4 -11 9 -9 12
6 8 -147 246 -156 241 -5 -4 -6 -1 -2 5 3 6 -20 53 -52 104 -33 51 -109 174
-170 273 -61 99 -116 185 -121 192 -6 7 -11 15 -11 18 0 4 -15 30 -33 58 -19
29 -49 77 -68 107 -18 30 -37 57 -41 58 -5 2 -8 9 -8 16 0 6 -15 34 -33 61
-34 52 -245 392 -262 423 -5 9 -46 76 -91 147 -113 182 -135 217 -200 325 -32
52 -61 97 -64 100 -3 3 -11 16 -18 30 -7 14 -21 36 -31 49 l-19 24 -13 -24z"/>
</g>
</svg>
