<?xml version="1.0" standalone="no"?>
<!DOCTYPE svg PUBLIC "-//W3C//DTD SVG 20010904//EN"
 "http://www.w3.org/TR/2001/REC-SVG-20010904/DTD/svg10.dtd">
<svg version="1.0" xmlns="http://www.w3.org/2000/svg"
 width="700.000000pt" height="700.000000pt" viewBox="0 0 700.000000 700.000000"
 preserveAspectRatio="xMidYMid meet">
<metadata>
Created by potrace 1.11, written by Peter Selinger 2001-2013
</metadata>
<g transform="translate(0.000000,700.000000) scale(0.100000,-0.100000)"
fill="#000000" stroke="none">
<path d="M3906 6850 c6 -8 67 -85 135 -171 68 -85 138 -172 154 -193 17 -21
37 -46 45 -57 8 -10 26 -32 40 -50 14 -18 124 -157 245 -308 121 -152 278
-349 349 -439 l129 -163 61 6 c34 3 77 8 96 10 32 4 85 9 199 20 24 2 45 6 47
8 3 2 -46 48 -108 103 -62 54 -135 120 -163 145 -27 26 -68 62 -89 80 -22 19
-51 45 -65 58 -14 13 -52 46 -85 75 -32 28 -73 65 -90 81 -18 17 -68 61 -112
100 -43 38 -81 72 -84 75 -3 3 -66 59 -140 125 -74 66 -140 124 -146 130 -23
21 -150 134 -174 155 -14 12 -59 52 -100 89 -106 96 -157 138 -144 121z"/>
<path d="M4690 6858 c0 -4 6 -13 13 -20 6 -7 25 -31 41 -53 17 -22 33 -42 36
-45 4 -3 40 -48 81 -100 41 -52 128 -163 194 -246 66 -83 132 -167 147 -185
14 -19 35 -44 45 -56 37 -46 195 -246 423 -536 l115 -146 60 5 c33 2 76 7 95
9 19 2 67 7 105 10 74 6 149 15 152 19 1 1 -60 57 -135 123 -76 67 -151 134
-168 150 -16 15 -60 55 -98 88 -38 33 -81 71 -96 85 -15 14 -58 52 -95 85 -38
33 -73 65 -79 70 -6 6 -74 67 -151 135 -77 69 -156 139 -175 156 -61 55 -353
315 -395 352 -22 19 -57 51 -77 71 -21 19 -38 32 -38 29z"/>
<path d="M3607 6164 c-1 -2 -36 -6 -77 -9 -41 -3 -91 -7 -110 -10 -19 -2 -64
-7 -100 -10 -36 -3 -81 -8 -100 -10 -19 -2 -73 -7 -119 -11 -101 -8 -79 10
-265 -214 -43 -52 -88 -106 -100 -120 -24 -29 -103 -125 -126 -153 -83 -104
-150 -139 -246 -127 -32 5 -95 11 -138 15 -43 4 -86 8 -95 10 -9 1 -56 6 -106
10 -49 3 -106 8 -125 10 -73 9 -259 22 -450 31 -253 12 -471 8 -610 -11 -19
-3 -57 -7 -85 -10 -27 -4 -61 -8 -75 -10 -36 -6 -177 -24 -235 -30 -27 -3 -70
-8 -95 -12 -25 -3 -54 -7 -65 -8 -11 -1 -50 -5 -86 -9 l-66 -8 -37 -156 c-21
-87 -44 -177 -51 -202 -7 -25 -16 -56 -18 -70 -3 -14 -11 -45 -17 -69 -10 -42
-9 -46 39 -135 176 -329 157 -271 177 -526 3 -41 7 -90 10 -109 2 -23 -21
-109 -78 -280 -86 -261 -86 -256 -74 -446 10 -164 11 -184 17 -188 2 -2 112
-56 244 -120 132 -64 251 -123 265 -131 25 -14 113 -179 219 -411 45 -100 50
-119 56 -205 6 -95 11 -157 20 -260 3 -30 8 -90 11 -132 3 -43 7 -84 8 -93 1
-8 31 -41 66 -72 35 -32 82 -75 105 -95 22 -21 51 -38 65 -39 14 0 34 -2 45
-4 24 -4 77 -13 125 -19 234 -34 326 -49 331 -54 7 -7 58 -151 157 -444 l47
-138 195 -71 c107 -40 210 -79 228 -87 33 -15 81 -17 132 -7 13 2 42 7 65 10
65 10 252 38 335 50 49 8 178 21 290 30 41 3 91 8 110 10 19 3 64 7 100 10
123 10 164 17 190 35 30 22 421 260 426 260 2 0 27 15 56 34 29 18 62 36 73
39 11 4 31 17 45 29 14 13 46 41 70 62 42 37 204 183 240 216 9 8 65 60 126
115 60 55 111 102 114 105 70 67 74 69 155 76 149 14 405 8 505 -11 9 -2 56
-6 106 -10 49 -4 100 -8 114 -10 24 -4 131 -15 194 -20 17 -2 46 4 65 12 98
43 199 81 203 78 2 -1 39 -6 83 -9 44 -4 105 -10 135 -14 30 -4 112 -7 182 -6
l127 2 28 32 c128 151 238 348 308 555 33 96 72 241 80 295 4 24 8 47 10 50 4
6 9 40 26 165 20 141 16 685 -5 836 -3 19 -8 61 -10 94 -7 86 -43 336 -62 428
-8 42 -18 90 -20 105 -3 15 -10 45 -16 67 -5 22 -12 51 -15 65 -9 53 -77 279
-111 373 l-36 98 -36 -5 c-19 -3 -55 -9 -80 -15 -50 -11 -88 -18 -139 -27 -18
-3 -43 -8 -55 -10 -11 -2 -41 -7 -66 -9 -25 -3 -52 -8 -60 -10 -8 -2 -33 -7
-55 -10 -23 -3 -52 -8 -65 -10 -14 -3 -45 -7 -70 -10 -25 -3 -56 -8 -70 -11
-46 -8 -65 -11 -113 -18 -27 -4 -57 -9 -67 -11 -23 -4 -81 -14 -127 -20 -21
-3 -49 -8 -63 -10 -14 -3 -43 -7 -65 -10 -22 -3 -51 -8 -65 -10 -14 -3 -38 -7
-55 -9 -16 -3 -73 -12 -125 -21 -52 -9 -108 -17 -125 -17 -16 0 -111 25 -210
56 -99 31 -188 59 -198 61 -10 2 -55 16 -101 30 l-83 26 -221 332 c-121 183
-249 379 -284 437 l-64 105 -184 93 c-157 80 -238 110 -253 96z"/>
<path d="M4973 1494 c-17 -22 -131 -165 -254 -319 -239 -302 -336 -423 -374
-470 -13 -16 -79 -100 -147 -185 -68 -86 -157 -198 -198 -250 -123 -155 -124
-154 20 -25 31 28 91 82 134 120 43 39 84 75 90 80 13 13 178 159 225 200 18
17 43 39 55 50 13 11 58 52 101 90 43 39 83 75 89 80 6 6 70 62 141 125 72 63
132 117 135 120 3 3 46 41 95 84 50 44 95 85 100 90 6 6 44 40 85 76 137 119
147 130 125 132 -11 0 -31 2 -45 4 -14 1 -52 5 -85 9 -33 3 -78 8 -100 10 -22
3 -67 8 -100 11 l-61 6 -31 -38z"/>
<path d="M5753 1488 c-18 -24 -41 -54 -52 -68 -11 -14 -140 -176 -286 -360
-146 -184 -271 -342 -278 -350 -7 -8 -73 -91 -147 -185 -74 -93 -140 -177
-147 -185 -6 -8 -43 -54 -82 -102 -65 -81 -91 -119 -58 -86 8 7 42 38 77 68
35 30 71 62 79 70 14 14 93 84 229 205 19 17 44 39 56 50 13 11 58 52 101 90
44 39 86 77 95 85 9 8 52 46 96 85 43 38 99 88 123 110 24 22 49 45 55 50 6 6
32 28 57 50 25 22 83 74 129 115 46 41 109 98 140 125 31 28 93 83 138 123 45
40 92 82 104 92 17 14 19 20 8 20 -8 1 -22 3 -30 4 -8 2 -51 7 -95 11 -44 4
-92 8 -108 10 -15 2 -60 6 -100 10 l-72 6 -32 -43z"/>
</g>
</svg>
