<?xml version="1.0" encoding="UTF-8" standalone="no"?>
<!-- Created with Inkscape (http://www.inkscape.org/) -->

<svg
   xmlns:dc="http://purl.org/dc/elements/1.1/"
   xmlns:cc="http://creativecommons.org/ns#"
   xmlns:rdf="http://www.w3.org/1999/02/22-rdf-syntax-ns#"
   xmlns:svg="http://www.w3.org/2000/svg"
   xmlns="http://www.w3.org/2000/svg"
   xmlns:sodipodi="http://sodipodi.sourceforge.net/DTD/sodipodi-0.dtd"
   xmlns:inkscape="http://www.inkscape.org/namespaces/inkscape"
   width="200"
   height="200"
   viewBox="0 0 52.916666 52.916666"
   version="1.1"
   id="svg6613"
   inkscape:version="0.92.4 (5da689c313, 2019-01-14)"
   sodipodi:docname="token.svg">
  <defs
     id="defs6607">
    <clipPath
       clipPathUnits="userSpaceOnUse"
       id="clipPath4205">
      <path
         d="M 0,0 H 531 V 801 H 0 Z"
         id="path4203"
         inkscape:connector-curvature="0" />
    </clipPath>
    <radialGradient
       fx="0"
       fy="0"
       cx="0"
       cy="0"
       r="1"
       gradientUnits="userSpaceOnUse"
       gradientTransform="matrix(11.913136,0,0,-17.529453,47.705627,224.79285)"
       spreadMethod="pad"
       id="radialGradient4233">
      <stop
         style="stop-opacity:1;stop-color:#fef4b3"
         offset="0"
         id="stop4223" />
      <stop
         style="stop-opacity:1;stop-color:#f9e610"
         offset="0.30622"
         id="stop4225" />
      <stop
         style="stop-opacity:1;stop-color:#f68514"
         offset="0.645933"
         id="stop4227" />
      <stop
         style="stop-opacity:1;stop-color:#f68514"
         offset="0.75018732"
         id="stop4229" />
      <stop
         style="stop-opacity:1;stop-color:#ca1525"
         offset="1"
         id="stop4231" />
    </radialGradient>
    <radialGradient
       fx="0"
       fy="0"
       cx="0"
       cy="0"
       r="1"
       gradientUnits="userSpaceOnUse"
       gradientTransform="matrix(11.913165,0,0,-11.913165,47.70694,224.79285)"
       spreadMethod="pad"
       id="radialGradient4259">
      <stop
         style="stop-opacity:1;stop-color:#fef4b3"
         offset="0"
         id="stop4249" />
      <stop
         style="stop-opacity:1;stop-color:#f9e610"
         offset="0.30622"
         id="stop4251" />
      <stop
         style="stop-opacity:1;stop-color:#f68514"
         offset="0.645933"
         id="stop4253" />
      <stop
         style="stop-opacity:1;stop-color:#f68514"
         offset="0.75018732"
         id="stop4255" />
      <stop
         style="stop-opacity:1;stop-color:#ca1525"
         offset="1"
         id="stop4257" />
    </radialGradient>
    <radialGradient
       fx="0"
       fy="0"
       cx="0"
       cy="0"
       r="1"
       gradientUnits="userSpaceOnUse"
       gradientTransform="matrix(11.911995,0,0,-12.396716,47.70694,224.79205)"
       spreadMethod="pad"
       id="radialGradient4283">
      <stop
         style="stop-opacity:1;stop-color:#f9a9a7"
         offset="0"
         id="stop4275" />
      <stop
         style="stop-opacity:1;stop-color:#ed1a2c"
         offset="0.521531"
         id="stop4277" />
      <stop
         style="stop-opacity:1;stop-color:#ed1a2c"
         offset="0.56937747"
         id="stop4279" />
      <stop
         style="stop-opacity:1;stop-color:#59060e"
         offset="1"
         id="stop4281" />
    </radialGradient>
  </defs>
  <sodipodi:namedview
     id="base"
     pagecolor="#ffffff"
     bordercolor="#666666"
     borderopacity="1.0"
     inkscape:pageopacity="0.0"
     inkscape:pageshadow="2"
     inkscape:zoom="1.4"
     inkscape:cx="-163.20548"
     inkscape:cy="59.489822"
     inkscape:document-units="mm"
     inkscape:current-layer="layer1"
     showgrid="false"
     units="px"
     inkscape:window-width="1842"
     inkscape:window-height="1057"
     inkscape:window-x="70"
     inkscape:window-y="-8"
     inkscape:window-maximized="1" />
  <metadata
     id="metadata6610">
    <rdf:RDF>
      <cc:Work
         rdf:about="">
        <dc:format>image/svg+xml</dc:format>
        <dc:type
           rdf:resource="http://purl.org/dc/dcmitype/StillImage" />
        <dc:title />
      </cc:Work>
    </rdf:RDF>
  </metadata>
  <g
     inkscape:label="Layer 1"
     inkscape:groupmode="layer"
     id="layer1"
     transform="translate(0,-244.08334)">
    <g
       id="g4818"
       transform="matrix(1.7328877,0,0,-1.7328877,-53.438014,653.64675)">
      <g
         id="g4199">
        <g
           clip-path="url(#clipPath4205)"
           id="g4201">
          <g
             transform="translate(46.1059,229.158)"
             id="g4207">
            <path
               inkscape:connector-curvature="0"
               id="path4209"
               style="fill:#ffffff;fill-opacity:1;fill-rule:nonzero;stroke:none"
               d="m 0,0 c -4.455,0 -8.079,-3.624 -8.079,-8.079 0,-4.455 3.624,-8.079 8.079,-8.079 4.455,0 8.079,3.624 8.079,8.079 C 8.079,-3.624 4.455,0 0,0" />
          </g>
        </g>
      </g>
      <g
         id="g4211">
        <g
           id="g4213">
          <g
             id="g4219">
            <g
               id="g4221">
              <path
                 inkscape:connector-curvature="0"
                 id="path4235"
                 style="fill:url(#radialGradient4233);stroke:none"
                 d="m 43.774,224.613 c -1.801,0 -3.333,-0.511 -4.273,-0.92 v 0 c -0.32,-0.81 -0.499,-1.691 -0.499,-2.613 v 0 c 0,-2.547 1.34,-4.779 3.353,-6.033 v 0 c 0.766,4.982 2.371,8.122 3.151,9.412 v 0 c -0.591,0.108 -1.165,0.154 -1.713,0.154 v 0 c -0.006,0 -0.012,0 -0.019,0" />
            </g>
          </g>
        </g>
      </g>
      <g
         id="g4237">
        <g
           id="g4239">
          <g
             id="g4245">
            <g
               id="g4247">
              <path
                 inkscape:connector-curvature="0"
                 id="path4261"
                 style="fill:url(#radialGradient4259);stroke:none"
                 d="m 44.449,214.171 c 0.532,-0.127 1.087,-0.196 1.657,-0.196 v 0 c 3.182,0 5.874,2.092 6.779,4.976 v 0 c -0.285,0.606 -0.697,1.198 -1.123,1.705 v 0 c -0.393,0.468 -0.792,0.865 -1.097,1.148 v 0 c -1.647,-3.705 -4.459,-6.285 -6.216,-7.633" />
            </g>
          </g>
        </g>
      </g>
      <g
         id="g4263">
        <g
           id="g4265">
          <g
             id="g4271">
            <g
               id="g4273">
              <path
                 inkscape:connector-curvature="0"
                 id="path4285"
                 style="fill:url(#radialGradient4283);stroke:none"
                 d="m 40.267,225.123 c 0.959,0.305 2.165,0.559 3.526,0.56 v 0 c 0.857,0 1.773,-0.101 2.722,-0.356 v 0 l 0.768,-0.206 -0.479,-0.634 c 0,0 -0.007,-0.007 -0.024,-0.032 v 0 c -0.019,-0.026 -0.047,-0.066 -0.083,-0.119 v 0 c -0.073,-0.109 -0.181,-0.275 -0.315,-0.498 v 0 c -0.266,-0.447 -0.634,-1.125 -1.03,-2.034 v 0 c -0.708,-1.624 -1.503,-3.989 -1.965,-7.09 v 0 c 0.522,0.381 1.194,0.911 1.923,1.583 v 0 c 1.639,1.515 3.547,3.745 4.645,6.59 v 0 l 0.262,0.675 0.569,-0.447 c 0.015,-0.013 0.719,-0.566 1.5,-1.433 v 0 c 0.3,-0.334 0.612,-0.715 0.902,-1.132 v 0 c 0.013,0.176 0.022,0.35 0.022,0.53 v 0 c 0,3.922 -3.181,7.103 -7.104,7.103 v 0 c -2.42,0 -4.556,-1.211 -5.839,-3.06" />
            </g>
          </g>
        </g>
      </g>
    </g>
  </g>
</svg>
