<?xml version="1.0" encoding="UTF-8" standalone="no"?>
<!-- Created with Inkscape (http://www.inkscape.org/) -->

<svg
   xmlns:dc="http://purl.org/dc/elements/1.1/"
   xmlns:cc="http://creativecommons.org/ns#"
   xmlns:rdf="http://www.w3.org/1999/02/22-rdf-syntax-ns#"
   xmlns:svg="http://www.w3.org/2000/svg"
   xmlns="http://www.w3.org/2000/svg"
   xmlns:sodipodi="http://sodipodi.sourceforge.net/DTD/sodipodi-0.dtd"
   xmlns:inkscape="http://www.inkscape.org/namespaces/inkscape"
   width="200"
   height="200"
   viewBox="0 0 52.916666 52.916666"
   version="1.1"
   id="svg6613"
   inkscape:version="0.92.4 (5da689c313, 2019-01-14)"
   sodipodi:docname="brotherhood.svg">
  <defs
     id="defs6607">
    <clipPath
       clipPathUnits="userSpaceOnUse"
       id="clipPath2124">
      <path
         d="M 0,0 H 576 V 576 H 0 Z"
         id="path2122"
         inkscape:connector-curvature="0" />
    </clipPath>
  </defs>
  <sodipodi:namedview
     id="base"
     pagecolor="#ffffff"
     bordercolor="#666666"
     borderopacity="1.0"
     inkscape:pageopacity="0.0"
     inkscape:pageshadow="2"
     inkscape:zoom="1.979899"
     inkscape:cx="144.46249"
     inkscape:cy="193.1392"
     inkscape:document-units="mm"
     inkscape:current-layer="layer1"
     showgrid="false"
     units="px"
     inkscape:window-width="1842"
     inkscape:window-height="1057"
     inkscape:window-x="70"
     inkscape:window-y="-8"
     inkscape:window-maximized="1" />
  <metadata
     id="metadata6610">
    <rdf:RDF>
      <cc:Work
         rdf:about="">
        <dc:format>image/svg+xml</dc:format>
        <dc:type
           rdf:resource="http://purl.org/dc/dcmitype/StillImage" />
        <dc:title></dc:title>
      </cc:Work>
    </rdf:RDF>
  </metadata>
  <g
     inkscape:label="Layer 1"
     inkscape:groupmode="layer"
     id="layer1"
     transform="translate(0,-244.08334)">
    <g
       id="g2609"
       transform="matrix(1.8112062,0,0,-1.8112062,-98.341498,471.63926)">
      <g
         id="g2118">
        <g
           clip-path="url(#clipPath2124)"
           id="g2120">
          <g
             transform="translate(66.3996,106.0218)"
             id="g2126">
            <path
               inkscape:connector-curvature="0"
               id="path2128"
               style="fill:#d9172a;fill-opacity:1;fill-rule:nonzero;stroke:none"
               d="m 0,0 c 0,-0.043 0.08,-3.515 0.08,-3.515 0,0 -3.05,2.305 -3.593,3.688 -0.543,1.383 -0.559,2.074 -0.463,2.549 0.095,0.476 0.239,2.42 0.127,3.875 -0.112,1.454 -0.271,4.969 2.316,6.77 0.831,0.578 1.322,0.861 2.044,1.094 1.527,0.494 3.115,0.367 3.841,0.23 1.07,-0.201 2.26,-0.72 2.93,-1.411 C 9.325,11.175 8.879,9.016 8.624,6.712 8.485,5.457 8.802,4.502 8.815,4.047 8.847,2.982 8.879,2.477 8.991,2.204 9.103,1.93 9.247,1.527 9.263,1.455 9.278,1.383 7.41,-1.686 6.771,-2.276 6.133,-2.866 4.983,-3.515 4.983,-3.515 L 5.126,1.08 c 0,0 1.693,1.167 2.156,1.7 C 7.745,3.313 8.208,5.243 8.144,5.56 8.081,5.876 6.755,6.683 6.116,6.352 5.478,6.02 2.715,4.307 2.715,4.307 c 0,0 -3.449,2.463 -4.296,2.261 C -2.428,6.366 -3.114,5.185 -3.226,4.667 -3.338,4.148 -2.012,2.737 -1.469,2.117 -0.926,1.498 -0.112,1.21 -0.08,0.98 -0.048,0.749 0,0 0,0" />
          </g>
          <g
             transform="translate(66.7661,101.9476)"
             id="g2130">
            <path
               inkscape:connector-curvature="0"
               id="path2132"
               style="fill:#231f20;fill-opacity:1;fill-rule:nonzero;stroke:none"
               d="m 0,0 -0.452,0.341 c -0.127,0.096 -3.118,2.368 -3.683,3.806 -0.598,1.524 -0.569,2.246 -0.476,2.704 0.091,0.455 0.233,2.363 0.123,3.799 -0.258,3.353 0.561,5.713 2.432,7.016 0.811,0.564 1.335,0.877 2.116,1.13 0.752,0.243 1.586,0.366 2.477,0.366 0.714,0 1.246,-0.08 1.499,-0.127 0.965,-0.182 2.28,-0.669 3.076,-1.49 C 9.088,15.509 8.846,13.456 8.59,11.284 8.57,11.108 8.549,10.933 8.529,10.756 8.436,9.915 8.557,9.216 8.645,8.706 8.686,8.471 8.718,8.285 8.723,8.13 8.752,7.13 8.783,6.613 8.878,6.382 8.981,6.13 9.141,5.691 9.163,5.588 9.186,5.484 9.206,5.394 8.126,3.71 7.628,2.934 6.957,1.937 6.591,1.597 5.936,0.992 4.799,0.348 4.751,0.321 L 4.327,0.083 4.491,5.301 4.604,5.38 C 5.067,5.699 6.348,6.618 6.709,7.034 7.102,7.486 7.534,9.25 7.51,9.569 7.41,9.738 6.682,10.231 6.114,10.231 6.017,10.231 5.937,10.215 5.876,10.183 5.254,9.86 2.52,8.165 2.493,8.148 L 2.338,8.052 2.189,8.158 c -1.203,0.859 -3.36,2.222 -4.025,2.222 -0.026,0 -0.041,-0.003 -0.048,-0.004 -0.693,-0.165 -1.336,-1.204 -1.441,-1.692 -0.042,-0.222 0.46,-0.924 1.494,-2.085 0.074,-0.083 0.142,-0.16 0.201,-0.227 0.263,-0.3 0.605,-0.52 0.879,-0.698 0.328,-0.211 0.544,-0.35 0.576,-0.583 0.033,-0.237 0.08,-0.968 0.082,-0.999 0.001,-0.082 0.053,-2.341 0.08,-3.526 z M 5.029,5.008 4.905,1.051 C 5.289,1.288 5.849,1.657 6.219,1.999 6.757,2.497 8.335,5.035 8.604,5.547 8.559,5.684 8.458,5.96 8.371,6.175 8.245,6.483 8.21,6.951 8.175,8.113 8.172,8.23 8.141,8.408 8.106,8.613 8.077,8.777 8.044,8.967 8.016,9.181 7.896,8.42 7.513,7.124 7.122,6.675 6.709,6.199 5.424,5.284 5.029,5.008 M 2.537,18.615 C 1.703,18.615 0.926,18.5 0.229,18.275 -0.487,18.043 -0.977,17.749 -1.743,17.216 -4.306,15.432 -4.032,11.864 -3.942,10.692 -3.831,9.237 -3.966,7.28 -4.075,6.743 -4.152,6.358 -4.171,5.738 -3.625,4.347 -3.238,3.362 -1.43,1.824 -0.574,1.134 -0.598,2.172 -0.64,4.037 -0.64,4.074 v 0 c -0.001,0 -0.043,0.653 -0.073,0.905 C -0.766,5.033 -0.921,5.133 -1.047,5.214 -1.335,5.4 -1.728,5.653 -2.042,6.011 -2.1,6.077 -2.167,6.153 -2.24,6.235 c -1.134,1.274 -1.728,2.061 -1.62,2.564 0.132,0.614 0.884,1.879 1.849,2.109 0.054,0.013 0.112,0.02 0.175,0.02 0.964,0 3.497,-1.73 4.194,-2.219 0.597,0.369 2.706,1.669 3.266,1.96 0.139,0.072 0.304,0.109 0.49,0.109 0.621,0 1.54,-0.47 1.84,-0.894 -0.012,0.289 -0.006,0.601 0.031,0.932 0.02,0.178 0.041,0.355 0.061,0.532 0.251,2.128 0.468,3.966 -1.327,5.816 -0.582,0.6 -1.675,1.123 -2.784,1.333 -0.189,0.035 -0.703,0.118 -1.398,0.118" />
          </g>
          <g
             transform="translate(71.5579,105.9354)"
             id="g2134">
            <path
               inkscape:connector-curvature="0"
               id="path2136"
               style="fill:#7358b1;fill-opacity:1;fill-rule:nonzero;stroke:none"
               d="M 0,0 C 0,0 0.495,0 0.862,0.043 1.23,0.086 1.613,0.245 1.884,0.403 2.156,0.562 2.268,0.691 2.22,0.677 2.172,0.663 1.565,0.619 1.166,0.663 0.766,0.706 0.559,0.85 0.559,0.85 c 0,0 0.639,0.403 1.23,0.994 0.59,0.59 1.006,1.21 1.006,1.21 0,0 0.047,-0.188 0.08,-0.332 0.031,-0.144 0.031,-0.403 0.031,-0.403 0,0 0.815,1.512 0.815,2.449 0,0.936 -0.367,1.757 -0.799,2.088 C 2.491,7.187 2.188,7.144 2.188,7.144 l 1.086,0.85 C 3.274,7.994 1.948,7.619 1.15,7.23 0.351,6.841 -0.735,6.208 -0.735,6.208 l 0.799,1.426 c 0,0 -1.022,-0.764 -1.517,-1.239 -0.495,-0.475 -1.022,-0.893 -1.022,-0.893 0,0 -1.39,1.311 -1.997,1.642 -0.606,0.331 -0.814,0.49 -0.814,0.49 0,0 0.367,-0.562 0.559,-0.821 0.191,-0.26 0.399,-0.663 0.399,-0.663 0,0 -1.651,0.965 -2.635,1.412 -0.571,0.259 -1.311,0.491 -1.311,0.491 l 1.199,-0.938 c 0,0 -0.815,-0.101 -1.342,-0.936 C -8.944,5.343 -8.992,4.22 -8.72,3.515 c 0.272,-0.706 0.512,-1.009 0.655,-1.196 0.144,-0.187 0.224,-0.288 0.224,-0.288 0,0 -0.128,0.85 -0.016,0.835 0.112,-0.014 0.415,-0.446 0.702,-0.734 0.288,-0.288 1.374,-1.239 1.374,-1.239 0,0 -0.383,-0.173 -0.815,-0.144 -0.431,0.029 -0.543,0.029 -0.686,0.072 -0.144,0.043 -0.32,0.086 -0.32,0.086 0,0 0.491,-0.521 0.975,-0.706 0.526,-0.201 1.245,-0.259 1.245,-0.259 l 0.048,-2.708 c 0,0 -0.383,0.447 -0.511,0.663 -0.128,0.216 -0.016,0.619 -0.016,0.619 l -0.591,0.749 c 0,0 0.112,-0.475 0.192,-0.864 0.08,-0.389 0.271,-0.648 0.415,-0.893 0.144,-0.245 0.495,-0.619 0.495,-0.619 0,0 -1.453,0.864 -2.284,2.074 -0.83,1.21 -1.229,2.564 -1.373,2.924 -0.144,0.36 -0.176,0.533 -0.176,0.533 L -9.39,1.714 c 0,0 0.606,-2.391 1.868,-3.745 1.262,-1.354 1.901,-1.585 2.316,-1.772 0.415,-0.187 0.702,-0.288 0.702,-0.288 L -4.536,1.973 -5.142,1.671 c 0,0 -1.949,1.311 -2.3,2.362 -0.351,1.052 -0.032,1.743 0.399,1.93 0.431,0.187 1.246,-0.187 1.901,-0.504 0.654,-0.317 2.044,-1.282 2.619,-1.901 0,0 1.485,1.397 2.443,1.93 C 0.878,6.021 1.665,6.267 2.076,6.164 2.407,6.082 2.81,5.459 2.555,4.667 2.3,3.875 1.804,2.895 1.022,2.362 0.24,1.829 0.096,1.671 -0.064,1.728 -0.224,1.786 -0.575,1.873 -0.575,1.873 l -0.096,-5.877 c 0,0 2.332,1.411 3.306,2.664 C 3.609,-0.086 4.12,1.397 4.104,1.541 4.088,1.685 3.961,1.815 3.913,1.714 3.865,1.613 3.625,0.893 3.258,0.389 2.891,-0.115 1.581,-1.815 0.958,-2.319 L 0.351,-2.852 c 0,0 0.495,1.066 0.591,1.498 0.096,0.432 0.096,0.562 0.096,0.562 0,0 -0.176,-0.303 -0.351,-0.49 -0.176,-0.187 -0.336,-0.303 -0.336,-0.303 0,0 0.181,-0.245 0.069,-0.605 C 0.309,-2.549 0,-2.938 0,-2.938 Z" />
          </g>
          <g
             transform="translate(63.2842,113.9887)"
             id="g2138">
            <path
               inkscape:connector-curvature="0"
               id="path2140"
               style="fill:#231f20;fill-opacity:1;fill-rule:nonzero;stroke:none"
               d="m 0,0 c 0,0 0.74,-0.232 1.311,-0.492 0.983,-0.446 2.635,-1.411 2.635,-1.411 0,0 -0.208,0.403 -0.4,0.662 -0.191,0.26 -0.558,0.821 -0.558,0.821 0,0 0.207,-0.158 0.814,-0.489 0.607,-0.332 1.996,-1.643 1.996,-1.643 0,0 0.527,0.418 1.022,0.894 0.495,0.475 1.518,1.238 1.518,1.238 L 7.539,-1.846 c 0,0 1.086,0.634 1.884,1.023 0.799,0.389 2.124,0.764 2.124,0.764 l -1.086,-0.85 c 0,0 0.013,0.001 0.038,0.001 0.093,0 0.355,-0.027 0.697,-0.289 0.431,-0.332 0.799,-1.153 0.799,-2.089 0,-0.936 -0.815,-2.448 -0.815,-2.448 0,0 0,0.259 -0.032,0.403 -0.032,0.144 -0.08,0.331 -0.08,0.331 0,0 -0.415,-0.619 -1.006,-1.21 -0.59,-0.59 -1.229,-0.994 -1.229,-0.994 0,0 0.207,-0.143 0.606,-0.187 0.127,-0.013 0.275,-0.018 0.418,-0.018 0.31,0 0.604,0.023 0.637,0.033 0.002,0 0.004,0.001 0.006,0.001 0.03,0 -0.084,-0.125 -0.342,-0.275 C 9.887,-7.808 9.503,-7.967 9.136,-8.01 8.769,-8.053 8.274,-8.053 8.274,-8.053 v -2.939 c 0,0 0.308,0.389 0.42,0.749 0.112,0.36 -0.069,0.605 -0.069,0.605 0,0 0.16,0.115 0.335,0.303 0.176,0.187 0.352,0.489 0.352,0.489 0,0 0,-0.129 -0.096,-0.561 -0.096,-0.432 -0.591,-1.498 -0.591,-1.498 l 0.607,0.533 c 0.623,0.504 1.932,2.204 2.299,2.708 0.368,0.504 0.607,1.224 0.655,1.325 0.012,0.025 0.029,0.035 0.048,0.035 0.056,0 0.132,-0.1 0.144,-0.208 0.016,-0.144 -0.495,-1.628 -1.469,-2.881 -0.975,-1.253 -3.306,-2.665 -3.306,-2.665 l 0.096,5.877 c 0,0 0.351,-0.086 0.511,-0.144 0.02,-0.007 0.04,-0.011 0.061,-0.011 0.145,0 0.342,0.18 1.025,0.645 0.782,0.533 1.277,1.512 1.533,2.305 0.255,0.791 -0.148,1.414 -0.479,1.497 -0.062,0.015 -0.131,0.023 -0.208,0.023 -0.441,0 -1.133,-0.246 -1.948,-0.7 C 7.235,-3.099 5.75,-4.496 5.75,-4.496 5.175,-3.876 3.786,-2.911 3.131,-2.595 2.598,-2.336 1.959,-2.04 1.507,-2.04 1.404,-2.04 1.311,-2.056 1.231,-2.09 0.8,-2.278 0.48,-2.969 0.832,-4.02 1.183,-5.072 3.131,-6.382 3.131,-6.382 l 0.607,0.302 0.032,-6.064 c 0,0 -0.287,0.101 -0.703,0.288 -0.415,0.187 -1.054,0.418 -2.315,1.772 -1.262,1.354 -1.869,3.745 -1.869,3.745 l 0.208,0.706 c 0,0 0.032,-0.173 0.176,-0.534 0.143,-0.36 0.543,-1.714 1.373,-2.923 0.831,-1.211 2.284,-2.075 2.284,-2.075 0,0 -0.352,0.375 -0.495,0.62 -0.144,0.244 -0.336,0.504 -0.416,0.893 -0.079,0.389 -0.191,0.864 -0.191,0.864 l 0.591,-0.749 c 0,0 -0.112,-0.403 0.016,-0.619 0.127,-0.217 0.511,-0.663 0.511,-0.663 l -0.048,2.708 c 0,0 -0.719,0.058 -1.246,0.259 -0.483,0.185 -0.974,0.706 -0.974,0.706 0,0 0.176,-0.043 0.319,-0.086 0.144,-0.044 0.256,-0.044 0.687,-0.072 0.033,-0.003 0.066,-0.004 0.099,-0.004 0.389,0 0.716,0.148 0.716,0.148 0,0 -1.086,0.95 -1.374,1.238 -0.287,0.289 -0.591,0.721 -0.703,0.735 -0.001,0 -0.002,0 -0.002,0 -0.107,0 0.018,-0.835 0.018,-0.835 0,0 -0.079,0.1 -0.223,0.288 -0.144,0.187 -0.384,0.489 -0.656,1.195 -0.271,0.706 -0.223,1.829 0.304,2.665 0.527,0.835 1.342,0.936 1.342,0.936 z M 10.074,1.561 8.01,0.019 C 7.967,-0.013 6.955,-0.77 6.441,-1.263 6.223,-1.472 5.998,-1.671 5.818,-1.824 5.346,-1.395 4.533,-0.685 4.064,-0.429 3.519,-0.131 3.319,0.016 3.317,0.018 l -0.63,-0.59 C 2.289,-0.359 1.877,-0.147 1.537,0.007 0.943,0.277 0.196,0.512 0.164,0.522 L -0.337,-0.431 0.139,-0.804 C -0.117,-0.98 -0.383,-1.229 -0.606,-1.582 -1.158,-2.457 -1.242,-3.51 -1.085,-4.287 l -0.349,-1.192 -0.208,-0.706 -0.042,-0.144 0.037,-0.145 c 0.026,-0.103 0.656,-2.543 1.998,-3.984 1.261,-1.352 1.956,-1.66 2.415,-1.863 l 0.076,-0.034 c 0.432,-0.195 0.734,-0.301 0.747,-0.306 L 4.322,-12.918 4.318,-12.141 4.286,-6.077 4.281,-5.198 3.494,-5.59 3.179,-5.747 c -0.696,0.508 -1.64,1.339 -1.828,1.9 -0.25,0.748 -0.06,1.186 0.098,1.254 v 0 c 0,0 0.018,0.005 0.058,0.005 0.353,0 1.051,-0.337 1.386,-0.5 0.623,-0.301 1.951,-1.236 2.456,-1.78 l 0.375,-0.404 0.401,0.377 c 0.015,0.014 1.448,1.357 2.335,1.851 1.052,0.585 1.553,0.63 1.682,0.63 0.024,0 0.042,-10e-4 0.054,-0.003 0.078,-0.064 0.255,-0.358 0.111,-0.801 C 10.168,-3.65 9.761,-4.712 8.987,-5.238 8.788,-5.374 8.63,-5.486 8.502,-5.576 8.406,-5.644 8.308,-5.713 8.238,-5.759 8.062,-5.707 7.859,-5.656 7.83,-5.649 l -0.668,0.164 -0.011,-0.687 -0.096,-5.877 -0.016,-0.99 0.847,0.513 c 0.099,0.06 2.43,1.479 3.455,2.797 0.922,1.187 1.627,2.857 1.581,3.277 -0.038,0.342 -0.306,0.696 -0.688,0.696 -0.232,0 -0.44,-0.133 -0.542,-0.348 -0.018,-0.037 -0.035,-0.081 -0.063,-0.153 -0.084,-0.219 -0.283,-0.732 -0.54,-1.085 -0.012,-0.016 -0.023,-0.032 -0.035,-0.049 0,0.05 -0.007,0.102 -0.021,0.156 l -0.013,0.048 0.642,1.193 c 0.09,0.167 0.88,1.664 0.88,2.708 0,1.042 -0.405,2.054 -1.009,2.52 l 0.352,0.275 -0.486,0.958 C 11.342,0.452 10.016,0.075 9.184,-0.331 9.108,-0.368 9.029,-0.407 8.95,-0.447 Z m -10.14,-7.962 c -0.021,0.057 -0.04,0.111 -0.057,0.159 -0.01,0.027 -0.019,0.052 -0.027,0.077 0.099,-0.129 0.153,-0.198 0.153,-0.198 l 0.055,-0.068 z m 10.244,-0.453 c 0.09,0.081 0.181,0.167 0.271,0.257 0.063,0.063 0.125,0.127 0.184,0.189 V -6.829 L 10.5,-6.828 c -0.038,0 -0.076,-0.003 -0.113,-0.011 -0.034,-0.004 -0.11,-0.01 -0.209,-0.015 m -9.092,0.165 -0.008,0.055 c 0.028,-0.025 0.057,-0.052 0.086,-0.078 -0.005,10e-4 -0.01,0.003 -0.015,0.004 -0.021,0.006 -0.042,0.012 -0.063,0.019 m 0.246,-2.409 c -0.085,0.102 -0.166,0.209 -0.241,0.317 -0.237,0.346 -0.439,0.709 -0.608,1.056 0.156,-0.142 0.383,-0.329 0.638,-0.478 l 0.168,-0.711 c 0,-10e-4 0.017,-0.074 0.043,-0.184 m 8.527,0.706 c 0.263,0.096 0.469,0.207 0.575,0.269 0.039,0.023 0.077,0.046 0.115,0.07 -0.216,-0.276 -0.457,-0.576 -0.693,-0.857 0.002,0.027 0.003,0.049 0.003,0.064 z" />
          </g>
          <g
             transform="translate(66.3996,106.0218)"
             id="g2142">
            <path
               inkscape:connector-curvature="0"
               id="path2144"
               style="fill:#d9172a;fill-opacity:1;fill-rule:nonzero;stroke:none"
               d="m 0,0 c 0,-0.043 0.08,-3.515 0.08,-3.515 0,0 -3.05,2.305 -3.593,3.688 -0.543,1.383 -0.559,2.074 -0.463,2.549 0.095,0.476 0.239,2.42 0.127,3.875 -0.112,1.454 -0.271,4.969 2.316,6.77 0.831,0.578 1.322,0.861 2.044,1.094 1.527,0.494 3.115,0.367 3.841,0.23 1.07,-0.201 2.26,-0.72 2.93,-1.411 C 9.325,11.175 8.879,9.016 8.624,6.712 8.485,5.457 8.802,4.502 8.815,4.047 8.847,2.982 8.879,2.477 8.991,2.204 9.103,1.93 9.247,1.527 9.263,1.455 9.278,1.383 7.41,-1.686 6.771,-2.276 6.133,-2.866 4.983,-3.515 4.983,-3.515 L 5.126,1.08 c 0,0 1.693,1.167 2.156,1.7 C 7.745,3.313 8.208,5.243 8.144,5.56 8.081,5.876 6.755,6.683 6.116,6.352 5.478,6.02 2.715,4.307 2.715,4.307 c 0,0 -3.449,2.463 -4.296,2.261 C -2.428,6.366 -3.114,5.185 -3.226,4.667 -3.338,4.148 -2.012,2.737 -1.469,2.117 -0.926,1.498 -0.112,1.21 -0.08,0.98 -0.048,0.749 0,0 0,0" />
          </g>
          <g
             transform="translate(71.5579,105.9354)"
             id="g2146">
            <path
               inkscape:connector-curvature="0"
               id="path2148"
               style="fill:#7358b1;fill-opacity:1;fill-rule:nonzero;stroke:none"
               d="M 0,0 C 0,0 0.495,0 0.862,0.043 1.23,0.086 1.613,0.245 1.884,0.403 2.156,0.562 2.268,0.691 2.22,0.677 2.172,0.663 1.565,0.619 1.166,0.663 0.766,0.706 0.559,0.85 0.559,0.85 c 0,0 0.639,0.403 1.23,0.994 0.59,0.59 1.006,1.21 1.006,1.21 0,0 0.047,-0.188 0.08,-0.332 0.031,-0.144 0.031,-0.403 0.031,-0.403 0,0 0.815,1.512 0.815,2.449 0,0.936 -0.367,1.757 -0.799,2.088 C 2.491,7.187 2.188,7.144 2.188,7.144 l 1.086,0.85 C 3.274,7.994 1.948,7.619 1.15,7.23 0.351,6.841 -0.735,6.208 -0.735,6.208 l 0.799,1.426 c 0,0 -1.022,-0.764 -1.517,-1.239 -0.495,-0.475 -1.022,-0.893 -1.022,-0.893 0,0 -1.39,1.311 -1.997,1.642 -0.606,0.331 -0.814,0.49 -0.814,0.49 0,0 0.367,-0.562 0.559,-0.821 0.191,-0.26 0.399,-0.663 0.399,-0.663 0,0 -1.651,0.965 -2.635,1.412 -0.571,0.259 -1.311,0.491 -1.311,0.491 l 1.199,-0.938 c 0,0 -0.815,-0.101 -1.342,-0.936 C -8.944,5.343 -8.992,4.22 -8.72,3.515 c 0.272,-0.706 0.512,-1.009 0.655,-1.196 0.144,-0.187 0.224,-0.288 0.224,-0.288 0,0 -0.128,0.85 -0.016,0.835 0.112,-0.014 0.415,-0.446 0.702,-0.734 0.288,-0.288 1.374,-1.239 1.374,-1.239 0,0 -0.383,-0.173 -0.815,-0.144 -0.431,0.029 -0.543,0.029 -0.686,0.072 -0.144,0.043 -0.32,0.086 -0.32,0.086 0,0 0.491,-0.521 0.975,-0.706 0.526,-0.201 1.245,-0.259 1.245,-0.259 l 0.048,-2.708 c 0,0 -0.383,0.447 -0.511,0.663 -0.128,0.216 -0.016,0.619 -0.016,0.619 l -0.591,0.749 c 0,0 0.112,-0.475 0.192,-0.864 0.08,-0.389 0.271,-0.648 0.415,-0.893 0.144,-0.245 0.495,-0.619 0.495,-0.619 0,0 -1.453,0.864 -2.284,2.074 -0.83,1.21 -1.229,2.564 -1.373,2.924 -0.144,0.36 -0.176,0.533 -0.176,0.533 L -9.39,1.714 c 0,0 0.606,-2.391 1.868,-3.745 1.262,-1.354 1.901,-1.585 2.316,-1.772 0.415,-0.187 0.702,-0.288 0.702,-0.288 L -4.536,1.973 -5.142,1.671 c 0,0 -1.949,1.311 -2.3,2.362 -0.351,1.052 -0.032,1.743 0.399,1.93 0.431,0.187 1.246,-0.187 1.901,-0.504 0.654,-0.317 2.044,-1.282 2.619,-1.901 0,0 1.485,1.397 2.443,1.93 C 0.878,6.021 1.665,6.267 2.076,6.164 2.407,6.082 2.81,5.459 2.555,4.667 2.3,3.875 1.804,2.895 1.022,2.362 0.24,1.829 0.096,1.671 -0.064,1.728 -0.224,1.786 -0.575,1.873 -0.575,1.873 l -0.096,-5.877 c 0,0 2.332,1.411 3.306,2.664 C 3.609,-0.086 4.12,1.397 4.104,1.541 4.088,1.685 3.961,1.815 3.913,1.714 3.865,1.613 3.625,0.893 3.258,0.389 2.891,-0.115 1.581,-1.815 0.958,-2.319 L 0.351,-2.852 c 0,0 0.495,1.066 0.591,1.498 0.096,0.432 0.096,0.562 0.096,0.562 0,0 -0.176,-0.303 -0.351,-0.49 -0.176,-0.187 -0.336,-0.303 -0.336,-0.303 0,0 0.181,-0.245 0.069,-0.605 C 0.309,-2.549 0,-2.938 0,-2.938 Z" />
          </g>
          <g
             transform="translate(63.2842,113.9887)"
             id="g2150">
            <path
               inkscape:connector-curvature="0"
               id="path2152"
               style="fill:#231f20;fill-opacity:1;fill-rule:nonzero;stroke:none"
               d="m 0,0 c 0,0 0.74,-0.232 1.311,-0.492 0.983,-0.446 2.635,-1.411 2.635,-1.411 0,0 -0.208,0.403 -0.4,0.662 -0.191,0.26 -0.558,0.821 -0.558,0.821 0,0 0.207,-0.158 0.814,-0.489 0.607,-0.332 1.996,-1.643 1.996,-1.643 0,0 0.527,0.418 1.022,0.894 0.495,0.475 1.518,1.238 1.518,1.238 L 7.539,-1.846 c 0,0 1.086,0.634 1.884,1.023 0.799,0.389 2.124,0.764 2.124,0.764 l -1.086,-0.85 c 0,0 0.013,0.001 0.038,0.001 0.093,0 0.355,-0.027 0.697,-0.289 0.431,-0.332 0.799,-1.153 0.799,-2.089 0,-0.936 -0.815,-2.448 -0.815,-2.448 0,0 0,0.259 -0.032,0.403 -0.032,0.144 -0.08,0.331 -0.08,0.331 0,0 -0.415,-0.619 -1.006,-1.21 -0.59,-0.59 -1.229,-0.994 -1.229,-0.994 0,0 0.207,-0.143 0.606,-0.187 0.127,-0.013 0.275,-0.018 0.418,-0.018 0.31,0 0.604,0.023 0.637,0.033 0.002,0 0.004,0.001 0.006,0.001 0.03,0 -0.084,-0.125 -0.342,-0.275 C 9.887,-7.808 9.503,-7.967 9.136,-8.01 8.769,-8.053 8.274,-8.053 8.274,-8.053 v -2.939 c 0,0 0.308,0.389 0.42,0.749 0.112,0.36 -0.069,0.605 -0.069,0.605 0,0 0.16,0.115 0.335,0.303 0.176,0.187 0.352,0.489 0.352,0.489 0,0 0,-0.129 -0.096,-0.561 -0.096,-0.432 -0.591,-1.498 -0.591,-1.498 l 0.607,0.533 c 0.623,0.504 1.932,2.204 2.299,2.708 0.368,0.504 0.607,1.224 0.655,1.325 0.012,0.025 0.029,0.035 0.048,0.035 0.056,0 0.132,-0.1 0.144,-0.208 0.016,-0.144 -0.495,-1.628 -1.469,-2.881 -0.975,-1.253 -3.306,-2.665 -3.306,-2.665 l 0.096,5.877 c 0,0 0.351,-0.086 0.511,-0.144 0.02,-0.007 0.04,-0.011 0.061,-0.011 0.145,0 0.342,0.18 1.025,0.645 0.782,0.533 1.277,1.512 1.533,2.305 0.255,0.791 -0.148,1.414 -0.479,1.497 -0.062,0.015 -0.131,0.023 -0.208,0.023 -0.441,0 -1.133,-0.246 -1.948,-0.7 C 7.235,-3.099 5.75,-4.496 5.75,-4.496 5.175,-3.876 3.786,-2.911 3.131,-2.595 2.598,-2.336 1.959,-2.04 1.507,-2.04 1.404,-2.04 1.311,-2.056 1.231,-2.09 0.8,-2.278 0.48,-2.969 0.832,-4.02 1.183,-5.072 3.131,-6.382 3.131,-6.382 l 0.607,0.302 0.032,-6.064 c 0,0 -0.287,0.101 -0.703,0.288 -0.415,0.187 -1.054,0.418 -2.315,1.772 -1.262,1.354 -1.869,3.745 -1.869,3.745 l 0.208,0.706 c 0,0 0.032,-0.173 0.176,-0.534 0.143,-0.36 0.543,-1.714 1.373,-2.923 0.831,-1.211 2.284,-2.075 2.284,-2.075 0,0 -0.352,0.375 -0.495,0.62 -0.144,0.244 -0.336,0.504 -0.416,0.893 -0.079,0.389 -0.191,0.864 -0.191,0.864 l 0.591,-0.749 c 0,0 -0.112,-0.403 0.016,-0.619 0.127,-0.217 0.511,-0.663 0.511,-0.663 l -0.048,2.708 c 0,0 -0.719,0.058 -1.246,0.259 -0.483,0.185 -0.974,0.706 -0.974,0.706 0,0 0.176,-0.043 0.319,-0.086 0.144,-0.044 0.256,-0.044 0.687,-0.072 0.033,-0.003 0.066,-0.004 0.099,-0.004 0.389,0 0.716,0.148 0.716,0.148 0,0 -1.086,0.95 -1.374,1.238 -0.287,0.289 -0.591,0.721 -0.703,0.735 -0.001,0 -0.002,0 -0.002,0 -0.107,0 0.018,-0.835 0.018,-0.835 0,0 -0.079,0.1 -0.223,0.288 -0.144,0.187 -0.384,0.489 -0.656,1.195 -0.271,0.706 -0.223,1.829 0.304,2.665 0.527,0.835 1.342,0.936 1.342,0.936 z m -0.914,0.481 0.8,-0.627 0.912,-0.713 C 0.485,-0.981 0.039,-1.24 -0.299,-1.776 c -0.574,-0.91 -0.596,-2.112 -0.32,-2.829 0.274,-0.712 0.522,-1.034 0.67,-1.227 l 0.011,-0.015 c 0.145,-0.189 0.226,-0.29 0.226,-0.29 L 0.718,-6.68 0.615,-5.995 C 0.595,-5.86 0.577,-5.708 0.566,-5.577 0.593,-5.609 0.62,-5.64 0.644,-5.669 0.75,-5.793 0.87,-5.934 0.988,-6.052 1.194,-6.258 1.785,-6.783 2.124,-7.083 2.023,-7.105 1.903,-7.123 1.777,-7.123 1.748,-7.123 1.72,-7.122 1.69,-7.12 l -0.197,0.013 c -0.262,0.016 -0.35,0.022 -0.449,0.052 -0.146,0.044 -0.321,0.087 -0.328,0.089 L 0.109,-6.817 0.537,-7.273 C 0.559,-7.295 1.063,-7.827 1.58,-8.024 1.974,-8.175 2.459,-8.248 2.71,-8.278 l 0.035,-2.009 c -0.065,0.086 -0.123,0.167 -0.157,0.225 -0.06,0.101 -0.034,0.344 0.003,0.476 l 0.025,0.09 -0.058,0.073 -0.591,0.749 -0.516,0.654 0.191,-0.81 c 0.001,-0.005 0.112,-0.478 0.19,-0.86 0.055,-0.264 0.154,-0.471 0.258,-0.651 -0.432,0.351 -0.931,0.82 -1.298,1.355 -0.677,0.988 -1.069,2.092 -1.257,2.623 -0.04,0.113 -0.072,0.203 -0.097,0.265 -0.133,0.333 -0.165,0.497 -0.165,0.499 l -0.144,0.747 -0.215,-0.729 -0.208,-0.706 -0.014,-0.049 0.012,-0.049 c 0.026,-0.099 0.633,-2.452 1.913,-3.825 1.209,-1.299 1.863,-1.588 2.296,-1.78 l 0.078,-0.034 c 0.418,-0.189 0.706,-0.29 0.718,-0.294 L 3.956,-12.405 3.955,-12.143 3.923,-6.079 3.921,-5.782 3.656,-5.915 3.147,-6.168 C 2.77,-5.902 1.293,-4.819 1.007,-3.962 0.67,-2.954 1,-2.392 1.305,-2.26 c 0.053,0.023 0.121,0.035 0.202,0.035 0.436,0 1.13,-0.336 1.544,-0.536 0.663,-0.321 2.025,-1.28 2.564,-1.86 l 0.126,-0.137 0.136,0.128 c 0.015,0.014 1.479,1.387 2.406,1.903 0.773,0.43 1.451,0.676 1.859,0.676 0.062,0 0.117,-0.006 0.163,-0.017 0.071,-0.018 0.189,-0.101 0.286,-0.275 0.152,-0.276 0.175,-0.635 0.062,-0.987 C 10.502,-3.797 10.058,-4.948 9.192,-5.538 8.994,-5.673 8.838,-5.783 8.711,-5.873 8.501,-6.021 8.32,-6.148 8.271,-6.151 c -0.166,0.06 -0.513,0.146 -0.528,0.15 l -0.225,0.055 -0.004,-0.232 -0.096,-5.877 -0.005,-0.334 0.285,0.173 c 0.097,0.059 2.372,1.444 3.356,2.71 0.961,1.235 1.533,2.779 1.508,3.014 -0.02,0.18 -0.151,0.373 -0.328,0.373 -0.093,0 -0.173,-0.053 -0.215,-0.141 -0.01,-0.021 -0.027,-0.065 -0.051,-0.127 -0.09,-0.233 -0.301,-0.778 -0.586,-1.169 -0.395,-0.542 -1.659,-2.174 -2.257,-2.665 0.117,0.284 0.229,0.583 0.271,0.774 0.096,0.43 0.1,0.576 0.1,0.601 v 0.685 L 9.152,-8.753 C 9.15,-8.756 8.984,-9.04 8.825,-9.209 8.666,-9.38 8.518,-9.487 8.517,-9.488 L 8.458,-9.53 v 1.294 c 0.182,0.004 0.464,0.015 0.7,0.042 0.492,0.058 0.928,0.288 1.093,0.384 0.485,0.283 0.45,0.411 0.431,0.48 L 10.646,-7.193 10.5,-7.19 c -0.017,0 -0.034,-0.002 -0.05,-0.007 -0.045,-0.007 -0.297,-0.028 -0.593,-0.028 -0.156,0 -0.289,0.006 -0.398,0.018 -0.092,0.01 -0.172,0.026 -0.241,0.044 0.247,0.178 0.618,0.466 0.975,0.823 0.329,0.329 0.604,0.664 0.786,0.903 0.013,-0.105 0.016,-0.243 0.016,-0.297 l 0.001,-0.732 0.347,0.644 c 0.034,0.064 0.836,1.565 0.836,2.536 0,0.922 -0.358,1.841 -0.871,2.235 -0.153,0.118 -0.295,0.194 -0.417,0.243 l 0.77,0.603 0.74,0.579 -0.904,-0.256 C 11.442,0.103 10.146,-0.265 9.342,-0.657 8.918,-0.864 8.409,-1.142 8.025,-1.356 L 8.499,-0.51 8.924,0.249 8.227,-0.272 C 8.185,-0.303 7.19,-1.047 6.692,-1.525 6.351,-1.853 5.99,-2.156 5.807,-2.307 5.454,-1.98 4.412,-1.032 3.891,-0.747 3.31,-0.43 3.101,-0.274 3.099,-0.272 L 2.252,0.367 2.833,-0.521 C 2.848,-0.544 3.205,-1.09 3.398,-1.35 3.409,-1.365 3.419,-1.38 3.43,-1.395 2.857,-1.072 2.001,-0.602 1.387,-0.323 0.813,-0.062 0.086,0.167 0.055,0.176 Z m 9.372,-10.823 v 0.618 l 0.018,-0.024 c 0.004,-0.005 0.122,-0.18 0.042,-0.44 -0.016,-0.051 -0.037,-0.103 -0.06,-0.154" />
          </g>
          <g
             transform="translate(65.2498,116.5473)"
             id="g2154">
            <path
               inkscape:connector-curvature="0"
               id="path2156"
               style="fill:#d9172a;fill-opacity:1;fill-rule:nonzero;stroke:none"
               d="M 0,0 C 0,0 -0.32,0.216 0.064,0.648 0.447,1.08 1.437,1.556 1.437,1.556 1.437,1.556 1.182,1.124 1.134,0.85 1.086,0.576 1.198,0.302 1.293,0.173 1.389,0.043 1.549,-0.13 1.437,-0.259 1.325,-0.389 1.182,-0.691 1.214,-0.879 1.246,-1.066 1.485,-1.613 1.773,-1.873 2.06,-2.132 2.204,-2.161 2.491,-2.247 2.779,-2.333 3.434,-2.319 3.434,-2.319 L 3.338,-2.967 c 0,0 -2.045,0.216 -2.779,0.806 -0.735,0.591 -1.134,1.326 -0.926,1.671 C -0.16,-0.144 0,0 0,0" />
          </g>
          <g
             transform="translate(68.6658,113.479)"
             id="g2158">
            <path
               inkscape:connector-curvature="0"
               id="path2160"
               style="fill:#231f20;fill-opacity:1;fill-rule:nonzero;stroke:none"
               d="m 0,0 -0.088,0.009 c -0.085,0.009 -2.08,0.226 -2.827,0.827 -0.778,0.625 -1.185,1.395 -0.948,1.79 0.134,0.223 0.249,0.365 0.318,0.441 -0.036,0.046 -0.074,0.114 -0.085,0.202 -0.02,0.159 0.05,0.33 0.209,0.509 0.391,0.441 1.361,0.909 1.402,0.929 L -1.744,4.839 -1.899,4.577 C -1.902,4.573 -2.147,4.156 -2.191,3.902 -2.237,3.638 -2.118,3.39 -2.048,3.296 L -2.014,3.251 C -1.913,3.12 -1.761,2.92 -1.909,2.749 -2.007,2.635 -2.138,2.36 -2.111,2.205 -2.083,2.038 -1.853,1.509 -1.582,1.264 -1.331,1.038 -1.207,1.001 -0.96,0.928 L -0.898,0.91 c 0.207,-0.062 0.634,-0.069 0.808,-0.069 0.065,0 0.105,0.001 0.105,0.001 l 0.11,0.002 z M -2.199,4.407 C -2.515,4.237 -3.036,3.934 -3.283,3.655 -3.403,3.52 -3.46,3.394 -3.447,3.292 -3.435,3.196 -3.365,3.145 -3.364,3.145 L -3.267,3.079 -3.354,3 C -3.356,2.998 -3.508,2.858 -3.704,2.531 -3.865,2.263 -3.54,1.575 -2.799,0.98 -2.179,0.481 -0.553,0.253 -0.157,0.203 l 0.067,0.453 c -0.226,0 -0.639,0.01 -0.862,0.077 l -0.06,0.018 c -0.257,0.076 -0.411,0.122 -0.693,0.376 -0.3,0.271 -0.552,0.832 -0.589,1.047 -0.037,0.221 0.121,0.552 0.245,0.695 0.047,0.054 -0.02,0.15 -0.112,0.27 l -0.036,0.047 c -0.092,0.125 -0.233,0.423 -0.176,0.748 0.025,0.145 0.102,0.326 0.174,0.473" />
          </g>
          <g
             transform="translate(72.7456,116.5473)"
             id="g2162">
            <path
               inkscape:connector-curvature="0"
               id="path2164"
               style="fill:#d9172a;fill-opacity:1;fill-rule:nonzero;stroke:none"
               d="m 0,0 c 0,0 0.319,0.216 -0.064,0.648 -0.383,0.432 -1.373,0.908 -1.373,0.908 0,0 0.255,-0.432 0.303,-0.706 0.048,-0.274 -0.064,-0.548 -0.16,-0.677 -0.095,-0.13 -0.255,-0.303 -0.143,-0.432 0.112,-0.13 0.255,-0.432 0.223,-0.62 -0.032,-0.187 -0.271,-0.734 -0.559,-0.994 -0.287,-0.259 -0.43,-0.288 -0.718,-0.374 -0.287,-0.086 -0.941,-0.072 -0.941,-0.072 l 0.096,-0.648 c 0,0 2.042,0.216 2.777,0.806 0.735,0.591 1.134,1.326 0.926,1.671 C 0.16,-0.144 0,0 0,0" />
          </g>
          <g
             transform="translate(69.3308,113.4789)"
             id="g2166">
            <path
               inkscape:connector-curvature="0"
               id="path2168"
               style="fill:#231f20;fill-opacity:1;fill-rule:nonzero;stroke:none"
               d="m 0,0 -0.125,0.844 0.11,-0.002 c 0,0 0.04,-0.001 0.105,-0.001 0.174,0 0.6,0.007 0.807,0.069 L 0.959,0.928 C 1.206,1.001 1.33,1.038 1.58,1.264 1.852,1.509 2.081,2.038 2.11,2.205 2.136,2.36 2.006,2.635 1.908,2.749 1.759,2.92 1.912,3.119 2.013,3.251 L 2.047,3.296 C 2.117,3.39 2.236,3.638 2.19,3.902 2.146,4.156 1.901,4.573 1.898,4.577 L 1.743,4.839 2.017,4.707 C 2.059,4.687 3.029,4.219 3.42,3.778 3.579,3.599 3.649,3.428 3.629,3.269 3.618,3.181 3.58,3.114 3.544,3.067 3.613,2.991 3.728,2.849 3.861,2.626 4.099,2.231 3.692,1.461 2.914,0.836 2.166,0.235 0.173,0.018 0.088,0.009 Z M 0.09,0.656 0.157,0.204 C 0.553,0.253 2.178,0.481 2.798,0.98 3.539,1.575 3.864,2.263 3.703,2.531 3.507,2.858 3.354,2.999 3.353,3 L 3.266,3.079 3.363,3.145 C 3.365,3.146 3.435,3.197 3.446,3.295 3.457,3.397 3.401,3.521 3.282,3.655 3.035,3.934 2.514,4.237 2.198,4.407 2.27,4.26 2.347,4.079 2.372,3.934 2.429,3.609 2.288,3.311 2.195,3.186 L 2.159,3.139 C 2.068,3.019 2.001,2.923 2.047,2.869 2.171,2.726 2.33,2.396 2.292,2.174 2.255,1.959 2.004,1.398 1.704,1.127 1.423,0.873 1.268,0.827 1.011,0.751 L 0.951,0.733 C 0.729,0.666 0.316,0.656 0.09,0.656" />
          </g>
          <g
             transform="translate(69.023,113.8174)"
             id="g2170">
            <path
               inkscape:connector-curvature="0"
               id="path2172"
               style="fill:#231f20;fill-opacity:1;fill-rule:nonzero;stroke:none"
               d="m 0,0 c -0.898,0 -2.307,0.404 -2.81,0.815 -0.525,0.429 -0.695,1.267 -0.591,1.873 0.098,0.574 0.789,1.522 1.013,1.674 L -2.284,4.209 C -2.454,4.094 -3.128,3.193 -3.219,2.657 -3.314,2.103 -3.163,1.342 -2.693,0.958 -2.208,0.561 -0.75,0.157 0.088,0.186 0.93,0.215 2.901,1.023 3.118,1.637 3.355,2.306 3.262,3.01 3.047,3.358 2.818,3.729 2.233,4.209 2.227,4.214 L 2.344,4.357 C 2.369,4.337 2.959,3.853 3.204,3.455 3.435,3.081 3.561,2.333 3.293,1.576 3.031,0.837 0.935,0.03 0.095,0.002 0.064,0.001 0.032,0 0,0" />
          </g>
        </g>
      </g>
      <g
         transform="translate(69.1016,111.9503)"
         id="g2174">
        <path
           inkscape:connector-curvature="0"
           id="path2176"
           style="fill:#d9172a;fill-opacity:1;fill-rule:nonzero;stroke:none"
           d="M 0,0 -1.246,1.08 -1.326,3.284 -0.08,3.688 1.278,3.342 V 1.224 Z" />
      </g>
      <g
         transform="translate(69.1046,111.8254)"
         id="g2178">
        <path
           inkscape:connector-curvature="0"
           id="path2180"
           style="fill:#231f20;fill-opacity:1;fill-rule:nonzero;stroke:none"
           d="m 0,0 -1.34,1.162 -0.084,2.314 1.338,0.433 1.453,-0.37 V 1.31 Z M -1.158,1.249 -0.006,0.25 1.182,1.389 V 3.395 L -0.08,3.716 -1.234,3.343 Z" />
      </g>
      <g
         transform="translate(68.9301,115.6356)"
         id="g2182">
        <path
           inkscape:connector-curvature="0"
           id="path2184"
           style="fill:#231f20;fill-opacity:1;fill-rule:nonzero;stroke:none"
           d="m 0,0 0.08,-3.687 0.183,0.003 -0.08,3.689 z" />
      </g>
    </g>
  </g>
</svg>
