<?xml version="1.0" encoding="UTF-8" standalone="no"?>
<!-- Created with Inkscape (http://www.inkscape.org/) -->

<svg
   xmlns:dc="http://purl.org/dc/elements/1.1/"
   xmlns:cc="http://creativecommons.org/ns#"
   xmlns:rdf="http://www.w3.org/1999/02/22-rdf-syntax-ns#"
   xmlns:svg="http://www.w3.org/2000/svg"
   xmlns="http://www.w3.org/2000/svg"
   xmlns:sodipodi="http://sodipodi.sourceforge.net/DTD/sodipodi-0.dtd"
   xmlns:inkscape="http://www.inkscape.org/namespaces/inkscape"
   width="200"
   height="200"
   viewBox="0 0 52.916666 52.916666"
   version="1.1"
   id="svg6613"
   inkscape:version="0.92.2 5c3e80d, 2017-08-06"
   sodipodi:docname="foes-of-asgard.svg">
  <defs
     id="defs6607">
    <clipPath
       clipPathUnits="userSpaceOnUse"
       id="clipPath2240">
      <path
         d="M 0,0 H 576 V 576 H 0 Z"
         id="path2238"
         inkscape:connector-curvature="0" />
    </clipPath>
  </defs>
  <sodipodi:namedview
     id="base"
     pagecolor="#ffffff"
     bordercolor="#666666"
     borderopacity="1.0"
     inkscape:pageopacity="0.0"
     inkscape:pageshadow="2"
     inkscape:zoom="1.979899"
     inkscape:cx="65.418054"
     inkscape:cy="193.1392"
     inkscape:document-units="mm"
     inkscape:current-layer="layer1"
     showgrid="false"
     units="px"
     inkscape:window-width="1680"
     inkscape:window-height="936"
     inkscape:window-x="0"
     inkscape:window-y="1"
     inkscape:window-maximized="1" />
  <metadata
     id="metadata6610">
    <rdf:RDF>
      <cc:Work
         rdf:about="">
        <dc:format>image/svg+xml</dc:format>
        <dc:type
           rdf:resource="http://purl.org/dc/dcmitype/StillImage" />
        <dc:title />
      </cc:Work>
    </rdf:RDF>
  </metadata>
  <g
     inkscape:label="Layer 1"
     inkscape:groupmode="layer"
     id="layer1"
     transform="translate(0,-244.08334)">
    <g
       transform="matrix(1.7970148,0,0,-1.7970148,-527.40265,984.01051)"
       id="g2234">
      <g
         id="g2236"
         clip-path="url(#clipPath2240)">
        <g
           id="g2242"
           transform="translate(311.2267,403.034)">
          <path
             d="M 0,0 C 0.09,0.048 0.116,0.054 0.128,0.07 0.782,0.94 1.59,1.656 2.414,2.355 2.456,2.39 2.516,2.438 2.516,2.481 2.519,2.775 2.519,3.069 2.497,3.362 2.486,3.515 2.371,3.543 2.255,3.455 2.104,3.339 1.946,3.224 1.823,3.081 1.119,2.263 0.567,1.349 0.116,0.372 0.071,0.274 0.051,0.166 0,0 M -6.115,0.021 C -6.157,0.177 -6.171,0.292 -6.217,0.393 -6.676,1.391 -7.218,2.338 -7.944,3.169 -8.042,3.282 -8.168,3.372 -8.289,3.461 -8.41,3.55 -8.512,3.514 -8.529,3.364 -8.554,3.136 -8.578,2.903 -8.559,2.675 -8.548,2.549 -8.474,2.405 -8.383,2.314 -8.1,2.032 -7.783,1.785 -7.503,1.5 -7.047,1.035 -6.609,0.55 -6.115,0.021"
             style="fill:#241700;fill-opacity:1;fill-rule:nonzero;stroke:none"
             id="path2244"
             inkscape:connector-curvature="0" />
        </g>
        <g
           id="g2246"
           transform="translate(311.2267,402.6228)">
          <path
             d="M 0,0 C -0.093,0 -0.186,0.032 -0.261,0.094 -0.39,0.2 -0.442,0.372 -0.393,0.532 c 0.016,0.053 0.029,0.1 0.041,0.143 0.026,0.096 0.051,0.186 0.095,0.28 0.501,1.088 1.08,2.005 1.768,2.805 0.14,0.163 0.307,0.29 0.455,0.402 l 0.04,0.031 C 2.121,4.28 2.25,4.327 2.379,4.327 2.662,4.327 2.884,4.107 2.907,3.804 2.931,3.492 2.93,3.18 2.928,2.888 2.925,2.659 2.764,2.523 2.686,2.457 1.904,1.794 1.092,1.08 0.457,0.234 0.39,0.145 0.308,0.105 0.259,0.082 0.244,0.074 0.223,0.064 0.194,0.049 0.133,0.016 0.066,0 0,0 M 2.106,3.191 C 1.977,3.039 1.852,2.883 1.73,2.721 1.856,2.83 1.982,2.938 2.106,3.044 c 0.001,0.048 0.001,0.098 0,0.147 m -8.22,-3.17 c -0.112,0 -0.221,0.045 -0.301,0.13 -0.15,0.161 -0.295,0.317 -0.437,0.471 -0.324,0.35 -0.631,0.681 -0.945,1.002 -0.135,0.137 -0.281,0.267 -0.436,0.404 -0.145,0.129 -0.296,0.262 -0.44,0.406 -0.164,0.163 -0.277,0.4 -0.295,0.617 -0.024,0.277 0.006,0.55 0.03,0.77 0.034,0.3 0.251,0.51 0.528,0.51 0.124,0 0.25,-0.044 0.364,-0.128 L -8.023,4.187 C -7.898,4.095 -7.755,3.99 -7.634,3.851 -6.959,3.076 -6.39,2.163 -5.844,0.976 -5.795,0.871 -5.772,0.769 -5.749,0.67 -5.74,0.63 -5.73,0.586 -5.718,0.538 -5.669,0.356 -5.75,0.164 -5.915,0.072 -5.978,0.037 -6.046,0.021 -6.114,0.021 m -2.04,3.173 C -8.153,3.169 -8.151,3.145 -8.149,3.121 -8.147,3.1 -8.121,3.045 -8.092,3.016 -7.999,2.923 -7.902,2.834 -7.8,2.743 -7.915,2.9 -8.033,3.049 -8.154,3.194"
             style="fill:#1e1200;fill-opacity:1;fill-rule:nonzero;stroke:none"
             id="path2248"
             inkscape:connector-curvature="0" />
        </g>
        <g
           id="g2250"
           transform="translate(305.7738,395.4978)">
          <path
             d="m 0,0 c -0.187,0.054 -0.303,0.076 -0.409,0.121 -0.526,0.224 -0.944,0.537 -1.228,1.075 -1.065,2.016 -1.756,3.426 -2.408,5.622 -0.297,1 -0.508,2.016 -0.461,3.068 0.027,0.6 0.386,0.979 0.882,1.249 0.091,0.05 0.211,0.046 0.314,0.066 0.024,-0.047 0.045,-0.069 0.043,-0.089 -0.106,-0.967 0.084,-1.903 0.381,-2.807 0.407,-1.235 0.883,-2.447 1.327,-3.669 0.404,-1.111 0.47,-1.6 0.87,-2.712 C -0.673,1.881 -0.057,0.174 0,0"
             style="fill:#241700;fill-opacity:1;fill-rule:nonzero;stroke:none"
             id="path2252"
             inkscape:connector-curvature="0" />
        </g>
        <g
           id="g2254"
           transform="translate(310.6493,395.4978)">
          <path
             d="m 0,0 c 0.187,0.054 0.304,0.076 0.41,0.121 0.525,0.224 0.943,0.537 1.227,1.075 1.065,2.016 1.756,3.426 2.408,5.622 0.297,1 0.509,2.016 0.461,3.068 -0.027,0.6 -0.387,0.979 -0.882,1.249 C 3.533,11.185 3.413,11.181 3.31,11.201 3.286,11.154 3.265,11.132 3.267,11.112 3.373,10.145 3.183,9.209 2.886,8.305 2.48,7.07 2.003,5.858 1.559,4.636 1.156,3.525 1.089,3.036 0.689,1.924 0.673,1.881 0.057,0.174 0,0"
             style="fill:#241700;fill-opacity:1;fill-rule:nonzero;stroke:none"
             id="path2256"
             inkscape:connector-curvature="0" />
        </g>
        <g
           id="g2258"
           transform="translate(309.3588,398.8895)">
          <path
             d="m 0,0 c -0.085,-0.75 -0.293,-1.453 -0.969,-1.931 -0.176,-0.125 -0.311,-0.132 -0.491,-0.004 -0.571,0.405 -0.812,0.986 -0.916,1.646 -0.031,0.199 -0.108,0.398 0.067,0.588 0.134,0.145 0.279,0.238 0.473,0.24 0.407,0.004 0.815,0.013 1.221,-0.003 C -0.277,0.522 0.012,0.261 0,0"
             style="fill:#241700;fill-opacity:1;fill-rule:nonzero;stroke:none"
             id="path2260"
             inkscape:connector-curvature="0" />
        </g>
        <g
           id="g2262"
           transform="translate(311.2267,403.034)">
          <path
             d="M 0,0 C 0.051,0.166 0.071,0.274 0.116,0.372 0.567,1.349 1.119,2.263 1.823,3.081 1.946,3.224 2.104,3.339 2.255,3.455 2.371,3.543 2.486,3.515 2.497,3.362 2.519,3.069 2.519,2.775 2.516,2.481 2.516,2.438 2.456,2.39 2.414,2.355 1.59,1.656 0.782,0.94 0.128,0.07 0.116,0.054 0.09,0.048 0,0"
             style="fill:#241700;fill-opacity:1;fill-rule:nonzero;stroke:none"
             id="path2264"
             inkscape:connector-curvature="0" />
        </g>
        <g
           id="g2266"
           transform="translate(311.2267,402.6228)">
          <path
             d="M 0,0 C -0.093,0 -0.186,0.032 -0.261,0.094 -0.39,0.2 -0.442,0.372 -0.393,0.532 c 0.016,0.053 0.029,0.1 0.041,0.143 0.026,0.096 0.051,0.186 0.095,0.28 0.501,1.088 1.08,2.005 1.768,2.805 0.14,0.163 0.307,0.29 0.455,0.402 l 0.04,0.031 C 2.121,4.28 2.25,4.327 2.379,4.327 2.662,4.327 2.884,4.107 2.907,3.804 2.931,3.492 2.93,3.18 2.928,2.888 2.925,2.659 2.764,2.523 2.686,2.457 1.904,1.794 1.092,1.08 0.457,0.234 0.39,0.145 0.308,0.105 0.259,0.082 0.244,0.074 0.223,0.064 0.194,0.049 0.133,0.016 0.066,0 0,0 M 2.106,3.191 C 1.977,3.039 1.852,2.883 1.73,2.721 1.856,2.83 1.982,2.938 2.106,3.044 c 0.001,0.048 0.001,0.098 0,0.147"
             style="fill:#1e1200;fill-opacity:1;fill-rule:nonzero;stroke:none"
             id="path2268"
             inkscape:connector-curvature="0" />
        </g>
        <g
           id="g2270"
           transform="translate(305.112,403.0546)">
          <path
             d="m 0,0 c -0.495,0.529 -0.932,1.014 -1.389,1.48 -0.279,0.284 -0.597,0.531 -0.879,0.813 -0.091,0.091 -0.165,0.236 -0.176,0.362 -0.02,0.227 0.004,0.46 0.03,0.689 0.016,0.15 0.118,0.185 0.239,0.096 C -2.053,3.351 -1.927,3.261 -1.829,3.149 -1.104,2.317 -0.562,1.37 -0.103,0.372 -0.056,0.272 -0.042,0.156 0,0"
             style="fill:#241700;fill-opacity:1;fill-rule:nonzero;stroke:none"
             id="path2272"
             inkscape:connector-curvature="0" />
        </g>
        <g
           id="g2274"
           transform="translate(305.1122,402.6434)">
          <path
             d="m 0,0 c -0.111,0 -0.221,0.045 -0.301,0.13 -0.15,0.161 -0.295,0.318 -0.437,0.471 -0.324,0.35 -0.63,0.682 -0.945,1.002 -0.135,0.138 -0.281,0.267 -0.435,0.404 -0.146,0.129 -0.297,0.262 -0.441,0.406 -0.163,0.164 -0.277,0.4 -0.295,0.618 -0.024,0.276 0.007,0.549 0.031,0.769 0.033,0.301 0.25,0.511 0.527,0.511 0.125,0 0.251,-0.045 0.365,-0.128 L -1.909,4.166 C -1.783,4.074 -1.641,3.97 -1.519,3.83 -0.844,3.056 -0.275,2.142 0.271,0.955 0.319,0.85 0.342,0.748 0.365,0.649 0.371,0.624 0.377,0.597 0.384,0.568 0.404,0.52 0.415,0.467 0.415,0.411 0.415,0.184 0.231,0 0.004,0 0.003,0 0.001,0 0,0 m -2.039,3.173 c 0.001,-0.024 0.002,-0.048 0.004,-0.072 0.003,-0.022 0.028,-0.077 0.057,-0.106 0.093,-0.092 0.19,-0.181 0.292,-0.272 -0.115,0.156 -0.232,0.306 -0.353,0.45"
             style="fill:#1e1200;fill-opacity:1;fill-rule:nonzero;stroke:none"
             id="path2276"
             inkscape:connector-curvature="0" />
        </g>
        <g
           id="g2278"
           transform="translate(308.3908,392.7876)">
          <path
             d="M 0,0 C -0.043,0.088 -0.092,0.156 -0.11,0.231 -0.19,0.579 -0.137,0.844 0.022,1.169 0.066,1.261 0.101,1.336 0.158,1.477 0.29,1.948 0.45,2.116 0.711,2.341 0.975,2.568 1.255,2.778 1.565,3.024 1.117,1.98 0.692,0.987 0.266,-0.005 0.247,0.002 0.162,-0.001 0,0"
             style="fill:#241700;fill-opacity:1;fill-rule:nonzero;stroke:none"
             id="path2280"
             inkscape:connector-curvature="0" />
        </g>
        <g
           id="g2282"
           transform="translate(306.4263,395.81)">
          <path
             d="m 0,0 c 0.376,-0.353 0.755,-0.702 1.123,-1.062 0.062,-0.06 0.076,-0.17 0.112,-0.257 0.078,-0.19 0.139,-0.39 0.237,-0.57 0.169,-0.312 0.175,-0.819 -0.02,-1.109 -0.2,-0.012 -0.24,-0.01 -0.258,-0.017 -0.41,0.986 -0.821,1.971 -1.231,2.956 C -0.025,-0.039 -0.012,-0.02 0,0"
             style="fill:#241700;fill-opacity:1;fill-rule:nonzero;stroke:none"
             id="path2284"
             inkscape:connector-curvature="0" />
        </g>
        <g
           id="g2286"
           transform="translate(308.1492,394.7793)">
          <path
             d="M 0,0 C 0.438,-0.014 0.486,-0.084 0.283,-0.488 0.217,-0.618 0.087,-0.716 -0.014,-0.829 -0.113,-0.715 -0.242,-0.615 -0.307,-0.484 -0.511,-0.072 -0.45,0.014 0,0"
             style="fill:#241700;fill-opacity:1;fill-rule:nonzero;stroke:none"
             id="path2288"
             inkscape:connector-curvature="0" />
        </g>
        <g
           id="g2290"
           transform="translate(308.1355,393.5392)">
          <path
             d="m 0,0 h -0.002 c -0.118,0.001 -0.23,0.052 -0.308,0.141 -0.025,0.029 -0.053,0.057 -0.081,0.085 -0.088,0.088 -0.196,0.197 -0.271,0.347 -0.088,0.179 -0.253,0.511 -0.074,0.8 0.174,0.28 0.519,0.28 0.667,0.28 0.03,0 0.062,-0.001 0.096,-0.002 C 0.234,1.645 0.581,1.634 0.749,1.353 0.917,1.071 0.759,0.756 0.664,0.568 0.588,0.417 0.478,0.308 0.389,0.221 0.36,0.193 0.332,0.166 0.306,0.137 0.229,0.05 0.117,0 0,0"
             style="fill:#1e1200;fill-opacity:1;fill-rule:nonzero;stroke:none"
             id="path2292"
             inkscape:connector-curvature="0" />
        </g>
        <g
           id="g2294"
           transform="translate(303.9227,395.1242)">
          <path
             d="M 0,0 C 0.214,-0.322 0.449,-0.632 0.634,-0.97 0.735,-1.155 0.646,-1.356 0.481,-1.526 0.16,-1.065 0.019,-0.556 -0.07,-0.029 -0.046,-0.019 -0.023,-0.01 0,0"
             style="fill:#241700;fill-opacity:1;fill-rule:nonzero;stroke:none"
             id="path2296"
             inkscape:connector-curvature="0" />
        </g>
        <g
           id="g2298"
           transform="translate(304.4037,393.1871)">
          <path
             d="m 0,0 c -0.011,0 -0.022,0 -0.033,0.001 -0.122,0.01 -0.234,0.074 -0.304,0.175 -0.397,0.569 -0.539,1.188 -0.619,1.664 -0.032,0.187 0.07,0.372 0.245,0.446 l 0.07,0.03 C -0.459,2.393 -0.248,2.329 -0.139,2.165 -0.077,2.072 -0.014,1.981 0.05,1.889 0.209,1.659 0.373,1.422 0.514,1.165 0.692,0.839 0.61,0.451 0.296,0.125 0.218,0.045 0.111,0 0,0"
             style="fill:#1e1200;fill-opacity:1;fill-rule:nonzero;stroke:none"
             id="path2300"
             inkscape:connector-curvature="0" />
        </g>
        <g
           id="g2302"
           transform="translate(310.6404,399.0261)">
          <path
             d="m 0,0 c -0.221,0.167 -0.343,0.223 -0.583,0.36 -0.158,0.09 -0.55,0.19 -0.728,0.248 -0.006,-0.018 0.147,-0.064 0.14,-0.082 0.162,-0.097 0.331,-0.183 0.483,-0.293 0.342,-0.246 0.402,-0.538 0.172,-0.89 -0.125,-0.193 -0.283,-0.366 -0.435,-0.54 -0.183,-0.21 -0.376,-0.412 -0.566,-0.618 0.068,-0.017 0.107,-0.005 0.135,0.019 0.452,0.384 0.421,0.215 0.045,-0.155 -0.489,-0.482 -1.852,-0.472 -2.34,0.03 -0.378,0.389 -0.073,0.246 0.154,0.061 0.016,0.017 0.032,0.035 0.048,0.052 -0.095,0.108 -0.191,0.214 -0.283,0.324 -0.226,0.269 -0.472,0.525 -0.67,0.813 -0.256,0.371 -0.19,0.663 0.175,0.929 0.143,0.104 0.303,0.186 0.501,0.305 C -3.852,0.557 -3.899,0.559 -3.945,0.55 -4.35,0.473 -4.702,0.203 -4.994,-0.06 c -0.214,-0.18 -0.35,-0.284 -0.334,-0.578 0.004,-0.064 0.021,-0.122 0.039,-0.184 0.352,-1.192 1.056,-2.156 1.951,-2.993 0.097,-0.091 0.215,-0.211 0.332,-0.222 0.542,-0.048 1.065,-0.125 1.528,0.358 0.766,0.803 1.439,1.646 1.784,2.717 0.042,0.132 0.115,0.274 0.084,0.487 C 0.359,-0.263 0.223,-0.154 0,0"
             style="fill:#241700;fill-opacity:1;fill-rule:nonzero;stroke:none"
             id="path2304"
             inkscape:connector-curvature="0" />
        </g>
        <g
           id="g2306"
           transform="translate(312.4681,396.1051)">
          <path
             d="m 0,0 c -0.099,-0.09 -0.202,-0.175 -0.296,-0.27 -0.04,-0.04 -0.08,-0.081 -0.12,-0.122 -0.169,-0.122 -0.654,-0.499 -1.004,-0.691 -0.034,-0.011 -0.067,-0.024 -0.099,-0.038 -0.329,-0.141 -0.654,-0.293 -0.988,-0.421 -0.1,-0.037 -0.226,-0.005 -0.4,-0.005 -0.061,-0.153 -0.126,-0.312 -0.191,-0.474 l -0.503,-1.105 c 0,0 0.206,0.085 0.531,0.197 0.18,0.061 0.491,0.196 0.848,0.35 0.016,0.005 0.031,0.01 0.045,0.016 0.114,0.047 0.225,0.098 0.337,0.148 0.18,0.077 0.364,0.154 0.545,0.226 0.545,0.188 0.865,0.576 1.039,1.104 0.114,0.348 0.217,0.701 0.326,1.052 C 0.046,-0.022 0.023,-0.011 0,0"
             style="fill:#241700;fill-opacity:1;fill-rule:nonzero;stroke:none"
             id="path2308"
             inkscape:connector-curvature="0" />
        </g>
        <g
           id="g2310"
           transform="translate(307.394,392.9787)">
          <path
             d="m 0,0 -0.293,0.681 c -0.126,0.314 -0.249,0.622 -0.362,0.906 -0.126,0 -0.224,-0.016 -0.305,-0.011 -0.121,0.056 -0.893,0.411 -1.224,0.514 -0.36,0.111 -0.939,0.706 -0.939,0.706 -0.108,0.112 -0.224,0.217 -0.384,0.371 0.05,-0.568 0.238,-1.021 0.439,-1.47 0.129,-0.289 0.319,-0.506 0.619,-0.631 0.338,-0.142 0.665,-0.31 1,-0.46 C -1.391,0.58 -1.33,0.559 -1.262,0.537 -0.68,0.285 0,0 0,0"
             style="fill:#241700;fill-opacity:1;fill-rule:nonzero;stroke:none"
             id="path2312"
             inkscape:connector-curvature="0" />
        </g>
        <g
           id="g2314"
           transform="translate(315.0882,402.1985)">
          <path
             d="M 0,0 C 0.374,1.259 0.521,2.247 0.478,3.204 0.447,3.88 0.079,4.415 -0.618,4.795 -0.751,4.867 -0.884,4.883 -0.981,4.894 -1.004,4.897 -1.028,4.9 -1.05,4.904 -1.23,4.939 -1.422,4.834 -1.505,4.67 -1.533,4.624 -1.598,4.516 -1.581,4.367 -1.495,3.583 -1.61,2.746 -1.944,1.732 -2.218,0.898 -2.532,0.058 -2.834,-0.756 -2.98,-1.145 -3.125,-1.534 -3.267,-1.925 -3.474,-2.497 -3.596,-2.914 -3.714,-3.316 -3.717,-3.327 -3.72,-3.337 -3.723,-3.347 c -0.114,0.249 -0.323,0.396 -0.477,0.503 -0.199,0.15 -0.33,0.223 -0.497,0.316 l -0.13,0.073 c -0.147,0.083 -0.366,0.151 -0.638,0.231 -0.064,0.019 -0.122,0.036 -0.165,0.051 -0.199,0.064 -0.411,-0.031 -0.499,-0.217 -0.065,0.015 -0.131,0.025 -0.199,0.028 -0.348,0.013 -0.698,0.009 -1.047,0.005 L -7.57,-2.359 c -0.096,-10e-4 -0.188,-0.016 -0.276,-0.044 -0.077,0.132 -0.222,0.214 -0.379,0.204 l -0.081,-0.004 c -0.07,-0.003 -0.117,-0.006 -0.164,-0.015 -0.52,-0.1 -0.939,-0.431 -1.236,-0.7 l -0.019,-0.016 c -0.111,-0.092 -0.234,-0.197 -0.326,-0.341 -0.114,0.39 -0.235,0.797 -0.436,1.35 -0.141,0.39 -0.286,0.778 -0.43,1.166 -0.304,0.814 -0.618,1.656 -0.893,2.491 -0.333,1.014 -0.449,1.851 -0.363,2.635 0.017,0.151 -0.048,0.257 -0.085,0.319 -0.083,0.164 -0.264,0.253 -0.446,0.218 C -12.726,4.9 -12.749,4.897 -12.772,4.894 -12.869,4.883 -13.002,4.867 -13.135,4.795 -13.832,4.416 -14.2,3.88 -14.231,3.204 -14.274,2.247 -14.127,1.259 -13.753,0 c 0.677,-2.282 1.4,-3.73 2.423,-5.668 -0.016,-0.005 -0.033,-0.007 -0.048,-0.014 -0.155,-0.074 -0.247,-0.236 -0.232,-0.406 0.054,-0.623 0.254,-1.113 0.472,-1.603 0.182,-0.407 0.455,-0.683 0.836,-0.842 0.191,-0.08 0.377,-0.168 0.574,-0.262 0.138,-0.066 0.277,-0.132 0.416,-0.194 0.073,-0.033 0.144,-0.058 0.212,-0.079 0.579,-0.251 1.247,-0.531 1.247,-0.531 0.011,-0.005 0.023,-0.007 0.035,-0.011 0.075,-0.126 0.207,-0.204 0.35,-0.204 0.024,0 0.049,0.002 0.073,0.006 l 0.209,0.011 c 0.08,0.004 0.155,0.035 0.218,0.081 0.074,-0.065 0.167,-0.106 0.269,-0.106 h 0.149 c 0.022,0 0.04,0 0.054,0 0.022,-0.004 0.043,-0.005 0.064,-0.005 0.152,0 0.293,0.086 0.364,0.226 0.002,0.001 0.004,0.001 0.005,0.002 0.002,10e-4 0.2,0.082 0.506,0.187 0.189,0.065 0.494,0.196 0.846,0.348 l 0.015,0.007 c 0.019,0.006 0.038,0.013 0.057,0.021 0.106,0.044 0.21,0.091 0.315,0.138 l 0.025,0.012 c 0.177,0.075 0.358,0.15 0.518,0.214 0.634,0.219 1.069,0.678 1.295,1.365 0.081,0.245 0.156,0.491 0.231,0.738 l 0.097,0.321 c 0.061,0.195 -0.032,0.405 -0.216,0.493 l -0.069,0.032 c -0.003,0.002 -0.006,0.002 -0.009,0.003 0.005,0.008 0.009,0.015 0.014,0.023 C -1.408,-3.745 -0.681,-2.294 0,0 m -7.736,-3.289 c 0.098,0.107 0.144,0.107 0.175,0.108 l 0.196,0.002 c 0.165,0.002 0.329,0.004 0.494,0.004 0.17,0 0.34,-0.002 0.51,-0.009 0.12,-0.005 0.207,-0.083 0.22,-0.104 -0.095,-0.816 -0.327,-1.285 -0.795,-1.617 -0.004,-0.002 -0.007,-0.005 -0.011,-0.007 -0.001,0.001 -0.003,0.002 -0.005,0.003 -0.413,0.293 -0.643,0.717 -0.747,1.375 -0.005,0.035 -0.012,0.07 -0.019,0.106 -0.009,0.048 -0.023,0.12 -0.018,0.139 m 0.807,-4.51 c -0.004,-0.011 -0.007,-0.019 -0.011,-0.028 -0.011,0.028 -0.022,0.054 -0.032,0.083 -0.012,0.03 -0.024,0.061 -0.036,0.091 0.033,-0.001 0.065,-0.004 0.098,-0.004 v 0 c 0.009,0 0.019,0.001 0.028,0.001 -0.016,-0.046 -0.032,-0.092 -0.047,-0.143 m -2.116,1.573 c -0.003,0.007 -0.006,0.016 -0.009,0.024 0.004,-0.006 0.009,-0.011 0.013,-0.017 z m -3.92,6.46 c -0.346,1.167 -0.483,2.072 -0.444,2.933 0.013,0.295 0.137,0.528 0.387,0.726 -0.005,-0.738 0.136,-1.52 0.431,-2.418 0.28,-0.85 0.597,-1.7 0.903,-2.521 0.144,-0.386 0.288,-0.772 0.428,-1.159 0.2,-0.549 0.312,-0.934 0.432,-1.343 0.116,-0.396 0.236,-0.806 0.438,-1.368 0.081,-0.225 0.234,-0.649 0.375,-1.042 -0.249,0.172 -0.433,0.381 -0.573,0.645 -1.008,1.909 -1.718,3.326 -2.377,5.547 m 4.173,-8.539 c -0.013,0.005 -0.027,0.01 -0.04,0.015 -0.052,0.016 -0.099,0.031 -0.143,0.051 -0.134,0.06 -0.267,0.123 -0.4,0.187 -0.197,0.093 -0.401,0.19 -0.61,0.278 -0.183,0.076 -0.307,0.205 -0.402,0.418 -0.006,0.014 -0.013,0.029 -0.019,0.043 0.136,-0.092 0.277,-0.169 0.406,-0.209 0.232,-0.072 0.777,-0.312 1.173,-0.495 0.046,-0.022 0.096,-0.034 0.146,-0.037 0.019,-0.002 0.038,-0.002 0.058,-0.002 l 0.156,-0.389 c -0.109,0.046 -0.219,0.093 -0.325,0.14 m 2.569,1.738 C -6.407,-6.759 -6.6,-6.834 -6.91,-6.834 c -0.132,0 -0.273,0.013 -0.422,0.026 l -0.044,0.005 c -0.029,0.021 -0.075,0.065 -0.105,0.093 l -0.024,0.022 c -0.937,0.878 -1.538,1.797 -1.838,2.811 -0.006,0.023 -0.014,0.049 -0.018,0.068 0.036,-0.089 0.085,-0.178 0.146,-0.267 0.155,-0.224 0.33,-0.425 0.499,-0.619 0.008,-0.009 0.016,-0.019 0.024,-0.028 -0.097,-0.277 0.116,-0.496 0.273,-0.657 0.309,-0.319 0.868,-0.509 1.493,-0.509 0.604,0 1.125,0.172 1.43,0.472 0.261,0.258 0.472,0.494 0.396,0.764 0.004,0.005 0.007,0.009 0.011,0.013 l 0.05,0.057 c 0.144,0.164 0.292,0.333 0.42,0.529 0.071,0.108 0.123,0.217 0.157,0.325 0.004,-0.062 -0.012,-0.112 -0.044,-0.2 -0.01,-0.027 -0.019,-0.053 -0.027,-0.08 -0.338,-1.049 -1.044,-1.882 -1.69,-2.558 m 2.155,-1.334 c -0.183,-0.073 -0.37,-0.151 -0.56,-0.232 L -4.662,-8.148 C -4.759,-8.192 -4.856,-8.236 -4.95,-8.275 L -4.97,-8.282 C -4.982,-8.285 -4.993,-8.29 -5.005,-8.295 L -5.037,-8.309 C -5.175,-8.368 -5.31,-8.426 -5.432,-8.478 l 0.178,0.413 h 0.004 c 0.102,0 0.187,0.015 0.268,0.046 0.244,0.092 0.482,0.197 0.712,0.299 0.097,0.043 0.195,0.086 0.295,0.129 0.021,0.009 0.042,0.017 0.064,0.024 0.024,0.008 0.046,0.018 0.068,0.03 0.163,0.089 0.346,0.21 0.517,0.33 -0.151,-0.35 -0.385,-0.571 -0.742,-0.694 m 0.902,2.588 c -0.139,-0.264 -0.323,-0.473 -0.573,-0.645 0.09,0.25 0.205,0.571 0.354,0.982 l 0.022,0.06 c 0.202,0.562 0.322,0.972 0.438,1.369 0.12,0.408 0.232,0.794 0.431,1.342 0.141,0.388 0.286,0.775 0.43,1.162 0.306,0.821 0.622,1.669 0.901,2.518 0.295,0.896 0.436,1.678 0.432,2.415 0.252,-0.2 0.374,-0.431 0.387,-0.723 0.039,-0.862 -0.098,-1.766 -0.444,-2.933 -0.66,-2.222 -1.37,-3.639 -2.378,-5.547"
             style="fill:#1e1200;fill-opacity:1;fill-rule:nonzero;stroke:none"
             id="path2316"
             inkscape:connector-curvature="0" />
        </g>
        <g
           id="g2318"
           transform="translate(311.4991,393.8998)">
          <path
             d="m 0,0 c -0.025,0.255 -0.065,0.42 -0.065,0.42 0,0 -0.071,-0.022 -0.204,-0.071 -0.835,-0.294 -1.636,-0.659 -2.33,-1.231 0.087,0.023 0.171,0.048 0.256,0.074 L -2.358,-0.82 c 0,0 0.117,0.038 0.307,0.109 0.121,0.043 0.24,0.09 0.358,0.14 0.341,0.136 0.471,0.147 0.672,0.214 0.2,0.067 0.359,-0.05 0.406,-0.104 0.151,-0.174 0.255,-0.388 0.381,-0.584 0.042,-0.067 0.086,-0.132 0.13,-0.198 0.02,0.007 0.041,0.015 0.061,0.022 0.038,0.011 0.058,0.258 0.063,0.531 C 0.045,-0.466 0.051,-0.238 0,0"
             style="fill:#241700;fill-opacity:1;fill-rule:nonzero;stroke:none"
             id="path2320"
             inkscape:connector-curvature="0" />
        </g>
        <g
           id="g2322"
           transform="translate(311.3947,392.2458)">
          <path
             d="M 0,0 C -0.135,0 -0.266,0.067 -0.343,0.185 L -0.384,0.246 C -0.415,0.293 -0.446,0.34 -0.477,0.388 -0.518,0.452 -0.556,0.518 -0.596,0.584 -0.666,0.703 -0.732,0.816 -0.806,0.906 -0.867,0.88 -0.936,0.861 -1.009,0.841 -1.122,0.811 -1.239,0.78 -1.437,0.701 -1.552,0.651 -1.68,0.602 -1.808,0.556 -2.004,0.483 -2.127,0.443 -2.127,0.443 -2.154,0.434 -2.182,0.429 -2.209,0.426 -2.272,0.407 -2.331,0.39 -2.391,0.374 -2.578,0.326 -2.773,0.414 -2.86,0.585 c -0.088,0.172 -0.045,0.382 0.104,0.504 0.64,0.528 1.397,0.929 2.455,1.302 0.141,0.052 0.219,0.076 0.219,0.076 C 0.026,2.501 0.144,2.488 0.242,2.432 0.34,2.376 0.412,2.282 0.439,2.172 0.443,2.152 0.484,1.98 0.511,1.717 0.572,1.417 0.557,1.146 0.535,0.939 0.527,0.514 0.516,0.148 0.192,0.043 L 0.137,0.023 C 0.092,0.008 0.046,0 0,0"
             style="fill:#1e1200;fill-opacity:1;fill-rule:nonzero;stroke:none"
             id="path2324"
             inkscape:connector-curvature="0" />
        </g>
        <g
           id="g2326"
           transform="translate(304.8105,393.8998)">
          <path
             d="m 0,0 c 0.025,0.255 0.065,0.42 0.065,0.42 0,0 0.071,-0.022 0.204,-0.071 0.835,-0.294 1.636,-0.659 2.33,-1.231 -0.087,0.023 -0.171,0.048 -0.256,0.074 L 2.358,-0.82 c 0,0 -0.117,0.038 -0.307,0.109 -0.121,0.043 -0.24,0.09 -0.358,0.14 C 1.352,-0.435 1.222,-0.424 1.021,-0.357 0.821,-0.29 0.662,-0.407 0.615,-0.461 0.464,-0.635 0.36,-0.849 0.234,-1.045 0.192,-1.112 0.148,-1.177 0.104,-1.243 0.084,-1.236 0.063,-1.228 0.043,-1.221 0.005,-1.21 -0.015,-0.963 -0.02,-0.69 -0.045,-0.466 -0.051,-0.238 0,0"
             style="fill:#241700;fill-opacity:1;fill-rule:nonzero;stroke:none"
             id="path2328"
             inkscape:connector-curvature="0" />
        </g>
        <g
           id="g2330"
           transform="translate(304.9148,392.2458)">
          <path
             d="m 0,0 c -0.046,0 -0.092,0.008 -0.137,0.023 l -0.055,0.02 c -0.324,0.105 -0.335,0.471 -0.343,0.896 -0.022,0.207 -0.037,0.478 0.024,0.778 0.027,0.263 0.068,0.435 0.073,0.455 0.026,0.11 0.098,0.204 0.196,0.26 0.099,0.056 0.216,0.068 0.325,0.035 0,0 0.078,-0.024 0.224,-0.078 C 1.359,2.018 2.116,1.617 2.756,1.089 2.905,0.967 2.948,0.757 2.86,0.585 2.773,0.413 2.577,0.326 2.391,0.374 2.329,0.39 2.268,0.408 2.208,0.426 2.181,0.429 2.154,0.434 2.127,0.443 c 0,0 -0.123,0.04 -0.324,0.115 C 1.68,0.602 1.553,0.651 1.428,0.705 1.239,0.78 1.122,0.811 1.01,0.841 0.941,0.86 0.876,0.878 0.803,0.902 0.73,0.813 0.665,0.701 0.596,0.584 0.557,0.518 0.518,0.452 0.477,0.387 0.446,0.34 0.415,0.293 0.384,0.246 L 0.343,0.185 C 0.266,0.067 0.135,0 0,0"
             style="fill:#1e1200;fill-opacity:1;fill-rule:nonzero;stroke:none"
             id="path2332"
             inkscape:connector-curvature="0" />
        </g>
        <g
           id="g2334"
           transform="translate(310.8546,390.4863)">
          <path
             d="m 0,0 c 0,0 0.925,1.91 0.934,2.458 0.008,0.549 -0.077,0.968 0.068,1.225 0.146,0.257 0.617,0.908 0.617,0.908 0,0 -0.129,-2.869 -0.874,-4.814 -0.745,-1.944 -1.327,-2.849 -1.824,-2.9 -0.497,-0.052 -0.232,1.002 0,1.405 C -0.848,-1.316 0,0 0,0"
             style="fill:#241700;fill-opacity:1;fill-rule:nonzero;stroke:none"
             id="path2336"
             inkscape:connector-curvature="0" />
        </g>
        <g
           id="g2338"
           transform="translate(309.7413,386.95)">
          <path
             d="m 0,0 c -0.232,0 -0.431,0.114 -0.547,0.314 -0.29,0.501 0.063,1.428 0.225,1.709 0.22,0.383 0.962,1.538 1.076,1.715 C 1.177,4.614 1.631,5.721 1.636,6.001 1.638,6.161 1.632,6.309 1.627,6.445 1.612,6.819 1.599,7.142 1.758,7.422 1.91,7.691 2.35,8.3 2.399,8.369 2.506,8.516 2.697,8.575 2.868,8.516 3.039,8.456 3.151,8.29 3.143,8.109 3.138,7.989 3.003,5.15 2.242,3.167 1.409,0.993 0.782,0.077 0.076,0.004 0.05,0.001 0.024,0 0,0 M 1.352,3.147 C 1.117,2.781 0.566,1.918 0.391,1.613 0.288,1.435 0.205,1.148 0.174,0.94 0.383,1.141 0.769,1.683 1.352,3.147"
             style="fill:#1e1200;fill-opacity:1;fill-rule:nonzero;stroke:none"
             id="path2340"
             inkscape:connector-curvature="0" />
        </g>
        <g
           id="g2342"
           transform="translate(305.5448,390.4863)">
          <path
             d="m 0,0 c 0,0 -0.925,1.91 -0.934,2.458 -0.008,0.549 0.077,0.968 -0.068,1.225 -0.146,0.257 -0.617,0.908 -0.617,0.908 0,0 0.129,-2.869 0.874,-4.814 0.745,-1.944 1.327,-2.849 1.824,-2.9 0.497,-0.052 0.232,1.002 0,1.405 C 0.848,-1.316 0,0 0,0"
             style="fill:#241700;fill-opacity:1;fill-rule:nonzero;stroke:none"
             id="path2344"
             inkscape:connector-curvature="0" />
        </g>
        <g
           id="g2346"
           transform="translate(306.6581,386.95)">
          <path
             d="m 0,0 v 0 c -0.024,0 -0.05,0.001 -0.076,0.004 -0.706,0.073 -1.333,0.989 -2.166,3.163 -0.76,1.983 -0.896,4.822 -0.901,4.942 -0.008,0.181 0.104,0.347 0.275,0.407 0.172,0.06 0.362,0 0.469,-0.147 C -2.35,8.3 -1.91,7.691 -1.758,7.422 -1.599,7.142 -1.612,6.819 -1.627,6.445 -1.632,6.309 -1.638,6.161 -1.636,6.001 -1.631,5.721 -1.177,4.614 -0.754,3.738 -0.64,3.561 0.102,2.406 0.323,2.023 0.484,1.742 0.837,0.815 0.547,0.314 0.431,0.114 0.232,0 0,0 M -1.352,3.147 C -0.769,1.683 -0.383,1.141 -0.174,0.94 -0.205,1.148 -0.288,1.435 -0.391,1.613 -0.566,1.918 -1.117,2.781 -1.352,3.147"
             style="fill:#1e1200;fill-opacity:1;fill-rule:nonzero;stroke:none"
             id="path2348"
             inkscape:connector-curvature="0" />
        </g>
        <g
           id="g2350"
           transform="translate(311.2267,403.034)">
          <path
             d="M 0,0 C 0.09,0.048 0.116,0.054 0.128,0.07 0.782,0.94 1.59,1.656 2.414,2.355 2.456,2.39 2.516,2.438 2.516,2.481 2.519,2.775 2.519,3.069 2.497,3.362 2.486,3.515 2.371,3.543 2.255,3.455 2.104,3.339 1.946,3.224 1.823,3.081 1.119,2.263 0.567,1.349 0.116,0.372 0.071,0.274 0.051,0.166 0,0 M -6.115,0.021 C -6.157,0.177 -6.171,0.292 -6.217,0.393 -6.676,1.391 -7.218,2.338 -7.944,3.169 -8.042,3.282 -8.168,3.372 -8.289,3.461 -8.41,3.55 -8.512,3.514 -8.529,3.364 -8.554,3.136 -8.578,2.903 -8.559,2.675 -8.548,2.549 -8.474,2.405 -8.383,2.314 -8.1,2.032 -7.783,1.785 -7.503,1.5 -7.047,1.035 -6.609,0.55 -6.115,0.021"
             style="fill:#fab20b;fill-opacity:1;fill-rule:nonzero;stroke:none"
             id="path2352"
             inkscape:connector-curvature="0" />
        </g>
        <g
           id="g2354"
           transform="translate(305.7738,395.4978)">
          <path
             d="m 0,0 c -0.187,0.054 -0.303,0.076 -0.409,0.121 -0.526,0.224 -0.944,0.537 -1.228,1.075 -1.065,2.016 -1.756,3.426 -2.408,5.622 -0.297,1 -0.508,2.016 -0.461,3.068 0.027,0.6 0.386,0.979 0.882,1.249 0.091,0.05 0.211,0.046 0.314,0.066 0.024,-0.047 0.045,-0.069 0.043,-0.089 -0.106,-0.967 0.084,-1.903 0.381,-2.807 0.407,-1.235 0.883,-2.447 1.327,-3.669 0.404,-1.111 0.47,-1.6 0.87,-2.712 C -0.673,1.881 -0.057,0.174 0,0"
             style="fill:#fab20b;fill-opacity:1;fill-rule:nonzero;stroke:none"
             id="path2356"
             inkscape:connector-curvature="0" />
        </g>
        <g
           id="g2358"
           transform="translate(310.6493,395.4978)">
          <path
             d="m 0,0 c 0.187,0.054 0.304,0.076 0.41,0.121 0.525,0.224 0.943,0.537 1.227,1.075 1.065,2.016 1.756,3.426 2.408,5.622 0.297,1 0.509,2.016 0.461,3.068 -0.027,0.6 -0.387,0.979 -0.882,1.249 C 3.533,11.185 3.413,11.181 3.31,11.201 3.286,11.154 3.265,11.132 3.267,11.112 3.373,10.145 3.183,9.209 2.886,8.305 2.48,7.07 2.003,5.858 1.559,4.636 1.156,3.525 1.089,3.036 0.689,1.924 0.673,1.881 0.057,0.174 0,0"
             style="fill:#fab20b;fill-opacity:1;fill-rule:nonzero;stroke:none"
             id="path2360"
             inkscape:connector-curvature="0" />
        </g>
        <g
           id="g2362"
           transform="translate(309.3588,398.8895)">
          <path
             d="m 0,0 c -0.085,-0.75 -0.293,-1.453 -0.969,-1.931 -0.176,-0.125 -0.311,-0.132 -0.491,-0.004 -0.571,0.405 -0.812,0.986 -0.916,1.646 -0.031,0.199 -0.108,0.398 0.067,0.588 0.134,0.145 0.279,0.238 0.473,0.24 0.407,0.004 0.815,0.013 1.221,-0.003 C -0.277,0.522 0.012,0.261 0,0"
             style="fill:#fab20b;fill-opacity:1;fill-rule:nonzero;stroke:none"
             id="path2364"
             inkscape:connector-curvature="0" />
        </g>
        <g
           id="g2366"
           transform="translate(311.2267,403.034)">
          <path
             d="M 0,0 C 0.051,0.166 0.071,0.274 0.116,0.372 0.567,1.349 1.119,2.263 1.823,3.081 1.946,3.224 2.104,3.339 2.255,3.455 2.371,3.543 2.486,3.515 2.497,3.362 2.519,3.069 2.519,2.775 2.516,2.481 2.516,2.438 2.456,2.39 2.414,2.355 1.59,1.656 0.782,0.94 0.128,0.07 0.116,0.054 0.09,0.048 0,0"
             style="fill:#fab20b;fill-opacity:1;fill-rule:nonzero;stroke:none"
             id="path2368"
             inkscape:connector-curvature="0" />
        </g>
        <g
           id="g2370"
           transform="translate(305.112,403.0546)">
          <path
             d="m 0,0 c -0.495,0.529 -0.932,1.014 -1.389,1.48 -0.279,0.284 -0.597,0.531 -0.879,0.813 -0.091,0.091 -0.165,0.236 -0.176,0.362 -0.02,0.227 0.004,0.46 0.03,0.689 0.016,0.15 0.118,0.185 0.239,0.096 C -2.053,3.351 -1.927,3.261 -1.829,3.149 -1.104,2.317 -0.562,1.37 -0.103,0.372 -0.056,0.272 -0.042,0.156 0,0"
             style="fill:#fab20b;fill-opacity:1;fill-rule:nonzero;stroke:none"
             id="path2372"
             inkscape:connector-curvature="0" />
        </g>
        <g
           id="g2374"
           transform="translate(308.3908,392.7876)">
          <path
             d="M 0,0 C -0.043,0.088 -0.092,0.156 -0.11,0.231 -0.19,0.579 -0.137,0.844 0.022,1.169 0.066,1.261 0.101,1.336 0.158,1.477 0.29,1.948 0.45,2.116 0.711,2.341 0.975,2.568 1.255,2.778 1.565,3.024 1.117,1.98 0.692,0.987 0.266,-0.005 0.247,0.002 0.162,-0.001 0,0"
             style="fill:#fab20b;fill-opacity:1;fill-rule:nonzero;stroke:none"
             id="path2376"
             inkscape:connector-curvature="0" />
        </g>
        <g
           id="g2378"
           transform="translate(306.4263,395.81)">
          <path
             d="m 0,0 c 0.376,-0.353 0.755,-0.702 1.123,-1.062 0.062,-0.06 0.076,-0.17 0.112,-0.257 0.078,-0.19 0.139,-0.39 0.237,-0.57 0.169,-0.312 0.175,-0.819 -0.02,-1.109 -0.2,-0.012 -0.24,-0.01 -0.258,-0.017 -0.41,0.986 -0.821,1.971 -1.231,2.956 C -0.025,-0.039 -0.012,-0.02 0,0"
             style="fill:#fab20b;fill-opacity:1;fill-rule:nonzero;stroke:none"
             id="path2380"
             inkscape:connector-curvature="0" />
        </g>
        <g
           id="g2382"
           transform="translate(308.1492,394.7793)">
          <path
             d="M 0,0 C 0.438,-0.014 0.486,-0.084 0.283,-0.488 0.217,-0.618 0.087,-0.716 -0.014,-0.829 -0.113,-0.715 -0.242,-0.615 -0.307,-0.484 -0.511,-0.072 -0.45,0.014 0,0"
             style="fill:#fab20b;fill-opacity:1;fill-rule:nonzero;stroke:none"
             id="path2384"
             inkscape:connector-curvature="0" />
        </g>
        <g
           id="g2386"
           transform="translate(303.9227,395.1242)">
          <path
             d="M 0,0 C 0.214,-0.322 0.449,-0.632 0.634,-0.97 0.735,-1.155 0.646,-1.356 0.481,-1.526 0.16,-1.065 0.019,-0.556 -0.07,-0.029 -0.046,-0.019 -0.023,-0.01 0,0"
             style="fill:#fab20b;fill-opacity:1;fill-rule:nonzero;stroke:none"
             id="path2388"
             inkscape:connector-curvature="0" />
        </g>
        <g
           id="g2390"
           transform="translate(310.6404,399.0261)">
          <path
             d="m 0,0 c -0.221,0.167 -0.343,0.223 -0.583,0.36 -0.158,0.09 -0.55,0.19 -0.728,0.248 -0.006,-0.018 0.147,-0.064 0.14,-0.082 0.162,-0.097 0.331,-0.183 0.483,-0.293 0.342,-0.246 0.402,-0.538 0.172,-0.89 -0.125,-0.193 -0.283,-0.366 -0.435,-0.54 -0.183,-0.21 -0.376,-0.412 -0.566,-0.618 0.068,-0.017 0.107,-0.005 0.135,0.019 0.452,0.384 0.421,0.215 0.045,-0.155 -0.489,-0.482 -1.852,-0.472 -2.34,0.03 -0.378,0.389 -0.073,0.246 0.154,0.061 0.016,0.017 0.032,0.035 0.048,0.052 -0.095,0.108 -0.191,0.214 -0.283,0.324 -0.226,0.269 -0.472,0.525 -0.67,0.813 -0.256,0.371 -0.19,0.663 0.175,0.929 0.143,0.104 0.303,0.186 0.501,0.305 C -3.852,0.557 -3.899,0.559 -3.945,0.55 -4.35,0.473 -4.702,0.203 -4.994,-0.06 c -0.214,-0.18 -0.35,-0.284 -0.334,-0.578 0.004,-0.064 0.021,-0.122 0.039,-0.184 0.352,-1.192 1.056,-2.156 1.951,-2.993 0.097,-0.091 0.215,-0.211 0.332,-0.222 0.542,-0.048 1.065,-0.125 1.528,0.358 0.766,0.803 1.439,1.646 1.784,2.717 0.042,0.132 0.115,0.274 0.084,0.487 C 0.359,-0.263 0.223,-0.154 0,0"
             style="fill:#fab20b;fill-opacity:1;fill-rule:nonzero;stroke:none"
             id="path2392"
             inkscape:connector-curvature="0" />
        </g>
        <g
           id="g2394"
           transform="translate(312.4681,396.1051)">
          <path
             d="m 0,0 c -0.099,-0.09 -0.202,-0.175 -0.296,-0.27 -0.04,-0.04 -0.08,-0.081 -0.12,-0.122 -0.169,-0.122 -0.654,-0.499 -1.004,-0.691 -0.034,-0.011 -0.067,-0.024 -0.099,-0.038 -0.329,-0.141 -0.654,-0.293 -0.988,-0.421 -0.1,-0.037 -0.226,-0.005 -0.4,-0.005 -0.061,-0.153 -0.126,-0.312 -0.191,-0.474 l -0.503,-1.105 c 0,0 0.206,0.085 0.531,0.197 0.18,0.061 0.491,0.196 0.848,0.35 0.016,0.005 0.031,0.01 0.045,0.016 0.114,0.047 0.225,0.098 0.337,0.148 0.18,0.077 0.364,0.154 0.545,0.226 0.545,0.188 0.865,0.576 1.039,1.104 0.114,0.348 0.217,0.701 0.326,1.052 C 0.046,-0.022 0.023,-0.011 0,0"
             style="fill:#fab20b;fill-opacity:1;fill-rule:nonzero;stroke:none"
             id="path2396"
             inkscape:connector-curvature="0" />
        </g>
        <g
           id="g2398"
           transform="translate(307.394,392.9787)">
          <path
             d="m 0,0 -0.293,0.681 c -0.126,0.314 -0.249,0.622 -0.362,0.906 -0.126,0 -0.224,-0.016 -0.305,-0.011 -0.121,0.056 -0.893,0.411 -1.224,0.514 -0.36,0.111 -0.939,0.706 -0.939,0.706 -0.108,0.112 -0.224,0.217 -0.384,0.371 0.05,-0.568 0.238,-1.021 0.439,-1.47 0.129,-0.289 0.319,-0.506 0.619,-0.631 0.338,-0.142 0.665,-0.31 1,-0.46 C -1.391,0.58 -1.33,0.559 -1.262,0.537 -0.68,0.285 0,0 0,0"
             style="fill:#fab20b;fill-opacity:1;fill-rule:nonzero;stroke:none"
             id="path2400"
             inkscape:connector-curvature="0" />
        </g>
        <g
           id="g2402"
           transform="translate(311.4991,393.8998)">
          <path
             d="m 0,0 c -0.025,0.255 -0.065,0.42 -0.065,0.42 0,0 -0.071,-0.022 -0.204,-0.071 -0.835,-0.294 -1.636,-0.659 -2.33,-1.231 0.087,0.023 0.171,0.048 0.256,0.074 L -2.358,-0.82 c 0,0 0.117,0.038 0.307,0.109 0.121,0.043 0.24,0.09 0.358,0.14 0.341,0.136 0.471,0.147 0.672,0.214 0.2,0.067 0.359,-0.05 0.406,-0.104 0.151,-0.174 0.255,-0.388 0.381,-0.584 0.042,-0.067 0.086,-0.132 0.13,-0.198 0.02,0.007 0.041,0.015 0.061,0.022 0.038,0.011 0.058,0.258 0.063,0.531 C 0.045,-0.466 0.051,-0.238 0,0"
             style="fill:#fab20b;fill-opacity:1;fill-rule:nonzero;stroke:none"
             id="path2404"
             inkscape:connector-curvature="0" />
        </g>
        <g
           id="g2406"
           transform="translate(304.8105,393.8998)">
          <path
             d="m 0,0 c 0.025,0.255 0.065,0.42 0.065,0.42 0,0 0.071,-0.022 0.204,-0.071 0.835,-0.294 1.636,-0.659 2.33,-1.231 -0.087,0.023 -0.171,0.048 -0.256,0.074 L 2.358,-0.82 c 0,0 -0.117,0.038 -0.307,0.109 -0.121,0.043 -0.24,0.09 -0.358,0.14 C 1.352,-0.435 1.222,-0.424 1.021,-0.357 0.821,-0.29 0.662,-0.407 0.615,-0.461 0.464,-0.635 0.36,-0.849 0.234,-1.045 0.192,-1.112 0.148,-1.177 0.104,-1.243 0.084,-1.236 0.063,-1.228 0.043,-1.221 0.005,-1.21 -0.015,-0.963 -0.02,-0.69 -0.045,-0.466 -0.051,-0.238 0,0"
             style="fill:#fab20b;fill-opacity:1;fill-rule:nonzero;stroke:none"
             id="path2408"
             inkscape:connector-curvature="0" />
        </g>
        <g
           id="g2410"
           transform="translate(310.8546,390.4863)">
          <path
             d="m 0,0 c 0,0 0.925,1.91 0.934,2.458 0.008,0.549 -0.077,0.968 0.068,1.225 0.146,0.257 0.617,0.908 0.617,0.908 0,0 -0.129,-2.869 -0.874,-4.814 -0.745,-1.944 -1.327,-2.849 -1.824,-2.9 -0.497,-0.052 -0.232,1.002 0,1.405 C -0.848,-1.316 0,0 0,0"
             style="fill:#fab20b;fill-opacity:1;fill-rule:nonzero;stroke:none"
             id="path2412"
             inkscape:connector-curvature="0" />
        </g>
        <g
           id="g2414"
           transform="translate(305.5448,390.4863)">
          <path
             d="m 0,0 c 0,0 -0.925,1.91 -0.934,2.458 -0.008,0.549 0.077,0.968 -0.068,1.225 -0.146,0.257 -0.617,0.908 -0.617,0.908 0,0 0.129,-2.869 0.874,-4.814 0.745,-1.944 1.327,-2.849 1.824,-2.9 0.497,-0.052 0.232,1.002 0,1.405 C 0.848,-1.316 0,0 0,0"
             style="fill:#fab20b;fill-opacity:1;fill-rule:nonzero;stroke:none"
             id="path2416"
             inkscape:connector-curvature="0" />
        </g>
      </g>
    </g>
  </g>
</svg>
