<?xml version="1.0" encoding="UTF-8" standalone="no"?>
<!-- Created with Inkscape (http://www.inkscape.org/) -->

<svg
   xmlns:dc="http://purl.org/dc/elements/1.1/"
   xmlns:cc="http://creativecommons.org/ns#"
   xmlns:rdf="http://www.w3.org/1999/02/22-rdf-syntax-ns#"
   xmlns:svg="http://www.w3.org/2000/svg"
   xmlns="http://www.w3.org/2000/svg"
   xmlns:sodipodi="http://sodipodi.sourceforge.net/DTD/sodipodi-0.dtd"
   xmlns:inkscape="http://www.inkscape.org/namespaces/inkscape"
   width="200"
   height="200"
   viewBox="0 0 52.916666 52.916666"
   version="1.1"
   id="svg2447"
   inkscape:version="0.92.2 5c3e80d, 2017-08-06"
   sodipodi:docname="illuminati.svg">
  <defs
     id="defs2441">
    <linearGradient
       x1="0"
       y1="0"
       x2="1"
       y2="0"
       gradientUnits="userSpaceOnUse"
       gradientTransform="matrix(0,17.005899,17.005899,0,36.914062,553.29779)"
       spreadMethod="pad"
       id="linearGradient104">
      <stop
         style="stop-opacity:1;stop-color:#fccb06"
         offset="0"
         id="stop100" />
      <stop
         style="stop-opacity:1;stop-color:#f58113"
         offset="1"
         id="stop102" />
    </linearGradient>
    <radialGradient
       fx="0"
       fy="0"
       cx="0"
       cy="0"
       r="1"
       gradientUnits="userSpaceOnUse"
       gradientTransform="matrix(4.3371601,0,0,-4.3371601,48.772461,559.01898)"
       spreadMethod="pad"
       id="radialGradient130">
      <stop
         style="stop-opacity:1;stop-color:#fccb06"
         offset="0"
         id="stop124" />
      <stop
         style="stop-opacity:1;stop-color:#f58113"
         offset="0.552774"
         id="stop126" />
      <stop
         style="stop-opacity:1;stop-color:#fee103"
         offset="1"
         id="stop128" />
    </radialGradient>
    <clipPath
       clipPathUnits="userSpaceOnUse"
       id="clipPath140">
      <path
         d="M 0,0 H 531 V 801 H 0 Z"
         id="path138"
         inkscape:connector-curvature="0" />
    </clipPath>
  </defs>
  <sodipodi:namedview
     id="base"
     pagecolor="#ffffff"
     bordercolor="#666666"
     borderopacity="1.0"
     inkscape:pageopacity="0.0"
     inkscape:pageshadow="2"
     inkscape:zoom="0.35"
     inkscape:cx="-772.85715"
     inkscape:cy="-11.428571"
     inkscape:document-units="mm"
     inkscape:current-layer="layer1"
     showgrid="false"
     units="px"
     inkscape:window-width="1680"
     inkscape:window-height="936"
     inkscape:window-x="0"
     inkscape:window-y="1"
     inkscape:window-maximized="1" />
  <metadata
     id="metadata2444">
    <rdf:RDF>
      <cc:Work
         rdf:about="">
        <dc:format>image/svg+xml</dc:format>
        <dc:type
           rdf:resource="http://purl.org/dc/dcmitype/StillImage" />
        <dc:title />
      </cc:Work>
    </rdf:RDF>
  </metadata>
  <g
     inkscape:label="Layer 1"
     inkscape:groupmode="layer"
     id="layer1"
     transform="translate(0,-244.08334)">
    <g
       transform="translate(-2.1846796e-6,4.2619012e-6)"
       id="layer1-9"
       inkscape:label="Layer 1">
      <g
         transform="matrix(4.8708043,0,0,4.8708043,-287.08524,-890.57394)"
         id="g2431">
        <g
           id="g88"
           transform="matrix(0.35277777,0,0,-0.35277777,47.180287,436.60023)">
          <g
             id="g90">
            <g
               id="g96">
              <g
                 id="g98">
                <path
                   d="m 39.039,553.514 h 19.386 l -9.693,16.79 z"
                   style="fill:url(#linearGradient104);stroke:none"
                   id="path106"
                   inkscape:connector-curvature="0" />
              </g>
            </g>
          </g>
        </g>
        <g
           id="g108"
           transform="matrix(0.35277777,0,0,-0.35277777,67.928033,241.4623)">
          <path
             d="m 0,0 h -20.16 l 10.08,17.459 z m -19.637,0.302 h 19.114 l -9.557,16.552 z"
             style="fill:#231f20;fill-opacity:1;fill-rule:nonzero;stroke:none"
             id="path110"
             inkscape:connector-curvature="0" />
        </g>
        <g
           id="g112"
           transform="matrix(0.35277777,0,0,-0.35277777,47.180287,436.60023)">
          <g
             id="g114">
            <g
               id="g120">
              <g
                 id="g122">
                <path
                   d="m 44.436,559.019 c 0,-2.395 1.941,-4.337 4.337,-4.337 v 0 c 2.395,0 4.337,1.942 4.337,4.337 v 0 c 0,2.396 -1.942,4.338 -4.337,4.338 v 0 c -2.396,0 -4.337,-1.942 -4.337,-4.338"
                   style="fill:url(#radialGradient130);stroke:none"
                   id="path132"
                   inkscape:connector-curvature="0" />
              </g>
            </g>
          </g>
        </g>
        <g
           id="g134"
           transform="matrix(0.35277777,0,0,-0.35277777,47.180287,436.60023)">
          <g
             id="g136"
             clip-path="url(#clipPath140)">
            <g
               id="g142"
               transform="translate(48.773,554.5307)">
              <path
                 d="m 0,0 c -2.475,0 -4.489,2.014 -4.489,4.488 0,2.475 2.014,4.489 4.489,4.489 2.475,0 4.488,-2.014 4.488,-4.489 C 4.488,2.014 2.475,0 0,0 m 0,8.675 c -2.309,0 -4.187,-1.878 -4.187,-4.187 0,-2.308 1.878,-4.186 4.187,-4.186 2.308,0 4.186,1.878 4.186,4.186 0,2.309 -1.878,4.187 -4.186,4.187"
                 style="fill:#231f20;fill-opacity:1;fill-rule:nonzero;stroke:none"
                 id="path144"
                 inkscape:connector-curvature="0" />
            </g>
            <g
               id="g146"
               transform="translate(44.5103,558.6347)">
              <path
                 d="m 0,0 c 0.663,1.046 2.298,1.799 4.211,1.799 1.929,0 3.576,-0.765 4.228,-1.825 l 0.01,-0.012 c -0.607,-1.113 -2.2,-1.914 -4.19,-1.914 -1.984,0 -3.669,0.796 -4.281,1.905 z"
                 style="fill:#fcc907;fill-opacity:1;fill-rule:nonzero;stroke:none"
                 id="path148"
                 inkscape:connector-curvature="0" />
            </g>
            <g
               id="g150"
               transform="translate(48.7695,556.5883)">
              <path
                 d="m 0,0 c -1.965,0 -3.719,0.785 -4.364,1.953 l -0.023,0.042 0.042,0.091 c 0.715,1.131 2.399,1.854 4.297,1.854 1.885,0 3.612,-0.748 4.303,-1.862 L 4.296,2.035 4.273,1.963 C 3.623,0.771 1.945,0 0,0 M -4.175,2.003 C -3.543,0.916 -1.874,0.189 0,0.189 c 1.849,0 3.44,0.71 4.079,1.814 C 3.41,3.05 1.759,3.75 -0.048,3.75 -1.85,3.75 -3.507,3.049 -4.175,2.003"
                 style="fill:#231f20;fill-opacity:1;fill-rule:nonzero;stroke:none"
                 id="path152"
                 inkscape:connector-curvature="0" />
            </g>
            <g
               id="g154"
               transform="translate(47.0132,558.5717)">
              <path
                 d="M 0,0 C 0,1.024 0.83,1.854 1.854,1.854 2.878,1.854 3.708,1.024 3.708,0 3.708,-1.024 2.878,-1.854 1.854,-1.854 0.83,-1.854 0,-1.024 0,0"
                 style="fill:#f46b17;fill-opacity:1;fill-rule:nonzero;stroke:none"
                 id="path156"
                 inkscape:connector-curvature="0" />
            </g>
            <g
               id="g158"
               transform="translate(48.8677,556.6245)">
              <path
                 d="m 0,0 c -1.074,0 -1.947,0.873 -1.947,1.947 0,1.074 0.873,1.947 1.947,1.947 1.074,0 1.947,-0.873 1.947,-1.947 C 1.947,0.873 1.074,0 0,0 m 0,3.708 c -0.971,0 -1.762,-0.79 -1.762,-1.761 0,-0.971 0.791,-1.762 1.762,-1.762 0.971,0 1.761,0.791 1.761,1.762 0,0.971 -0.79,1.761 -1.761,1.761"
                 style="fill:#231f20;fill-opacity:1;fill-rule:nonzero;stroke:none"
                 id="path160"
                 inkscape:connector-curvature="0" />
            </g>
            <g
               id="g162"
               transform="translate(46.3052,563.6547)">
              <path
                 d="M 0,0 C 0,0.346 0.28,0.627 0.626,0.627 0.973,0.627 1.253,0.346 1.253,0 1.253,-0.346 0.973,-0.626 0.626,-0.626 0.28,-0.626 0,-0.346 0,0"
                 style="fill:#f25c19;fill-opacity:1;fill-rule:nonzero;stroke:none"
                 id="path164"
                 inkscape:connector-curvature="0" />
            </g>
            <g
               id="g166"
               transform="translate(46.9316,562.9326)">
              <path
                 d="m 0,0 c -0.398,0 -0.723,0.324 -0.723,0.722 0,0.399 0.325,0.723 0.723,0.723 0.398,0 0.723,-0.324 0.723,-0.723 C 0.723,0.324 0.398,0 0,0 m 0,1.253 c -0.293,0 -0.531,-0.238 -0.531,-0.531 0,-0.292 0.238,-0.531 0.531,-0.531 0.293,0 0.531,0.239 0.531,0.531 0,0.293 -0.238,0.531 -0.531,0.531"
                 style="fill:#231f20;fill-opacity:1;fill-rule:nonzero;stroke:none"
                 id="path168"
                 inkscape:connector-curvature="0" />
            </g>
            <g
               id="g170"
               transform="translate(47.6001,563.9472)">
              <path
                 d="M 0,0 C 0,0.346 0.281,0.627 0.627,0.627 0.973,0.627 1.253,0.346 1.253,0 1.253,-0.346 0.973,-0.627 0.627,-0.627 0.281,-0.627 0,-0.346 0,0"
                 style="fill:#f25c19;fill-opacity:1;fill-rule:nonzero;stroke:none"
                 id="path172"
                 inkscape:connector-curvature="0" />
            </g>
            <g
               id="g174"
               transform="translate(48.2271,563.225)">
              <path
                 d="m 0,0 c -0.398,0 -0.723,0.324 -0.723,0.722 0,0.399 0.325,0.723 0.723,0.723 0.398,0 0.722,-0.324 0.722,-0.723 C 0.722,0.324 0.398,0 0,0 m 0,1.253 c -0.293,0 -0.531,-0.238 -0.531,-0.531 0,-0.292 0.238,-0.531 0.531,-0.531 0.292,0 0.531,0.239 0.531,0.531 0,0.293 -0.239,0.531 -0.531,0.531"
                 style="fill:#231f20;fill-opacity:1;fill-rule:nonzero;stroke:none"
                 id="path176"
                 inkscape:connector-curvature="0" />
            </g>
            <g
               id="g178"
               transform="translate(48.8955,563.9614)">
              <path
                 d="M 0,0 C 0,0.346 0.28,0.626 0.627,0.626 0.973,0.626 1.253,0.346 1.253,0 1.253,-0.346 0.973,-0.627 0.627,-0.627 0.28,-0.627 0,-0.346 0,0"
                 style="fill:#f79410;fill-opacity:1;fill-rule:nonzero;stroke:none"
                 id="path180"
                 inkscape:connector-curvature="0" />
            </g>
            <g
               id="g182"
               transform="translate(49.522,563.2387)">
              <path
                 d="m 0,0 c -0.398,0 -0.722,0.324 -0.722,0.723 0,0.398 0.324,0.722 0.722,0.722 0.398,0 0.723,-0.324 0.723,-0.722 C 0.723,0.324 0.398,0 0,0 m 0,1.253 c -0.293,0 -0.531,-0.238 -0.531,-0.53 0,-0.293 0.238,-0.532 0.531,-0.532 0.293,0 0.531,0.239 0.531,0.532 0,0.292 -0.238,0.53 -0.531,0.53"
                 style="fill:#231f20;fill-opacity:1;fill-rule:nonzero;stroke:none"
                 id="path184"
                 inkscape:connector-curvature="0" />
            </g>
            <g
               id="g186"
               transform="translate(50.1489,563.5991)">
              <path
                 d="M 0,0 C 0,0.346 0.28,0.627 0.627,0.627 0.973,0.627 1.253,0.346 1.253,0 1.253,-0.346 0.973,-0.627 0.627,-0.627 0.28,-0.627 0,-0.346 0,0"
                 style="fill:#f79410;fill-opacity:1;fill-rule:nonzero;stroke:none"
                 id="path188"
                 inkscape:connector-curvature="0" />
            </g>
            <g
               id="g190"
               transform="translate(50.7754,562.8769)">
              <path
                 d="m 0,0 c -0.398,0 -0.722,0.324 -0.722,0.722 0,0.399 0.324,0.723 0.722,0.723 0.398,0 0.723,-0.324 0.723,-0.723 C 0.723,0.324 0.398,0 0,0 m 0,1.253 c -0.293,0 -0.531,-0.238 -0.531,-0.531 0,-0.293 0.238,-0.531 0.531,-0.531 0.293,0 0.531,0.238 0.531,0.531 0,0.293 -0.238,0.531 -0.531,0.531"
                 style="fill:#231f20;fill-opacity:1;fill-rule:nonzero;stroke:none"
                 id="path192"
                 inkscape:connector-curvature="0" />
            </g>
            <g
               id="g194"
               transform="translate(51.3325,562.8749)">
              <path
                 d="M 0,0 C 0,0.346 0.281,0.627 0.627,0.627 0.973,0.627 1.253,0.346 1.253,0 1.253,-0.346 0.973,-0.626 0.627,-0.626 0.281,-0.626 0,-0.346 0,0"
                 style="fill:#fee103;fill-opacity:1;fill-rule:nonzero;stroke:none"
                 id="path196"
                 inkscape:connector-curvature="0" />
            </g>
            <g
               id="g198"
               transform="translate(51.9595,562.1528)">
              <path
                 d="m 0,0 c -0.398,0 -0.723,0.324 -0.723,0.722 0,0.399 0.325,0.723 0.723,0.723 0.398,0 0.722,-0.324 0.722,-0.723 C 0.722,0.324 0.398,0 0,0 m 0,1.253 c -0.293,0 -0.531,-0.238 -0.531,-0.531 0,-0.293 0.238,-0.531 0.531,-0.531 0.292,0 0.531,0.238 0.531,0.531 0,0.293 -0.239,0.531 -0.531,0.531"
                 style="fill:#231f20;fill-opacity:1;fill-rule:nonzero;stroke:none"
                 id="path200"
                 inkscape:connector-curvature="0" />
            </g>
            <g
               id="g202"
               transform="translate(52.1963,561.8862)">
              <path
                 d="M 0,0 C 0,0.346 0.28,0.626 0.626,0.626 0.973,0.626 1.253,0.346 1.253,0 1.253,-0.346 0.973,-0.627 0.626,-0.627 0.28,-0.627 0,-0.346 0,0"
                 style="fill:#fee103;fill-opacity:1;fill-rule:nonzero;stroke:none"
                 id="path204"
                 inkscape:connector-curvature="0" />
            </g>
            <g
               id="g206"
               transform="translate(52.8228,561.1635)">
              <path
                 d="m 0,0 c -0.398,0 -0.723,0.324 -0.723,0.723 0,0.398 0.325,0.722 0.723,0.722 0.398,0 0.723,-0.324 0.723,-0.722 C 0.723,0.324 0.398,0 0,0 m 0,1.253 c -0.293,0 -0.531,-0.238 -0.531,-0.53 0,-0.293 0.238,-0.532 0.531,-0.532 0.293,0 0.531,0.239 0.531,0.532 0,0.292 -0.238,0.53 -0.531,0.53"
                 style="fill:#231f20;fill-opacity:1;fill-rule:nonzero;stroke:none"
                 id="path208"
                 inkscape:connector-curvature="0" />
            </g>
            <g
               id="g210"
               transform="translate(52.8091,560.6884)">
              <path
                 d="M 0,0 C 0,0.346 0.28,0.626 0.626,0.626 0.973,0.626 1.253,0.346 1.253,0 1.253,-0.346 0.973,-0.627 0.626,-0.627 0.28,-0.627 0,-0.346 0,0"
                 style="fill:#fee103;fill-opacity:1;fill-rule:nonzero;stroke:none"
                 id="path212"
                 inkscape:connector-curvature="0" />
            </g>
            <g
               id="g214"
               transform="translate(53.4355,559.9658)">
              <path
                 d="m 0,0 c -0.398,0 -0.722,0.324 -0.722,0.723 0,0.398 0.324,0.722 0.722,0.722 0.398,0 0.723,-0.324 0.723,-0.722 C 0.723,0.324 0.398,0 0,0 m 0,1.253 c -0.293,0 -0.531,-0.237 -0.531,-0.53 0,-0.293 0.238,-0.532 0.531,-0.532 0.293,0 0.531,0.239 0.531,0.532 0,0.293 -0.238,0.53 -0.531,0.53"
                 style="fill:#231f20;fill-opacity:1;fill-rule:nonzero;stroke:none"
                 id="path216"
                 inkscape:connector-curvature="0" />
            </g>
            <g
               id="g218"
               transform="translate(53.1143,559.4526)">
              <path
                 d="M 0,0 C 0,0.346 0.28,0.626 0.626,0.626 0.973,0.626 1.253,0.346 1.253,0 1.253,-0.346 0.973,-0.627 0.626,-0.627 0.28,-0.627 0,-0.346 0,0"
                 style="fill:#fee103;fill-opacity:1;fill-rule:nonzero;stroke:none"
                 id="path220"
                 inkscape:connector-curvature="0" />
            </g>
            <g
               id="g222"
               transform="translate(53.7407,558.7299)">
              <path
                 d="m 0,0 c -0.398,0 -0.723,0.324 -0.723,0.723 0,0.398 0.325,0.722 0.723,0.722 0.399,0 0.723,-0.324 0.723,-0.722 C 0.723,0.324 0.399,0 0,0 m 0,1.253 c -0.293,0 -0.531,-0.238 -0.531,-0.53 0,-0.293 0.238,-0.532 0.531,-0.532 0.293,0 0.531,0.239 0.531,0.532 0,0.292 -0.238,0.53 -0.531,0.53"
                 style="fill:#231f20;fill-opacity:1;fill-rule:nonzero;stroke:none"
                 id="path224"
                 inkscape:connector-curvature="0" />
            </g>
            <g
               id="g226"
               transform="translate(53.0874,558.1445)">
              <path
                 d="M 0,0 C 0,0.346 0.281,0.627 0.627,0.627 0.973,0.627 1.253,0.346 1.253,0 1.253,-0.346 0.973,-0.626 0.627,-0.626 0.281,-0.626 0,-0.346 0,0"
                 style="fill:#f79410;fill-opacity:1;fill-rule:nonzero;stroke:none"
                 id="path228"
                 inkscape:connector-curvature="0" />
            </g>
            <g
               id="g230"
               transform="translate(53.7144,557.4223)">
              <path
                 d="m 0,0 c -0.398,0 -0.723,0.324 -0.723,0.722 0,0.399 0.325,0.723 0.723,0.723 0.398,0 0.722,-0.324 0.722,-0.723 C 0.722,0.324 0.398,0 0,0 m 0,1.253 c -0.293,0 -0.531,-0.238 -0.531,-0.531 0,-0.292 0.238,-0.531 0.531,-0.531 0.292,0 0.531,0.239 0.531,0.531 0,0.293 -0.239,0.531 -0.531,0.531"
                 style="fill:#231f20;fill-opacity:1;fill-rule:nonzero;stroke:none"
                 id="path232"
                 inkscape:connector-curvature="0" />
            </g>
            <g
               id="g234"
               transform="translate(52.7139,556.9037)">
              <path
                 d="M 0,0 C 0,0.346 0.281,0.627 0.627,0.627 0.973,0.627 1.253,0.346 1.253,0 1.253,-0.346 0.973,-0.626 0.627,-0.626 0.281,-0.626 0,-0.346 0,0"
                 style="fill:#f25c19;fill-opacity:1;fill-rule:nonzero;stroke:none"
                 id="path236"
                 inkscape:connector-curvature="0" />
            </g>
            <g
               id="g238"
               transform="translate(53.3408,556.1816)">
              <path
                 d="m 0,0 c -0.398,0 -0.723,0.324 -0.723,0.722 0,0.399 0.325,0.723 0.723,0.723 0.398,0 0.722,-0.324 0.722,-0.723 C 0.722,0.324 0.398,0 0,0 m 0,1.253 c -0.293,0 -0.531,-0.238 -0.531,-0.531 0,-0.292 0.238,-0.531 0.531,-0.531 0.292,0 0.531,0.239 0.531,0.531 0,0.293 -0.239,0.531 -0.531,0.531"
                 style="fill:#231f20;fill-opacity:1;fill-rule:nonzero;stroke:none"
                 id="path240"
                 inkscape:connector-curvature="0" />
            </g>
            <g
               id="g242"
               transform="translate(52.0186,555.8652)">
              <path
                 d="M 0,0 C 0,0.346 0.281,0.627 0.627,0.627 0.973,0.627 1.253,0.346 1.253,0 1.253,-0.346 0.973,-0.626 0.627,-0.626 0.281,-0.626 0,-0.346 0,0"
                 style="fill:#f25c19;fill-opacity:1;fill-rule:nonzero;stroke:none"
                 id="path244"
                 inkscape:connector-curvature="0" />
            </g>
            <g
               id="g246"
               transform="translate(52.6455,555.143)">
              <path
                 d="m 0,0 c -0.398,0 -0.723,0.324 -0.723,0.722 0,0.399 0.325,0.723 0.723,0.723 0.398,0 0.722,-0.324 0.722,-0.723 C 0.722,0.324 0.398,0 0,0 m 0,1.253 c -0.293,0 -0.531,-0.238 -0.531,-0.531 0,-0.292 0.238,-0.531 0.531,-0.531 0.293,0 0.531,0.239 0.531,0.531 0,0.293 -0.238,0.531 -0.531,0.531"
                 style="fill:#231f20;fill-opacity:1;fill-rule:nonzero;stroke:none"
                 id="path248"
                 inkscape:connector-curvature="0" />
            </g>
            <g
               id="g250"
               transform="translate(51.0918,554.9907)">
              <path
                 d="M 0,0 C 0,0.346 0.28,0.626 0.626,0.626 0.973,0.626 1.253,0.346 1.253,0 1.253,-0.346 0.973,-0.627 0.626,-0.627 0.28,-0.627 0,-0.346 0,0"
                 style="fill:#f25c19;fill-opacity:1;fill-rule:nonzero;stroke:none"
                 id="path252"
                 inkscape:connector-curvature="0" />
            </g>
            <g
               id="g254"
               transform="translate(51.7183,554.268)">
              <path
                 d="m 0,0 c -0.398,0 -0.722,0.324 -0.722,0.723 0,0.398 0.324,0.722 0.722,0.722 0.398,0 0.723,-0.324 0.723,-0.722 C 0.723,0.324 0.398,0 0,0 m 0,1.253 c -0.292,0 -0.531,-0.238 -0.531,-0.53 0,-0.293 0.239,-0.532 0.531,-0.532 0.293,0 0.531,0.239 0.531,0.532 0,0.292 -0.238,0.53 -0.531,0.53"
                 style="fill:#231f20;fill-opacity:1;fill-rule:nonzero;stroke:none"
                 id="path256"
                 inkscape:connector-curvature="0" />
            </g>
            <g
               id="g258"
               transform="translate(49.9116,554.3588)">
              <path
                 d="M 0,0 C 0,0.346 0.28,0.627 0.626,0.627 0.973,0.627 1.253,0.346 1.253,0 1.253,-0.346 0.973,-0.627 0.626,-0.627 0.28,-0.627 0,-0.346 0,0"
                 style="fill:#f79410;fill-opacity:1;fill-rule:nonzero;stroke:none"
                 id="path260"
                 inkscape:connector-curvature="0" />
            </g>
            <g
               id="g262"
               transform="translate(50.5381,553.6362)">
              <path
                 d="m 0,0 c -0.398,0 -0.722,0.324 -0.722,0.723 0,0.398 0.324,0.722 0.722,0.722 0.398,0 0.723,-0.324 0.723,-0.722 C 0.723,0.324 0.398,0 0,0 m 0,1.254 c -0.292,0 -0.531,-0.238 -0.531,-0.531 0,-0.293 0.239,-0.532 0.531,-0.532 0.293,0 0.531,0.239 0.531,0.532 0,0.293 -0.238,0.531 -0.531,0.531"
                 style="fill:#231f20;fill-opacity:1;fill-rule:nonzero;stroke:none"
                 id="path264"
                 inkscape:connector-curvature="0" />
            </g>
            <g
               id="g266"
               transform="translate(48.6201,554.079)">
              <path
                 d="M 0,0 C 0,0.346 0.28,0.627 0.626,0.627 0.973,0.627 1.253,0.346 1.253,0 1.253,-0.346 0.973,-0.627 0.626,-0.627 0.28,-0.627 0,-0.346 0,0"
                 style="fill:#f79410;fill-opacity:1;fill-rule:nonzero;stroke:none"
                 id="path268"
                 inkscape:connector-curvature="0" />
            </g>
            <g
               id="g270"
               transform="translate(49.2466,553.3564)">
              <path
                 d="m 0,0 c -0.398,0 -0.722,0.324 -0.722,0.723 0,0.398 0.324,0.722 0.722,0.722 0.398,0 0.723,-0.324 0.723,-0.722 C 0.723,0.324 0.398,0 0,0 m 0,1.253 c -0.293,0 -0.531,-0.237 -0.531,-0.53 0,-0.293 0.238,-0.532 0.531,-0.532 0.293,0 0.531,0.239 0.531,0.532 0,0.293 -0.238,0.53 -0.531,0.53"
                 style="fill:#231f20;fill-opacity:1;fill-rule:nonzero;stroke:none"
                 id="path272"
                 inkscape:connector-curvature="0" />
            </g>
            <g
               id="g274"
               transform="translate(47.2715,554.1425)">
              <path
                 d="M 0,0 C 0,0.346 0.28,0.627 0.626,0.627 0.973,0.627 1.253,0.346 1.253,0 1.253,-0.346 0.973,-0.626 0.626,-0.626 0.28,-0.626 0,-0.346 0,0"
                 style="fill:#fee103;fill-opacity:1;fill-rule:nonzero;stroke:none"
                 id="path276"
                 inkscape:connector-curvature="0" />
            </g>
            <g
               id="g278"
               transform="translate(47.898,553.4203)">
              <path
                 d="m 0,0 c -0.398,0 -0.722,0.324 -0.722,0.722 0,0.399 0.324,0.723 0.722,0.723 0.398,0 0.723,-0.324 0.723,-0.723 C 0.723,0.324 0.398,0 0,0 m 0,1.253 c -0.292,0 -0.531,-0.238 -0.531,-0.531 0,-0.292 0.239,-0.53 0.531,-0.53 0.293,0 0.531,0.238 0.531,0.53 0,0.293 -0.238,0.531 -0.531,0.531"
                 style="fill:#231f20;fill-opacity:1;fill-rule:nonzero;stroke:none"
                 id="path280"
                 inkscape:connector-curvature="0" />
            </g>
            <g
               id="g282"
               transform="translate(45.999,554.582)">
              <path
                 d="M 0,0 C 0,0.346 0.281,0.627 0.627,0.627 0.973,0.627 1.253,0.346 1.253,0 1.253,-0.346 0.973,-0.626 0.627,-0.626 0.281,-0.626 0,-0.346 0,0"
                 style="fill:#fee103;fill-opacity:1;fill-rule:nonzero;stroke:none"
                 id="path284"
                 inkscape:connector-curvature="0" />
            </g>
            <g
               id="g286"
               transform="translate(46.626,553.8598)">
              <path
                 d="m 0,0 c -0.398,0 -0.723,0.324 -0.723,0.722 0,0.399 0.325,0.723 0.723,0.723 0.398,0 0.722,-0.324 0.722,-0.723 C 0.722,0.324 0.398,0 0,0 m 0,1.253 c -0.293,0 -0.531,-0.238 -0.531,-0.531 0,-0.292 0.238,-0.531 0.531,-0.531 0.293,0 0.531,0.239 0.531,0.531 0,0.293 -0.238,0.531 -0.531,0.531"
                 style="fill:#231f20;fill-opacity:1;fill-rule:nonzero;stroke:none"
                 id="path288"
                 inkscape:connector-curvature="0" />
            </g>
            <g
               id="g290"
               transform="translate(44.9106,555.2519)">
              <path
                 d="M 0,0 C 0,0.346 0.28,0.627 0.626,0.627 0.973,0.627 1.253,0.346 1.253,0 1.253,-0.346 0.973,-0.626 0.626,-0.626 0.28,-0.626 0,-0.346 0,0"
                 style="fill:#fee103;fill-opacity:1;fill-rule:nonzero;stroke:none"
                 id="path292"
                 inkscape:connector-curvature="0" />
            </g>
            <g
               id="g294"
               transform="translate(45.5371,554.5297)">
              <path
                 d="m 0,0 c -0.398,0 -0.722,0.324 -0.722,0.722 0,0.399 0.324,0.723 0.722,0.723 0.398,0 0.723,-0.324 0.723,-0.723 C 0.723,0.324 0.398,0 0,0 m 0,1.253 c -0.292,0 -0.531,-0.238 -0.531,-0.531 0,-0.292 0.239,-0.531 0.531,-0.531 0.293,0 0.531,0.239 0.531,0.531 0,0.293 -0.238,0.531 -0.531,0.531"
                 style="fill:#231f20;fill-opacity:1;fill-rule:nonzero;stroke:none"
                 id="path296"
                 inkscape:connector-curvature="0" />
            </g>
            <g
               id="g298"
               transform="translate(44.0435,556.1977)">
              <path
                 d="M 0,0 C 0,0.346 0.28,0.627 0.626,0.627 0.973,0.627 1.253,0.346 1.253,0 1.253,-0.346 0.973,-0.626 0.626,-0.626 0.28,-0.626 0,-0.346 0,0"
                 style="fill:#f79410;fill-opacity:1;fill-rule:nonzero;stroke:none"
                 id="path300"
                 inkscape:connector-curvature="0" />
            </g>
            <g
               id="g302"
               transform="translate(44.6699,555.4755)">
              <path
                 d="m 0,0 c -0.398,0 -0.722,0.324 -0.722,0.722 0,0.399 0.324,0.723 0.722,0.723 0.399,0 0.723,-0.324 0.723,-0.723 C 0.723,0.324 0.399,0 0,0 m 0,1.253 c -0.292,0 -0.531,-0.238 -0.531,-0.531 0,-0.292 0.239,-0.531 0.531,-0.531 0.293,0 0.531,0.239 0.531,0.531 0,0.293 -0.238,0.531 -0.531,0.531"
                 style="fill:#231f20;fill-opacity:1;fill-rule:nonzero;stroke:none"
                 id="path304"
                 inkscape:connector-curvature="0" />
            </g>
            <g
               id="g306"
               transform="translate(43.4561,557.3095)">
              <path
                 d="M 0,0 C 0,0.346 0.28,0.626 0.626,0.626 0.973,0.626 1.253,0.346 1.253,0 1.253,-0.346 0.973,-0.627 0.626,-0.627 0.28,-0.627 0,-0.346 0,0"
                 style="fill:#f14b1c;fill-opacity:1;fill-rule:nonzero;stroke:none"
                 id="path308"
                 inkscape:connector-curvature="0" />
            </g>
            <g
               id="g310"
               transform="translate(44.0825,556.5869)">
              <path
                 d="m 0,0 c -0.398,0 -0.722,0.324 -0.722,0.723 0,0.398 0.324,0.722 0.722,0.722 0.398,0 0.723,-0.324 0.723,-0.722 C 0.723,0.324 0.398,0 0,0 m 0,1.253 c -0.293,0 -0.531,-0.237 -0.531,-0.53 0,-0.293 0.238,-0.532 0.531,-0.532 0.293,0 0.531,0.239 0.531,0.532 0,0.293 -0.238,0.53 -0.531,0.53"
                 style="fill:#231f20;fill-opacity:1;fill-rule:nonzero;stroke:none"
                 id="path312"
                 inkscape:connector-curvature="0" />
            </g>
            <g
               id="g314"
               transform="translate(43.1284,558.5727)">
              <path
                 d="M 0,0 C 0,0.346 0.28,0.627 0.626,0.627 0.973,0.627 1.253,0.346 1.253,0 1.253,-0.346 0.973,-0.627 0.626,-0.627 0.28,-0.627 0,-0.346 0,0"
                 style="fill:#f14b1c;fill-opacity:1;fill-rule:nonzero;stroke:none"
                 id="path316"
                 inkscape:connector-curvature="0" />
            </g>
            <g
               id="g318"
               transform="translate(43.7549,557.85)">
              <path
                 d="m 0,0 c -0.398,0 -0.722,0.324 -0.722,0.723 0,0.398 0.324,0.722 0.722,0.722 0.398,0 0.723,-0.324 0.723,-0.722 C 0.723,0.324 0.398,0 0,0 m 0,1.254 c -0.292,0 -0.531,-0.238 -0.531,-0.531 0,-0.293 0.239,-0.531 0.531,-0.531 0.293,0 0.531,0.238 0.531,0.531 0,0.293 -0.238,0.531 -0.531,0.531"
                 style="fill:#231f20;fill-opacity:1;fill-rule:nonzero;stroke:none"
                 id="path320"
                 inkscape:connector-curvature="0" />
            </g>
            <g
               id="g322"
               transform="translate(43.1992,559.8388)">
              <path
                 d="M 0,0 C 0,0.346 0.28,0.626 0.626,0.626 0.973,0.626 1.253,0.346 1.253,0 1.253,-0.346 0.973,-0.627 0.626,-0.627 0.28,-0.627 0,-0.346 0,0"
                 style="fill:#f14b1c;fill-opacity:1;fill-rule:nonzero;stroke:none"
                 id="path324"
                 inkscape:connector-curvature="0" />
            </g>
            <g
               id="g326"
               transform="translate(43.8257,559.1162)">
              <path
                 d="m 0,0 c -0.398,0 -0.722,0.324 -0.722,0.723 0,0.398 0.324,0.722 0.722,0.722 0.398,0 0.723,-0.324 0.723,-0.722 C 0.723,0.324 0.398,0 0,0 m 0,1.253 c -0.292,0 -0.531,-0.237 -0.531,-0.53 0,-0.293 0.239,-0.531 0.531,-0.531 0.293,0 0.531,0.238 0.531,0.531 0,0.293 -0.238,0.53 -0.531,0.53"
                 style="fill:#231f20;fill-opacity:1;fill-rule:nonzero;stroke:none"
                 id="path328"
                 inkscape:connector-curvature="0" />
            </g>
            <g
               id="g330"
               transform="translate(43.5894,561.0502)">
              <path
                 d="M 0,0 C 0,0.346 0.28,0.627 0.626,0.627 0.973,0.627 1.253,0.346 1.253,0 1.253,-0.346 0.973,-0.626 0.626,-0.626 0.28,-0.626 0,-0.346 0,0"
                 style="fill:#f25c19;fill-opacity:1;fill-rule:nonzero;stroke:none"
                 id="path332"
                 inkscape:connector-curvature="0" />
            </g>
            <g
               id="g334"
               transform="translate(44.2158,560.3281)">
              <path
                 d="m 0,0 c -0.398,0 -0.722,0.324 -0.722,0.722 0,0.399 0.324,0.723 0.722,0.723 0.398,0 0.723,-0.324 0.723,-0.723 C 0.723,0.324 0.398,0 0,0 m 0,1.253 c -0.293,0 -0.531,-0.238 -0.531,-0.531 0,-0.292 0.238,-0.531 0.531,-0.531 0.293,0 0.531,0.239 0.531,0.531 0,0.293 -0.238,0.531 -0.531,0.531"
                 style="fill:#231f20;fill-opacity:1;fill-rule:nonzero;stroke:none"
                 id="path336"
                 inkscape:connector-curvature="0" />
            </g>
            <g
               id="g338"
               transform="translate(44.2437,562.1508)">
              <path
                 d="M 0,0 C 0,0.346 0.281,0.626 0.627,0.626 0.973,0.626 1.253,0.346 1.253,0 1.253,-0.346 0.973,-0.627 0.627,-0.627 0.281,-0.627 0,-0.346 0,0"
                 style="fill:#f25c19;fill-opacity:1;fill-rule:nonzero;stroke:none"
                 id="path340"
                 inkscape:connector-curvature="0" />
            </g>
            <g
               id="g342"
               transform="translate(44.8706,561.4282)">
              <path
                 d="m 0,0 c -0.398,0 -0.723,0.324 -0.723,0.723 0,0.398 0.325,0.722 0.723,0.722 0.398,0 0.722,-0.324 0.722,-0.722 C 0.722,0.324 0.398,0 0,0 m 0,1.253 c -0.293,0 -0.531,-0.238 -0.531,-0.53 0,-0.293 0.238,-0.532 0.531,-0.532 0.292,0 0.531,0.239 0.531,0.532 0,0.292 -0.239,0.53 -0.531,0.53"
                 style="fill:#231f20;fill-opacity:1;fill-rule:nonzero;stroke:none"
                 id="path344"
                 inkscape:connector-curvature="0" />
            </g>
            <g
               id="g346"
               transform="translate(45.1489,563.0004)">
              <path
                 d="M 0,0 C 0,0.346 0.281,0.626 0.627,0.626 0.973,0.626 1.253,0.346 1.253,0 1.253,-0.346 0.973,-0.627 0.627,-0.627 0.281,-0.627 0,-0.346 0,0"
                 style="fill:#f25c19;fill-opacity:1;fill-rule:nonzero;stroke:none"
                 id="path348"
                 inkscape:connector-curvature="0" />
            </g>
            <g
               id="g350"
               transform="translate(45.7759,562.2778)">
              <path
                 d="m 0,0 c -0.398,0 -0.723,0.324 -0.723,0.723 0,0.398 0.325,0.722 0.723,0.722 0.398,0 0.722,-0.324 0.722,-0.722 C 0.722,0.324 0.398,0 0,0 m 0,1.253 c -0.293,0 -0.531,-0.238 -0.531,-0.53 0,-0.293 0.238,-0.532 0.531,-0.532 0.293,0 0.531,0.239 0.531,0.532 0,0.292 -0.238,0.53 -0.531,0.53"
                 style="fill:#231f20;fill-opacity:1;fill-rule:nonzero;stroke:none"
                 id="path352"
                 inkscape:connector-curvature="0" />
            </g>
          </g>
        </g>
      </g>
    </g>
  </g>
</svg>
