<?xml version="1.0" encoding="UTF-8" standalone="no"?>
<svg
   xmlns:dc="http://purl.org/dc/elements/1.1/"
   xmlns:cc="http://creativecommons.org/ns#"
   xmlns:rdf="http://www.w3.org/1999/02/22-rdf-syntax-ns#"
   xmlns:svg="http://www.w3.org/2000/svg"
   xmlns="http://www.w3.org/2000/svg"
   id="svg2002"
   version="1.1"
   viewBox="0 0 52.916665 52.916668"
   height="200"
   width="200">
  <defs
     id="defs1996">
    <clipPath
       clipPathUnits="userSpaceOnUse"
       id="clipPath2185">
      <path
         d="M 0,0 H 531 V 801 H 0 Z"
         id="path2183" />
    </clipPath>
  </defs>
  <metadata
     id="metadata1999">
    <rdf:RDF>
      <cc:Work
         rdf:about="">
        <dc:format>image/svg+xml</dc:format>
        <dc:type
           rdf:resource="http://purl.org/dc/dcmitype/StillImage" />
        <dc:title></dc:title>
      </cc:Work>
    </rdf:RDF>
  </metadata>
  <g
     transform="translate(0,-244.08332)"
     id="layer1">
    <g
       transform="matrix(1.8684604,0,0,-1.8684604,-60.762332,716.38433)"
       id="g2179">
      <g
         clip-path="url(#clipPath2185)"
         id="g2181">
        <g
           transform="translate(46.6805,246.6435)"
           id="g2187">
          <path
             id="path2189"
             style="fill:#ce002a;fill-opacity:1;fill-rule:nonzero;stroke:none"
             d="m 0,0 c -4.433,0 -8.028,-3.594 -8.028,-8.028 0,-4.433 3.595,-8.029 8.028,-8.029 4.435,0 8.028,3.596 8.028,8.029 C 8.028,-3.594 4.435,0 0,0" />
        </g>
        <g
           transform="translate(46.5829,236.0967)"
           id="g2191">
          <path
             id="path2193"
             style="fill:#000000;fill-opacity:1;fill-rule:nonzero;stroke:none"
             d="M 0,0 0.633,6.676 H -1.324 L -3.051,0.23 -2.129,8.575 H -3.914 L -4.949,-3.223 h 2.301 l 1.554,5.582 -0.287,-5.582 H 0.92 L 3.395,6.676 H 6.966 C 6.917,6.758 6.866,6.836 6.814,6.917 6.423,7.512 5.952,8.047 5.422,8.517 H 2.014 Z" />
        </g>
        <g
           transform="translate(46.417,236.3379)"
           id="g2195">
          <path
             id="path2197"
             style="fill:#f5ca00;fill-opacity:1;fill-rule:nonzero;stroke:none"
             d="M 0,0 0.633,6.676 H -1.324 L -3.051,0.231 -2.129,8.574 H -3.914 L -4.949,-3.223 h 2.302 l 1.553,5.582 -0.287,-5.582 H 0.92 L 3.395,6.676 H 6.98 C 6.522,7.372 5.961,7.993 5.315,8.518 H 2.014 Z" />
        </g>
      </g>
    </g>
  </g>
</svg>
