<?xml version="1.0" encoding="UTF-8" standalone="no"?>
<!-- Created with Inkscape (http://www.inkscape.org/) -->

<svg
   xmlns:dc="http://purl.org/dc/elements/1.1/"
   xmlns:cc="http://creativecommons.org/ns#"
   xmlns:rdf="http://www.w3.org/1999/02/22-rdf-syntax-ns#"
   xmlns:svg="http://www.w3.org/2000/svg"
   xmlns="http://www.w3.org/2000/svg"
   xmlns:sodipodi="http://sodipodi.sourceforge.net/DTD/sodipodi-0.dtd"
   xmlns:inkscape="http://www.inkscape.org/namespaces/inkscape"
   width="200"
   height="200"
   viewBox="0 0 52.916666 52.916668"
   version="1.1"
   id="svg3411"
   inkscape:version="0.92.2 5c3e80d, 2017-08-06"
   sodipodi:docname="venomverse.svg">
  <defs
     id="defs3405" />
  <sodipodi:namedview
     id="base"
     pagecolor="#ffffff"
     bordercolor="#666666"
     borderopacity="1.0"
     inkscape:pageopacity="0.0"
     inkscape:pageshadow="2"
     inkscape:zoom="1.979899"
     inkscape:cx="280.91074"
     inkscape:cy="101.42136"
     inkscape:document-units="mm"
     inkscape:current-layer="layer1"
     showgrid="false"
     units="px"
     inkscape:window-width="1680"
     inkscape:window-height="938"
     inkscape:window-x="0"
     inkscape:window-y="1"
     inkscape:window-maximized="1" />
  <metadata
     id="metadata3408">
    <rdf:RDF>
      <cc:Work
         rdf:about="">
        <dc:format>image/svg+xml</dc:format>
        <dc:type
           rdf:resource="http://purl.org/dc/dcmitype/StillImage" />
        <dc:title></dc:title>
      </cc:Work>
    </rdf:RDF>
  </metadata>
  <g
     inkscape:label="Layer 1"
     inkscape:groupmode="layer"
     id="layer1"
     transform="translate(0,-244.08332)">
    <g
       id="g3442"
       transform="matrix(0.35277777,0,0,-0.35277777,65.314283,327.23808)" />
    <g
       id="g5057"
       transform="matrix(4.5850738,0,0,4.5850738,-270.26172,-929.85838)">
      <path
         inkscape:connector-curvature="0"
         id="path3484"
         style="fill:#ffffff;fill-opacity:1;fill-rule:nonzero;stroke:none;stroke-width:0.35277778"
         d="m 61.442861,261.80622 c 0,-1.80693 1.464734,-3.27131 3.271661,-3.27131 1.806575,0 3.271309,1.46438 3.271309,3.27131 0,1.80693 -1.464734,3.27096 -3.271309,3.27096 -1.806927,0 -3.271661,-1.46403 -3.271661,-3.27096" />
      <path
         inkscape:connector-curvature="0"
         id="path3486"
         style="fill:#0d0d0d;fill-opacity:1;fill-rule:nonzero;stroke:none;stroke-width:0.35277778"
         d="m 66.531892,260.23146 c -0.0956,-0.0494 -0.448733,-0.20885 -0.448733,-0.20885 0,0 0.04974,0.35948 0.05433,0.39159 0.0035,0.0219 -0.0078,0.036 -0.02293,0.0494 -0.03175,0.0275 -0.48013,0.42757 -0.53975,0.47767 -0.01164,0.01 -0.0314,0.0127 -0.04798,0.0159 -0.02469,0.004 -0.203905,0.0201 -0.268463,0.0275 -0.0254,0.003 -0.02999,0.0109 -0.02364,0.0349 0.0028,0.01 0.0056,0.0201 0.0099,0.0293 0.0095,0.0254 0.02575,0.0374 0.05891,0.0342 0.05786,-0.006 0.11677,-0.006 0.174272,0.002 0.03916,0.006 0.06915,-0.005 0.09807,-0.0254 0.123825,-0.0871 0.588434,-0.41275 0.696737,-0.4886 0.01729,-0.0127 0.02505,-0.0261 0.02152,-0.0487 -0.0078,-0.0441 -0.02328,-0.25224 -0.02328,-0.25224 0,0 0.134055,0.0871 0.185914,0.1263 0.01799,0.0141 0.03104,0.0356 0.0441,0.055 0.03493,0.0508 0.759883,1.12571 1.252714,1.85702 0.01058,-0.0628 0.01905,-0.127 0.02575,-0.1912 -0.470605,-0.72531 -1.166283,-1.79635 -1.199797,-1.84574 -0.01164,-0.0162 -0.02963,-0.0303 -0.04762,-0.0402" />
      <path
         inkscape:connector-curvature="0"
         id="path3488"
         style="fill:#0d0d0d;fill-opacity:1;fill-rule:nonzero;stroke:none;stroke-width:0.35277778"
         d="m 65.677288,261.15125 c -0.02364,0.0159 -0.0508,0.0187 -0.07867,0.0166 -0.01235,-7e-4 -0.0247,-0.002 -0.03704,-0.003 -0.06421,-10e-4 -0.128764,-0.003 -0.193322,-0.004 -0.01834,0 -0.03704,-0.004 -0.05574,-0.004 -0.01764,0 -0.02364,0.007 -0.02187,0.0247 0.0014,0.0109 0.0028,0.0222 0.0042,0.0335 0.0042,0.0381 0.01552,0.0462 0.0575,0.0483 0.05362,0.002 0.107244,0.004 0.160866,0.007 0.05398,0.004 0.10795,0.01 0.161573,0.0102 0.01976,7e-4 0.04127,-0.006 0.0575,-0.0162 0.103012,-0.0621 0.663575,-0.40711 0.663575,-0.40711 l 1.250598,1.89689 c 0.01411,-0.0441 0.02681,-0.0875 0.03951,-0.13229 l -1.26365,-1.95474 c 0,0 -0.628297,0.40534 -0.745067,0.48365" />
      <path
         inkscape:connector-curvature="0"
         id="path3490"
         style="fill:#0d0d0d;fill-opacity:1;fill-rule:nonzero;stroke:none;stroke-width:0.35277778"
         d="m 65.720786,261.39344 c -0.01976,0.01 -0.04621,0.008 -0.06915,0.007 -0.02999,-10e-4 -0.05927,-0.007 -0.08855,-0.0102 -0.03704,-0.005 -0.07373,-0.01 -0.110419,-0.013 -0.04692,-0.005 -0.09419,-0.007 -0.140759,-0.0102 -0.0028,0.0229 -0.0049,0.0462 -0.006,0.0688 -3.53e-4,0.0169 0.01164,0.0236 0.02469,0.0261 0.03881,0.0102 0.07796,0.0187 0.11677,0.0268 0.05821,0.012 0.116064,0.0229 0.173566,0.0356 0.04163,0.009 0.07973,0.006 0.118887,-0.0127 0.118886,-0.0564 0.567619,-0.25718 0.567619,-0.25718 l 1.197328,1.85844 c 0.01799,-0.0381 0.03528,-0.0762 0.05115,-0.11571 l -1.205442,-1.917 c 0,0 -0.532695,0.26529 -0.629708,0.31292" />
      <path
         inkscape:connector-curvature="0"
         id="path3492"
         style="fill:#0d0d0d;fill-opacity:1;fill-rule:nonzero;stroke:none;stroke-width:0.35277778"
         d="m 62.789414,259.98532 c 0.08678,-0.0282 0.883708,-0.28751 0.883708,-0.28751 0,0 -0.155222,0.55845 -0.179211,0.63535 -0.01164,0.0374 -0.0085,0.0688 0.02364,0.0963 0.03528,0.0296 0.358775,0.34325 0.437445,0.41663 0.01482,0.0134 0.03528,0.0229 0.05503,0.0289 0.01764,0.005 0.0381,0.003 0.05715,0.005 0.02858,10e-4 0.148872,0.0102 0.180622,0.0106 0.02152,0 0.03881,-0.008 0.04904,-0.03 0.01094,-0.0215 0.0032,-0.042 -0.0028,-0.0614 -0.0028,-0.008 -0.006,-0.0169 -0.0095,-0.0247 -0.02611,-0.0639 -0.04939,-0.12805 -0.07514,-0.19155 -0.0099,-0.0247 -0.02611,-0.0406 -0.05503,-0.0395 -7.05e-4,0 -0.02046,-0.003 -0.03457,-0.007 0.0254,-0.0307 0.191911,-0.21978 0.191911,-0.21978 l -0.02787,0.12947 c 0,0 -0.01235,0.0691 0.0078,0.1016 0.03316,0.0522 0.06491,0.10583 0.100894,0.15663 0.0032,0.005 0.0078,0.007 0.0127,0.009 0.08396,0.018 0.104775,-0.0416 0.310092,-0.0416 0.205669,0 0.226483,0.0596 0.310444,0.0416 0.0049,-0.001 0.0099,-0.004 0.0127,-0.009 0.03634,-0.0508 0.06809,-0.10442 0.100895,-0.15663 0.02011,-0.0325 0.0074,-0.1016 0.0074,-0.1016 l -0.02716,-0.12947 c 0,0 0.166511,0.18909 0.191559,0.21978 -0.01446,0.004 -0.03387,0.007 -0.03457,0.007 -0.02893,-10e-4 -0.04515,0.0148 -0.05468,0.0395 -0.02575,0.0635 -0.04939,0.1277 -0.0755,0.19085 -0.0035,0.008 -0.0063,0.0166 -0.0092,0.0254 -0.0063,0.0194 -0.01411,0.0399 -0.0032,0.0614 0.01058,0.0215 0.02787,0.03 0.04939,0.03 0.0314,-3.5e-4 0.151694,-0.009 0.180269,-0.0106 0.0194,-0.001 0.03951,0 0.0575,-0.005 0.0194,-0.006 0.04022,-0.0155 0.05433,-0.0289 0.07867,-0.0734 0.402519,-0.387 0.43815,-0.41663 0.03175,-0.0275 0.03493,-0.0589 0.02328,-0.0963 -0.02364,-0.0769 -0.179211,-0.63535 -0.179211,-0.63535 0,0 0.796925,0.25929 0.884061,0.28751 0.02187,0.007 0.03669,0.0208 0.04939,0.0395 0.04127,0.0589 0.665339,0.97861 1.099256,1.6182 -0.03951,-0.7613 -0.354895,-1.47109 -0.898173,-2.01437 -0.58173,-0.58137 -1.355372,-0.9017 -2.178049,-0.9017 -0.822678,0 -1.59632,0.32033 -2.178403,0.9017 -0.543984,0.54399 -0.859367,1.25589 -0.89782,2.01825 0.433917,-0.6403 1.06045,-1.56316 1.102078,-1.62208 0.0127,-0.0187 0.02716,-0.0328 0.04939,-0.0395" />
      <path
         inkscape:connector-curvature="0"
         id="path3494"
         style="fill:#0d0d0d;fill-opacity:1;fill-rule:nonzero;stroke:none;stroke-width:0.35277778"
         d="m 62.974093,260.39666 c 0.05186,-0.0395 0.185561,-0.12629 0.185561,-0.12629 0,0 -0.01517,0.20778 -0.02258,0.25223 -0.0039,0.0226 0.0042,0.036 0.02117,0.0487 0.108656,0.0755 0.572911,0.40146 0.696383,0.48824 0.02928,0.0208 0.05962,0.0314 0.09843,0.0254 0.0575,-0.008 0.116417,-0.008 0.174273,-0.002 0.03351,0.003 0.04939,-0.009 0.05927,-0.0342 0.0035,-0.01 0.0071,-0.0194 0.0095,-0.0293 0.0064,-0.0243 0.0014,-0.0325 -0.02399,-0.0349 -0.06421,-0.007 -0.243063,-0.0233 -0.268111,-0.0275 -0.01658,-0.003 -0.03634,-0.006 -0.04833,-0.0159 -0.05962,-0.0504 -0.507295,-0.4505 -0.539045,-0.47766 -0.01552,-0.0134 -0.02646,-0.0275 -0.02328,-0.0497 0.0049,-0.0321 0.05468,-0.39123 0.05468,-0.39123 0,0 -0.353484,0.1591 -0.449086,0.20884 -0.01834,0.01 -0.03634,0.024 -0.04762,0.0402 -0.03387,0.0501 -0.731309,1.1236 -1.201914,1.84891 0.0063,0.0642 0.01517,0.1277 0.02575,0.1912 0.493184,-0.73095 1.219906,-1.80869 1.254831,-1.86019 0.01341,-0.0194 0.02611,-0.0409 0.0441,-0.055" />
      <path
         inkscape:connector-curvature="0"
         id="path3496"
         style="fill:#0d0d0d;fill-opacity:1;fill-rule:nonzero;stroke:none;stroke-width:0.35277778"
         d="m 65.763578,261.66504 c -0.01164,0.005 -0.0254,0.009 -0.03775,0.007 -0.05786,-0.007 -0.115005,-0.024 -0.17145,-0.0307 -0.07267,-0.009 -0.144286,-0.0261 -0.214489,-0.0469 -0.05292,-0.0155 -0.06632,-0.0141 -0.08361,0.0314 -0.0046,0.012 -0.01023,0.024 -0.01658,0.0356 -0.02152,0.0392 -0.04586,0.0776 -0.06738,0.11677 -0.01552,0.0275 -0.01341,0.0402 0.0099,0.0625 0.02328,0.0219 0.333728,0.30903 0.367241,0.3376 0.02611,0.0229 0.04233,0.0462 0.03916,0.0836 -0.006,0.0857 -0.0081,0.17216 -0.01199,0.25788 -0.0021,0.0413 -0.0046,0.0833 -0.0078,0.12489 -0.0042,0.0621 -0.0095,0.12523 -0.01446,0.18732 -0.0018,0.0208 -0.0025,0.042 -0.0049,0.0628 -0.0056,0.055 -0.01164,0.1083 -0.01799,0.16263 -0.0049,0.0448 -0.0092,0.0889 -0.01623,0.13299 -0.0067,0.049 -0.01552,0.097 -0.0254,0.14535 -0.0088,0.0427 -0.01588,0.0868 -0.03246,0.127 -0.03351,0.0804 -0.07937,0.15522 -0.13088,0.22613 -0.04798,0.0656 -0.301625,0.34255 -0.301625,0.34255 0,0 0.03493,-0.133 0.05292,-0.18945 0.0053,-0.018 0.0081,-0.0367 0.0095,-0.0561 7.05e-4,-0.005 -0.0095,-0.0155 -0.01376,-0.0148 -0.01623,0.002 -0.188383,0.0702 -0.358069,0.0702 -0.169686,0 -0.341489,-0.0681 -0.35807,-0.0702 -0.0039,-7.1e-4 -0.01446,0.0102 -0.01411,0.0148 0.0014,0.0194 0.0046,0.0381 0.01023,0.0561 0.01764,0.0565 0.05256,0.18945 0.05256,0.18945 0,0 -0.253648,-0.27694 -0.301978,-0.34255 -0.05151,-0.0709 -0.09701,-0.1457 -0.130528,-0.22613 -0.01658,-0.0402 -0.02364,-0.0843 -0.03245,-0.127 -0.01023,-0.0483 -0.01834,-0.0963 -0.02575,-0.14535 -0.0067,-0.0441 -0.01094,-0.0882 -0.01623,-0.13299 -0.006,-0.0543 -0.01235,-0.1076 -0.01799,-0.16263 -0.0021,-0.0208 -0.0025,-0.042 -0.0042,-0.0628 -0.0053,-0.0621 -0.01058,-0.12524 -0.01517,-0.18732 -0.0035,-0.0515 -0.0067,-0.10231 -0.0088,-0.15382 -0.0028,-0.0783 -0.0092,-0.15663 -0.01129,-0.23424 -7.05e-4,-0.0346 0.01517,-0.0568 0.03986,-0.0783 0.03387,-0.0286 0.344311,-0.31573 0.367242,-0.3376 0.02293,-0.0222 0.0254,-0.0349 0.0099,-0.0625 -0.02187,-0.0391 -0.04586,-0.0776 -0.06773,-0.11677 -0.006,-0.0116 -0.01129,-0.0236 -0.01623,-0.0363 -0.01729,-0.0448 -0.03069,-0.0462 -0.08361,-0.0307 -0.0702,0.0208 -0.141817,0.0381 -0.214136,0.0469 -0.05715,0.007 -0.113947,0.024 -0.171803,0.0307 -0.01235,10e-4 -0.02611,-0.003 -0.03775,-0.007 -0.149931,-0.0557 -0.4953,-0.17992 -0.4953,-0.17992 0,0 -0.627944,1.03294 -1.128536,1.85773 0.133703,0.23072 0.29845,0.44662 0.492478,0.64064 0.58173,0.58138 1.355372,0.9017 2.17805,0.9017 0.822677,0 1.596319,-0.32032 2.17805,-0.9017 0.194733,-0.19438 0.359833,-0.41063 0.493889,-0.64276 -0.500239,-0.82409 -1.127125,-1.85561 -1.127125,-1.85561 0,0 -0.34537,0.12418 -0.4953,0.17992" />
      <path
         inkscape:connector-curvature="0"
         id="path3498"
         style="fill:#0d0d0d;fill-opacity:1;fill-rule:nonzero;stroke:none;stroke-width:0.35277778"
         d="m 63.691185,261.51183 c 0.03916,0.0187 0.07726,0.0222 0.118886,0.0127 0.0575,-0.0127 0.115711,-0.0233 0.173214,-0.0353 0.03916,-0.008 0.07832,-0.0169 0.117122,-0.0268 0.0127,-0.003 0.0254,-0.01 0.02469,-0.0261 -0.0011,-0.0229 -0.0032,-0.0462 -0.006,-0.0691 -0.04692,0.003 -0.09419,0.005 -0.140406,0.0102 -0.03739,0.003 -0.07408,0.009 -0.110772,0.0134 -0.02963,0.003 -0.05891,0.008 -0.08855,0.01 -0.02293,7.1e-4 -0.04974,0.003 -0.06914,-0.007 -0.09737,-0.0473 -0.630062,-0.31291 -0.630062,-0.31291 l -1.206852,1.91982 c 0.01658,0.0388 0.03351,0.0776 0.05115,0.11571 l 1.199092,-1.8609 c 0,0 0.448733,0.20073 0.56762,0.25682" />
      <path
         inkscape:connector-curvature="0"
         id="path3500"
         style="fill:#0d0d0d;fill-opacity:1;fill-rule:nonzero;stroke:none;stroke-width:0.35277778"
         d="m 63.698205,261.26499 c 0.01623,0.01 0.03845,0.0166 0.0575,0.0162 0.05433,-7.1e-4 0.10795,-0.007 0.162277,-0.0102 0.05327,-0.003 0.106539,-0.005 0.160514,-0.007 0.04198,-0.002 0.05327,-0.01 0.05786,-0.048 0.0014,-0.0113 0.0028,-0.0229 0.0035,-0.0335 0.0021,-0.0173 -0.0039,-0.0247 -0.02152,-0.0247 -0.0187,0 -0.03704,0.003 -0.05609,0.003 -0.06385,10e-4 -0.128763,0.003 -0.192969,0.004 -0.01235,3.5e-4 -0.02469,0.002 -0.03704,0.003 -0.02752,0.002 -0.05468,-7.1e-4 -0.07867,-0.0166 -0.117122,-0.0783 -0.745067,-0.48365 -0.745067,-0.48365 l -1.265061,1.95721 c 0.01199,0.0448 0.0254,0.0882 0.03951,0.13194 l 1.252361,-1.89936 c 0,0 0.560211,0.34537 0.66287,0.40746" />
    </g>
    <text
       style="font-variant:normal;font-weight:bold;font-size:2.29305553px;font-family:TradeGothic;-inkscape-font-specification:TradeGothic-Bold;writing-mode:lr-tb;fill:#fbbc09;fill-opacity:1;fill-rule:nonzero;stroke:none;stroke-width:0.35277778"
       id="text3992"
       x="224.52148"
       y="87.276489">
      <tspan
         x="224.52148"
         y="87.276489"
         id="tspan3990"
         style="stroke-width:0.35277778">®</tspan>
    </text>
  </g>
</svg>
