<?xml version="1.0" encoding="UTF-8" standalone="no"?>
<!-- Created with Inkscape (http://www.inkscape.org/) -->

<svg
   xmlns:dc="http://purl.org/dc/elements/1.1/"
   xmlns:cc="http://creativecommons.org/ns#"
   xmlns:rdf="http://www.w3.org/1999/02/22-rdf-syntax-ns#"
   xmlns:svg="http://www.w3.org/2000/svg"
   xmlns="http://www.w3.org/2000/svg"
   xmlns:sodipodi="http://sodipodi.sourceforge.net/DTD/sodipodi-0.dtd"
   xmlns:inkscape="http://www.inkscape.org/namespaces/inkscape"
   width="200"
   height="200"
   viewBox="0 0 52.916666 52.916666"
   version="1.1"
   id="svg6613"
   inkscape:version="0.92.4 (5da689c313, 2019-01-14)"
   sodipodi:docname="Instinct.svg">
  <defs
     id="defs6607" />
  <sodipodi:namedview
     id="base"
     pagecolor="#ffffff"
     bordercolor="#666666"
     borderopacity="1.0"
     inkscape:pageopacity="0.0"
     inkscape:pageshadow="2"
     inkscape:zoom="1.979899"
     inkscape:cx="215.7507"
     inkscape:cy="193.1392"
     inkscape:document-units="mm"
     inkscape:current-layer="layer1"
     showgrid="false"
     units="px"
     inkscape:window-width="1842"
     inkscape:window-height="1057"
     inkscape:window-x="70"
     inkscape:window-y="-8"
     inkscape:window-maximized="1" />
  <metadata
     id="metadata6610">
    <rdf:RDF>
      <cc:Work
         rdf:about="">
        <dc:format>image/svg+xml</dc:format>
        <dc:type
           rdf:resource="http://purl.org/dc/dcmitype/StillImage" />
        <dc:title></dc:title>
      </cc:Work>
    </rdf:RDF>
  </metadata>
  <g
     inkscape:label="Layer 1"
     inkscape:groupmode="layer"
     id="layer1"
     transform="translate(0,-244.08334)">
    <g
       id="g6238"
       transform="matrix(2.0075877,0,0,-2.0075877,-1314.182,1200.797)">
      <g
         id="g6228">
        <g
           id="g6219">
          <g
             transform="translate(669.24071,454.70151)"
             id="g5455">
            <path
               inkscape:connector-curvature="0"
               id="path5457"
               style="fill:#f9b00b;fill-opacity:1;fill-rule:nonzero;stroke:none"
               d="m 0,0 c 0,0 -1.531,0.505 -3.122,1.035 -1.597,0.53 -3.222,1.073 -3.493,1.178 -0.031,0.016 -0.017,-10e-4 -0.101,0.049 -0.166,0.118 -0.18,0.235 -0.195,0.285 -0.011,0.057 -0.011,0.087 -0.011,0.113 0.005,0.191 0.051,0.374 0.116,0.664 0.065,0.276 0.15,0.608 0.234,0.93 0.107,0.404 0.214,0.791 0.278,1.022 -0.381,0.454 -1.43,1.696 -2.107,2.464 -0.237,0.268 -0.449,0.495 -0.518,0.563 -0.046,0.025 -0.082,0.056 -0.103,0.082 -0.056,0.064 -0.073,0.107 -0.086,0.139 -0.022,0.063 -0.024,0.089 -0.027,0.114 -0.006,0.045 -0.006,0.071 -0.006,0.103 0.003,0.363 0.132,1.533 0.262,2.674 0.129,1.13 0.259,2.186 0.259,2.187 l 0.017,0.138 2.813,3.019 0.178,0.005 c 0.004,0 5.188,0.139 6.704,0.14 0.181,-0.001 0.304,-0.002 0.392,-0.008 0.041,-0.007 0.037,0.007 0.159,-0.031 0.031,-0.023 0.099,-0.016 0.201,-0.16 l 10e-4,0.001 C 1.849,16.703 4.574,12.771 5.419,11.441 5.543,11.245 5.62,11.121 5.674,11.008 5.686,10.964 5.712,10.965 5.724,10.797 5.723,10.759 5.723,10.695 5.678,10.603 L 5.665,10.578 5.651,10.557 C 5.612,10.499 5.561,10.436 5.477,10.327 5.396,10.223 5.296,10.095 5.195,9.971 5.132,9.891 5.069,9.813 5.014,9.743 L 6.674,7.563 5.439,6.521 4.742,4.514 V 2.893 L 1.733,2.124 0.316,-0.104 Z m 1.491,16.46 0.004,0.003 0.381,0.193 -0.381,-0.193 z" />
          </g>
          <g
             transform="translate(674.32651,462.43919)"
             id="g5459">
            <path
               inkscape:connector-curvature="0"
               id="path5461"
               style="fill:#6f878e;fill-opacity:1;fill-rule:nonzero;stroke:none"
               d="m 0,0 -1.539,2.021 c 0,0 0.706,0.888 0.872,1.098 -0.089,0.14 -0.2,0.309 -0.326,0.5 -0.355,0.535 -0.829,1.236 -1.301,1.93 -0.68,0.997 -1.358,1.98 -1.689,2.459 l -0.01,0.001 c -1.269,0 -5.234,-0.103 -6.368,-0.132 l -2.225,-2.389 c -0.044,-0.372 -0.137,-1.138 -0.228,-1.943 -0.103,-0.876 -0.203,-1.826 -0.241,-2.296 0.088,-0.093 0.193,-0.208 0.313,-0.343 0.28,-0.314 0.639,-0.729 0.993,-1.144 0.563,-0.656 1.116,-1.311 1.403,-1.652 l 0.247,-0.296 -0.043,-0.153 c 0,0 -0.245,-0.873 -0.38,-1.383 -0.082,-0.305 -0.166,-0.638 -0.231,-0.907 l 0.49,-0.166 c 0.622,-0.212 5,-1.664 5,-1.664 l 1.178,1.854 2.585,0.661 0.014,0.965 0.851,2.443 z m -9.062,-2.019 -0.731,-0.191 -2.243,7.61 1.722,0.484 2.242,-7.612 z m 4.421,-0.221 -1.566,0.467 v -0.031 l -1.796,0.022 -0.033,7.912 0.519,0.013 1.365,-0.006 -0.054,-7.659 2.332,7.337 1.636,-0.488 z" />
          </g>
          <g
             transform="translate(673.1703,464.4568)"
             id="g5463">
            <path
               inkscape:connector-curvature="0"
               id="path5465"
               style="fill:#231f20;fill-opacity:1;fill-rule:nonzero;stroke:none"
               d="m 0,0 0.207,0.262 c 0.003,0 0.414,0.517 0.651,0.819 C 0.853,1.091 0.846,1.102 0.84,1.112 0.738,1.274 0.593,1.501 0.415,1.769 0.06,2.305 -0.414,3.007 -0.888,3.702 c -0.749,1.098 -1.496,2.18 -1.78,2.59 -0.049,0 -0.105,0.001 -0.169,0.001 -1.323,0 -5.576,-0.111 -6.502,-0.135 l -2.378,-2.553 c -0.039,-0.321 -0.141,-1.158 -0.241,-2.042 -0.114,-0.974 -0.226,-2.038 -0.252,-2.444 0.015,-0.015 0.029,-0.03 0.045,-0.046 0.093,-0.097 0.213,-0.228 0.354,-0.386 0.278,-0.312 0.637,-0.725 0.989,-1.139 0.707,-0.825 1.399,-1.649 1.4,-1.65 l 0.145,-0.173 -0.062,-0.218 c 0,-10e-4 -0.157,-0.557 -0.319,-1.168 -0.113,-0.421 -0.23,-0.895 -0.294,-1.184 0.186,-0.065 0.444,-0.152 0.748,-0.254 0.623,-0.212 1.448,-0.486 2.269,-0.759 1.205,-0.401 2.404,-0.797 2.957,-0.98 l 1.241,1.953 2.693,0.688 v 1.101 l 0.823,2.364 0.793,0.669 z m -7.982,-3.745 -0.448,-0.116 -2.074,7.035 1.141,0.321 2.073,-7.036 z m 2.63,0.229 -1.194,0.015 -0.031,7.319 0.224,0.006 1.052,-0.005 z m 1.67,-0.367 -1.059,0.315 2.222,6.991 1.056,-0.315 z" />
          </g>
        </g>
      </g>
    </g>
  </g>
</svg>
