<?xml version="1.0" encoding="UTF-8" standalone="no"?>
<!-- Created with Inkscape (http://www.inkscape.org/) -->

<svg
   xmlns:dc="http://purl.org/dc/elements/1.1/"
   xmlns:cc="http://creativecommons.org/ns#"
   xmlns:rdf="http://www.w3.org/1999/02/22-rdf-syntax-ns#"
   xmlns:svg="http://www.w3.org/2000/svg"
   xmlns="http://www.w3.org/2000/svg"
   xmlns:sodipodi="http://sodipodi.sourceforge.net/DTD/sodipodi-0.dtd"
   xmlns:inkscape="http://www.inkscape.org/namespaces/inkscape"
   width="200"
   height="200"
   viewBox="0 0 52.916666 52.916666"
   version="1.1"
   id="svg6613"
   inkscape:version="0.92.4 (5da689c313, 2019-01-14)"
   sodipodi:docname="Tech.svg">
  <defs
     id="defs6607" />
  <sodipodi:namedview
     id="base"
     pagecolor="#ffffff"
     bordercolor="#666666"
     borderopacity="1.0"
     inkscape:pageopacity="0.0"
     inkscape:pageshadow="2"
     inkscape:zoom="1.979899"
     inkscape:cx="206.83941"
     inkscape:cy="193.1392"
     inkscape:document-units="mm"
     inkscape:current-layer="layer1"
     showgrid="false"
     units="px"
     inkscape:window-width="1842"
     inkscape:window-height="1057"
     inkscape:window-x="70"
     inkscape:window-y="-8"
     inkscape:window-maximized="1" />
  <metadata
     id="metadata6610">
    <rdf:RDF>
      <cc:Work
         rdf:about="">
        <dc:format>image/svg+xml</dc:format>
        <dc:type
           rdf:resource="http://purl.org/dc/dcmitype/StillImage" />
        <dc:title></dc:title>
      </cc:Work>
    </rdf:RDF>
  </metadata>
  <g
     inkscape:label="Layer 1"
     inkscape:groupmode="layer"
     id="layer1"
     transform="translate(0,-244.08334)">
    <g
       id="g6280"
       transform="matrix(2.272402,0,0,-2.272402,-1489.4292,1035.4354)">
      <g
         id="g6272">
        <g
           id="g6265">
          <g
             transform="translate(674.07201,328.0974)"
             id="g5505">
            <path
               inkscape:connector-curvature="0"
               id="path5507"
               style="fill:#a7a5a6;fill-opacity:1;fill-rule:nonzero;stroke:none"
               d="m 0,0 h -13.972 l 10e-4,17.007 13.97,10e-4 z" />
          </g>
          <g
             transform="translate(673.5099,344.62061)"
             id="g5517">
            <path
               inkscape:connector-curvature="0"
               id="path5519"
               style="fill:#231f20;fill-opacity:1;fill-rule:nonzero;stroke:none"
               d="m 0,0 h -12.903 l 0.001,-16.031 0.867,0.002 -0.009,3.093 2.165,0.005 0.007,-1.6 -0.673,-0.003 0.006,-1.492 1.431,0.005 -0.008,3.091 2.258,0.008 0.003,-1.6 -0.616,-0.003 0.005,-1.49 1.379,0.003 -0.008,3.093 2.257,0.007 0.004,-1.603 -0.566,-10e-4 0.004,-1.493 1.331,0.006 -0.008,3.093 2.283,0.006 0.003,-1.602 -0.542,-10e-4 0.006,-1.492 1.322,0.004 z m -4.031,-8.436 c -0.284,-0.003 -0.513,0.228 -0.514,0.51 -0.002,0.283 0.229,0.512 0.511,0.515 0.284,10e-4 0.512,-0.229 0.512,-0.513 0.004,-0.282 -0.227,-0.512 -0.509,-0.512 m 3.238,-3.644 -1.47,-0.003 -0.006,2.633 0.995,1.905 0.47,0.002 z m -0.013,5.033 -0.766,-0.005 -1.193,-2.275 0.007,-2.757 -0.923,-0.002 -0.008,3.08 c 0.461,0.15 0.799,0.587 0.795,1.099 0,0.269 -0.092,0.516 -0.249,0.712 l 0.604,1.104 1.73,0.005 z m -0.006,1.619 -2.117,-0.005 -0.757,-1.381 c -0.117,0.038 -0.237,0.06 -0.365,0.057 -0.636,-0.002 -1.153,-0.519 -1.152,-1.156 0.002,-0.531 0.364,-0.978 0.854,-1.111 l 0.009,-3.066 h -0.562 l -0.005,1.965 -0.599,0.657 c 0.164,0.196 0.268,0.451 0.266,0.729 0,0.623 -0.508,1.127 -1.132,1.123 -0.624,0 -1.125,-0.505 -1.122,-1.129 10e-4,-0.62 0.506,-1.126 1.129,-1.124 0.195,0.002 0.378,0.051 0.539,0.139 l -0.063,-0.056 0.488,-0.531 0.005,-1.775 -6.648,-0.02 -0.014,5.388 0.671,0.003 0.966,-1.673 c -0.338,-0.318 -0.55,-0.766 -0.549,-1.267 0.003,-0.956 0.782,-1.732 1.735,-1.728 0.957,0.004 1.73,0.782 1.729,1.739 -0.002,0.955 -0.782,1.727 -1.739,1.725 -0.217,-0.001 -0.425,-0.044 -0.616,-0.118 l -1.148,1.981 -1.05,-0.003 -0.011,3.894 0.794,-0.821 0.002,-0.955 c -0.378,-0.099 -0.661,-0.444 -0.657,-0.853 10e-4,-0.486 0.394,-0.877 0.88,-0.875 0.486,0.002 0.879,0.396 0.876,0.883 0,0.447 -0.336,0.812 -0.771,0.864 l -10e-4,1.07 -1.125,1.164 -0.001,0.832 h 0.232 l 1.96,-2.039 c -0.145,-0.327 -0.227,-0.688 -0.226,-1.067 0.004,-1.46 1.189,-2.636 2.646,-2.633 1.298,0.005 2.372,0.945 2.592,2.181 l 2.645,0.009 1.409,0.971 z m -4.923,-3.311 c -10e-4,-0.349 -0.282,-0.633 -0.63,-0.635 -0.35,0 -0.633,0.283 -0.635,0.629 0,0.351 0.283,0.634 0.63,0.637 0.35,0 0.634,-0.282 0.635,-0.631 m -4.408,-0.92 c 0,0.499 0.402,0.901 0.898,0.903 0.498,10e-4 0.904,-0.401 0.904,-0.899 10e-4,-0.496 -0.4,-0.9 -0.898,-0.901 -0.498,-0.001 -0.902,0.401 -0.904,0.897 m -0.912,5.413 c 0.305,0.001 0.553,-0.244 0.553,-0.55 0.001,-0.302 -0.245,-0.548 -0.549,-0.55 -0.304,-0.001 -0.551,0.243 -0.549,0.546 -0.003,0.307 0.242,0.553 0.545,0.554 m 1.987,0.254 c -0.003,0.871 0.702,1.582 1.574,1.585 0.873,0.002 1.583,-0.705 1.585,-1.575 0.005,-0.873 -0.701,-1.585 -1.576,-1.587 -0.871,-0.003 -1.581,0.703 -1.583,1.577 m 8.248,1.552 -1.663,-1.151 -2.376,-0.006 c -0.176,1.289 -1.282,2.28 -2.615,2.277 -0.774,-0.005 -1.467,-0.341 -1.947,-0.868 l -1.28,1.331 4.954,0.013 1.441,-1.815 1.843,0.005 1.641,1.057 z m -0.003,1.428 -1.786,-1.148 -1.46,-0.004 -1.046,1.323 4.292,0.012 z m -5.066,-8.774 z" />
          </g>
        </g>
      </g>
    </g>
  </g>
</svg>
